<svg width="24" height="24" viewBox="0 0 24 24" fill="none" xmlns="http://www.w3.org/2000/svg">
<path d="M19.27 3.64844L14.17 8.74844H3.2C2.54 8.74844 2 8.20844 2 7.54844V7.53844C2 5.24844 3.85 3.39844 6.14 3.39844H17.85C18.35 3.39844 18.83 3.48844 19.27 3.64844Z" fill="currentColor"/>
<path d="M12.67 10.25L7.17 15.75H6C5.59 15.75 5.25 16.09 5.25 16.5C5.25 16.81 5.45 17.09 5.73 17.19L3.38 19.54C2.53 18.79 2 17.69 2 16.46V11.45C2 10.79 2.54 10.25 3.2 10.25H12.67Z" fill="currentColor"/>
<path d="M21.9997 11V16.46C21.9997 18.75 20.1497 20.6 17.8597 20.6H8.80968C7.91968 20.6 7.46968 19.52 8.09968 18.89L9.44968 17.54C9.63968 17.35 9.88968 17.25 10.1597 17.25H14.4997C14.9097 17.25 15.2497 16.91 15.2497 16.5C15.2497 16.09 14.9097 15.75 14.4997 15.75H13.6597C12.7697 15.75 12.3197 14.67 12.9497 14.04L16.4097 10.58C16.7897 10.21 17.2997 10 17.8297 10H20.9997C21.5497 10 21.9997 10.45 21.9997 11Z" fill="currentColor"/>
<path d="M21.7699 2.22891C21.4699 1.92891 20.9799 1.92891 20.6799 2.22891L2.22988 20.6889C1.92988 20.9889 1.92988 21.4789 2.22988 21.7789C2.37988 21.9189 2.56988 21.9989 2.76988 21.9989C2.96988 21.9989 3.15988 21.9189 3.30988 21.7689L21.7699 3.30891C22.0799 3.00891 22.0799 2.52891 21.7699 2.22891Z" fill="currentColor"/>
<path d="M21.7696 3.30859L20.6096 4.46859L16.3296 8.74859L3.30957 21.7686C3.15957 21.9186 2.96957 21.9986 2.76957 21.9986C2.56957 21.9986 2.37957 21.9186 2.22957 21.7686C1.91957 21.4686 1.91957 20.9886 2.22957 20.6886L3.37957 19.5386L5.72957 17.1886L19.2696 3.64859L20.6896 2.22859C20.9896 1.91859 21.4696 1.91859 21.7696 2.22859C22.0796 2.52859 22.0796 3.00859 21.7696 3.30859Z" fill="currentColor"/>
<path d="M21.9996 7.41026C21.9996 6.52026 20.9196 6.07026 20.2896 6.70026L19.9996 7.00026L19.7096 7.29026C19.0796 7.92026 19.5196 9.00026 20.4096 9.00026H20.9996C21.5496 9.00026 21.9996 8.55026 21.9996 8.00026V7.41026Z" fill="currentColor"/>
</svg>
