<svg width="24" height="24" viewBox="0 0 24 24" fill="none" xmlns="http://www.w3.org/2000/svg">
<path d="M13.49 13.3789H11C10.7 13.3789 10.46 13.6189 10.46 13.9189C10.46 14.2189 10.7 14.4589 11 14.4589H13.49C13.79 14.4589 14.03 14.2189 14.03 13.9189C14.03 13.6189 13.79 13.3789 13.49 13.3789Z" fill="currentColor"/>
<path d="M9.44039 13.3789H8.19039C7.89039 13.3789 7.65039 13.6189 7.65039 13.9189C7.65039 14.2189 7.89039 14.4589 8.19039 14.4589H9.44039C9.74039 14.4589 9.98039 14.2189 9.98039 13.9189C9.98039 13.6189 9.74039 13.3789 9.44039 13.3789Z" fill="currentColor"/>
<path d="M18.5398 4.22141L13.0398 2.16141C12.4698 1.95141 11.5398 1.95141 10.9698 2.16141L5.4698 4.22141C4.4098 4.62141 3.5498 5.86141 3.5498 6.99141V15.0914C3.5498 15.9014 4.0798 16.9714 4.7298 17.4514L10.2298 21.5614C11.1998 22.2914 12.7898 22.2914 13.7598 21.5614L19.2598 17.4514C19.9098 16.9614 20.4398 15.9014 20.4398 15.0914V6.99141C20.4498 5.86141 19.5898 4.62141 18.5398 4.22141ZM18.1698 13.6514C18.1498 15.7214 17.5798 16.2414 15.4298 16.2414H8.5798C6.3898 16.2414 5.8398 15.7014 5.8398 13.5314V11.2014C5.8398 10.9214 6.0598 10.7014 6.3398 10.7014H17.6698C17.9498 10.7014 18.1698 10.9214 18.1698 11.2014V13.6514ZM18.1698 9.11141C18.1698 9.39141 17.9498 9.61141 17.6698 9.61141H6.3398C6.0598 9.61141 5.8398 9.39141 5.8398 9.11141V8.47141C5.8398 6.51141 6.2998 5.88141 8.0098 5.77141C8.1898 5.77141 8.3798 5.76141 8.5798 5.76141H15.4298C17.6198 5.76141 18.1698 6.30141 18.1698 8.47141V9.11141Z" fill="currentColor"/>
</svg>
