<svg width="24" height="24" viewBox="0 0 24 24" fill="none" xmlns="http://www.w3.org/2000/svg">
<path d="M17.1897 4.96C17.1897 4.97 17.1897 4.97 17.1897 4.98C16.9397 4.97 16.6897 4.96 16.4197 4.96H8.71973L9.78973 3.9C10.7697 2.91 11.8497 2 13.0997 2C14.3597 2 15.4397 2.91 16.4197 3.9L16.9797 4.46C17.1197 4.59 17.1897 4.77 17.1897 4.96Z" fill="currentColor"/>
<path d="M20.84 13.1692C21.23 13.1692 21.54 12.8492 21.54 12.4492V11.5692C21.54 7.63922 20.34 6.44922 16.42 6.44922H10.12H7.57996C3.65996 6.44922 2.45996 7.64922 2.45996 11.5692V11.9992C2.45996 12.3992 2.76996 12.7092 3.15996 12.7092C3.99996 12.7092 4.66996 13.3892 4.66996 14.2192C4.66996 15.0492 3.99996 15.7392 3.15996 15.7392C2.76996 15.7392 2.45996 16.0492 2.45996 16.4492V16.8792C2.45996 20.8092 3.65996 21.9992 7.57996 21.9992H10.11H16.41C20.33 21.9992 21.53 20.7992 21.53 16.8792C21.53 16.4892 21.22 16.1692 20.83 16.1692C19.99 16.1692 19.32 15.4992 19.32 14.6692C19.33 13.8392 20 13.1692 20.84 13.1692ZM10.82 18.8592C10.82 19.2492 10.5 19.5692 10.11 19.5692C9.71996 19.5692 9.39996 19.2492 9.39996 18.8592V16.1792C9.39996 15.7892 9.71996 15.4692 10.11 15.4692C10.5 15.4692 10.82 15.7892 10.82 16.1792V18.8592ZM10.82 12.2692C10.82 12.6592 10.5 12.9792 10.11 12.9792C9.71996 12.9792 9.39996 12.6592 9.39996 12.2692V9.58922C9.39996 9.19922 9.71996 8.87922 10.11 8.87922C10.5 8.87922 10.82 9.19922 10.82 9.58922V12.2692Z" fill="currentColor"/>
</svg>
