<svg width="24" height="24" viewBox="0 0 24 24" fill="none" xmlns="http://www.w3.org/2000/svg">
<path d="M16.6496 3.85938H9.90963V6.87938C9.90963 7.26938 9.58963 7.57938 9.20963 7.57938C8.82963 7.57938 8.50963 7.26938 8.50963 6.87938V3.85938H7.34963C3.39963 3.85938 2.09963 5.03937 2.00963 8.72937C1.99963 8.90937 2.07963 9.09937 2.20963 9.22937C2.33963 9.36937 2.50963 9.43937 2.70963 9.43937C4.10963 9.43937 5.25963 10.5994 5.25963 11.9994C5.25963 13.3994 4.10963 14.5594 2.70963 14.5594C2.51963 14.5594 2.33963 14.6294 2.20963 14.7694C2.07963 14.8994 1.99963 15.0894 2.00963 15.2694C2.09963 18.9594 3.39963 20.1394 7.34963 20.1394H8.50963V17.1194C8.50963 16.7294 8.82963 16.4194 9.20963 16.4194C9.58963 16.4194 9.90963 16.7294 9.90963 17.1194V20.1394H16.6496C20.7496 20.1394 21.9996 18.8894 21.9996 14.7894V9.20938C21.9996 5.10938 20.7496 3.85938 16.6496 3.85938ZM18.4696 11.8994L17.5396 12.7994C17.4996 12.8294 17.4896 12.8894 17.4996 12.9394L17.7196 14.2094C17.7596 14.4394 17.6696 14.6794 17.4696 14.8194C17.2796 14.9594 17.0296 14.9794 16.8196 14.8694L15.6696 14.2694C15.6296 14.2494 15.5696 14.2494 15.5296 14.2694L14.3796 14.8694C14.2896 14.9194 14.1896 14.9394 14.0896 14.9394C13.9596 14.9394 13.8396 14.8994 13.7296 14.8194C13.5396 14.6794 13.4396 14.4494 13.4796 14.2094L13.6996 12.9394C13.7096 12.8894 13.6896 12.8394 13.6596 12.7994L12.7296 11.8994C12.5596 11.7394 12.4996 11.4894 12.5696 11.2694C12.6396 11.0394 12.8296 10.8794 13.0696 10.8494L14.3496 10.6594C14.3996 10.6494 14.4396 10.6194 14.4696 10.5794L15.0396 9.41938C15.1496 9.20938 15.3596 9.07938 15.5996 9.07938C15.8396 9.07938 16.0496 9.20938 16.1496 9.41938L16.7196 10.5794C16.7396 10.6294 16.7796 10.6594 16.8296 10.6594L18.1096 10.8494C18.3496 10.8794 18.5396 11.0494 18.6096 11.2694C18.6996 11.4894 18.6396 11.7294 18.4696 11.8994Z" fill="currentColor"/>
</svg>
