<svg width="24" height="24" viewBox="0 0 24 24" fill="none" xmlns="http://www.w3.org/2000/svg">
<path d="M15.61 5.49953V15.6595C15.61 16.0595 15.49 16.4495 15.27 16.7795L12.54 20.8395C12.11 21.4895 11.04 21.9495 10.13 21.6095C9.15002 21.2795 8.50002 20.1795 8.71002 19.1995L9.23002 15.9295C9.27002 15.6295 9.19002 15.3595 9.02002 15.1495C8.85002 14.9595 8.60002 14.8395 8.33002 14.8395H4.22002C3.43002 14.8395 2.75002 14.5195 2.35002 13.9595C1.97002 13.4195 1.90002 12.7195 2.15002 12.0095L4.61002 4.51953C4.92002 3.27953 6.27002 2.26953 7.61002 2.26953H11.51C12.18 2.26953 13.12 2.49953 13.55 2.92953L14.83 3.91953C15.32 4.29953 15.61 4.87953 15.61 5.49953Z" fill="currentColor"/>
<path d="M18.7899 17.6084H19.8199C21.3699 17.6084 21.9999 17.0084 21.9999 15.5284V5.47844C21.9999 3.99844 21.3699 3.39844 19.8199 3.39844H18.7899C17.2399 3.39844 16.6099 3.99844 16.6099 5.47844V15.5384C16.6099 17.0084 17.2399 17.6084 18.7899 17.6084Z" fill="currentColor"/>
</svg>
