<svg width="24" height="24" viewBox="0 0 24 24" fill="none" xmlns="http://www.w3.org/2000/svg">
<path d="M20.6899 13.9184C20.6799 13.9184 20.6799 13.9084 20.6799 13.9084V13.8984C19.7999 12.9784 18.5699 12.3984 17.1999 12.3984C14.5499 12.3984 12.3999 14.5484 12.3999 17.1984C12.3999 18.4284 12.8699 19.5484 13.6299 20.3984C14.5099 21.3784 15.7799 21.9984 17.1999 21.9984C19.8499 21.9984 21.9999 19.8484 21.9999 17.1984C21.9999 15.9284 21.4999 14.7784 20.6899 13.9184ZM19.0099 19.0684C18.8699 19.2084 18.6699 19.2884 18.4799 19.2884C18.2899 19.2884 18.0999 19.2084 17.9499 19.0684L17.2099 18.3284L16.4499 19.0984C16.2999 19.2384 16.1099 19.3184 15.9199 19.3184C15.8199 19.3184 15.7299 19.2984 15.6399 19.2584C15.5499 19.2284 15.4599 19.1684 15.3899 19.0984C15.0899 18.7984 15.0899 18.3284 15.3899 18.0384L16.1499 17.2684L15.4199 16.5284C15.1199 16.2384 15.1199 15.7584 15.4199 15.4684C15.7099 15.1784 16.1799 15.1784 16.4799 15.4684L17.2099 16.2084L17.9199 15.4984C18.2199 15.2084 18.6899 15.2084 18.9799 15.4984C19.1499 15.6684 19.2199 15.8884 19.1899 16.1084C19.1799 16.2784 19.1099 16.4384 18.9799 16.5584L18.2699 17.2684L19.0099 18.0084C19.3099 18.2984 19.3099 18.7684 19.0099 19.0684Z" fill="currentColor"/>
<path d="M22 8.73062C22 9.92062 21.81 11.0206 21.48 12.0406C21.42 12.2506 21.17 12.3106 20.99 12.1806C19.9 11.3706 18.57 10.9406 17.2 10.9406C13.73 10.9406 10.9 13.7706 10.9 17.2406C10.9 18.3206 11.18 19.3806 11.71 20.3206C11.87 20.6006 11.68 20.9606 11.38 20.8506C8.97 20.0306 4.1 17.0406 2.52 12.0406C2.19 11.0206 2 9.92062 2 8.73062C2 5.64062 4.49 3.14063 7.56 3.14063C9.37 3.14063 10.99 4.02062 12 5.37062C13.01 4.02062 14.63 3.14063 16.44 3.14063C19.51 3.14062 22 5.64062 22 8.73062Z" fill="currentColor"/>
</svg>
