<svg width="24" height="24" viewBox="0 0 24 24" fill="none" xmlns="http://www.w3.org/2000/svg">
<path d="M21.9999 8.69106C21.9999 9.88106 21.8099 10.9811 21.4799 12.0011C19.8999 17.0011 15.0299 19.9911 12.6199 20.8111C12.2799 20.9311 11.7199 20.9311 11.3799 20.8111C10.7399 20.5911 9.92988 20.2211 9.05988 19.7011C8.49988 19.3711 8.40988 18.5911 8.86988 18.1311L20.1499 6.85106C20.6899 6.31106 21.6399 6.54106 21.8299 7.28106C21.9399 7.73106 21.9999 8.20106 21.9999 8.69106Z" fill="currentColor"/>
<path d="M22.5299 1.47141C22.2399 1.18141 21.7599 1.18141 21.4699 1.47141L19.1299 3.81141C18.3399 3.36141 17.4199 3.10141 16.4399 3.10141C14.6299 3.10141 13.0099 3.98141 11.9999 5.33141C10.9899 3.98141 9.36994 3.10141 7.55994 3.10141C4.48994 3.10141 1.99994 5.60141 1.99994 8.69141C1.99994 9.88141 2.18994 10.9814 2.51994 12.0014C3.16994 14.0714 4.38994 15.8014 5.76994 17.1714L1.46994 21.4714C1.17994 21.7614 1.17994 22.2414 1.46994 22.5314C1.61994 22.6814 1.80994 22.7514 1.99994 22.7514C2.18994 22.7514 2.37994 22.6814 2.52994 22.5314L22.5299 2.53141C22.8199 2.24141 22.8199 1.76141 22.5299 1.47141Z" fill="currentColor"/>
</svg>
