<svg width="24" height="24" viewBox="0 0 24 24" fill="none" xmlns="http://www.w3.org/2000/svg">
<path d="M20.6799 13.9084V13.8984C19.7999 12.9684 18.5699 12.3984 17.1999 12.3984C14.5499 12.3984 12.3999 14.5484 12.3999 17.1984C12.3999 18.4284 12.8699 19.5484 13.6299 20.3984C14.5099 21.3784 15.7799 21.9984 17.1999 21.9984C19.8499 21.9984 21.9999 19.8484 21.9999 17.1984C21.9999 15.9284 21.4999 14.7684 20.6799 13.9084ZM18.9899 18.0084H17.9499V19.0984C17.9499 19.5084 17.6099 19.8484 17.1999 19.8484C16.7899 19.8484 16.4499 19.5084 16.4499 19.0984V18.0084H15.4099C14.9899 18.0084 14.6599 17.6784 14.6599 17.2584C14.6599 16.8484 14.9799 16.5184 15.3999 16.5084H16.4499V15.5084C16.4499 15.4884 16.4499 15.4684 16.4599 15.4484C16.4799 15.0684 16.8099 14.7584 17.1999 14.7584C17.5999 14.7584 17.9299 15.0784 17.9499 15.4784V16.5084H18.9899C19.4099 16.5084 19.7399 16.8484 19.7399 17.2584C19.7399 17.6784 19.4099 18.0084 18.9899 18.0084Z" fill="currentColor"/>
<path d="M22 8.73062C22 9.92062 21.81 11.0206 21.48 12.0406C21.42 12.2506 21.17 12.3106 20.99 12.1806C19.9 11.3706 18.57 10.9406 17.2 10.9406C13.73 10.9406 10.9 13.7706 10.9 17.2406C10.9 18.3206 11.18 19.3806 11.71 20.3206C11.87 20.6006 11.68 20.9606 11.38 20.8506C8.97 20.0306 4.1 17.0406 2.52 12.0406C2.19 11.0206 2 9.92062 2 8.73062C2 5.64062 4.49 3.14063 7.56 3.14063C9.37 3.14063 10.99 4.02062 12 5.37062C13.01 4.02062 14.63 3.14063 16.44 3.14063C19.51 3.14062 22 5.64062 22 8.73062Z" fill="currentColor"/>
</svg>
