<svg width="24" height="24" viewBox="0 0 24 24" fill="none" xmlns="http://www.w3.org/2000/svg">
<path d="M17.1999 12.3984C14.5499 12.3984 12.3999 14.5484 12.3999 17.1984C12.3999 18.0984 12.6499 18.9484 13.0999 19.6684C13.9299 21.0584 15.4499 21.9984 17.1999 21.9984C18.9499 21.9984 20.4799 21.0584 21.2999 19.6684C21.7399 18.9484 21.9999 18.0984 21.9999 17.1984C21.9999 14.5484 19.8499 12.3984 17.1999 12.3984ZM19.5799 16.5684L17.0199 18.9284C16.8799 19.0584 16.6899 19.1284 16.5099 19.1284C16.3199 19.1284 16.1299 19.0584 15.9799 18.9084L14.7999 17.7284C14.5099 17.4384 14.5099 16.9584 14.7999 16.6684C15.0899 16.3784 15.5699 16.3784 15.8599 16.6684L16.5299 17.3384L18.5599 15.4584C18.8599 15.1784 19.3399 15.1984 19.6199 15.4984C19.8999 15.8084 19.8799 16.2884 19.5799 16.5684Z" fill="currentColor"/>
<path d="M22 8.73062C22 9.92062 21.81 11.0206 21.48 12.0406C21.42 12.2506 21.17 12.3106 20.99 12.1806C19.9 11.3706 18.57 10.9406 17.2 10.9406C13.73 10.9406 10.9 13.7706 10.9 17.2406C10.9 18.3206 11.18 19.3806 11.71 20.3206C11.87 20.6006 11.68 20.9606 11.38 20.8506C8.97 20.0306 4.1 17.0406 2.52 12.0406C2.19 11.0206 2 9.92062 2 8.73062C2 5.64062 4.49 3.14063 7.56 3.14063C9.37 3.14063 10.99 4.02062 12 5.37062C13.01 4.02062 14.63 3.14063 16.44 3.14063C19.51 3.14062 22 5.64062 22 8.73062Z" fill="currentColor"/>
</svg>
