<svg width="24" height="24" viewBox="0 0 24 24" fill="none" xmlns="http://www.w3.org/2000/svg">
<path d="M15.3899 5.21125L16.7999 8.03125C16.9899 8.42125 17.4999 8.79125 17.9299 8.87125L20.4799 9.29125C22.1099 9.56125 22.4899 10.7413 21.3199 11.9213L19.3299 13.9113C18.9999 14.2413 18.8099 14.8913 18.9199 15.3613L19.4899 17.8213C19.9399 19.7613 18.8999 20.5213 17.1899 19.5013L14.7999 18.0813C14.3699 17.8213 13.6499 17.8213 13.2199 18.0813L10.8299 19.5013C9.11994 20.5113 8.07994 19.7613 8.52994 17.8213L9.09994 15.3613C9.18994 14.8813 8.99994 14.2313 8.66994 13.9013L6.67994 11.9113C5.50994 10.7413 5.88994 9.56125 7.51994 9.28125L10.0699 8.86125C10.4999 8.79125 11.0099 8.41125 11.1999 8.02125L12.6099 5.20125C13.3799 3.68125 14.6199 3.68125 15.3899 5.21125Z" fill="currentColor"/>
<path d="M8 5.75H2C1.59 5.75 1.25 5.41 1.25 5C1.25 4.59 1.59 4.25 2 4.25H8C8.41 4.25 8.75 4.59 8.75 5C8.75 5.41 8.41 5.75 8 5.75Z" fill="currentColor"/>
<path d="M5 19.75H2C1.59 19.75 1.25 19.41 1.25 19C1.25 18.59 1.59 18.25 2 18.25H5C5.41 18.25 5.75 18.59 5.75 19C5.75 19.41 5.41 19.75 5 19.75Z" fill="currentColor"/>
<path d="M3 12.75H2C1.59 12.75 1.25 12.41 1.25 12C1.25 11.59 1.59 11.25 2 11.25H3C3.41 11.25 3.75 11.59 3.75 12C3.75 12.41 3.41 12.75 3 12.75Z" fill="currentColor"/>
</svg>
