<svg width="24" height="24" viewBox="0 0 24 24" fill="none" xmlns="http://www.w3.org/2000/svg">
<path d="M5.73986 16C5.84986 15.51 5.64986 14.81 5.29986 14.46L2.86986 12.03C2.10986 11.27 1.80986 10.46 2.02986 9.76C2.25986 9.06 2.96986 8.58 4.02986 8.4L7.14986 7.88C7.59986 7.8 8.14986 7.4 8.35986 6.99L10.0799 3.54C10.5799 2.55 11.2599 2 11.9999 2C12.7399 2 13.4199 2.55 13.9199 3.54L15.6399 6.99C15.7699 7.25 16.0399 7.5 16.3299 7.67L5.55986 18.44C5.41986 18.58 5.17986 18.45 5.21986 18.25L5.73986 16Z" fill="currentColor"/>
<path d="M18.6998 14.4619C18.3398 14.8219 18.1398 15.5119 18.2598 16.0019L18.9498 19.0119C19.2398 20.2619 19.0598 21.2019 18.4398 21.6519C18.1898 21.8319 17.8898 21.9219 17.5398 21.9219C17.0298 21.9219 16.4298 21.7319 15.7698 21.3419L12.8398 19.6019C12.3798 19.3319 11.6198 19.3319 11.1598 19.6019L8.2298 21.3419C7.1198 21.9919 6.1698 22.1019 5.5598 21.6519C5.3298 21.4819 5.1598 21.2519 5.0498 20.9519L17.2098 8.79185C17.6698 8.33185 18.3198 8.12185 18.9498 8.23185L19.9598 8.40185C21.0198 8.58185 21.7298 9.06185 21.9598 9.76185C22.1798 10.4619 21.8798 11.2719 21.1198 12.0319L18.6998 14.4619Z" fill="currentColor"/>
</svg>
