<svg width="24" height="24" viewBox="0 0 24 24" fill="none" xmlns="http://www.w3.org/2000/svg">
<path d="M18.7002 14.4586C18.3502 14.8086 18.1502 15.5086 18.2602 15.9886L18.9502 19.0086C19.2402 20.2586 19.0602 21.1986 18.4402 21.6486C18.1902 21.8286 17.8902 21.9186 17.5402 21.9186C17.0302 21.9186 16.4302 21.7286 15.7702 21.3386L12.8402 19.5986C12.3802 19.3286 11.6202 19.3286 11.1602 19.5986L8.2302 21.3386C7.1202 21.9886 6.1702 22.0986 5.5602 21.6486C5.5202 21.6186 5.4802 21.5886 5.4502 21.5486L18.0702 8.92857C18.5302 8.46857 19.1802 8.25857 19.8202 8.36857L19.9702 8.39857C21.0302 8.57857 21.7402 9.05857 21.9702 9.75857C22.1902 10.4586 21.8902 11.2686 21.1302 12.0286L18.7002 14.4586Z" fill="currentColor"/>
<path d="M5.73986 16C5.84986 15.52 5.64986 14.81 5.29986 14.46L2.86986 12.03C2.10986 11.27 1.80986 10.46 2.02986 9.76C2.25986 9.06 2.96986 8.58 4.02986 8.4L7.14986 7.88C7.59986 7.8 8.14986 7.4 8.35986 6.99L10.0799 3.54C10.5799 2.55 11.2599 2 11.9999 2C12.7399 2 13.4199 2.55 13.9199 3.54L15.6399 6.99C15.7699 7.25 16.0399 7.5 16.3299 7.67L5.06986 18.93L5.73986 16Z" fill="currentColor"/>
<path d="M21.7699 2.22891C21.4699 1.92891 20.9799 1.92891 20.6799 2.22891L2.22988 20.6889C1.92988 20.9889 1.92988 21.4789 2.22988 21.7789C2.37988 21.9189 2.56988 21.9989 2.76988 21.9989C2.96988 21.9989 3.15988 21.9189 3.30988 21.7689L21.7699 3.30891C22.0799 3.00891 22.0799 2.52891 21.7699 2.22891Z" fill="currentColor"/>
</svg>
