<svg width="24" height="24" viewBox="0 0 24 24" fill="none" xmlns="http://www.w3.org/2000/svg">
<path d="M20.6098 10.8305C19.8398 9.91045 18.8498 9.31045 17.6998 9.05045C17.4398 7.89045 16.9898 6.89045 16.3298 6.06045C16.3098 6.03045 16.2898 6.00045 16.2698 5.98045C14.0698 3.32045 10.4698 3.33045 8.03977 4.71045C5.95977 5.90045 4.18977 8.41045 5.11977 11.9904C2.98977 12.5105 2.00977 14.3704 2.00977 16.0504C2.00977 17.9304 3.23977 20.0404 5.97977 20.2404H16.3198C16.3298 20.2404 16.3498 20.2404 16.3598 20.2404C17.7798 20.2404 19.1398 19.7105 20.1898 18.7505C22.6998 16.5304 22.3698 12.9104 20.6098 10.8305Z" fill="currentColor"/>
<path d="M21.7602 8.74172C21.7602 9.08172 21.7202 9.41172 21.6202 9.73172C20.8902 8.88172 19.9602 8.25172 18.9302 7.86172C18.6102 6.86172 18.1502 5.97172 17.5502 5.19172C17.5202 5.15172 17.4902 5.11172 17.4502 5.06172C17.6402 5.02172 17.8402 5.01172 18.0302 5.01172C20.0902 5.01172 21.7602 6.68172 21.7602 8.74172Z" fill="currentColor"/>
</svg>
