<svg width="24" height="24" viewBox="0 0 24 24" fill="none" xmlns="http://www.w3.org/2000/svg">
<path d="M21.2698 8.76172C21.2698 9.78172 20.7998 10.7017 20.0398 11.3017C19.4898 11.7517 18.7798 12.0217 18.0098 12.0217C16.2198 12.0217 14.7598 10.5617 14.7598 8.77172C14.7598 7.88172 15.1198 7.07172 15.7198 6.48172V6.47172C16.3098 5.88172 17.1198 5.51172 18.0098 5.51172C19.8098 5.51172 21.2698 6.97172 21.2698 8.76172Z" fill="currentColor"/>
<path d="M20.1798 18.7289C19.1298 19.6889 17.7798 20.2189 16.3498 20.2189H5.96977C3.22977 20.0189 2.00977 17.9089 2.00977 16.0289C2.00977 14.3489 2.97977 12.4889 5.10977 11.9689C4.17977 8.38887 5.95977 5.88887 8.03977 4.69887C10.0998 3.52887 12.9998 3.33887 15.1798 4.94887C14.9898 5.08887 14.8198 5.23887 14.6498 5.40887L14.2198 5.85887V5.91887C13.5998 6.72887 13.2598 7.71887 13.2598 8.75887C13.2598 11.3789 15.3998 13.5089 18.0198 13.5089C19.0998 13.5089 20.1498 13.1389 20.9698 12.4689C21.1198 12.3489 21.2698 12.2189 21.3998 12.0789C22.3898 14.1589 22.2498 16.9189 20.1798 18.7289Z" fill="currentColor"/>
</svg>
