<svg width="24" height="24" viewBox="0 0 24 24" fill="none" xmlns="http://www.w3.org/2000/svg">
<path d="M12.0002 14C6.99016 14 2.91016 17.36 2.91016 21.5C2.91016 21.78 3.13016 22 3.41016 22H20.5902C20.8702 22 21.0902 21.78 21.0902 21.5C21.0902 17.36 17.0102 14 12.0002 14Z" fill="currentColor"/>
<path d="M16.8496 5.79813C16.7296 5.30813 16.5296 4.82813 16.2496 4.38813C16.0596 4.06813 15.8096 3.74813 15.5396 3.46813C14.6396 2.56813 13.4696 2.07813 12.2696 2.01813C10.9096 1.92813 9.5196 2.42813 8.4696 3.46813C7.4796 4.44813 6.9796 5.75813 6.9996 7.07813C7.0096 8.32813 7.5096 9.57813 8.4596 10.5381C9.1196 11.1981 9.9296 11.6381 10.7996 11.8381C11.2696 11.9581 11.7696 12.0181 12.2696 11.9781C13.4596 11.9281 14.6196 11.4581 15.5296 10.5381C16.8196 9.24813 17.2596 7.43813 16.8496 5.79813ZM13.9996 8.99813C13.6396 9.35813 13.0396 9.35813 12.6796 8.99813L11.9896 8.30813L11.3296 8.96813C10.9696 9.32813 10.3696 9.32813 10.0096 8.96813C9.6396 8.59813 9.6396 8.00813 9.9996 7.64813L10.6596 6.98813L10.0196 6.36813C9.6596 5.99813 9.6596 5.40813 10.0196 5.02813C10.3896 4.66813 10.9796 4.66813 11.3596 5.02813L11.9796 5.66813L12.6496 4.99813C13.0096 4.63813 13.5996 4.63813 13.9696 4.99813C14.3296 5.35813 14.3296 5.95813 13.9696 6.31813L13.3096 6.97813L13.9996 7.67813C14.3596 8.03813 14.3596 8.63813 13.9996 8.99813Z" fill="currentColor"/>
</svg>
