<svg width="24" height="24" viewBox="0 0 24 24" fill="none" xmlns="http://www.w3.org/2000/svg">
<path d="M22 21.25H21V15C21 10.03 16.97 6 12 6C7.03 6 3 10.03 3 15V21.25H2C1.59 21.25 1.25 21.59 1.25 22C1.25 22.41 1.59 22.75 2 22.75H22C22.41 22.75 22.75 22.41 22.75 22C22.75 21.59 22.41 21.25 22 21.25Z" fill="currentColor"/>
<path d="M12 3.75C11.59 3.75 11.25 3.41 11.25 3V2C11.25 1.59 11.59 1.25 12 1.25C12.41 1.25 12.75 1.59 12.75 2V3C12.75 3.41 12.41 3.75 12 3.75Z" fill="currentColor"/>
<path d="M5.00043 5.75141C4.81043 5.75141 4.62043 5.68141 4.47043 5.53141L3.47043 4.53141C3.18043 4.24141 3.18043 3.76141 3.47043 3.47141C3.76043 3.18141 4.24043 3.18141 4.53043 3.47141L5.53043 4.47141C5.82043 4.76141 5.82043 5.24141 5.53043 5.53141C5.38043 5.68141 5.19043 5.75141 5.00043 5.75141Z" fill="currentColor"/>
<path d="M19.0004 5.75141C18.8104 5.75141 18.6204 5.68141 18.4704 5.53141C18.1804 5.24141 18.1804 4.76141 18.4704 4.47141L19.4704 3.47141C19.7604 3.18141 20.2404 3.18141 20.5304 3.47141C20.8204 3.76141 20.8204 4.24141 20.5304 4.53141L19.5304 5.53141C19.3804 5.68141 19.1904 5.75141 19.0004 5.75141Z" fill="currentColor"/>
</svg>
