<svg width="24" height="24" viewBox="0 0 24 24" fill="none" xmlns="http://www.w3.org/2000/svg">
<path d="M21.2704 9.17834C20.9804 8.71834 20.6704 8.28834 20.3504 7.88834C19.9804 7.41834 19.2804 7.37834 18.8604 7.79834L15.8604 10.7983C16.0804 11.4583 16.1204 12.2183 15.9204 13.0083C15.5704 14.4183 14.4304 15.5583 13.0204 15.9083C12.2304 16.1083 11.4704 16.0683 10.8104 15.8483C10.8104 15.8483 9.38044 17.2783 8.35044 18.3083C7.85044 18.8083 8.01044 19.6883 8.68044 19.9483C9.75044 20.3583 10.8604 20.5683 12.0004 20.5683C13.7804 20.5683 15.5104 20.0483 17.0904 19.0783C18.7004 18.0783 20.1504 16.6083 21.3204 14.7383C22.2704 13.2283 22.2204 10.6883 21.2704 9.17834Z" fill="currentColor"/>
<path d="M14.0196 9.98062L9.97965 14.0206C9.46965 13.5006 9.13965 12.7806 9.13965 12.0006C9.13965 10.4306 10.4196 9.14062 11.9996 9.14062C12.7796 9.14062 13.4996 9.47062 14.0196 9.98062Z" fill="currentColor"/>
<path d="M18.25 5.74969L14.86 9.13969C14.13 8.39969 13.12 7.95969 12 7.95969C9.76 7.95969 7.96 9.76969 7.96 11.9997C7.96 13.1197 8.41 14.1297 9.14 14.8597L5.76 18.2497H5.75C4.64 17.3497 3.62 16.1997 2.75 14.8397C1.75 13.2697 1.75 10.7197 2.75 9.14969C3.91 7.32969 5.33 5.89969 6.91 4.91969C8.49 3.95969 10.22 3.42969 12 3.42969C14.23 3.42969 16.39 4.24969 18.25 5.74969Z" fill="currentColor"/>
<path d="M14.8601 11.9981C14.8601 13.5681 13.5801 14.8581 12.0001 14.8581C11.9401 14.8581 11.8901 14.8581 11.8301 14.8381L14.8401 11.8281C14.8601 11.8881 14.8601 11.9381 14.8601 11.9981Z" fill="currentColor"/>
<path d="M21.7699 2.22891C21.4699 1.92891 20.9799 1.92891 20.6799 2.22891L2.22988 20.6889C1.92988 20.9889 1.92988 21.4789 2.22988 21.7789C2.37988 21.9189 2.56988 21.9989 2.76988 21.9989C2.96988 21.9989 3.15988 21.9189 3.30988 21.7689L21.7699 3.30891C22.0799 3.00891 22.0799 2.52891 21.7699 2.22891Z" fill="currentColor"/>
</svg>
