<svg width="24" height="24" viewBox="0 0 24 24" fill="none" xmlns="http://www.w3.org/2000/svg">
<path d="M20.4098 6.96141V8.79141C20.4098 9.43141 20.1098 10.0314 19.5898 10.4014L8.58984 18.4614C7.87984 18.9814 6.90984 18.9814 6.20984 18.4514L4.76984 17.3714C4.11984 16.8814 3.58984 15.8214 3.58984 15.0114V6.96141C3.58984 5.84141 4.44984 4.60141 5.49984 4.21141L10.9698 2.16141C11.5398 1.95141 12.4598 1.95141 13.0298 2.16141L18.4998 4.21141C19.5498 4.60141 20.4098 5.84141 20.4098 6.96141Z" fill="currentColor"/>
<path d="M18.8196 12.3414C19.4796 11.8614 20.4096 12.3314 20.4096 13.1514V15.0314C20.4096 15.8414 19.8796 16.8914 19.2296 17.3814L13.7596 21.4714C13.2796 21.8214 12.6396 22.0014 11.9996 22.0014C11.3596 22.0014 10.7196 21.8214 10.2396 21.4614L9.40962 20.8414C8.86962 20.4414 8.86962 19.6314 9.41962 19.2314L18.8196 12.3414Z" fill="currentColor"/>
</svg>
