<svg width="24" height="24" viewBox="0 0 24 24" fill="none" xmlns="http://www.w3.org/2000/svg">
<path d="M13.6298 15.7195C13.6298 16.6195 12.8998 17.3495 11.9998 17.3495C11.3598 17.3495 10.8098 16.9795 10.5498 16.4495L12.7298 14.2695C13.2598 14.5295 13.6298 15.0795 13.6298 15.7195Z" fill="currentColor"/>
<path d="M21.7701 2.23C21.4701 1.93 20.9801 1.93 20.6801 2.23L17.8701 5.04C17.1001 3.02 15.1301 2 12.0001 2C6.37012 2 5.72012 5.58 5.72012 8.28V9.53C5.73012 9.53 5.74012 9.53 5.75012 9.53C2.92012 9.87 2.00012 11.28 2.00012 14.79V16.65C2.00012 18.25 2.19012 19.41 2.67012 20.24L2.22012 20.69C1.92012 20.99 1.92012 21.48 2.22012 21.78C2.38012 21.92 2.57012 22 2.77012 22C2.97012 22 3.16012 21.92 3.31012 21.77L21.7701 3.31C22.0801 3.01 22.0801 2.53 21.7701 2.23ZM7.35012 9.44C7.27012 9.44 7.20012 9.44 7.12012 9.44V8.28C7.12012 5.35 7.95012 3.4 12.0001 3.4C15.4001 3.4 16.4701 4.7 16.7701 6.15L13.4801 9.44H7.35012Z" fill="currentColor"/>
<path d="M21.9996 14.789V16.649C21.9996 20.749 20.7496 21.999 16.6496 21.999H7.40956C6.51956 21.999 6.07956 20.919 6.70956 20.289L9.52956 17.469C9.59956 17.569 9.67956 17.659 9.75956 17.749C10.4596 18.509 11.4996 18.909 12.6496 18.669C12.7396 18.649 12.8296 18.629 12.9196 18.589C13.0096 18.569 13.0896 18.539 13.1696 18.499C13.3696 18.429 13.5596 18.319 13.7396 18.189C13.8096 18.149 13.8696 18.099 13.9196 18.049C14.0696 17.929 14.2096 17.789 14.3296 17.639C14.3796 17.589 14.4296 17.529 14.4696 17.459C14.5996 17.279 14.7096 17.089 14.7796 16.889C14.8196 16.809 14.8496 16.729 14.8696 16.639C14.9096 16.549 14.9296 16.459 14.9496 16.369C15.1896 15.219 14.7896 14.179 14.0296 13.479C13.9496 13.399 13.8496 13.319 13.7496 13.249L16.8696 10.129C16.9196 10.079 16.9596 10.039 17.0096 9.999C17.4096 9.669 17.9196 9.509 18.4296 9.549C18.5196 9.559 18.6196 9.569 18.7096 9.589C18.8796 9.619 19.0496 9.659 19.2096 9.699C19.3696 9.739 19.5196 9.789 19.6696 9.839C19.9596 9.949 20.2096 10.079 20.4396 10.229C20.6696 10.379 20.8596 10.559 21.0396 10.769C21.1296 10.879 21.2196 10.999 21.2896 11.129C21.3596 11.239 21.4196 11.359 21.4796 11.489C21.5396 11.619 21.5896 11.759 21.6396 11.899C21.6996 12.069 21.7496 12.259 21.7896 12.459C21.8296 12.599 21.8496 12.749 21.8796 12.909C21.8996 13.059 21.9196 13.219 21.9396 13.389C21.9796 13.809 21.9996 14.279 21.9996 14.789Z" fill="currentColor"/>
</svg>
