<svg width="24" height="24" viewBox="0 0 24 24" fill="none" xmlns="http://www.w3.org/2000/svg">
<path d="M18.3301 5.67L6.59008 17.41C6.15008 17.85 5.41008 17.79 5.05008 17.27C3.81008 15.46 3.08008 13.32 3.08008 11.12V6.73C3.08008 5.91 3.70008 4.98 4.46008 4.67L10.0301 2.39C11.2901 1.87 12.6901 1.87 13.9501 2.39L18.0001 4.04C18.6601 4.31 18.8301 5.17 18.3301 5.67Z" fill="currentColor"/>
<path d="M19.27 7.04159C19.92 6.49159 20.91 6.96159 20.91 7.81159V11.1216C20.91 16.0116 17.36 20.5916 12.51 21.9316C12.18 22.0216 11.82 22.0216 11.48 21.9316C10.06 21.5316 8.74001 20.8616 7.61001 19.9816C7.13001 19.6116 7.08001 18.9116 7.50001 18.4816C9.68001 16.2516 16.06 9.75159 19.27 7.04159Z" fill="currentColor"/>
</svg>
