<svg width="24" height="24" viewBox="0 0 24 24" fill="none" xmlns="http://www.w3.org/2000/svg">
<path d="M19.3598 4.63984L5.8298 18.1698L4.7298 17.3498C4.0798 16.8598 3.5498 15.7998 3.5498 14.9798V6.88984C3.5498 5.75984 4.4098 4.51984 5.4598 4.11984L10.9598 2.05984C11.5298 1.84984 12.4698 1.84984 13.0398 2.05984L18.5398 4.11984C18.8298 4.22984 19.1098 4.40984 19.3598 4.63984Z" fill="currentColor"/>
<path d="M20.45 14.9789C20.45 15.7989 19.92 16.8589 19.27 17.3489L13.77 21.4589C12.79 22.1789 11.21 22.1789 10.23 21.4589L8.46999 20.1489C7.97999 19.7889 7.92999 19.0689 8.35999 18.6389L18.74 8.25886C19.37 7.62886 20.45 8.07886 20.45 8.96886V14.9789Z" fill="currentColor"/>
<path d="M21.7699 2.22891C21.4699 1.92891 20.9799 1.92891 20.6799 2.22891L2.22988 20.6889C1.92988 20.9889 1.92988 21.4789 2.22988 21.7789C2.37988 21.9189 2.56988 21.9989 2.76988 21.9989C2.96988 21.9989 3.15988 21.9189 3.30988 21.7689L21.7699 3.30891C22.0799 3.00891 22.0799 2.52891 21.7699 2.22891Z" fill="currentColor"/>
</svg>
