<svg width="24" height="24" viewBox="0 0 24 24" fill="none" xmlns="http://www.w3.org/2000/svg">
<path d="M15.8002 2.21048C15.3902 1.80048 14.6802 2.08048 14.6802 2.65048V6.14048C14.6802 7.60048 15.9202 8.81048 17.4302 8.81048C18.3802 8.82048 19.7002 8.82048 20.8302 8.82048C21.4002 8.82048 21.7002 8.15048 21.3002 7.75048C19.8602 6.30048 17.2802 3.69048 15.8002 2.21048Z" fill="currentColor"/>
<path d="M14.7601 19.2618C12.4101 19.4318 12.4101 22.8318 14.7601 23.0018H20.3201C20.9901 23.0018 21.6501 22.7518 22.1401 22.3018C23.7901 20.8618 22.9101 17.9818 20.7401 17.7118C19.9601 13.0218 13.1801 14.8018 14.7801 19.2718" fill="currentColor"/>
<path d="M21.5 11.19V14.44C21.5 14.74 21.06 14.88 20.84 14.67C20.36 14.2 19.77 13.84 19.09 13.63C17.41 13.11 15.46 13.62 14.25 14.9C13.44 15.74 13.03 16.81 13.04 17.97C13.04 18.16 12.95 18.33 12.8 18.44C12 19.05 11.5 20.01 11.5 21.12C11.5 21.2 11.5 21.28 11.51 21.36C11.53 21.68 11.3 21.99 10.97 21.99H8.07C4.99 21.99 2.5 19.99 2.5 16.42V7.57C2.5 4 4.99 2 8.07 2H12.31C12.86 2 13.31 2.45 13.31 3V5.89C13.31 8.27 15.23 10.19 17.61 10.19H20.5C21.05 10.19 21.5 10.64 21.5 11.19Z" fill="currentColor"/>
</svg>
