<svg width="24" height="24" viewBox="0 0 24 24" fill="none" xmlns="http://www.w3.org/2000/svg">
<path d="M21 22H3C2.59 22 2.25 21.66 2.25 21.25C2.25 20.84 2.59 20.5 3 20.5H21C21.41 20.5 21.75 20.84 21.75 21.25C21.75 21.66 21.41 22 21 22Z" fill="currentColor"/>
<path d="M19.0201 3.48162C17.0801 1.54162 15.1801 1.49162 13.1901 3.48162L11.9801 4.69162C11.8801 4.79162 11.8401 4.95162 11.8801 5.09162C12.6401 7.74162 14.7601 9.86162 17.4101 10.6216C17.4501 10.6316 17.4901 10.6416 17.5301 10.6416C17.6401 10.6416 17.7401 10.6016 17.8201 10.5216L19.0201 9.31162C20.0101 8.33162 20.4901 7.38162 20.4901 6.42162C20.5001 5.43162 20.0201 4.47162 19.0201 3.48162Z" fill="currentColor"/>
<path d="M15.6098 11.5308C15.3198 11.3908 15.0398 11.2508 14.7698 11.0908C14.5498 10.9608 14.3398 10.8208 14.1298 10.6708C13.9598 10.5608 13.7598 10.4008 13.5698 10.2408C13.5498 10.2308 13.4798 10.1708 13.3998 10.0908C13.0698 9.81078 12.6998 9.45078 12.3698 9.05078C12.3398 9.03078 12.2898 8.96078 12.2198 8.87078C12.1198 8.75078 11.9498 8.55078 11.7998 8.32078C11.6798 8.17078 11.5398 7.95078 11.4098 7.73078C11.2498 7.46078 11.1098 7.19078 10.9698 6.91078C10.9486 6.86539 10.9281 6.82022 10.9083 6.77532C10.7607 6.442 10.3261 6.34455 10.0683 6.60231L4.33983 12.3308C4.20983 12.4608 4.08983 12.7108 4.05983 12.8808L3.51983 16.7108C3.41983 17.3908 3.60983 18.0308 4.02983 18.4608C4.38983 18.8108 4.88983 19.0008 5.42983 19.0008C5.54983 19.0008 5.66983 18.9908 5.78983 18.9708L9.62983 18.4308C9.80983 18.4008 10.0598 18.2808 10.1798 18.1508L15.9011 12.4295C16.1607 12.1699 16.0628 11.7245 15.7252 11.5804C15.6872 11.5642 15.6488 11.5476 15.6098 11.5308Z" fill="currentColor"/>
</svg>
