<svg width="24" height="24" viewBox="0 0 24 24" fill="none" xmlns="http://www.w3.org/2000/svg">
<path d="M20.8999 9.85L21.4899 19.74C21.5099 20.01 21.3799 20.19 21.3099 20.27C21.2299 20.36 21.0599 20.5 20.7799 20.5H18.0499L20.2099 9.85H20.8999ZM21.9999 6L21.9899 6.02C22.0099 6.26 21.9899 6.51 21.9299 6.76L14.5599 20.29C14.3199 21.3 13.4199 22 12.3799 22H20.7799C22.0699 22 23.0899 20.91 22.9899 19.62L21.9999 6Z" fill="currentColor"/>
<path d="M11.4502 2.24136C11.5502 1.84136 11.3002 1.43136 10.9002 1.33136C10.5002 1.24136 10.0902 1.48136 9.99023 1.88136L9.49023 3.95136H11.0302L11.4502 2.24136Z" fill="currentColor"/>
<path d="M18.0499 2.20859C18.1399 1.79859 17.8799 1.40859 17.4699 1.31859C17.0699 1.22859 16.6699 1.48859 16.5799 1.89859L16.1299 3.96859H17.6699L18.0499 2.20859Z" fill="currentColor"/>
<path d="M21.8202 5.33141C21.4902 4.53141 20.7102 3.96141 19.7502 3.96141H17.6702L17.1102 6.55141C17.0302 6.90141 16.7202 7.14141 16.3802 7.14141C16.3302 7.14141 16.2702 7.14141 16.2202 7.12141C15.8202 7.03141 15.5602 6.63141 15.6402 6.23141L16.1302 3.95141H11.0302L10.4002 6.55141C10.3202 6.89141 10.0102 7.12141 9.67024 7.12141C9.61024 7.12141 9.55024 7.11141 9.49024 7.10141C9.09024 7.00141 8.84024 6.60141 8.94024 6.19141L9.48024 3.94141H7.45024C6.47024 3.94141 5.60024 4.58141 5.31024 5.52141L1.10024 19.0714C0.660243 20.5214 1.73024 22.0014 3.24024 22.0014H16.3802C17.4202 22.0014 18.3202 21.3014 18.5602 20.2914L21.9302 6.76141C21.9902 6.51141 22.0102 6.26141 21.9902 6.02141C21.9702 5.78141 21.9202 5.54141 21.8202 5.33141ZM14.7002 16.7514H6.70024C6.29024 16.7514 5.95024 16.4114 5.95024 16.0014C5.95024 15.5914 6.29024 15.2514 6.70024 15.2514H14.7002C15.1102 15.2514 15.4502 15.5914 15.4502 16.0014C15.4502 16.4114 15.1102 16.7514 14.7002 16.7514ZM15.7002 12.7514H7.70024C7.29024 12.7514 6.95024 12.4114 6.95024 12.0014C6.95024 11.5914 7.29024 11.2514 7.70024 11.2514H15.7002C16.1102 11.2514 16.4502 11.5914 16.4502 12.0014C16.4502 12.4114 16.1102 12.7514 15.7002 12.7514Z" fill="currentColor"/>
</svg>
