<svg width="24" height="24" viewBox="0 0 24 24" fill="none" xmlns="http://www.w3.org/2000/svg">
<path d="M19.9999 19.2611H10.9299C10.4799 19.2611 10.1099 18.8911 10.1099 18.4411C10.1099 17.9911 10.4799 17.6211 10.9299 17.6211H19.9999C20.4499 17.6211 20.8199 17.9911 20.8199 18.4411C20.8199 18.9011 20.4499 19.2611 19.9999 19.2611Z" fill="currentColor"/>
<path d="M19.9999 12.9681H10.9299C10.4799 12.9681 10.1099 12.5981 10.1099 12.1481C10.1099 11.6981 10.4799 11.3281 10.9299 11.3281H19.9999C20.4499 11.3281 20.8199 11.6981 20.8199 12.1481C20.8199 12.5981 20.4499 12.9681 19.9999 12.9681Z" fill="currentColor"/>
<path d="M19.9999 6.67125H10.9299C10.4799 6.67125 10.1099 6.30125 10.1099 5.85125C10.1099 5.40125 10.4799 5.03125 10.9299 5.03125H19.9999C20.4499 5.03125 20.8199 5.40125 20.8199 5.85125C20.8199 6.30125 20.4499 6.67125 19.9999 6.67125Z" fill="currentColor"/>
<path d="M4.91018 8.03187C4.69018 8.03187 4.48018 7.94187 4.33018 7.79187L3.42018 6.88188C3.10018 6.56188 3.10018 6.04187 3.42018 5.72187C3.74018 5.40187 4.26018 5.40187 4.58018 5.72187L4.91018 6.05188L7.05018 3.91187C7.37018 3.59188 7.89018 3.59188 8.21018 3.91187C8.53018 4.23188 8.53018 4.75188 8.21018 5.07188L5.49018 7.79187C5.33018 7.94187 5.13018 8.03187 4.91018 8.03187Z" fill="currentColor"/>
<path d="M4.91018 14.3287C4.70018 14.3287 4.49018 14.2487 4.33018 14.0887L3.42018 13.1788C3.10018 12.8588 3.10018 12.3388 3.42018 12.0188C3.74018 11.6988 4.26018 11.6988 4.58018 12.0188L4.91018 12.3488L7.05018 10.2087C7.37018 9.88875 7.89018 9.88875 8.21018 10.2087C8.53018 10.5288 8.53018 11.0487 8.21018 11.3687L5.49018 14.0887C5.33018 14.2487 5.12018 14.3287 4.91018 14.3287Z" fill="currentColor"/>
<path d="M4.91018 20.3288C4.70018 20.3288 4.49018 20.2488 4.33018 20.0888L3.42018 19.1788C3.10018 18.8588 3.10018 18.3388 3.42018 18.0188C3.74018 17.6988 4.26018 17.6988 4.58018 18.0188L4.91018 18.3488L7.05018 16.2087C7.37018 15.8888 7.89018 15.8888 8.21018 16.2087C8.53018 16.5288 8.53018 17.0488 8.21018 17.3688L5.49018 20.0888C5.33018 20.2488 5.12018 20.3288 4.91018 20.3288Z" fill="currentColor"/>
</svg>
