<svg width="24" height="24" viewBox="0 0 24 24" fill="none" xmlns="http://www.w3.org/2000/svg">
<path d="M12 22.75C11.59 22.75 11.25 22.41 11.25 22V20C11.25 19.59 11.59 19.25 12 19.25C12.41 19.25 12.75 19.59 12.75 20V22C12.75 22.41 12.41 22.75 12 22.75Z" fill="currentColor"/>
<path d="M12 18.75C11.59 18.75 11.25 18.41 11.25 18V16C11.25 15.59 11.59 15.25 12 15.25C12.41 15.25 12.75 15.59 12.75 16V18C12.75 18.41 12.41 18.75 12 18.75Z" fill="currentColor"/>
<path d="M12 14.75C11.59 14.75 11.25 14.41 11.25 14V11C11.25 6.73 14.73 3.25 19 3.25H22C22.41 3.25 22.75 3.59 22.75 4C22.75 4.41 22.41 4.75 22 4.75H19C15.55 4.75 12.75 7.55 12.75 11V14C12.75 14.41 12.41 14.75 12 14.75Z" fill="currentColor"/>
<path d="M12 14.75C11.59 14.75 11.25 14.41 11.25 14V11C11.25 7.55 8.45 4.75 5 4.75H2C1.59 4.75 1.25 4.41 1.25 4C1.25 3.59 1.59 3.25 2 3.25H5C9.27 3.25 12.75 6.73 12.75 11V14C12.75 14.41 12.41 14.75 12 14.75Z" fill="currentColor"/>
<path d="M4.00043 6.75141C3.81043 6.75141 3.62043 6.68141 3.47043 6.53141L1.47043 4.53141C1.18043 4.24141 1.18043 3.76141 1.47043 3.47141L3.47043 1.47141C3.76043 1.18141 4.24043 1.18141 4.53043 1.47141C4.82043 1.76141 4.82043 2.24141 4.53043 2.53141L3.06043 4.00141L4.53043 5.47141C4.82043 5.76141 4.82043 6.24141 4.53043 6.53141C4.38043 6.68141 4.19043 6.75141 4.00043 6.75141Z" fill="currentColor"/>
<path d="M20.0004 6.75141C19.8104 6.75141 19.6204 6.68141 19.4704 6.53141C19.1804 6.24141 19.1804 5.76141 19.4704 5.47141L20.9404 4.00141L19.4704 2.53141C19.1804 2.24141 19.1804 1.76141 19.4704 1.47141C19.7604 1.18141 20.2404 1.18141 20.5304 1.47141L22.5304 3.47141C22.8204 3.76141 22.8204 4.24141 22.5304 4.53141L20.5304 6.53141C20.3804 6.68141 20.1904 6.75141 20.0004 6.75141Z" fill="currentColor"/>
</svg>
