<svg width="24" height="24" viewBox="0 0 24 24" fill="none" xmlns="http://www.w3.org/2000/svg">
<path d="M17.0202 21.2916L13.5402 19.5516C12.5702 19.0716 11.4402 19.0716 10.4702 19.5516L6.99016 21.2916C4.00016 22.7816 0.850157 19.5716 2.41016 16.6216L3.23016 15.0816C3.34016 14.8716 3.52016 14.7016 3.74016 14.6016L16.3802 8.90164C16.9002 8.67164 17.5102 8.88164 17.7702 9.38164L21.5802 16.6216C23.1402 19.5716 20.0002 22.7816 17.0202 21.2916Z" fill="currentColor"/>
<path d="M15.6004 7.68953L7.32045 11.4195C6.39045 11.8395 5.45045 10.8395 5.93045 9.93953L8.97045 4.16953C10.2604 1.71953 13.7604 1.71953 15.0504 4.16953L16.1204 6.20953C16.4004 6.75953 16.1604 7.43953 15.6004 7.68953Z" fill="currentColor"/>
</svg>
