<svg width="24" height="24" viewBox="0 0 24 24" fill="none" xmlns="http://www.w3.org/2000/svg">
<path d="M21.2897 17.0218L19.5497 13.5418C19.0697 12.5718 19.0697 11.4418 19.5497 10.4718L21.2897 6.99178C22.7797 4.00178 19.5697 0.861782 16.6197 2.42178L15.0797 3.24178C14.8697 3.35178 14.6997 3.53178 14.5997 3.75178L8.89969 16.3918C8.66969 16.9118 8.87969 17.5218 9.37969 17.7818L16.6197 21.5918C19.5697 23.1518 22.7797 20.0018 21.2897 17.0218Z" fill="currentColor"/>
<path d="M7.68953 15.6004L11.4195 7.32045C11.8395 6.39045 10.8395 5.45045 9.93953 5.93045L4.16953 8.96045C1.71953 10.2504 1.71953 13.7504 4.16953 15.0404L6.20953 16.1104C6.75953 16.4004 7.42953 16.1704 7.68953 15.6004Z" fill="currentColor"/>
</svg>
