<svg width="24" height="24" viewBox="0 0 24 24" fill="none" xmlns="http://www.w3.org/2000/svg">
<path d="M17.0202 2.71825L13.5402 4.45825C12.5702 4.93825 11.4402 4.93825 10.4702 4.45825L6.98022 2.70825C4.00022 1.21825 0.850218 4.43825 2.41022 7.38825L3.23022 8.92825C3.34022 9.13825 3.52022 9.30825 3.74022 9.40825L16.3902 15.0982C16.9102 15.3282 17.5202 15.1182 17.7802 14.6182L21.5902 7.37825C23.1402 4.43825 20.0002 1.21825 17.0202 2.71825Z" fill="currentColor"/>
<path d="M15.6004 16.3093L7.32045 12.5793C6.39045 12.1593 5.45045 13.1593 5.93045 14.0593L8.97045 19.8293C10.2604 22.2793 13.7604 22.2793 15.0504 19.8293L16.1204 17.7893C16.4004 17.2393 16.1604 16.5693 15.6004 16.3093Z" fill="currentColor"/>
</svg>
