<svg width="24" height="24" viewBox="0 0 24 24" fill="none" xmlns="http://www.w3.org/2000/svg">
<path d="M22.6498 18.1302C22.5498 17.7302 22.1498 17.4802 21.7498 17.5802C21.3498 17.6802 21.0998 18.0802 21.1898 18.4802C21.2298 18.6502 21.2498 18.8202 21.2498 19.0002C21.2498 20.2402 20.2398 21.2502 18.9998 21.2502C17.7598 21.2502 16.7498 20.2402 16.7498 19.0002C16.7498 17.9002 17.5398 16.9902 18.5898 16.7902C18.4898 17.0202 18.4998 17.3002 18.6598 17.5202C18.8098 17.7202 19.0398 17.8302 19.2698 17.8302C19.4198 17.8302 19.5798 17.7802 19.7098 17.6902L20.8798 16.8402C20.8898 16.8302 20.8898 16.8202 20.8998 16.8202C20.9098 16.8102 20.9198 16.8102 20.9298 16.8002C20.9598 16.7702 20.9798 16.7402 20.9998 16.7002C21.0298 16.6602 21.0698 16.6302 21.0898 16.5802C21.1098 16.5402 21.1198 16.4902 21.1398 16.4502C21.1498 16.4002 21.1698 16.3602 21.1798 16.3102C21.1898 16.2602 21.1798 16.2202 21.1698 16.1702C21.1698 16.1202 21.1698 16.0702 21.1498 16.0202C21.1398 15.9702 21.1098 15.9302 21.0898 15.8902C21.0698 15.8502 21.0598 15.8102 21.0398 15.7802C21.0298 15.7702 21.0198 15.7702 21.0098 15.7602C20.9998 15.7602 20.9998 15.7502 20.9998 15.7402L19.9998 14.5902C19.7298 14.2802 19.2498 14.2402 18.9398 14.5202C18.7198 14.7202 18.6398 15.0102 18.7198 15.2802C16.7898 15.4302 15.2598 17.0302 15.2598 19.0002C15.2598 21.0702 16.9398 22.7502 19.0098 22.7502C21.0798 22.7502 22.7598 21.0702 22.7598 19.0002C22.7498 18.7102 22.7198 18.4102 22.6498 18.1302Z" fill="currentColor"/>
<path d="M2.02977 14.6289C2.02977 14.6589 2.00977 14.6989 2.00977 14.7289C2.92977 16.5689 4.42977 18.0789 6.26977 18.9889C6.29977 18.9889 6.33977 18.9689 6.36977 18.9689C6.02977 17.8089 5.76977 16.6189 5.57977 15.4289C4.37977 15.2289 3.18977 14.9689 2.02977 14.6289Z" fill="currentColor"/>
<path d="M19.0701 6.43141C18.1301 4.46141 16.5401 2.87141 14.5801 1.94141C14.9401 3.13141 15.2401 4.35141 15.4401 5.57141C16.6601 5.77141 17.8801 6.06141 19.0701 6.43141Z" fill="currentColor"/>
<path d="M1.92969 6.42953C3.12969 6.06953 4.34969 5.76953 5.56969 5.56953C5.76969 4.37953 6.01969 3.19953 6.35969 2.03953C6.32969 2.03953 6.28969 2.01953 6.25969 2.01953C4.37969 2.94953 2.84969 4.51953 1.92969 6.42953Z" fill="currentColor"/>
<path d="M13.8197 5.36C13.5797 4.06 13.2797 2.76 12.8497 1.5C12.8297 1.43 12.8297 1.37 12.8197 1.29C12.0797 1.11 11.2997 1 10.4997 1C9.68969 1 8.91969 1.11 8.16969 1.3C8.15969 1.37 8.16969 1.43 8.14969 1.51C7.72969 2.77 7.41969 4.06 7.17969 5.36C9.38969 5.12 11.6097 5.12 13.8197 5.36Z" fill="currentColor"/>
<path d="M5.36 7.17969C4.05 7.41969 2.77 7.72969 1.5 8.14969C1.43 8.16969 1.37 8.16969 1.3 8.17969C1.11 8.91969 1 9.69969 1 10.4997C1 11.3097 1.11 12.0797 1.3 12.8297C1.37 12.8397 1.43 12.8297 1.51 12.8497C2.77 13.2697 4.06 13.5797 5.37 13.8197C5.12 11.6097 5.12 9.38969 5.36 7.17969Z" fill="currentColor"/>
<path d="M19.6999 8.17969C19.6299 8.17969 19.5699 8.16969 19.4899 8.14969C18.2299 7.72969 16.9299 7.41969 15.6299 7.17969C15.8799 9.38969 15.8799 11.6097 15.6299 13.8097C16.9299 13.5697 18.2299 13.2697 19.4899 12.8397C19.5599 12.8197 19.6199 12.8297 19.6999 12.8197C19.8799 12.0697 19.9999 11.2997 19.9999 10.4897C19.9999 9.69969 19.8899 8.92969 19.6999 8.17969Z" fill="currentColor"/>
<path d="M7.17969 15.6389C7.41969 16.9489 7.71969 18.2389 8.14969 19.4989C8.16969 19.5689 8.15969 19.6289 8.16969 19.7089C8.91969 19.8889 9.68969 19.9989 10.4997 19.9989C11.2997 19.9989 12.0797 19.8889 12.8197 19.6989C12.8297 19.6289 12.8297 19.5689 12.8497 19.4889C13.2697 18.2289 13.5797 16.9389 13.8197 15.6289C12.7197 15.7489 11.6097 15.8389 10.4997 15.8389C9.38969 15.8389 8.27969 15.7589 7.17969 15.6389Z" fill="currentColor"/>
<path d="M6.94961 6.95156C6.64961 9.31156 6.64961 11.6916 6.94961 14.0616C9.30961 14.3616 11.6896 14.3616 14.0596 14.0616C14.3596 11.7016 14.3596 9.32156 14.0596 6.95156C11.6896 6.65156 9.30961 6.65156 6.94961 6.95156Z" fill="currentColor"/>
</svg>
