<svg width="24" height="24" viewBox="0 0 24 24" fill="none" xmlns="http://www.w3.org/2000/svg">
<path d="M7.64957 20.9098C7.61957 20.9098 7.57957 20.9298 7.54957 20.9298C5.60957 19.9698 4.02957 18.3798 3.05957 16.4398C3.05957 16.4098 3.07957 16.3698 3.07957 16.3398C4.29957 16.6998 5.55957 16.9698 6.80957 17.1798C7.02957 18.4398 7.28957 19.6898 7.64957 20.9098Z" fill="currentColor"/>
<path d="M20.94 16.4498C19.95 18.4398 18.3 20.0498 16.29 21.0198C16.67 19.7498 16.99 18.4698 17.2 17.1798C18.46 16.9698 19.7 16.6998 20.92 16.3398C20.91 16.3798 20.94 16.4198 20.94 16.4498Z" fill="currentColor"/>
<path d="M21.02 7.71047C19.76 7.33047 18.49 7.02047 17.2 6.80047C16.99 5.51047 16.68 4.23047 16.29 2.98047C18.36 3.97047 20.03 5.64047 21.02 7.71047Z" fill="currentColor"/>
<path d="M7.65047 3.08859C7.29047 4.30859 7.03047 5.54859 6.82047 6.80859C5.53047 7.00859 4.25047 7.32859 2.98047 7.70859C3.95047 5.69859 5.56047 4.04859 7.55047 3.05859C7.58047 3.05859 7.62047 3.08859 7.65047 3.08859Z" fill="currentColor"/>
<path d="M15.4898 6.59C13.1698 6.33 10.8298 6.33 8.50977 6.59C8.75977 5.22 9.07977 3.85 9.52977 2.53C9.54977 2.45 9.53977 2.39 9.54977 2.31C10.3398 2.12 11.1498 2 11.9998 2C12.8398 2 13.6598 2.12 14.4398 2.31C14.4498 2.39 14.4498 2.45 14.4698 2.53C14.9198 3.86 15.2398 5.22 15.4898 6.59Z" fill="currentColor"/>
<path d="M6.59 15.4917C5.21 15.2417 3.85 14.9217 2.53 14.4717C2.45 14.4517 2.39 14.4617 2.31 14.4517C2.12 13.6617 2 12.8517 2 12.0017C2 11.1617 2.12 10.3417 2.31 9.56172C2.39 9.55172 2.45 9.55172 2.53 9.53172C3.86 9.09172 5.21 8.76172 6.59 8.51172C6.34 10.8317 6.34 13.1717 6.59 15.4917Z" fill="currentColor"/>
<path d="M22.0002 12.0017C22.0002 12.8517 21.8802 13.6617 21.6902 14.4517C21.6102 14.4617 21.5502 14.4517 21.4702 14.4717C20.1402 14.9117 18.7802 15.2417 17.4102 15.4917C17.6702 13.1717 17.6702 10.8317 17.4102 8.51172C18.7802 8.76172 20.1502 9.08172 21.4702 9.53172C21.5502 9.55172 21.6102 9.56172 21.6902 9.56172C21.8802 10.3517 22.0002 11.1617 22.0002 12.0017Z" fill="currentColor"/>
<path d="M15.4898 17.4102C15.2398 18.7902 14.9198 20.1502 14.4698 21.4702C14.4498 21.5502 14.4498 21.6102 14.4398 21.6902C13.6598 21.8802 12.8398 22.0002 11.9998 22.0002C11.1498 22.0002 10.3398 21.8802 9.54977 21.6902C9.53977 21.6102 9.54977 21.5502 9.52977 21.4702C9.08977 20.1402 8.75977 18.7902 8.50977 17.4102C9.66977 17.5402 10.8298 17.6302 11.9998 17.6302C13.1698 17.6302 14.3398 17.5402 15.4898 17.4102Z" fill="currentColor"/>
<path d="M15.7633 15.7633C13.2622 16.0789 10.7378 16.0789 8.23667 15.7633C7.92111 13.2622 7.92111 10.7378 8.23667 8.23667C10.7378 7.92111 13.2622 7.92111 15.7633 8.23667C16.0789 10.7378 16.0789 13.2622 15.7633 15.7633Z" fill="currentColor"/>
</svg>
