<svg width="24" height="24" viewBox="0 0 24 24" fill="none" xmlns="http://www.w3.org/2000/svg">
<path d="M15.7796 20.9809C14.7196 22.0009 13.3596 22.5109 11.9996 22.5109C10.6396 22.5109 9.27965 21.9909 8.21965 20.9709C7.85965 20.6309 7.49965 20.2509 7.13965 19.8609L20.0396 6.96094C20.2896 7.50094 20.4796 8.07094 20.6196 8.70094C21.7896 13.8609 18.6296 18.2209 15.7796 20.9809Z" fill="currentColor"/>
<path d="M21.7699 2.22891C21.4699 1.92891 20.9799 1.92891 20.6799 2.22891L2.22988 20.6889C1.92988 20.9889 1.92988 21.4789 2.22988 21.7789C2.37988 21.9189 2.56988 21.9989 2.76988 21.9989C2.96988 21.9989 3.15988 21.9189 3.30988 21.7689L21.7699 3.30891C22.0799 3.00891 22.0799 2.52891 21.7699 2.22891Z" fill="currentColor"/>
<path d="M8.84963 10.31C8.84963 8.57 10.2596 7.16 11.9996 7.16C13.3096 7.16 14.4296 7.96 14.9096 9.1L18.8896 5.12C17.1196 2.98 14.4396 2 11.9996 2C10.2296 2 8.33963 2.52 6.75963 3.61C5.17963 4.71 3.89963 6.38 3.37963 8.69C2.53963 12.36 3.89963 15.64 5.78963 18.21L10.7896 13.21C9.64963 12.74 8.84963 11.61 8.84963 10.31Z" fill="currentColor"/>
</svg>
