<svg width="24" height="24" viewBox="0 0 24 24" fill="none" xmlns="http://www.w3.org/2000/svg">
<path d="M9.15039 7.48828C8.59039 7.48828 8.15039 7.93828 8.15039 8.48828C8.15039 9.03828 8.60039 9.48828 9.15039 9.48828C9.70039 9.48828 10.1504 9.03828 10.1504 8.48828C10.1504 7.93828 9.70039 7.48828 9.15039 7.48828Z" fill="currentColor"/>
<path d="M21.46 5.04C20.62 3.09 18.77 2 16.19 2H7.81C4.6 2 2 4.6 2 7.81V16.19C2 18.77 3.09 20.62 5.04 21.46C5.23 21.54 5.45 21.49 5.59 21.35L21.35 5.59C21.5 5.44 21.55 5.22 21.46 5.04ZM10.53 12.24C10.14 12.62 9.63 12.8 9.12 12.8C8.61 12.8 8.1 12.61 7.71 12.24C6.69 11.28 5.57 9.75 6 7.93C6.38 6.28 7.84 5.54 9.12 5.54C10.4 5.54 11.86 6.28 12.24 7.94C12.66 9.75 11.54 11.28 10.53 12.24Z" fill="currentColor"/>
<path d="M19.4699 20.5295C19.6899 20.7495 19.6599 21.1095 19.3899 21.2595C18.5099 21.7495 17.4399 21.9995 16.1899 21.9995H7.8099C7.5199 21.9995 7.3999 21.6595 7.5999 21.4595L13.6399 15.4195C13.8399 15.2195 14.1499 15.2195 14.3499 15.4195L19.4699 20.5295Z" fill="currentColor"/>
<path d="M21.9998 7.80892V16.1889C21.9998 17.4389 21.7498 18.5189 21.2598 19.3889C21.1098 19.6589 20.7498 19.6789 20.5298 19.4689L15.4098 14.3489C15.2098 14.1489 15.2098 13.8389 15.4098 13.6389L21.4498 7.59892C21.6598 7.39892 21.9998 7.51892 21.9998 7.80892Z" fill="currentColor"/>
</svg>
