<svg width="24" height="24" viewBox="0 0 24 24" fill="none" xmlns="http://www.w3.org/2000/svg">
<path d="M20.1004 6.94C20.1004 7.48 19.8104 7.97 19.3504 8.22L17.6104 9.16L16.1304 9.95L13.0604 11.61C12.7304 11.79 12.3704 11.88 12.0004 11.88C11.6304 11.88 11.2704 11.79 10.9404 11.61L4.65039 8.22C4.19039 7.97 3.90039 7.48 3.90039 6.94C3.90039 6.4 4.19039 5.91 4.65039 5.66L6.62039 4.6L8.19039 3.75L10.9404 2.27C11.6004 1.91 12.4004 1.91 13.0604 2.27L19.3504 5.66C19.8104 5.91 20.1004 6.4 20.1004 6.94Z" fill="currentColor"/>
<path d="M9.89973 12.7901L4.04973 9.87014C3.59973 9.64014 3.07973 9.67014 2.64973 9.93014C2.21973 10.1901 1.96973 10.6501 1.96973 11.1501V16.6801C1.96973 17.6401 2.49973 18.5001 3.35973 18.9301L9.20973 21.8501C9.40973 21.9501 9.62973 22.0001 9.84973 22.0001C10.1097 22.0001 10.3697 21.9301 10.5997 21.7801C11.0297 21.5201 11.2797 21.0601 11.2797 20.5601V15.0301C11.2897 14.0801 10.7597 13.2201 9.89973 12.7901Z" fill="currentColor"/>
<path d="M22.03 11.1496V16.6796C22.03 17.6296 21.5 18.4896 20.64 18.9196L14.79 21.8496C14.59 21.9496 14.37 21.9996 14.15 21.9996C13.89 21.9996 13.63 21.9296 13.39 21.7796C12.97 21.5196 12.71 21.0596 12.71 20.5596V15.0396C12.71 14.0796 13.24 13.2196 14.1 12.7896L16.25 11.7196L17.75 10.9696L19.95 9.86964C20.4 9.63964 20.92 9.65964 21.35 9.92964C21.77 10.1896 22.03 10.6496 22.03 11.1496Z" fill="currentColor"/>
<path d="M17.6101 9.16L16.1301 9.95L6.62012 4.6L8.19012 3.75L17.3701 8.93C17.4701 8.99 17.5501 9.07 17.6101 9.16Z" fill="currentColor"/>
<path d="M17.75 10.9688V13.2387C17.75 13.6487 17.41 13.9887 17 13.9887C16.59 13.9887 16.25 13.6487 16.25 13.2387V11.7188L17.75 10.9688Z" fill="currentColor"/>
</svg>
