<svg width="24" height="24" viewBox="0 0 24 24" fill="none" xmlns="http://www.w3.org/2000/svg">
<path d="M17.6005 5.31125L11.9505 2.27125C11.3505 1.95125 10.6405 1.95125 10.0405 2.27125L4.40047 5.31125C3.99047 5.54125 3.73047 5.98125 3.73047 6.46125C3.73047 6.95125 3.98047 7.39125 4.40047 7.61125L10.0505 10.6512C10.3505 10.8112 10.6805 10.8913 11.0005 10.8913C11.3205 10.8913 11.6605 10.8112 11.9505 10.6512L17.6005 7.61125C18.0105 7.39125 18.2705 6.95125 18.2705 6.46125C18.2705 5.98125 18.0105 5.54125 17.6005 5.31125Z" fill="currentColor"/>
<path d="M9.12 11.7106L3.87 9.09058C3.46 8.88058 3 8.91058 2.61 9.14058C2.23 9.38058 2 9.79058 2 10.2406V15.2006C2 16.0606 2.48 16.8306 3.25 17.2206L8.5 19.8406C8.68 19.9306 8.88 19.9806 9.08 19.9806C9.31 19.9806 9.55 19.9106 9.76 19.7906C10.14 19.5506 10.37 19.1406 10.37 18.6906V13.7306C10.36 12.8706 9.88 12.1006 9.12 11.7106Z" fill="currentColor"/>
<path d="M19.9996 10.2406V12.7006C19.5196 12.5606 19.0096 12.5006 18.4996 12.5006C17.1396 12.5006 15.8096 12.9706 14.7596 13.8106C13.3196 14.9406 12.4996 16.6506 12.4996 18.5006C12.4996 18.9906 12.5596 19.4806 12.6896 19.9506C12.5396 19.9306 12.3896 19.8706 12.2496 19.7806C11.8696 19.5506 11.6396 19.1406 11.6396 18.6906V13.7306C11.6396 12.8706 12.1196 12.1006 12.8796 11.7106L18.1296 9.09058C18.5396 8.88058 18.9996 8.91058 19.3896 9.14058C19.7696 9.38058 19.9996 9.79058 19.9996 10.2406Z" fill="currentColor"/>
<path d="M21.6804 15.3206C20.7904 14.4306 19.6104 13.9806 18.4404 14.0006C17.3104 14.0106 16.1804 14.4606 15.3204 15.3206C14.7204 15.9106 14.3304 16.6506 14.1404 17.4206C14.0304 17.8406 13.9904 18.2706 14.0204 18.7006V18.7506C14.0204 18.8206 14.0304 18.8806 14.0404 18.9606C14.0404 18.9606 14.0404 18.9606 14.0504 18.9706V19.0006C14.1404 19.9806 14.5604 20.9306 15.3204 21.6806C16.4804 22.8406 18.1104 23.2306 19.5804 22.8606C20.0204 22.7506 20.4504 22.5706 20.8504 22.3306C21.1504 22.1606 21.4304 21.9406 21.6804 21.6806C22.4304 20.9306 22.8604 19.9806 22.9504 18.9906C22.9604 18.9906 22.9604 18.9706 22.9604 18.9606C22.9804 18.8906 22.9804 18.8106 22.9804 18.7406C22.9804 18.7306 22.9904 18.7106 22.9904 18.6906C23.0504 17.4806 22.6104 16.2406 21.6804 15.3206ZM20.2304 20.2106C19.9404 20.5006 19.4704 20.5006 19.1704 20.2106L18.5104 19.5506L17.8304 20.2306C17.5304 20.5306 17.0604 20.5306 16.7704 20.2306C16.4704 19.9406 16.4704 19.4706 16.7704 19.1706L17.4504 18.4906L16.7904 17.8306C16.5004 17.5306 16.5004 17.0606 16.7904 16.7706C17.0904 16.4706 17.5604 16.4706 17.8604 16.7706L18.5104 17.4306L19.1404 16.7906C19.4404 16.5006 19.9104 16.5006 20.2104 16.7906C20.5004 17.0906 20.5004 17.5606 20.2104 17.8606L19.5704 18.4906L20.2304 19.1406C20.5304 19.4406 20.5304 19.9106 20.2304 20.2106Z" fill="currentColor"/>
</svg>
