<svg width="24" height="24" viewBox="0 0 24 24" fill="none" xmlns="http://www.w3.org/2000/svg">
<path d="M5.33012 19.4213C5.22012 19.4213 5.10012 19.3913 5.00012 19.3413L2.78012 18.2312C2.53012 18.1012 2.37012 17.8412 2.37012 17.5612V14.7812C2.37012 14.3713 2.71012 14.0312 3.12012 14.0312C3.53012 14.0312 3.87012 14.3713 3.87012 14.7812V17.0913L5.67012 18.0013C6.04012 18.1813 6.19012 18.6313 6.00012 19.0013C5.87012 19.2613 5.61012 19.4213 5.33012 19.4213Z" fill="currentColor"/>
<path d="M12 22.7488C11.94 22.7488 11.88 22.7388 11.83 22.7288C11.77 22.7188 11.71 22.6888 11.65 22.6588L9.43996 21.5588C9.06996 21.3688 8.91996 20.9187 9.09996 20.5487C9.28996 20.1787 9.73996 20.0287 10.11 20.2087L11.25 20.7788V19.2188C11.25 18.8088 11.59 18.4688 12 18.4688C12.41 18.4688 12.75 18.8088 12.75 19.2188V20.7788L13.89 20.2087C14.26 20.0287 14.71 20.1787 14.9 20.5487C15.09 20.9187 14.94 21.3688 14.56 21.5588L12.35 22.6588C12.29 22.6888 12.23 22.7088 12.17 22.7288C12.11 22.7388 12.06 22.7488 12 22.7488Z" fill="currentColor"/>
<path d="M18.6702 19.4191C18.4002 19.4191 18.1302 19.2691 18.0002 19.0091C17.8102 18.6391 17.9602 18.1891 18.3402 17.9991L20.1502 17.0991V14.7891C20.1502 14.3791 20.4902 14.0391 20.9002 14.0391C21.3102 14.0391 21.6502 14.3791 21.6502 14.7891V17.5691C21.6502 17.8491 21.4902 18.1091 21.2402 18.2391L19.0002 19.3391C18.8902 19.3891 18.7802 19.4191 18.6702 19.4191Z" fill="currentColor"/>
<path d="M12 14.4191C11.59 14.4191 11.25 14.0791 11.25 13.6691V11.3591L9.43996 10.4591C9.06996 10.2691 8.91996 9.81907 9.09996 9.44907C9.28996 9.07907 9.73996 8.92907 10.11 9.10907L12 10.0491L13.89 9.10907C14.26 8.92907 14.71 9.06907 14.9 9.44907C15.09 9.81907 14.94 10.2691 14.56 10.4591L12.75 11.3591V13.6691C12.75 14.0791 12.41 14.4191 12 14.4191Z" fill="currentColor"/>
<path d="M3.10986 9.96807C2.69986 9.96807 2.35986 9.62807 2.35986 9.21807V6.45807V6.44807C2.35986 6.38807 2.36986 6.32807 2.37986 6.27807C2.39986 6.18807 2.42986 6.11807 2.46986 6.04807C2.49986 5.99807 2.53986 5.95807 2.57986 5.91807C2.61986 5.87807 2.66986 5.83807 2.71986 5.80807C2.73986 5.79807 2.76986 5.77807 2.78986 5.76807L4.99986 4.65807C5.36986 4.47807 5.81986 4.62807 5.99986 4.99807C6.18986 5.36807 6.03986 5.81807 5.66986 5.99807L4.78986 6.43807L5.66986 6.87807C6.03986 7.06807 6.18986 7.51807 5.99986 7.88807C5.81986 8.25807 5.36986 8.40807 4.99986 8.22807L3.85986 7.65807V9.21807C3.85986 9.63807 3.52986 9.96807 3.10986 9.96807Z" fill="currentColor"/>
<path d="M14.2198 3.85859C14.1098 3.85859 13.9898 3.82859 13.8898 3.77859L11.9998 2.83859L10.1098 3.77859C9.73981 3.96859 9.28981 3.81859 9.10981 3.44859C8.91981 3.07859 9.06981 2.62859 9.43981 2.43859L11.6598 1.32859C11.8698 1.21859 12.1198 1.21859 12.3298 1.32859L14.5498 2.43859C14.9198 2.62859 15.0698 3.07859 14.8898 3.44859C14.7598 3.70859 14.4998 3.85859 14.2198 3.85859Z" fill="currentColor"/>
<path d="M20.8899 9.96807C20.4799 9.96807 20.1399 9.62807 20.1399 9.21807V7.65807L18.9999 8.22807C18.6299 8.40807 18.1799 8.25807 17.9999 7.88807C17.8099 7.51807 17.9599 7.06807 18.3399 6.87807L19.2199 6.43807L18.3299 5.99807C17.9599 5.81807 17.8099 5.36807 17.9999 4.99807C18.1899 4.62807 18.6299 4.47807 18.9999 4.65807L21.2099 5.75807C21.2299 5.76807 21.2599 5.77807 21.2799 5.79807C21.3399 5.82807 21.3899 5.87807 21.4399 5.92807C21.4699 5.96807 21.4999 6.00807 21.5299 6.04807C21.5699 6.11807 21.5999 6.18807 21.6199 6.26807C21.6299 6.32807 21.6399 6.38807 21.6399 6.43807V6.44807V9.20807C21.6399 9.63807 21.2999 9.96807 20.8899 9.96807Z" fill="currentColor"/>
</svg>
