<svg width="24" height="24" viewBox="0 0 24 24" fill="none" xmlns="http://www.w3.org/2000/svg">
<path d="M8.82005 4.90101L7.54005 2.78101C7.06005 2.00101 6.11005 1.56101 5.22005 1.82101C3.88005 2.22101 3.36005 3.73101 4.03005 4.84101L5.35005 7.01101C5.50005 7.24101 5.81005 7.32101 6.04005 7.18101L8.65005 5.59101C8.89005 5.44101 8.97005 5.13101 8.82005 4.90101Z" fill="currentColor"/>
<path d="M19.7399 14.2098L16.9299 10.4098C15.9499 9.08984 14.2499 8.46984 12.6499 8.89984C12.6499 8.88984 12.6399 8.88984 12.6399 8.87984L10.9799 6.14984C10.6799 5.67984 10.0599 5.52984 9.58988 5.81984L6.11988 7.92984C5.63988 8.20984 5.48988 8.83984 5.77988 9.31984L7.42988 12.0498C7.42988 12.0498 7.42988 12.0598 7.43988 12.0598C6.32988 13.2898 6.08988 15.0798 6.82988 16.5698L8.90988 20.8098C9.54988 22.1198 11.0599 22.6198 12.3399 21.9598C12.4399 21.9098 12.4699 21.7898 12.4099 21.6898L10.8499 19.1098C10.6299 18.7498 10.7399 18.2898 11.0999 18.0598C11.4599 17.8498 11.9199 17.9598 12.1499 18.3098L13.7199 20.8898C13.7799 20.9798 13.8999 21.0098 13.9899 20.9598L14.9499 20.3798C15.0399 20.3198 15.0699 20.1998 15.0199 20.1098L13.4499 17.5298C13.2399 17.1698 13.3499 16.7098 13.6999 16.4798C14.0699 16.2698 14.5299 16.3798 14.7499 16.7298L16.3199 19.3098C16.3799 19.3998 16.4999 19.4298 16.5899 19.3798L17.5499 18.7998C17.6399 18.7398 17.6699 18.6198 17.6199 18.5298L16.0499 15.9498C15.8399 15.5898 15.9499 15.1298 16.2999 14.8998C16.6699 14.6898 17.1299 14.7998 17.3499 15.1498L18.9299 17.7198C18.9899 17.8098 19.1099 17.8398 19.1999 17.7798C20.3599 16.9498 20.6199 15.3898 19.7399 14.2098Z" fill="currentColor"/>
</svg>
