<svg width="24" height="24" viewBox="0 0 24 24" fill="none" xmlns="http://www.w3.org/2000/svg">
<path d="M15.59 1.75C12.62 1.75 10.21 4.16 10.21 7.13C10.21 10.1 12.62 12.51 15.59 12.51C18.56 12.51 20.97 10.1 20.97 7.13C20.97 4.16 18.56 1.75 15.59 1.75Z" fill="currentColor"/>
<path d="M6.35979 13.0312C4.52979 13.0312 3.02979 14.5213 3.02979 16.3613C3.02979 18.2013 4.51979 19.6913 6.35979 19.6913C8.18979 19.6913 9.68979 18.2013 9.68979 16.3613C9.68979 14.5213 8.18979 13.0312 6.35979 13.0312Z" fill="currentColor"/>
<path d="M16.6201 16.6211C15.0701 16.6211 13.8101 17.8811 13.8101 19.4311C13.8101 20.9811 15.0701 22.2411 16.6201 22.2411C18.1701 22.2411 19.4301 20.9811 19.4301 19.4311C19.4301 17.8811 18.1701 16.6211 16.6201 16.6211Z" fill="currentColor"/>
</svg>
