<svg width="24" height="24" viewBox="0 0 24 24" fill="none" xmlns="http://www.w3.org/2000/svg">
<path d="M20.8899 13V14H20.0199C19.2799 14 18.6799 14.6 18.6799 15.35V15.65C18.6799 16.4 18.0799 17 17.3299 17C16.5899 17 15.9899 16.4 15.9899 15.65V15.35C15.9899 14.6 15.3799 14 14.6399 14C13.8999 14 13.2999 14.6 13.2999 15.35V15.65C13.2999 16.4 12.6899 17 11.9499 17C11.2099 17 10.5999 16.4 10.5999 15.65V15.35C10.5999 14.6 9.99986 14 9.25986 14C8.51986 14 7.90986 14.6 7.90986 15.35V15.65C7.90986 16.4 7.30986 17 6.56986 17C5.81986 17 5.21986 16.4 5.21986 15.65V15.33C5.21986 14.59 4.62986 13.99 3.89986 13.98H3.10986V13C3.10986 11.62 4.14986 10.45 5.55986 10.11C5.83986 10.04 6.12986 10 6.43986 10H17.5599C17.8699 10 18.1599 10.04 18.4399 10.11C19.8499 10.45 20.8899 11.62 20.8899 13Z" fill="currentColor"/>
<path d="M18.4401 7.17V8.58C18.1501 8.52 17.8601 8.5 17.5601 8.5H6.44006C6.14006 8.5 5.85006 8.53 5.56006 8.59V7.17C5.56006 5.97 6.64006 5 7.98006 5H16.0201C17.3601 5 18.4401 5.97 18.4401 7.17Z" fill="currentColor"/>
<path d="M8.75 3.54844V5.00844H7.98C7.72 5.00844 7.48 5.03844 7.25 5.09844V3.54844C7.25 3.19844 7.59 2.89844 8 2.89844C8.41 2.89844 8.75 3.19844 8.75 3.54844Z" fill="currentColor"/>
<path d="M16.75 3.32812V5.09812C16.52 5.02813 16.28 4.99813 16.02 4.99813H15.25V3.32812C15.25 2.91813 15.59 2.57812 16 2.57812C16.41 2.57812 16.75 2.91813 16.75 3.32812Z" fill="currentColor"/>
<path d="M12.75 2.82V5H11.25V2.82C11.25 2.37 11.59 2 12 2C12.41 2 12.75 2.37 12.75 2.82Z" fill="currentColor"/>
<path d="M22 21.2505C22 21.6605 21.66 22.0005 21.25 22.0005H2.75C2.34 22.0005 2 21.6605 2 21.2505C2 20.8405 2.34 20.5005 2.75 20.5005H3.11V15.4805H3.72V15.5505C3.72 16.8905 4.6 18.1305 5.91 18.4205C6.93 18.6605 7.9 18.3305 8.56 17.6805C8.94 17.3005 9.56 17.2905 9.94 17.6705C10.46 18.1805 11.17 18.5005 11.95 18.5005C12.73 18.5005 13.44 18.1905 13.96 17.6705C14.34 17.3005 14.95 17.3005 15.34 17.6805C15.99 18.3305 16.96 18.6605 17.99 18.4205C19.3 18.1305 20.18 16.8905 20.18 15.5505V15.5005H20.89V20.5005H21.25C21.66 20.5005 22 20.8405 22 21.2505Z" fill="currentColor"/>
</svg>
