<svg width="24" height="24" viewBox="0 0 24 24" fill="none" xmlns="http://www.w3.org/2000/svg">
<path d="M11.82 6.9C14.68 6.28 17.58 6.19 20.45 6.66C18.68 3.86 15.56 2 12 2C8.89002 2 6.11002 3.42 4.27002 5.65C4.71002 6.95 5.27002 8.19 5.94002 9.37C6.32002 10.05 7.29002 10.02 7.68002 9.35C8.53002 7.92 10.06 6.96 11.82 6.9Z" fill="currentColor"/>
<path d="M7.72002 14.7214C5.72002 12.5814 4.16002 10.1414 3.09002 7.44141C1.59002 10.4014 1.60002 14.0314 3.43002 17.0814C5.03002 19.7514 7.67002 21.4114 10.53 21.8414C11.42 20.7914 12.2 19.6714 12.87 18.5014C13.26 17.8214 12.73 17.0114 11.95 17.0114C10.28 17.0214 8.67002 16.2014 7.72002 14.7214Z" fill="currentColor"/>
<path d="M8.56982 11.9982C8.56982 12.6082 8.71982 13.1782 9.02982 13.7182C9.63982 14.7682 10.7698 15.4282 11.9898 15.4282C13.2098 15.4282 14.3498 14.7682 14.9498 13.7182C15.2598 13.1782 15.4198 12.6082 15.4198 11.9982C15.4198 10.1082 13.8798 8.57817 11.9898 8.57817C10.1098 8.56817 8.56982 10.1082 8.56982 11.9982Z" fill="currentColor"/>
<path d="M21.3402 8.41931C19.9702 8.12931 18.5802 7.96931 17.2002 7.94931C16.4102 7.93931 15.9602 8.79931 16.3502 9.48931C16.7502 10.1993 16.9802 11.0193 16.9802 11.8893C16.9802 12.7293 16.7602 13.5593 16.3502 14.2993C15.4102 17.1793 14.0102 19.7393 12.1602 21.9993C17.6102 21.9093 22.0002 17.4693 22.0002 11.9993C22.0002 10.7393 21.7702 9.52931 21.3402 8.41931Z" fill="currentColor"/>
</svg>
