<svg width="24" height="24" viewBox="0 0 24 24" fill="none" xmlns="http://www.w3.org/2000/svg">
<path d="M20.9499 4.12891L4.12988 20.9489C5.07988 21.6389 6.31988 21.9989 7.80988 21.9989H16.1899C19.8299 21.9989 21.9999 19.8289 21.9999 16.1889V7.80891C21.9999 6.31891 21.6399 5.07891 20.9499 4.12891ZM18.4999 16.2489H16.8099V17.9989C16.8099 18.4089 16.4699 18.7489 16.0599 18.7489C15.6499 18.7489 15.3099 18.4089 15.3099 17.9989V16.2489H13.4999C13.0899 16.2489 12.7499 15.9089 12.7499 15.4989C12.7499 15.0889 13.0899 14.7489 13.4999 14.7489H15.3099V12.9989C15.3099 12.5889 15.6499 12.2489 16.0599 12.2489C16.4699 12.2489 16.8099 12.5889 16.8099 12.9989V14.7489H18.4999C18.9099 14.7489 19.2499 15.0889 19.2499 15.4989C19.2499 15.9089 18.9099 16.2489 18.4999 16.2489Z" fill="currentColor"/>
<path d="M16.19 2H7.81C4.17 2 2 4.17 2 7.81V16.19C2 17.68 2.36 18.92 3.05 19.87L19.87 3.05C18.92 2.36 17.68 2 16.19 2ZM10.5 8.25H5.5C5.09 8.25 4.75 7.91 4.75 7.5C4.75 7.09 5.09 6.75 5.5 6.75H10.5C10.91 6.75 11.25 7.09 11.25 7.5C11.25 7.91 10.91 8.25 10.5 8.25Z" fill="currentColor"/>
</svg>
