<svg width="24" height="24" viewBox="0 0 24 24" fill="none" xmlns="http://www.w3.org/2000/svg">
<path d="M11.25 18.2509H9C7.9 18.2509 7 19.1509 7 20.2509V20.5009H6C5.59 20.5009 5.25 20.8409 5.25 21.2509C5.25 21.6609 5.59 22.0009 6 22.0009H18C18.41 22.0009 18.75 21.6609 18.75 21.2509C18.75 20.8409 18.41 20.5009 18 20.5009H17V20.2509C17 19.1509 16.1 18.2509 15 18.2509H12.75V15.9609C12.5 15.9909 12.25 16.0009 12 16.0009C11.75 16.0009 11.5 15.9909 11.25 15.9609V18.2509Z" fill="currentColor"/>
<path d="M18.4798 11.64C19.1398 11.39 19.7198 10.98 20.1798 10.52C21.1098 9.49 21.7198 8.26 21.7198 6.82C21.7198 5.38 20.5898 4.25 19.1498 4.25H18.5898C17.9398 2.92 16.5798 2 14.9998 2H8.99979C7.41979 2 6.05978 2.92 5.40979 4.25H4.84979C3.40979 4.25 2.27979 5.38 2.27979 6.82C2.27979 8.26 2.88979 9.49 3.81979 10.52C4.27979 10.98 4.85979 11.39 5.51979 11.64C6.55978 14.2 9.05979 16 11.9998 16C14.9398 16 17.4398 14.2 18.4798 11.64ZM14.8398 8.45L14.2198 9.21C14.1198 9.32 14.0498 9.54 14.0598 9.69L14.1198 10.67C14.1598 11.27 13.7298 11.58 13.1698 11.36L12.2598 11C12.1198 10.95 11.8798 10.95 11.7398 11L10.8298 11.36C10.2698 11.58 9.83979 11.27 9.87979 10.67L9.93979 9.69C9.94979 9.54 9.87979 9.32 9.77979 9.21L9.15979 8.45C8.76979 7.99 8.93979 7.48 9.51979 7.33L10.4698 7.09C10.6198 7.05 10.7998 6.91 10.8798 6.78L11.4098 5.96C11.7398 5.45 12.2598 5.45 12.5898 5.96L13.1198 6.78C13.1998 6.91 13.3798 7.05 13.5298 7.09L14.4798 7.33C15.0598 7.48 15.2298 7.99 14.8398 8.45Z" fill="currentColor"/>
</svg>
