<svg width="24" height="24" viewBox="0 0 24 24" fill="none" xmlns="http://www.w3.org/2000/svg">
<path d="M20.9799 3.02084C20.1099 2.15084 18.8799 1.81084 17.6899 2.11084L7.88986 4.56084C6.23986 4.97084 4.96986 6.25084 4.55986 7.89084L2.10986 17.7008C1.80986 18.8908 2.14986 20.1208 3.01986 20.9908C3.67986 21.6408 4.54986 22.0008 5.44986 22.0008C5.72986 22.0008 6.01986 21.9708 6.29986 21.8908L16.1099 19.4408C17.7499 19.0308 19.0299 17.7608 19.4399 16.1108L21.8899 6.30084C22.1899 5.11084 21.8499 3.88084 20.9799 3.02084ZM11.9999 15.8808C9.85986 15.8808 8.11986 14.1408 8.11986 12.0008C8.11986 9.86084 9.85986 8.12084 11.9999 8.12084C14.1399 8.12084 15.8799 9.86084 15.8799 12.0008C15.8799 14.1408 14.1399 15.8808 11.9999 15.8808Z" fill="currentColor"/>
</svg>
