<svg width="24" height="24" viewBox="0 0 24 24" fill="none" xmlns="http://www.w3.org/2000/svg">
<path d="M20.5999 4.10156V6.30156C20.5999 7.10156 20.0999 8.10156 19.5999 8.60156L15.2999 12.4016C14.6999 12.9016 14.2999 13.9016 14.2999 14.7016V19.0016C14.2999 19.6016 13.8999 20.4016 13.3999 20.7016L11.9999 21.6016C10.6999 22.4016 8.89988 21.5016 8.89988 19.9016V14.6016C8.89988 13.9016 8.49989 13.0016 8.09989 12.5016L7.62989 12.0116C7.31989 11.6816 7.25989 11.1816 7.50989 10.7916L12.6299 2.57156C12.8099 2.28156 13.1299 2.10156 13.4799 2.10156H18.5999C19.6999 2.10156 20.5999 3.00156 20.5999 4.10156Z" fill="currentColor"/>
<path d="M10.3499 3.63156L6.7999 9.32156C6.4599 9.87156 5.6799 9.95156 5.2299 9.48156L4.2999 8.50156C3.7999 8.00156 3.3999 7.10156 3.3999 6.50156V4.20156C3.3999 3.00156 4.2999 2.10156 5.3999 2.10156H9.4999C10.2799 2.10156 10.7599 2.96156 10.3499 3.63156Z" fill="currentColor"/>
</svg>
