<svg width="24" height="24" viewBox="0 0 24 24" fill="none" xmlns="http://www.w3.org/2000/svg">
<path d="M11.9702 2C6.45021 2 1.97021 6.48 1.97021 12C1.97021 17.52 6.45021 22 11.9702 22C17.4902 22 21.9702 17.52 21.9702 12C21.9702 6.48 17.5002 2 11.9702 2ZM15.7202 12.35L12.0002 16.58L11.5602 17.08C10.9502 17.77 10.4502 17.59 10.4502 16.66V12.7H8.75021C7.98021 12.7 7.77021 12.23 8.28021 11.65L12.0002 7.42L12.4402 6.92C13.0502 6.23 13.5502 6.41 13.5502 7.34V11.3H15.2502C16.0202 11.3 16.2302 11.77 15.7202 12.35Z" fill="currentColor"/>
</svg>
