<svg width="24" height="24" viewBox="0 0 24 24" fill="none" xmlns="http://www.w3.org/2000/svg">
<path d="M21.7699 2.22891C21.4699 1.92891 20.9799 1.92891 20.6799 2.22891L2.22988 20.6889C1.92988 20.9889 1.92988 21.4789 2.22988 21.7789C2.37988 21.9189 2.56988 21.9989 2.76988 21.9989C2.96988 21.9989 3.15988 21.9189 3.30988 21.7689L21.7699 3.30891C22.0799 3.00891 22.0799 2.52891 21.7699 2.22891Z" fill="currentColor"/>
<path d="M14.82 3.52087V9.18087L9.18001 14.8209V13.2809H6.09001C4.69001 13.2809 4.30001 12.4209 5.23001 11.3709L12 3.67087L12.8 2.76087C13.91 1.50087 14.82 1.84087 14.82 3.52087Z" fill="currentColor"/>
<path d="M18.7702 12.6287L12.0002 20.3287L11.2002 21.2387C10.0902 22.4987 9.18018 22.1587 9.18018 20.4787V17.8187L16.2802 10.7188H17.9102C19.3102 10.7188 19.7002 11.5787 18.7702 12.6287Z" fill="currentColor"/>
</svg>
