<svg width="24" height="24" viewBox="0 0 24 24" fill="none" xmlns="http://www.w3.org/2000/svg">
<path d="M17.02 2.88C16.54 2.4 15.58 2 14.9 2H9.1C8.42 2 7.46 2.4 6.98 2.88L2.88 6.98C2.4 7.46 2 8.42 2 9.1V14.9C2 15.58 2.4 16.54 2.88 17.02L4.41 18.55L18.55 4.41L17.02 2.88Z" fill="currentColor"/>
<path d="M21.1202 6.97875L19.6102 5.46875L5.47021 19.6088L6.98022 21.1188C7.46022 21.5988 8.42022 21.9988 9.10022 21.9988H14.9002C15.5802 21.9988 16.5402 21.5988 17.0202 21.1188L21.1202 17.0188C21.6002 16.5388 22.0002 15.5788 22.0002 14.8988V9.09875C22.0002 8.41875 21.6002 7.45875 21.1202 6.97875Z" fill="currentColor"/>
<path d="M2.48996 20.4708C2.19996 20.7608 2.19996 21.2408 2.48996 21.5308C2.63996 21.6808 2.82996 21.7508 3.01996 21.7508C3.20996 21.7508 3.39996 21.6808 3.54996 21.5308L5.46996 19.6108L4.40996 18.5508L2.48996 20.4708Z" fill="currentColor"/>
<path d="M21.5298 3.55094C21.8198 3.26094 21.8198 2.78094 21.5298 2.49094C21.2398 2.20094 20.7598 2.20094 20.4698 2.49094L18.5498 4.41094L19.6098 5.47094L21.5298 3.55094Z" fill="currentColor"/>
</svg>
