<svg width="24" height="24" viewBox="0 0 24 24" fill="none" xmlns="http://www.w3.org/2000/svg">
<path d="M20.8598 8.36985L13.9298 2.82985C12.8598 1.96985 11.1298 1.96985 10.0698 2.81985L3.13978 8.36985C2.35978 8.98985 1.85978 10.2998 2.02978 11.2798L3.35978 19.2398C3.59978 20.6598 4.95978 21.8098 6.39978 21.8098H17.5998C19.0298 21.8098 20.3998 20.6498 20.6398 19.2398L21.9698 11.2798C22.1298 10.2998 21.6298 8.98985 20.8598 8.36985ZM12.7098 17.1999C12.5098 17.3998 12.2598 17.4998 11.9998 17.4998C11.7398 17.4998 11.4898 17.3998 11.2898 17.2098C10.8998 16.8198 10.8998 16.1898 11.2898 15.7998C11.6798 15.4098 12.3198 15.4098 12.7098 15.7998C13.0998 16.1798 13.0998 16.8098 12.7098 17.1999ZM14.6598 14.8998C14.5098 15.0498 14.3198 15.1298 14.1198 15.1298C13.9298 15.1298 13.7498 15.0598 13.5998 14.9198C12.6298 13.9898 11.3698 13.9898 10.3898 14.9198C10.0898 15.2098 9.61978 15.1998 9.32978 14.8998C9.03978 14.5998 9.04978 14.1298 9.34978 13.8398C10.8998 12.3498 13.0698 12.3498 14.6298 13.8398C14.9398 14.1198 14.9498 14.5998 14.6598 14.8998ZM16.7798 12.7798C16.6298 12.9298 16.4398 13.0098 16.2398 13.0098C16.0498 13.0098 15.8598 12.9398 15.7198 12.7998C15.2498 12.3398 14.7198 11.9698 14.1598 11.6998C12.7598 11.0298 11.2298 11.0298 9.83978 11.6998C9.27978 11.9698 8.75978 12.3398 8.27978 12.7998C7.98978 13.0898 7.50978 13.0898 7.21978 12.7898C6.92978 12.4898 6.93978 12.0198 7.22978 11.7298C7.81978 11.1498 8.47978 10.6898 9.18978 10.3498C10.9998 9.47985 12.9998 9.47985 14.7998 10.3498C15.5098 10.6898 16.1698 11.1498 16.7598 11.7298C17.0598 12.0098 17.0698 12.4898 16.7798 12.7798Z" fill="currentColor"/>
</svg>
