<svg width="24" height="24" viewBox="0 0 24 24" fill="none" xmlns="http://www.w3.org/2000/svg">
<path d="M20.5398 19.0413C20.3898 19.1913 20.1998 19.2613 20.0098 19.2613C19.8198 19.2613 19.6298 19.1913 19.4798 19.0413L14.5298 14.0913L15.0598 13.5613L15.5898 13.0312L20.5398 17.9812C20.8298 18.2712 20.8298 18.7513 20.5398 19.0413Z" fill="currentColor"/>
<path d="M6.46986 9.27814L12.2699 15.0781C12.6599 15.4681 12.6599 16.0981 12.2699 16.4881L11.3699 17.3981C10.5599 18.1981 9.27986 18.1981 8.47986 17.3981L4.13986 13.0581C3.34986 12.2681 3.34986 10.9781 4.13986 10.1781L5.04986 9.26814C5.43986 8.88814 6.07986 8.88814 6.46986 9.27814Z" fill="currentColor"/>
<path d="M18.5898 10.1897L14.7798 13.9897C14.3798 14.3897 13.7398 14.3897 13.3398 13.9897L7.55977 8.20969C7.15977 7.80969 7.15977 7.16969 7.55977 6.76969L11.3698 2.95969C12.1598 2.16969 13.4498 2.16969 14.2498 2.95969L18.5898 7.29969C19.3798 8.09969 19.3798 9.37969 18.5898 10.1897Z" fill="currentColor"/>
<path d="M8 21.75H2C1.59 21.75 1.25 21.41 1.25 21C1.25 20.59 1.59 20.25 2 20.25H8C8.41 20.25 8.75 20.59 8.75 21C8.75 21.41 8.41 21.75 8 21.75Z" fill="currentColor"/>
</svg>
