<svg width="24" height="24" viewBox="0 0 24 24" fill="none" xmlns="http://www.w3.org/2000/svg">
<path d="M12.5002 5.48125C12.5802 5.48125 12.6602 5.48125 12.7502 5.49125V2.53125C12.7502 2.12125 12.4102 1.78125 12.0002 1.78125C11.5902 1.78125 11.2502 2.12125 11.2502 2.53125V5.49125C11.3302 5.48125 11.4102 5.48125 11.5002 5.48125C6.89021 5.71125 3.22021 9.51125 3.22021 14.1813V16.1213C3.22021 17.2213 4.12021 18.1213 5.22021 18.1213H18.7802C19.8802 18.1213 20.7802 17.2213 20.7802 16.1213V14.1813C20.7802 9.51125 17.1102 5.71125 12.5002 5.48125Z" fill="currentColor"/>
<path d="M14.7301 19.1094C15.0601 19.1094 15.3001 19.4194 15.2201 19.7394C14.8401 21.1694 13.5401 22.2194 12.0001 22.2194C10.4601 22.2194 9.16013 21.1694 8.78013 19.7394C8.70013 19.4194 8.94013 19.1094 9.27013 19.1094H14.7301Z" fill="currentColor"/>
</svg>
