<svg width="24" height="24" viewBox="0 0 24 24" fill="none" xmlns="http://www.w3.org/2000/svg">
<path d="M21 7.52V13.4C21 13.74 20.67 13.98 20.35 13.88L16.42 12.66C15.34 12.33 14.18 12.61 13.39 13.4C12.59 14.2 12.3 15.37 12.64 16.45L13.85 20.35C13.95 20.67 13.71 21 13.37 21H7.52C4.07 21 2 18.94 2 15.48V7.52C2 4.06 4.07 2 7.52 2H15.48C18.93 2 21 4.06 21 7.52Z" fill="currentColor"/>
<path d="M21.9602 18.8385L20.3302 19.3885C19.8802 19.5385 19.5202 19.8885 19.3702 20.3485L18.8202 21.9785C18.3502 23.3885 16.3702 23.3585 15.9302 21.9485L14.0802 15.9985C13.7202 14.8185 14.8102 13.7185 15.9802 14.0885L21.9402 15.9385C23.3402 16.3785 23.3602 18.3685 21.9602 18.8385Z" fill="currentColor"/>
</svg>
