<svg width="24" height="24" viewBox="0 0 24 24" fill="none" xmlns="http://www.w3.org/2000/svg">
<path d="M20.9602 17.8385L19.3302 18.3885C18.8802 18.5385 18.5202 18.8885 18.3702 19.3485L17.8202 20.9785C17.3502 22.3885 15.3702 22.3585 14.9302 20.9485L13.0802 14.9985C12.7202 13.8185 13.8102 12.7185 14.9802 13.0885L20.9402 14.9385C22.3402 15.3785 22.3602 17.3685 20.9602 17.8385Z" fill="currentColor"/>
<path d="M20.9999 11.4994C20.9999 11.9294 20.9699 12.3594 20.9199 12.7794C20.8799 13.0794 20.5699 13.2594 20.2799 13.1694L15.4299 11.6594C14.3499 11.3294 13.1999 11.6094 12.3999 12.3994C11.5999 13.1994 11.3099 14.3694 11.6499 15.4494L13.1499 20.2794C13.2399 20.5694 13.0499 20.8794 12.7499 20.9194C12.3299 20.9694 11.9199 20.9994 11.4999 20.9994C6.15991 20.9994 1.85991 16.6094 1.99991 11.2294C2.13991 6.26942 6.26991 2.13942 11.2299 1.99942C16.6099 1.85942 20.9999 6.15942 20.9999 11.4994Z" fill="currentColor"/>
</svg>
