<svg width="24" height="24" viewBox="0 0 24 24" fill="none" xmlns="http://www.w3.org/2000/svg">
<path d="M19.0798 15.7203C18.4898 12.1903 15.0998 9.32031 11.5198 9.32031C7.62979 9.32031 4.20979 12.4703 3.87979 16.3503C3.74979 17.8503 4.22979 19.2703 5.21979 20.3403C6.19979 21.4103 7.57979 22.0003 9.07979 22.0003H13.7598C15.4498 22.0003 16.9298 21.3403 17.9398 20.1503C18.9498 18.9603 19.3498 17.3803 19.0798 15.7203Z" fill="currentColor"/>
<path d="M10.2801 7.86C11.8983 7.86 13.2101 6.54819 13.2101 4.93C13.2101 3.31181 11.8983 2 10.2801 2C8.6619 2 7.3501 3.31181 7.3501 4.93C7.3501 6.54819 8.6619 7.86 10.2801 7.86Z" fill="currentColor"/>
<path d="M16.94 9.02844C18.2876 9.02844 19.38 7.93601 19.38 6.58844C19.38 5.24086 18.2876 4.14844 16.94 4.14844C15.5924 4.14844 14.5 5.24086 14.5 6.58844C14.5 7.93601 15.5924 9.02844 16.94 9.02844Z" fill="currentColor"/>
<path d="M20.5501 12.9313C21.6271 12.9313 22.5001 12.0582 22.5001 10.9812C22.5001 9.90429 21.6271 9.03125 20.5501 9.03125C19.4731 9.03125 18.6001 9.90429 18.6001 10.9812C18.6001 12.0582 19.4731 12.9313 20.5501 12.9313Z" fill="currentColor"/>
<path d="M3.94 10.9816C5.28757 10.9816 6.38 9.88914 6.38 8.54156C6.38 7.19399 5.28757 6.10156 3.94 6.10156C2.59243 6.10156 1.5 7.19399 1.5 8.54156C1.5 9.88914 2.59243 10.9816 3.94 10.9816Z" fill="currentColor"/>
</svg>
