<svg width="24" height="24" viewBox="0 0 24 24" fill="none" xmlns="http://www.w3.org/2000/svg">
<path d="M22.9998 15.3714V17.5614C22.9998 20.0014 21.2198 22.3014 18.7998 22.9714C18.6298 23.0114 18.4498 23.0114 18.2898 22.9714C17.1098 22.6514 16.0698 21.9314 15.3398 21.0014C14.5498 20.0214 14.0898 18.8114 14.0898 17.5614V15.3714C14.0898 14.9514 14.3998 14.4914 14.7798 14.3314L17.5598 13.1914C18.1898 12.9414 18.8898 12.9414 19.5198 13.1914L20.5198 13.6014L22.3098 14.3314C22.6898 14.4914 22.9998 14.9514 22.9998 15.3714Z" fill="currentColor"/>
<path d="M20.9498 11.0113L20.7698 12.0813L20.0698 11.8013C19.0798 11.4013 17.9998 11.4013 16.9898 11.8013L14.1998 12.9513C13.2498 13.3513 12.5898 14.3413 12.5898 15.3713V17.5613C12.5898 18.7513 12.9198 19.9413 13.5298 21.0013H6.17979C4.80979 21.0013 3.51979 19.9113 3.28979 18.5613L2.02979 11.0113C1.86979 10.0813 2.33979 8.83126 3.07979 8.24126L9.65979 2.98126C10.6698 2.17126 12.3098 2.17126 13.3198 2.99126L19.8998 8.24126C20.6298 8.83126 21.1098 10.0813 20.9498 11.0113Z" fill="currentColor"/>
</svg>
