<svg width="24" height="24" viewBox="0 0 24 24" fill="none" xmlns="http://www.w3.org/2000/svg">
<path d="M18.0698 8.50867L9.50978 4.22867C3.75978 1.34867 1.39978 3.70867 4.27978 9.45867L5.14978 11.1987C5.39978 11.7087 5.39978 12.2987 5.14978 12.8087L4.27978 14.5387C1.39978 20.2887 3.74978 22.6487 9.50978 19.7687L18.0698 15.4887C21.9098 13.5687 21.9098 10.4287 18.0698 8.50867ZM14.8398 12.7487H9.43977C9.02978 12.7487 8.68977 12.4087 8.68977 11.9987C8.68977 11.5887 9.02978 11.2487 9.43977 11.2487H14.8398C15.2498 11.2487 15.5898 11.5887 15.5898 11.9987C15.5898 12.4087 15.2498 12.7487 14.8398 12.7487Z" fill="currentColor"/>
</svg>
