<svg width="24" height="24" viewBox="0 0 24 24" fill="none" xmlns="http://www.w3.org/2000/svg">
<path d="M20.3601 12.7315C19.9901 12.7315 19.6801 12.4515 19.6401 12.0815C19.4001 9.88154 18.2201 7.90154 16.4001 6.64154C16.0701 6.41154 15.9901 5.96154 16.2201 5.63154C16.4501 5.30154 16.9001 5.22154 17.2301 5.45154C19.4001 6.96154 20.8001 9.32154 21.0901 11.9315C21.1301 12.3315 20.8401 12.6915 20.4401 12.7315C20.4101 12.7315 20.3901 12.7315 20.3601 12.7315Z" fill="currentColor"/>
<path d="M3.7398 12.7812C3.7198 12.7812 3.6898 12.7812 3.6698 12.7812C3.2698 12.7412 2.9798 12.3812 3.0198 11.9812C3.2898 9.37118 4.6698 7.01118 6.8198 5.49118C7.1398 5.26118 7.5998 5.34118 7.8298 5.66118C8.0598 5.99118 7.9798 6.44118 7.6598 6.67118C5.8598 7.95118 4.6898 9.93118 4.4698 12.1212C4.4298 12.5012 4.1098 12.7812 3.7398 12.7812Z" fill="currentColor"/>
<path d="M15.9901 21.1003C14.7601 21.6903 13.4401 21.9903 12.0601 21.9903C10.6201 21.9903 9.2501 21.6703 7.9701 21.0203C7.6101 20.8503 7.4701 20.4103 7.6501 20.0503C7.8201 19.6903 8.2601 19.5503 8.6201 19.7203C9.2501 20.0403 9.9201 20.2603 10.6001 20.3903C11.5201 20.5703 12.4601 20.5803 13.3801 20.4203C14.0601 20.3003 14.7301 20.0903 15.3501 19.7903C15.7201 19.6203 16.1601 19.7603 16.3201 20.1303C16.5001 20.4903 16.3601 20.9303 15.9901 21.1003Z" fill="currentColor"/>
<path d="M12.05 2.01172C10.5 2.01172 9.22998 3.27172 9.22998 4.83172C9.22998 6.39172 10.49 7.65172 12.05 7.65172C13.61 7.65172 14.87 6.39172 14.87 4.83172C14.87 3.27172 13.61 2.01172 12.05 2.01172Z" fill="currentColor"/>
<path d="M5.04998 13.8711C3.49998 13.8711 2.22998 15.1311 2.22998 16.6911C2.22998 18.2511 3.48998 19.5111 5.04998 19.5111C6.60998 19.5111 7.86998 18.2511 7.86998 16.6911C7.86998 15.1311 6.59998 13.8711 5.04998 13.8711Z" fill="currentColor"/>
<path d="M18.9499 13.8711C17.3999 13.8711 16.1299 15.1311 16.1299 16.6911C16.1299 18.2511 17.3899 19.5111 18.9499 19.5111C20.5099 19.5111 21.7699 18.2511 21.7699 16.6911C21.7699 15.1311 20.5099 13.8711 18.9499 13.8711Z" fill="currentColor"/>
</svg>
