<svg width="24" height="24" viewBox="0 0 24 24" fill="none" xmlns="http://www.w3.org/2000/svg">
<path d="M19.53 5.53L5.53 19.53C5.51 19.55 5.5 19.56 5.48 19.57C5.1 19.25 4.75 18.9 4.43 18.52C2.91 16.77 2 14.49 2 12C2 6.48 6.48 2 12 2C14.49 2 16.77 2.91 18.52 4.43C18.9 4.75 19.25 5.1 19.57 5.48C19.56 5.5 19.55 5.51 19.53 5.53Z" fill="currentColor"/>
<path d="M21.9999 12.0008C21.9999 17.4908 17.4899 22.0008 11.9999 22.0008C10.4999 22.0008 9.07986 21.6708 7.79986 21.0708C7.17986 20.7808 7.05986 19.9508 7.53986 19.4608L19.4599 7.54084C19.9399 7.06084 20.7799 7.18084 21.0699 7.80084C21.6699 9.07084 21.9999 10.5008 21.9999 12.0008Z" fill="currentColor"/>
<path d="M21.7699 2.22891C21.4699 1.92891 20.9799 1.92891 20.6799 2.22891L2.22988 20.6889C1.92988 20.9889 1.92988 21.4789 2.22988 21.7789C2.37988 21.9189 2.56988 21.9989 2.76988 21.9989C2.96988 21.9989 3.15988 21.9189 3.30988 21.7689L21.7699 3.30891C22.0799 3.00891 22.0799 2.52891 21.7699 2.22891Z" fill="currentColor"/>
</svg>
