<svg width="24" height="24" viewBox="0 0 24 24" fill="none" xmlns="http://www.w3.org/2000/svg">
<path d="M20.8598 8.56126L13.9298 3.02126C12.8598 2.16126 11.1298 2.16126 10.0698 3.01126L3.13978 8.56126C2.35978 9.18126 1.85978 10.4913 2.02978 11.4713L3.35978 19.4313C3.59978 20.8513 4.95978 22.0013 6.39978 22.0013H17.5998C19.0298 22.0013 20.3998 20.8413 20.6398 19.4313L21.9698 11.4713C22.1298 10.4913 21.6298 9.18126 20.8598 8.56126ZM9.37978 17.3813C8.81978 17.3813 8.37978 16.9313 8.37978 16.3813C8.37978 15.8313 8.82978 15.3813 9.37978 15.3813C9.92978 15.3813 10.3798 15.8313 10.3798 16.3813C10.3798 16.9313 9.92978 17.3813 9.37978 17.3813ZM12.3898 17.1213C12.3798 17.1213 12.3798 17.1213 12.3698 17.1213C11.9598 17.1213 11.6298 16.7913 11.6198 16.3913C11.5898 15.0413 10.6998 14.1513 9.34978 14.1213C8.93978 14.1113 8.60978 13.7713 8.61978 13.3513C8.62978 12.9413 8.95978 12.6213 9.36978 12.6213C9.37978 12.6213 9.37978 12.6213 9.38978 12.6213C11.5398 12.6713 13.0798 14.2013 13.1198 16.3513C13.1298 16.7713 12.8098 17.1213 12.3898 17.1213ZM15.3798 17.1213C14.9598 17.1213 14.6298 16.7913 14.6198 16.3813C14.6098 15.7213 14.4998 15.0913 14.2998 14.5013C13.7898 13.0413 12.6998 11.9613 11.2398 11.4413C10.6498 11.2313 10.0198 11.1213 9.35978 11.1213C8.94978 11.1213 8.60978 10.7813 8.61978 10.3613C8.61978 9.95126 8.95978 9.62126 9.36978 9.62126H9.37978C10.2098 9.63126 10.9998 9.77126 11.7398 10.0313C13.6298 10.7013 15.0398 12.1113 15.7098 14.0013C15.9698 14.7413 16.1098 15.5413 16.1198 16.3613C16.1298 16.7813 15.7998 17.1213 15.3798 17.1213Z" fill="currentColor"/>
</svg>
