<svg width="24" height="24" viewBox="0 0 24 24" fill="none" xmlns="http://www.w3.org/2000/svg">
<path d="M8.99987 14.2188H3.91987C3.30987 14.2188 2.74987 14.5287 2.42987 15.0487C2.10987 15.5587 2.07987 16.1687 2.33987 16.7087C3.56987 19.2287 5.78987 21.2087 8.42987 22.1387C8.60987 22.1987 8.80987 22.2387 8.99987 22.2387C9.34987 22.2387 9.69987 22.1287 9.99987 21.9187C10.4699 21.5887 10.7499 21.0487 10.7499 20.4787L10.7599 15.9787C10.7599 15.5087 10.5799 15.0687 10.2499 14.7387C9.90987 14.4087 9.46987 14.2188 8.99987 14.2188Z" fill="currentColor"/>
<path d="M22.4799 9.6C21.3599 4.68 17.0499 1.25 11.9999 1.25C6.94993 1.25 2.63993 4.68 1.51993 9.6C1.39993 10.12 1.51993 10.65 1.85993 11.07C2.19993 11.49 2.69993 11.73 3.23993 11.73H20.7699C21.3099 11.73 21.8099 11.49 22.1499 11.07C22.4799 10.65 22.5999 10.11 22.4799 9.6Z" fill="currentColor"/>
<path d="M20.06 14.2717L15 14.2617C14.53 14.2617 14.09 14.4417 13.76 14.7717C13.43 15.1017 13.25 15.5417 13.25 16.0117L13.26 20.4917C13.26 21.0617 13.54 21.6017 14.01 21.9317C14.31 22.1417 14.66 22.2517 15.01 22.2517C15.2 22.2517 15.39 22.2217 15.57 22.1517C18.19 21.2317 20.41 19.2617 21.64 16.7717C21.9 16.2417 21.87 15.6217 21.56 15.1217C21.23 14.5817 20.67 14.2717 20.06 14.2717Z" fill="currentColor"/>
</svg>
