<svg width="24" height="24" viewBox="0 0 24 24" fill="none" xmlns="http://www.w3.org/2000/svg">
<path d="M21.96 11.6608C20.77 10.9108 19.39 10.5008 17.97 10.5008C13.83 10.5008 10.47 13.8608 10.47 18.0008C10.47 19.4208 10.87 20.7908 11.62 21.9808C11.16 21.9708 10.69 21.9208 10.21 21.8508C6.09999 21.1508 2.78999 17.8208 2.10999 13.7008C0.97999 6.85075 6.81999 1.01075 13.67 2.14075C17.79 2.82075 21.12 6.13075 21.82 10.2408C21.9 10.7208 21.95 11.2008 21.96 11.6608Z" fill="currentColor"/>
<path d="M13.3802 21.86C12.5002 20.82 11.9702 19.47 11.9702 18C11.9702 14.69 14.6602 12 17.9702 12C19.4402 12 20.7902 12.53 21.8302 13.41" fill="currentColor"/>
</svg>
