<svg width="24" height="24" viewBox="0 0 24 24" fill="none" xmlns="http://www.w3.org/2000/svg">
<path d="M16.42 7.95109C18.86 10.3911 18.86 14.3511 16.42 16.7911C13.98 19.2311 10.02 19.2311 7.58 16.7911C5.14 14.3511 5.14 10.3911 7.58 7.95109C10.02 5.51109 13.98 5.51109 16.42 7.95109Z" fill="currentColor"/>
<path d="M8.25003 22.3889C8.16003 22.3889 8.06003 22.3689 7.97003 22.3389C5.72003 21.4389 3.90003 19.8489 2.68003 17.7489C1.50003 15.6989 1.03003 13.3789 1.34003 11.0189C1.39003 10.6089 1.78003 10.3189 2.18003 10.3689C2.59003 10.4189 2.88003 10.7989 2.83003 11.2089C2.57003 13.2389 2.97003 15.2389 3.98003 16.9989C5.02003 18.7989 6.59003 20.1689 8.52003 20.9389C8.90003 21.0989 9.09003 21.5289 8.94003 21.9189C8.83003 22.2089 8.54003 22.3889 8.25003 22.3889Z" fill="currentColor"/>
<path d="M5.8501 5.22937C5.6301 5.22937 5.41011 5.12937 5.26011 4.93937C5.00011 4.61937 5.0601 4.14938 5.3901 3.88938C7.2901 2.39938 9.5801 1.60938 12.0001 1.60938C14.3601 1.60938 16.6101 2.36937 18.5001 3.80937C18.8301 4.05937 18.8901 4.52938 18.6401 4.85938C18.3901 5.18937 17.9201 5.24937 17.5901 4.99937C15.9601 3.75937 14.0301 3.10937 12.0001 3.10937C9.9201 3.10937 7.9501 3.78938 6.3101 5.06938C6.1701 5.17937 6.0101 5.22937 5.8501 5.22937Z" fill="currentColor"/>
<path d="M15.7502 22.3906C15.4502 22.3906 15.1702 22.2106 15.0502 21.9206C14.9002 21.5406 15.0802 21.1006 15.4702 20.9406C17.4002 20.1606 18.9702 18.8006 20.0102 17.0006C21.0302 15.2406 21.4302 13.2406 21.1602 11.2206C21.1102 10.8106 21.4002 10.4306 21.8102 10.3806C22.2102 10.3306 22.6002 10.6206 22.6502 11.0306C22.9502 13.3806 22.4902 15.7106 21.3102 17.7606C20.1002 19.8606 18.2702 21.4406 16.0202 22.3506C15.9402 22.3706 15.8502 22.3906 15.7502 22.3906Z" fill="currentColor"/>
</svg>
