<svg width="24" height="24" viewBox="0 0 24 24" fill="none" xmlns="http://www.w3.org/2000/svg">
<path d="M11.2502 3.89863V12.9186C11.2502 13.2486 11.0902 13.5486 10.8202 13.7386L3.61017 18.7886C3.02017 19.1986 2.18017 18.8786 2.05017 18.1686C1.90017 17.3086 2.10017 16.2986 2.70017 15.2086L5.82017 9.59864L8.76017 4.30863C8.99017 3.89863 9.24017 3.53863 9.50017 3.22863C10.1002 2.52863 11.2502 2.97863 11.2502 3.89863Z" fill="currentColor"/>
<path d="M20.39 18.7886L13.18 13.7386C12.91 13.5486 12.75 13.2486 12.75 12.9186V3.89863C12.75 2.97863 13.9 2.52863 14.5 3.22863C14.76 3.53863 15.01 3.89863 15.24 4.30863L18.18 9.59864L21.3 15.2086C21.9 16.2986 22.1 17.3086 21.95 18.1686C21.82 18.8786 20.98 19.1986 20.39 18.7886Z" fill="currentColor"/>
<path d="M5.26018 19.14L11.4102 15.04C11.7402 14.82 12.2802 14.82 12.6102 15.04L18.7602 19.14C20.3902 20.23 20.1202 21.12 18.1602 21.12H5.85018C3.90018 21.11 3.63018 20.22 5.26018 19.14Z" fill="currentColor"/>
</svg>
