<svg width="24" height="24" viewBox="0 0 24 24" fill="none" xmlns="http://www.w3.org/2000/svg">
<path d="M19.0899 12.5884C18.9299 12.5884 18.7699 12.5384 18.6299 12.4284C14.5999 9.31844 9.38993 9.31844 5.35993 12.4284C5.02993 12.6784 4.55993 12.6184 4.30993 12.2984C4.05993 11.9684 4.11993 11.4984 4.43993 11.2484C9.02993 7.69844 14.9599 7.69844 19.5399 11.2484C19.8699 11.4984 19.9299 11.9684 19.6699 12.2984C19.5399 12.4884 19.3199 12.5884 19.0899 12.5884Z" fill="currentColor"/>
<path d="M22 9.10844C21.84 9.10844 21.68 9.05844 21.54 8.94844C15.74 4.46844 8.25001 4.46844 2.46001 8.94844C2.13001 9.19844 1.66001 9.13844 1.41001 8.81844C1.15001 8.49844 1.21001 8.01844 1.54001 7.76844C7.89001 2.85844 16.1 2.85844 22.46 7.76844C22.79 8.01844 22.85 8.48844 22.59 8.81844C22.45 9.00844 22.22 9.10844 22 9.10844Z" fill="currentColor"/>
<path d="M17.2101 16.2413C17.0501 16.2413 16.8901 16.1913 16.7501 16.0813C13.8701 13.8513 10.1401 13.8513 7.25007 16.0813C6.92007 16.3313 6.45007 16.2713 6.20007 15.9513C5.95007 15.6213 6.01007 15.1513 6.33007 14.9013C9.77007 12.2413 14.2201 12.2413 17.6601 14.9013C17.9901 15.1513 18.0501 15.6213 17.7901 15.9513C17.6501 16.1413 17.4301 16.2413 17.2101 16.2413Z" fill="currentColor"/>
<path d="M14.6002 19.9005C14.4402 19.9005 14.2802 19.8505 14.1402 19.7405C12.8402 18.7305 11.1502 18.7305 9.85017 19.7405C9.52017 19.9905 9.05017 19.9305 8.80017 19.6105C8.55017 19.2805 8.61017 18.8105 8.93017 18.5605C10.7902 17.1205 13.1902 17.1205 15.0502 18.5605C15.3802 18.8105 15.4402 19.2805 15.1802 19.6105C15.0502 19.7905 14.8302 19.9005 14.6002 19.9005Z" fill="currentColor"/>
</svg>
