<svg width="24" height="24" viewBox="0 0 24 24" fill="none" xmlns="http://www.w3.org/2000/svg">
<path d="M15.8396 21.9983H8.15961C3.96961 21.9983 3.13961 19.4683 4.49961 16.3883L5.93961 13.1183C5.93961 13.1183 8.99961 12.9983 11.9996 13.9983C14.9996 14.9983 17.8296 13.1083 17.8296 13.1083L18.0196 12.9883L19.5096 16.3983C20.8496 19.4783 19.9696 21.9983 15.8396 21.9983Z" fill="currentColor"/>
<path d="M15.4403 6.74H15.2803L17.4103 11.6L17.0003 11.86C16.9803 11.87 14.7203 13.32 12.4703 12.58C10.1203 11.79 7.76031 11.65 6.60031 11.63L8.74031 6.74H8.44031C7.79031 6.74 7.19031 6.48 6.76031 6.05C6.33031 5.62 6.07031 5.02 6.07031 4.37C6.07031 3.07 7.13031 2 8.44031 2H15.5503C16.2103 2 16.8003 2.27 17.2303 2.7C17.7903 3.26 18.0803 4.08 17.8603 4.95C17.6003 6.03 16.5603 6.74 15.4403 6.74Z" fill="currentColor"/>
</svg>
