<svg width="24" height="24" viewBox="0 0 24 24" fill="none" xmlns="http://www.w3.org/2000/svg">
<path d="M7.49973 12.0005C7.49973 11.3374 7.64764 10.7076 7.9105 10.1377C8.11401 9.69642 8.07899 9.15973 7.73538 8.81613L5.15832 6.23906C4.74826 5.829 4.07214 5.85053 3.74115 6.32671C2.62071 7.93866 1.96973 9.89445 1.96973 12.0005C1.96973 14.1048 2.61969 16.0592 3.7325 17.6705C4.0625 18.1483 4.73966 18.1714 5.1508 17.7613L7.73386 15.1848C8.07824 14.8413 8.11365 14.304 7.91005 13.8623C7.64747 13.2926 7.49973 12.6632 7.49973 12.0005Z" fill="currentColor"/>
<path d="M12 7.5C12.6631 7.5 13.2928 7.64791 13.8628 7.91078C14.304 8.11428 14.8407 8.07926 15.1843 7.73566L17.7335 5.18643C18.1428 4.77717 18.1223 4.10256 17.6476 3.77141C16.0415 2.65097 14.0844 2 11.97 2C9.86577 2 7.91868 2.64985 6.30974 3.76248C5.83212 4.09277 5.809 4.76993 6.2191 5.18107L8.78017 7.74868C9.12607 8.09546 9.66803 8.12873 10.1116 7.92105C10.6854 7.6524 11.3237 7.5 12 7.5Z" fill="currentColor"/>
<path d="M19.8905 5.90437C19.7128 5.67475 19.3754 5.6628 19.1699 5.86784L15.9511 9.07838C15.7777 9.25133 15.7578 9.52303 15.8817 9.73427C16.2721 10.3997 16.5004 11.1705 16.5004 11.9983C16.5004 12.8263 16.2719 13.5972 15.8814 14.2628C15.7576 14.4738 15.7773 14.7452 15.9503 14.9182L19.1699 18.1377C19.3753 18.3432 19.7131 18.3315 19.8908 18.1016C21.1961 16.4133 21.9704 14.2951 21.9704 11.9983C21.9704 9.70125 21.196 7.59144 19.8905 5.90437Z" fill="currentColor"/>
<path d="M12.0002 16.4984C11.1722 16.4984 10.4013 16.27 9.73571 15.8794C9.52469 15.7556 9.2533 15.7753 9.0803 15.9483L5.83073 19.1979C5.62525 19.4034 5.63699 19.7411 5.8669 19.9189C7.55521 21.2242 9.67336 21.9984 11.9702 21.9984C14.2773 21.9984 16.3971 21.2234 18.078 19.9092C18.306 19.7309 18.3166 19.3949 18.112 19.1902L14.8874 15.9656C14.7156 15.7938 14.4465 15.7731 14.236 15.8945C13.573 16.277 12.8116 16.4984 12.0002 16.4984Z" fill="currentColor"/>
</svg>
