<svg width="24" height="24" viewBox="0 0 24 24" fill="none" xmlns="http://www.w3.org/2000/svg">
<path d="M16.5098 5.01L14.5498 3.05C13.1498 1.65 10.8498 1.65 9.44977 3.05L7.48977 5.01C7.09977 5.4 7.09977 6.04 7.48977 6.43L11.2998 10.24C11.6898 10.63 12.3198 10.63 12.7098 10.24L16.5198 6.43C16.8998 6.04 16.8998 5.4 16.5098 5.01Z" fill="currentColor"/>
<path d="M5.01 7.49172L3.05 9.45172C1.65 10.8517 1.65 13.1517 3.05 14.5517L5.01 16.5117C5.4 16.9017 6.03 16.9017 6.42 16.5117L10.23 12.7017C10.62 12.3117 10.62 11.6817 10.23 11.2917L6.43 7.49172C6.04 7.10172 5.4 7.10172 5.01 7.49172Z" fill="currentColor"/>
<path d="M20.95 9.45172L18.99 7.49172C18.6 7.10172 17.97 7.10172 17.58 7.49172L13.77 11.3017C13.38 11.6917 13.38 12.3217 13.77 12.7117L17.58 16.5217C17.97 16.9117 18.6 16.9117 18.99 16.5217L20.95 14.5617C22.35 13.1517 22.35 10.8517 20.95 9.45172Z" fill="currentColor"/>
<path d="M7.49005 18.9891L9.45005 20.9491C10.8501 22.3491 13.1501 22.3491 14.5501 20.9491L16.5101 18.9891C16.9001 18.5991 16.9001 17.9691 16.5101 17.5791L12.7001 13.7691C12.3101 13.3791 11.6801 13.3791 11.2901 13.7691L7.48005 17.5791C7.10005 17.9591 7.10005 18.5991 7.49005 18.9891Z" fill="currentColor"/>
</svg>
