<svg width="24" height="24" viewBox="0 0 24 24" fill="none" xmlns="http://www.w3.org/2000/svg">
<path d="M16.2402 9.51974L20.9502 14.2297C21.2302 14.5097 21.7202 14.3597 21.8002 13.9697C21.9302 13.3297 22.0002 12.6697 22.0002 11.9997C22.0002 9.70974 21.2202 7.59974 19.9302 5.91974C19.7502 5.67974 19.3902 5.66974 19.1802 5.87974L16.2402 8.81974C16.0502 9.00974 16.0502 9.32974 16.2402 9.51974Z" fill="currentColor"/>
<path d="M14.4796 10.58L12.7096 12.35C12.5096 12.55 12.5096 12.86 12.7096 13.06L18.5296 18.88C18.7296 19.08 19.0496 19.08 19.2396 18.88C19.8596 18.23 20.3896 17.5 20.8196 16.71C20.9196 16.52 20.8796 16.27 20.7296 16.12L15.1896 10.58C14.9896 10.39 14.6696 10.39 14.4796 10.58Z" fill="currentColor"/>
<path d="M10.9403 14.1203L9.18027 15.8803C8.98027 16.0803 8.98027 16.3903 9.18027 16.5903L14.1003 21.5203C14.2303 21.6503 14.4203 21.7003 14.5903 21.6503C15.5203 21.4003 16.4003 21.0203 17.2003 20.5203C17.4703 20.3503 17.5103 19.9703 17.2803 19.7403L11.6503 14.1103C11.4503 13.9303 11.1303 13.9303 10.9403 14.1203Z" fill="currentColor"/>
<path d="M18.0797 4.06967C16.0997 2.53967 13.5297 1.73967 10.7697 2.06967C6.25967 2.60967 2.60967 6.26967 2.06967 10.7697C1.73967 13.5297 2.53967 16.0897 4.06967 18.0797C4.24967 18.3197 4.60967 18.3297 4.81967 18.1197L18.1197 4.81967C18.3297 4.60967 18.3197 4.24967 18.0797 4.06967Z" fill="currentColor"/>
<path d="M7.39974 17.6695L5.87974 19.1895C5.66974 19.3995 5.67974 19.7595 5.91974 19.9395C7.42974 21.1095 9.27974 21.8495 11.3097 21.9895C11.7397 22.0195 11.9497 21.5095 11.6397 21.1995L8.10974 17.6695C7.91974 17.4695 7.59974 17.4695 7.39974 17.6695Z" fill="currentColor"/>
</svg>
