<svg width="24" height="24" viewBox="0 0 24 24" fill="none" xmlns="http://www.w3.org/2000/svg">
<path d="M18.6503 4.59125C16.8903 2.99125 14.5603 2.03125 12.0003 2.03125C6.50027 2.03125 2.03027 6.50125 2.03027 12.0013C2.03027 17.5013 6.50027 21.9712 12.0003 21.9712C14.5603 21.9712 16.8903 21.0112 18.6503 19.4112C20.6903 17.6012 21.9703 14.9412 21.9703 12.0013C21.9703 9.06125 20.6903 6.40125 18.6503 4.59125ZM11.9703 16.3912C11.9503 18.0413 10.7203 18.4412 9.57027 17.9812C7.20027 17.0312 5.53027 14.7113 5.53027 12.0013C5.53027 9.29125 7.20027 6.97125 9.57027 6.01125C10.7203 5.55125 11.9503 5.96125 11.9703 7.60125V16.3912Z" fill="currentColor"/>
</svg>
