<svg width="24" height="24" viewBox="0 0 24 24" fill="none" xmlns="http://www.w3.org/2000/svg">
<path d="M13.4303 15.0014H4.40034C2.58034 15.0014 1.42034 13.0514 2.30034 11.4514L4.63034 7.21141L6.81034 3.24141C7.72034 1.59141 10.1003 1.59141 11.0103 3.24141L13.2003 7.21141L14.2503 9.12141L15.5303 11.4514C16.4103 13.0514 15.2503 15.0014 13.4303 15.0014Z" fill="currentColor"/>
<path d="M22.6498 15.999C22.6498 19.589 19.7398 22.499 16.1498 22.499C13.0998 22.499 10.5498 20.409 9.83977 17.569C9.76977 17.269 9.99977 16.999 10.3098 16.999H14.0798C15.4698 16.999 16.7298 16.279 17.4398 15.089C18.1398 13.889 18.1698 12.449 17.4898 11.229L16.9898 10.309C16.7998 9.96898 17.0698 9.55898 17.4498 9.62898C20.4098 10.229 22.6498 12.849 22.6498 15.999Z" fill="currentColor"/>
</svg>
