<svg width="24" height="24" viewBox="0 0 24 24" fill="none" xmlns="http://www.w3.org/2000/svg">
<path d="M11.75 7H11H7C4.24 7 2 9.24 2 12V17C2 19.76 4.24 22 7 22H12C14.76 22 17 19.76 17 17V13V12.25C17 9.35 14.65 7 11.75 7Z" fill="currentColor"/>
<path d="M21.8796 6.33033C22.4042 8.88991 21.1619 11.2123 19.1588 12.306C18.8512 12.4739 18.4996 12.2343 18.4996 11.8838V11.7503C18.4996 8.31033 15.6896 5.50033 12.2496 5.50033H12.1161C11.7657 5.50033 11.526 5.14879 11.694 4.84119C12.7877 2.8381 15.1101 1.59574 17.6696 2.12033C19.7596 2.55033 21.4496 4.24033 21.8796 6.33033Z" fill="currentColor"/>
</svg>
