<svg width="24" height="24" viewBox="0 0 24 24" fill="none" xmlns="http://www.w3.org/2000/svg">
<path d="M10.7502 4.64035L6.32022 2.45035C3.93022 1.28035 1.97021 2.47035 1.97021 5.09035V19.9303C1.97021 21.0703 2.92021 22.0003 4.08021 22.0003H11.5002C12.0502 22.0003 12.5002 21.5503 12.5002 21.0003V7.41035C12.5002 6.36035 11.7102 5.11035 10.7502 4.64035ZM8.97021 13.7503H5.50021C5.09021 13.7503 4.75021 13.4103 4.75021 13.0003C4.75021 12.5903 5.09021 12.2503 5.50021 12.2503H8.97021C9.38021 12.2503 9.72021 12.5903 9.72021 13.0003C9.72021 13.4103 9.39021 13.7503 8.97021 13.7503ZM8.97021 9.75035H5.50021C5.09021 9.75035 4.75021 9.41035 4.75021 9.00035C4.75021 8.59035 5.09021 8.25035 5.50021 8.25035H8.97021C9.38021 8.25035 9.72021 8.59035 9.72021 9.00035C9.72021 9.41035 9.39021 9.75035 8.97021 9.75035Z" fill="currentColor"/>
<path d="M22 18.0391V19.4991C22 20.8791 20.88 21.9991 19.5 21.9991H14.97C14.43 21.9991 14 21.5691 14 21.0291V18.8691C15.07 18.9991 16.2 18.6891 17.01 18.0391C17.69 18.5891 18.56 18.9191 19.51 18.9191C20.44 18.9191 21.31 18.5891 22 18.0391Z" fill="currentColor"/>
<path d="M22 15.0505V15.0605C21.92 16.3705 20.85 17.4205 19.51 17.4205C18.12 17.4205 17.01 16.2905 17.01 14.9205C17.01 16.4505 15.6 17.6805 14 17.3705V12.0005C14 11.3605 14.59 10.8805 15.22 11.0205L17.01 11.4205L17.49 11.5305L19.53 11.9905C20.02 12.0905 20.47 12.2605 20.86 12.5105C20.86 12.5205 20.87 12.5205 20.87 12.5205C20.97 12.5905 21.07 12.6705 21.16 12.7605C21.62 13.2205 21.92 13.8905 21.99 14.8705C21.99 14.9305 22 14.9905 22 15.0505Z" fill="currentColor"/>
</svg>
