<svg width="24" height="24" viewBox="0 0 24 24" fill="none" xmlns="http://www.w3.org/2000/svg">
<path d="M23.5302 12.0483C23.2402 11.7583 22.7602 11.7583 22.4702 12.0483L22.0102 12.5083V11.9983C22.0102 6.47828 17.5202 1.98828 12.0002 1.98828C8.95024 1.98828 6.10024 3.35828 4.19025 5.73828C3.93025 6.05828 3.98024 6.53828 4.31025 6.79828C4.63024 7.04828 5.10025 6.99828 5.36025 6.67828C6.99025 4.64828 9.41024 3.48828 12.0002 3.48828C16.6902 3.48828 20.5102 7.30828 20.5102 11.9983V12.4983L20.0502 12.0383C19.7602 11.7483 19.2802 11.7483 18.9902 12.0383C18.7002 12.3283 18.7002 12.8083 18.9902 13.0983L20.7302 14.8383C20.8002 14.9083 20.8802 14.9583 20.9702 14.9983C21.0602 15.0383 21.1602 15.0583 21.2602 15.0583C21.3602 15.0583 21.4502 15.0383 21.5502 14.9983C21.6402 14.9583 21.7202 14.9083 21.7902 14.8383L23.5302 13.0983C23.8202 12.8183 23.8202 12.3383 23.5302 12.0483Z" fill="currentColor"/>
<path d="M19.6904 17.1997C19.3704 16.9397 18.8904 16.9897 18.6404 17.3197C17.0104 19.3497 14.5904 20.5097 12.0004 20.5097C7.31043 20.5097 3.49043 16.6897 3.49043 11.9997V11.4997L3.95043 11.9597C4.10043 12.1097 4.29043 12.1797 4.48043 12.1797C4.67043 12.1797 4.86043 12.0997 5.00043 11.9497C5.29043 11.6597 5.29043 11.1797 5.00043 10.8897L3.27043 9.14969C3.20043 9.08969 3.11043 9.02969 3.02043 8.98969C2.84043 8.90969 2.63043 8.90969 2.45043 8.98969C2.36043 9.02969 2.28043 9.08969 2.21043 9.14969L0.47043 10.8897C0.18043 11.1797 0.18043 11.6597 0.47043 11.9497C0.76043 12.2397 1.24043 12.2397 1.53043 11.9497L1.99043 11.4897V11.9997C1.99043 17.5197 6.48043 22.0097 12.0004 22.0097C15.0504 22.0097 17.9004 20.6397 19.8104 18.2597C20.0704 17.9397 20.0204 17.4597 19.6904 17.1997Z" fill="currentColor"/>
<path d="M15.45 11.64C15.72 11.24 15.87 10.77 15.87 10.25C15.87 8.92 14.7 7.75 13.37 7.75H12.55V6.75C12.55 6.34 12.21 6 11.8 6C11.39 6 11.05 6.34 11.05 6.75V7.75H9C8.59 7.75 8.25 8.09 8.25 8.5V12V15.5C8.25 15.91 8.59 16.25 9 16.25H11.05V17.25C11.05 17.66 11.39 18 11.8 18C12.21 18 12.55 17.66 12.55 17.25V16.25H14C15.52 16.25 16.75 15.13 16.75 13.75C16.75 12.86 16.23 12.08 15.45 11.64ZM9.75 9.25H13.37C13.92 9.25 14.37 9.8 14.37 10.25C14.37 10.8 13.92 11.25 13.37 11.25H9.75V9.25ZM14 14.75H9.75V12.75H13.37H14C14.69 12.75 15.25 13.2 15.25 13.75C15.25 14.3 14.69 14.75 14 14.75Z" fill="currentColor"/>
</svg>
