<svg width="24" height="24" viewBox="0 0 24 24" fill="none" xmlns="http://www.w3.org/2000/svg">
<path d="M23.0004 15.2188C22.5904 15.2188 22.2504 15.5588 22.2504 15.9688C22.2504 18.9288 20.1904 21.4087 17.4204 22.0587L17.6904 21.6088C17.9004 21.2488 17.7904 20.7887 17.4304 20.5787C17.0804 20.3687 16.6104 20.4787 16.4004 20.8387L15.3504 22.5887C15.2104 22.8187 15.2104 23.1087 15.3404 23.3387C15.4704 23.5787 15.7204 23.7187 15.9904 23.7187C20.2604 23.7187 23.7404 20.2387 23.7404 15.9688C23.7504 15.5588 23.4104 15.2188 23.0004 15.2188Z" fill="currentColor"/>
<path d="M8 0.21875C3.73 0.21875 0.25 3.69875 0.25 7.96875C0.25 8.37875 0.59 8.71875 1 8.71875C1.41 8.71875 1.75 8.37875 1.75 7.96875C1.75 5.00875 3.81 2.52875 6.58 1.87875L6.31 2.32875C6.1 2.68875 6.21 3.14875 6.57 3.35875C6.92 3.56875 7.39 3.45875 7.6 3.09875L8.65 1.34875C8.78 1.11875 8.79 0.83875 8.65 0.59875C8.52 0.36875 8.27 0.21875 8 0.21875Z" fill="currentColor"/>
<path d="M21.5002 8.67C21.5002 11.75 19.2602 14.29 16.3302 14.76C16.3302 14.75 16.3302 14.75 16.3302 14.74C16.0402 11.01 13.0202 7.97 9.24023 7.67C9.71023 4.74 12.2502 2.5 15.3302 2.5C18.7402 2.5 21.5002 5.26 21.5002 8.67Z" fill="currentColor"/>
<path d="M14.83 14.8484C14.6 11.8184 12.18 9.39844 9.15 9.16844C8.99 9.15844 8.84 9.14844 8.67 9.14844C5.26 9.14844 2.5 11.9084 2.5 15.3284C2.5 18.7384 5.26 21.4984 8.67 21.4984C12.08 21.4984 14.85 18.7384 14.85 15.3284C14.85 15.1584 14.84 15.0084 14.83 14.8484Z" fill="#E4E4E7"/>
<path d="M8.96875 17.9492H9.375C9.78125 17.9492 10.1188 17.5867 10.1188 17.1492C10.1188 16.6055 9.925 16.4992 9.60625 16.3867L8.975 16.168V17.9492H8.96875Z" fill="currentColor"/>
<path d="M8.48032 9.1836C5.03032 9.1961 2.23657 12.0024 2.24907 15.4524C2.26157 18.9024 5.06782 21.6961 8.51782 21.6836C11.9678 21.6711 14.7616 18.8649 14.7491 15.4149C14.7366 11.9649 11.9303 9.17735 8.48032 9.1836ZM9.91157 15.4961C10.3991 15.6649 11.0553 16.0274 11.0553 17.1461C11.0553 18.1086 10.2991 18.8836 9.37406 18.8836H8.96782V19.2461C8.96782 19.5024 8.75532 19.7149 8.49907 19.7149C8.24282 19.7149 8.03032 19.5024 8.03032 19.2461V18.8836H7.80532C6.78032 18.8836 5.94907 18.0211 5.94907 16.9586C5.94907 16.7024 6.16157 16.4899 6.41782 16.4899C6.67407 16.4899 6.88657 16.7024 6.88657 16.9586C6.88657 17.5024 7.29907 17.9461 7.80532 17.9461H8.03032V15.8336L7.08657 15.4961C6.59906 15.3274 5.94282 14.9649 5.94282 13.8461C5.94282 12.8836 6.69907 12.1086 7.62407 12.1086H8.03032V11.7461C8.03032 11.4899 8.24282 11.2774 8.49907 11.2774C8.75532 11.2774 8.96782 11.4899 8.96782 11.7461V12.1086H9.19281C10.2178 12.1086 11.0491 12.9711 11.0491 14.0336C11.0491 14.2899 10.8366 14.5024 10.5803 14.5024C10.3241 14.5024 10.1116 14.2899 10.1116 14.0336C10.1116 13.4899 9.69906 13.0461 9.19281 13.0461H8.96782V15.1586L9.91157 15.4961Z" fill="currentColor"/>
<path d="M6.8877 13.8531C6.8877 14.3969 7.08145 14.5031 7.4002 14.6156L8.03145 14.8344V13.0469H7.6252C7.21895 13.0469 6.8877 13.4094 6.8877 13.8531Z" fill="currentColor"/>
</svg>
