<svg width="24" height="24" viewBox="0 0 24 24" fill="none" xmlns="http://www.w3.org/2000/svg">
<path d="M11.65 2.34953L6.35996 7.63953C6.15996 7.83953 6.15996 8.14953 6.35996 8.34953L7.64995 9.63953C7.84995 9.83953 8.15996 9.83953 8.35996 9.63953L11.65 6.34953C11.85 6.14953 12.16 6.14953 12.36 6.34953L15.65 9.63953C15.85 9.83953 16.16 9.83953 16.36 9.63953L17.65 8.34953C17.85 8.14953 17.85 7.83953 17.65 7.63953L12.36 2.34953C12.16 2.15953 11.84 2.15953 11.65 2.34953Z" fill="currentColor"/>
<path d="M11.65 21.6509L6.35996 16.3609C6.15996 16.1609 6.15996 15.8509 6.35996 15.6509L7.64995 14.3609C7.84995 14.1609 8.15996 14.1609 8.35996 14.3609L11.65 17.6509C11.85 17.8509 12.16 17.8509 12.36 17.6509L15.65 14.3609C15.85 14.1609 16.16 14.1609 16.36 14.3609L17.65 15.6509C17.85 15.8509 17.85 16.1609 17.65 16.3609L12.36 21.6509C12.16 21.8409 11.84 21.8409 11.65 21.6509Z" fill="currentColor"/>
<path d="M20.1002 10.0995L21.6402 11.6395C21.8402 11.8395 21.8402 12.1495 21.6402 12.3495L20.1002 13.8895C19.9002 14.0895 19.5902 14.0895 19.3902 13.8895L17.8502 12.3495C17.6502 12.1495 17.6502 11.8395 17.8502 11.6395L19.3902 10.0995C19.5902 9.90953 19.9102 9.90953 20.1002 10.0995Z" fill="currentColor"/>
<path d="M4.6002 10.0995L6.14019 11.6395C6.34019 11.8395 6.34019 12.1495 6.14019 12.3495L4.6002 13.8895C4.4002 14.0895 4.09019 14.0895 3.89019 13.8895L2.3502 12.3495C2.1502 12.1495 2.1502 11.8395 2.3502 11.6395L3.89019 10.0995C4.09019 9.90953 4.4102 9.90953 4.6002 10.0995Z" fill="currentColor"/>
<path d="M12.3502 9.88047L14.1202 11.6505C14.3202 11.8505 14.3202 12.1605 14.1202 12.3605L12.3502 14.1305C12.1502 14.3305 11.8402 14.3305 11.6402 14.1305L9.87021 12.3605C9.67021 12.1605 9.67021 11.8505 9.87021 11.6505L11.6402 9.88047C11.8402 9.68047 12.1602 9.68047 12.3502 9.88047Z" fill="currentColor"/>
</svg>
