<svg width="24" height="24" viewBox="0 0 24 24" fill="none" xmlns="http://www.w3.org/2000/svg">
<path d="M17.1504 10C17.7027 10 18.1504 9.55228 18.1504 9C18.1504 8.44772 17.7027 8 17.1504 8C16.5981 8 16.1504 8.44772 16.1504 9C16.1504 9.55228 16.5981 10 17.1504 10Z" fill="currentColor"/>
<path d="M17.1504 16C17.7027 16 18.1504 15.5523 18.1504 15C18.1504 14.4477 17.7027 14 17.1504 14C16.5981 14 16.1504 14.4477 16.1504 15C16.1504 15.5523 16.5981 16 17.1504 16Z" fill="currentColor"/>
<path d="M19.75 13C20.3023 13 20.75 12.5523 20.75 12C20.75 11.4477 20.3023 11 19.75 11C19.1977 11 18.75 11.4477 18.75 12C18.75 12.5523 19.1977 13 19.75 13Z" fill="currentColor"/>
<path d="M6.80029 10C7.35258 10 7.80029 9.55228 7.80029 9C7.80029 8.44772 7.35258 8 6.80029 8C6.24801 8 5.80029 8.44772 5.80029 9C5.80029 9.55228 6.24801 10 6.80029 10Z" fill="currentColor"/>
<path d="M6.80029 16C7.35258 16 7.80029 15.5523 7.80029 15C7.80029 14.4477 7.35258 14 6.80029 14C6.24801 14 5.80029 14.4477 5.80029 15C5.80029 15.5523 6.24801 16 6.80029 16Z" fill="currentColor"/>
<path d="M4.2002 13C4.75248 13 5.2002 12.5523 5.2002 12C5.2002 11.4477 4.75248 11 4.2002 11C3.64791 11 3.2002 11.4477 3.2002 12C3.2002 12.5523 3.64791 13 4.2002 13Z" fill="currentColor"/>
<path d="M15.9004 6.19922C16.4527 6.19922 16.9004 5.7515 16.9004 5.19922C16.9004 4.64693 16.4527 4.19922 15.9004 4.19922C15.3481 4.19922 14.9004 4.64693 14.9004 5.19922C14.9004 5.7515 15.3481 6.19922 15.9004 6.19922Z" fill="currentColor"/>
<path d="M8.1001 6.19922C8.65238 6.19922 9.1001 5.7515 9.1001 5.19922C9.1001 4.64693 8.65238 4.19922 8.1001 4.19922C7.54781 4.19922 7.1001 4.64693 7.1001 5.19922C7.1001 5.7515 7.54781 6.19922 8.1001 6.19922Z" fill="currentColor"/>
<path d="M12.0503 7C12.6026 7 13.0503 6.55228 13.0503 6C13.0503 5.44772 12.6026 5 12.0503 5C11.498 5 11.0503 5.44772 11.0503 6C11.0503 6.55228 11.498 7 12.0503 7Z" fill="currentColor"/>
<path d="M15.9004 20C16.4527 20 16.9004 19.5523 16.9004 19C16.9004 18.4477 16.4527 18 15.9004 18C15.3481 18 14.9004 18.4477 14.9004 19C14.9004 19.5523 15.3481 20 15.9004 20Z" fill="currentColor"/>
<path d="M8.1001 20C8.65238 20 9.1001 19.5523 9.1001 19C9.1001 18.4477 8.65238 18 8.1001 18C7.54781 18 7.1001 18.4477 7.1001 19C7.1001 19.5523 7.54781 20 8.1001 20Z" fill="currentColor"/>
<path d="M12.0503 19.1992C12.6026 19.1992 13.0503 18.7515 13.0503 18.1992C13.0503 17.6469 12.6026 17.1992 12.0503 17.1992C11.498 17.1992 11.0503 17.6469 11.0503 18.1992C11.0503 18.7515 11.498 19.1992 12.0503 19.1992Z" fill="currentColor"/>
<path d="M13.75 10.25C14.4404 10.25 15 9.69036 15 9C15 8.30964 14.4404 7.75 13.75 7.75C13.0596 7.75 12.5 8.30964 12.5 9C12.5 9.69036 13.0596 10.25 13.75 10.25Z" fill="currentColor"/>
<path d="M10.25 10.25C10.9404 10.25 11.5 9.69036 11.5 9C11.5 8.30964 10.9404 7.75 10.25 7.75C9.55964 7.75 9 8.30964 9 9C9 9.69036 9.55964 10.25 10.25 10.25Z" fill="currentColor"/>
<path d="M15.5 13.25C16.1904 13.25 16.75 12.6904 16.75 12C16.75 11.3096 16.1904 10.75 15.5 10.75C14.8096 10.75 14.25 11.3096 14.25 12C14.25 12.6904 14.8096 13.25 15.5 13.25Z" fill="currentColor"/>
<path d="M8.5 13.25C9.19036 13.25 9.75 12.6904 9.75 12C9.75 11.3096 9.19036 10.75 8.5 10.75C7.80964 10.75 7.25 11.3096 7.25 12C7.25 12.6904 7.80964 13.25 8.5 13.25Z" fill="currentColor"/>
<path d="M10.25 16.25C10.9404 16.25 11.5 15.6904 11.5 15C11.5 14.3096 10.9404 13.75 10.25 13.75C9.55964 13.75 9 14.3096 9 15C9 15.6904 9.55964 16.25 10.25 16.25Z" fill="currentColor"/>
<path d="M13.75 16.25C14.4404 16.25 15 15.6904 15 15C15 14.3096 14.4404 13.75 13.75 13.75C13.0596 13.75 12.5 14.3096 12.5 15C12.5 15.6904 13.0596 16.25 13.75 16.25Z" fill="currentColor"/>
<path d="M12.0001 3.33031C11.5101 3.33031 11.1201 2.94031 11.1201 2.45031C11.1201 1.96031 11.5101 1.57031 12.0001 1.57031C12.4901 1.57031 12.8801 1.96031 12.8801 2.45031C12.8801 2.94031 12.4901 3.33031 12.0001 3.33031Z" fill="currentColor"/>
<path d="M17.2502 3.60156C16.8302 3.60156 16.4902 3.26156 16.4902 2.85156C16.4902 2.44156 16.8302 2.10156 17.2402 2.10156C17.6502 2.10156 18.0002 2.44156 18.0002 2.85156C18.0002 3.26156 17.6702 3.60156 17.2502 3.60156Z" fill="currentColor"/>
<path d="M6.75 3.60156C6.34 3.60156 6 3.26156 6 2.85156C6 2.44156 6.33 2.10156 6.75 2.10156H6.76001C7.17001 2.10156 7.51001 2.44156 7.51001 2.85156C7.51001 3.26156 7.17 3.60156 6.75 3.60156Z" fill="currentColor"/>
<path d="M12.0001 22.3811C11.5101 22.3811 11.1201 21.9911 11.1201 21.5011C11.1201 21.0111 11.5101 20.6211 12.0001 20.6211C12.4901 20.6211 12.8801 21.0111 12.8801 21.5011C12.8801 21.9911 12.4901 22.3811 12.0001 22.3811Z" fill="currentColor"/>
<path d="M17.2502 21.8516C16.8302 21.8516 16.4902 21.5116 16.4902 21.1016C16.4902 20.6916 16.8302 20.3516 17.2402 20.3516C17.6502 20.3516 18.0002 20.6916 18.0002 21.1016C18.0002 21.5116 17.6702 21.8516 17.2502 21.8516Z" fill="currentColor"/>
<path d="M6.75 21.8516C6.34 21.8516 6 21.5116 6 21.1016C6 20.6916 6.33 20.3516 6.75 20.3516H6.76001C7.17001 20.3516 7.51001 20.6916 7.51001 21.1016C7.51001 21.5116 7.17 21.8516 6.75 21.8516Z" fill="currentColor"/>
<path d="M1.5499 12.8811C1.0699 12.8811 0.669922 12.4911 0.669922 12.0111V12.0011C0.669922 11.5211 1.0599 11.1211 1.5499 11.1211C2.0399 11.1211 2.4299 11.5111 2.4299 12.0011C2.4299 12.4911 2.0299 12.8811 1.5499 12.8811Z" fill="currentColor"/>
<path d="M3.75 17.7483C3.34 17.7483 3 17.4183 3 16.9983V16.9883C3 16.5783 3.34 16.2383 3.75 16.2383C4.16 16.2383 4.5 16.5783 4.5 16.9883C4.5 17.3983 4.16 17.7483 3.75 17.7483Z" fill="currentColor"/>
<path d="M3.75 7.76172C3.34 7.76172 3 7.42172 3 7.01172C3 6.60172 3.34 6.26172 3.75 6.26172C4.16 6.26172 4.5 6.59172 4.5 7.00172V7.01172C4.5 7.42172 4.16 7.76172 3.75 7.76172Z" fill="currentColor"/>
<path d="M22.5001 12.8811C22.0201 12.8811 21.6201 12.4911 21.6201 12.0111V12.0011C21.6201 11.5211 22.0101 11.1211 22.5001 11.1211C22.9901 11.1211 23.3801 11.5111 23.3801 12.0011C23.3801 12.4911 22.9801 12.8811 22.5001 12.8811Z" fill="currentColor"/>
<path d="M20.2998 17.7483C19.8898 17.7483 19.5498 17.4183 19.5498 16.9983V16.9883C19.5498 16.5783 19.8898 16.2383 20.2998 16.2383C20.7098 16.2383 21.0498 16.5783 21.0498 16.9883C21.0498 17.3983 20.7098 17.7483 20.2998 17.7483Z" fill="currentColor"/>
<path d="M20.2998 7.76172C19.8898 7.76172 19.5498 7.42172 19.5498 7.01172C19.5498 6.60172 19.8898 6.26172 20.2998 6.26172C20.7098 6.26172 21.0498 6.59172 21.0498 7.01172V7.02172C21.0498 7.42172 20.7098 7.76172 20.2998 7.76172Z" fill="currentColor"/>
</svg>
