<svg width="24" height="24" viewBox="0 0 24 24" fill="none" xmlns="http://www.w3.org/2000/svg">
<path fill-rule="evenodd" clip-rule="evenodd" d="M15.88 20.9208C15.91 21.0808 15.82 21.2508 15.67 21.3108C14.54 21.7608 13.3 22.0008 12.02 22.0008C9.80999 22.0008 7.76997 21.2908 6.11997 20.0708C5.97997 19.9708 5.94 19.7708 6.03 19.6208C6.58 18.6408 8.72995 15.4908 13.48 13.7308C13.66 13.6608 13.86 13.7508 13.92 13.9308C15.11 17.1208 15.67 19.8208 15.88 20.9208Z" fill="currentColor"/>
<path fill-rule="evenodd" clip-rule="evenodd" d="M21.8202 13.8881C21.3602 16.3481 19.9801 18.4881 18.0501 19.9481C17.8401 20.1081 17.5401 19.9881 17.4901 19.7381C17.2801 18.6581 16.7701 16.3281 15.7901 13.5581C15.7201 13.3481 15.8602 13.1181 16.0802 13.0881C18.5702 12.7881 20.7502 13.2681 21.5702 13.4881C21.7402 13.5481 21.8502 13.7181 21.8202 13.8881Z" fill="currentColor"/>
<path fill-rule="evenodd" clip-rule="evenodd" d="M21.5902 11.8187C20.5702 11.6387 17.9702 11.2587 15.3102 11.5487C15.1502 11.5687 15.0102 11.4787 14.9402 11.3287C14.9002 11.2387 14.8702 11.1487 14.8302 11.0587C14.6702 10.6887 14.5002 10.3087 14.3302 9.93868C14.2402 9.75868 14.3302 9.53867 14.5102 9.45867C17.3102 8.24867 18.8702 6.68867 19.4802 5.98867C19.6302 5.81867 19.8902 5.82869 20.0302 6.00869C21.1802 7.53869 21.8902 9.40867 22.0002 11.4287C22.0102 11.6787 21.8102 11.8587 21.5902 11.8187Z" fill="currentColor"/>
<path fill-rule="evenodd" clip-rule="evenodd" d="M18.44 4.79172C17.92 5.42172 16.46 6.9217 13.69 8.0217C13.53 8.0917 13.34 8.02169 13.25 7.86169C11.97 5.54169 10.6099 3.5917 9.97994 2.7117C9.82994 2.5017 9.94997 2.20171 10.2 2.16171C10.78 2.06171 11.39 2.01172 12.01 2.01172C14.43 2.01172 16.66 2.87171 18.39 4.31171C18.54 4.42171 18.56 4.64172 18.44 4.79172Z" fill="currentColor"/>
<path fill-rule="evenodd" clip-rule="evenodd" d="M11.0198 8.83942C7.22978 9.78942 3.87973 9.91943 2.65973 9.93943C2.42973 9.93943 2.25977 9.71943 2.31977 9.49943C3.03977 6.69943 4.95975 4.35943 7.48975 3.06943C7.63975 2.98943 7.82975 3.03942 7.92975 3.17942C8.44975 3.89942 9.85975 5.92943 11.2397 8.31943C11.3497 8.51943 11.2498 8.77942 11.0198 8.83942Z" fill="currentColor"/>
<path fill-rule="evenodd" clip-rule="evenodd" d="M12.9197 11.5986C13.0097 11.7886 12.8998 12.0186 12.6998 12.0886C8.26977 13.5186 5.61976 17.0687 4.81976 18.2887C4.68976 18.4887 4.40977 18.4987 4.25977 18.3187C2.85977 16.5987 2.00977 14.6286 2.00977 12.2386V12.0586C2.00977 11.8586 2.16975 11.6986 2.36975 11.7086C3.62975 11.7586 7.73977 11.5886 12.0098 10.3586C12.1698 10.3086 12.3497 10.3887 12.4197 10.5387C12.5897 10.8887 12.7597 11.2386 12.9197 11.5986Z" fill="currentColor"/>
</svg>
