<svg width="24" height="24" viewBox="0 0 24 24" fill="none" xmlns="http://www.w3.org/2000/svg">
<path d="M9.28012 20.3113C9.45012 20.7913 8.93011 21.2313 8.49011 20.9713L5.34012 19.1813C4.77012 18.8513 4.42013 18.0613 4.54013 17.4213L5.48013 12.7513C5.59013 12.2013 6.35013 12.1513 6.54013 12.6713L9.28012 20.3113Z" fill="currentColor"/>
<path d="M18.6598 19.1788L15.4998 20.9788C15.0598 21.2288 14.5398 20.7988 14.7098 20.3188L17.4598 12.6088C17.6498 12.0888 18.4098 12.1388 18.5198 12.6888L19.4698 17.4188C19.5798 18.0588 19.2298 18.8488 18.6598 19.1788Z" fill="currentColor"/>
<path d="M17.08 7.32031C17.32 7.62031 17.39 8.02031 17.26 8.38031L12.52 21.6303C12.35 22.1203 11.66 22.1203 11.49 21.6303L6.74999 8.39031C6.61999 8.03031 6.68999 7.63031 6.92999 7.33031L10.75 2.63031C11.44 1.80031 12.58 1.80031 13.28 2.63031L17.08 7.32031Z" fill="currentColor"/>
</svg>
