<svg width="24" height="24" viewBox="0 0 24 24" fill="none" xmlns="http://www.w3.org/2000/svg">
<path d="M8.77011 14.4301L10.3801 15.1501C11.4101 15.6101 12.5901 15.6101 13.6301 15.1501L15.2401 14.4301C16.6801 13.7901 18.0101 15.5301 17.0101 16.7501L13.5501 20.9801C12.7001 22.0201 11.3101 22.0201 10.4501 20.9801L7.00011 16.7501C5.99011 15.5301 7.32011 13.7901 8.77011 14.4301Z" fill="currentColor"/>
<path d="M8.56978 11.6719C8.26978 11.8919 8.30978 12.3519 8.64978 12.5219L10.9998 13.6919C11.5498 13.9719 12.4398 13.9719 12.9798 13.6919L15.3298 12.5219C15.6598 12.3519 15.6998 11.9019 15.4098 11.6719L12.2998 9.33187C12.1198 9.20188 11.8798 9.20188 11.6998 9.33187L8.56978 11.6719Z" fill="currentColor"/>
<path d="M17.8798 8.24118L13.7098 3.04118C13.6298 2.94118 13.5398 2.85118 13.4498 2.76118C13.1898 2.51118 12.8198 2.74118 12.8198 3.10118V7.40118C12.8198 7.56118 12.8898 7.71118 13.0198 7.80118L17.1698 10.9212L17.3498 11.0512C17.5298 11.1812 17.7798 11.1812 17.9298 11.0212C18.6298 10.2612 18.6198 9.16118 17.8798 8.24118Z" fill="currentColor"/>
<path d="M6.10986 8.33082L10.2599 3.05082C10.3399 2.95082 10.4199 2.86082 10.5099 2.77082C10.7699 2.52082 11.1399 2.74082 11.1399 3.11082V7.48082C11.1399 7.64082 11.0699 7.78082 10.9399 7.88082L6.80985 11.0508L6.63985 11.1808C6.45985 11.3108 6.20986 11.3108 6.04986 11.1408C5.36986 10.3708 5.37986 9.27082 6.10986 8.33082Z" fill="currentColor"/>
</svg>
