<svg width="24" height="24" viewBox="0 0 24 24" fill="none" xmlns="http://www.w3.org/2000/svg">
<path d="M5.94013 16.7712L4.28016 19.5912C4.16016 19.8012 3.8501 19.8012 3.7201 19.5912L2.03016 16.7712C1.90016 16.5512 2.06013 16.2812 2.31013 16.2812H5.6601C5.9101 16.2812 6.06013 16.5612 5.94013 16.7712Z" fill="currentColor"/>
<path d="M11.6899 8.40844L7.73991 14.8784C7.64991 15.0284 7.48992 15.1084 7.31992 15.1084H2.24992C1.86992 15.1084 1.62992 14.7085 1.81992 14.3885L8.27995 3.72845C8.46995 3.41845 8.93992 3.40845 9.12992 3.72845L11.6899 7.93844C11.7799 8.07844 11.7799 8.25844 11.6899 8.40844Z" fill="currentColor"/>
<path d="M13.72 14.4892H10.24C10.04 14.4892 9.91006 14.2692 10.0101 14.0892L11.7501 11.1392C11.8501 10.9692 12.1001 10.9692 12.2001 11.1392L13.9401 14.0892C14.0501 14.2692 13.92 14.4892 13.72 14.4892Z" fill="currentColor"/>
<path d="M13.6599 3.39999L12.21 5.87C12.11 6.04 11.85 6.04 11.75 5.87L10.2999 3.39999C10.1999 3.21999 10.32 3 10.53 3H13.43C13.64 3 13.7599 3.21999 13.6599 3.39999Z" fill="currentColor"/>
<path d="M22.17 14.3684C22.37 14.6984 22.12 15.1184 21.74 15.1184H16.87C16.7 15.1184 16.55 15.0285 16.46 14.8885L12.65 8.41845C12.56 8.26845 12.56 8.08844 12.65 7.93844L15.12 3.72845C15.3 3.41845 15.76 3.40845 15.94 3.72845C17.16 5.83845 20.89 12.1784 22.17 14.3684Z" fill="currentColor"/>
<path d="M21.9297 16.7695C21.3797 17.6995 20.7897 18.6995 20.2497 19.6095C20.1197 19.8295 19.8097 19.8195 19.6797 19.5995L18.0198 16.7695C17.8898 16.5495 18.0497 16.2695 18.3097 16.2695H21.6398C21.8998 16.2795 22.0597 16.5495 21.9297 16.7695Z" fill="currentColor"/>
<path d="M18.0197 20.9994H5.9397C5.5797 20.9994 5.35968 20.6094 5.53968 20.2994L7.86969 16.3394C7.94969 16.1994 8.09972 16.1094 8.26972 16.1094H15.6897C15.8497 16.1094 16.0097 16.1994 16.0897 16.3394L18.4197 20.2994C18.5997 20.6094 18.3797 20.9994 18.0197 20.9994Z" fill="currentColor"/>
</svg>
