<svg width="24" height="24" viewBox="0 0 24 24" fill="none" xmlns="http://www.w3.org/2000/svg">
<path opacity="0.13" d="M10.8698 14L12.7998 17.33L10.8799 20.66H6.99985L5.08984 17.35L7.02985 14H10.8698Z" fill="currentColor"/>
<path d="M10.5401 14.0781H7.12008C6.94008 14.0781 6.78009 14.1781 6.69009 14.3281L4.9801 17.2881C4.8901 17.4381 4.8901 17.6381 4.9801 17.7881L6.69009 20.7481C6.78009 20.8981 6.94008 20.9981 7.12008 20.9981H10.5401C10.7201 20.9981 10.8801 20.8981 10.9701 20.7481L12.6801 17.7881C12.7701 17.6381 12.7701 17.4381 12.6801 17.2881L10.9701 14.3281C10.8801 14.1681 10.7201 14.0781 10.5401 14.0781Z" fill="currentColor"/>
<path d="M22.2401 11.7383C22.3301 11.8983 22.3301 12.0983 22.2401 12.2583L17.3102 20.7883C17.2402 20.9183 17.1002 20.9983 16.9502 20.9983C16.6302 20.9983 16.4302 20.6483 16.5902 20.3783L19.8802 14.6783C19.9702 14.5183 19.9702 14.3183 19.8802 14.1583L15.4802 6.53828C15.3902 6.37828 15.2202 6.27828 15.0302 6.27828H6.22016C6.03016 6.27828 5.87014 6.37828 5.77014 6.53828L2.50016 12.2183C2.33016 12.5183 1.90016 12.5183 1.72016 12.2183C1.64016 12.0783 1.64016 11.9083 1.72016 11.7683L6.64017 3.24828C6.72017 3.08828 6.90015 2.98828 7.09015 2.98828H16.8802C17.0702 2.98828 17.2301 3.08828 17.3301 3.24828L22.2401 11.7383Z" fill="currentColor"/>
<path d="M18.09 14.6816L14.59 20.7416C14.5 20.9016 14.33 21.0016 14.14 21.0016H13.54C13.14 21.0016 12.89 20.5716 13.09 20.2216L14.49 17.8016C14.58 17.6416 14.58 17.4416 14.49 17.2816L11.89 12.7816C11.79 12.6216 11.61 12.5216 11.42 12.5216H6.22003C6.03003 12.5216 5.87001 12.6216 5.77001 12.7816L4.37002 15.2016C4.17002 15.5516 3.67003 15.5516 3.47003 15.2016L3.17004 14.6916C3.08004 14.5316 3.08004 14.3316 3.17004 14.1716L6.66003 8.11156C6.75003 7.95156 6.92001 7.85156 7.11001 7.85156H14.1C14.29 7.85156 14.45 7.95156 14.55 8.11156L18.05 14.1716C18.17 14.3216 18.17 14.5316 18.09 14.6816Z" fill="currentColor"/>
</svg>
