<svg width="24" height="24" viewBox="0 0 24 24" fill="none" xmlns="http://www.w3.org/2000/svg">
<path d="M17.8201 8.70003C18.5301 8.31003 19.4001 8.82004 19.3901 9.63004L19.3501 15.05C19.3401 15.87 18.4501 16.37 17.7501 15.95L13.0701 13.15C12.3701 12.73 12.3901 11.71 13.1001 11.32L17.8201 8.70003Z" fill="currentColor"/>
<path d="M19.25 6.28065C19.4 6.66065 19.17 7.05065 18.81 7.25065L13.18 10.3607C12.38 10.8007 11.44 10.0907 11.64 9.21066L12.86 3.68065C13.01 2.98065 13.8 2.64066 14.42 2.99066L18.3401 5.23065C18.7701 5.48065 19.08 5.85065 19.25 6.28065Z" fill="currentColor"/>
<path d="M12.0101 2.67165L9.94012 11.9717C9.91012 12.1117 9.91012 12.2617 9.94012 12.4117L11.6701 21.0917C11.7901 21.6917 11.2802 22.2617 10.7802 21.8917L5.49011 18.1217C4.93011 17.7217 4.6001 17.0817 4.6001 16.4017V7.09165C4.6001 6.33165 5.0001 5.63166 5.6701 5.25166L10.9601 2.24166C11.1101 2.15166 11.2701 2.09165 11.4301 2.04165C11.8101 1.91165 12.0901 2.29165 12.0101 2.67165Z" fill="currentColor"/>
<path d="M17.6299 16.8097C18.2799 17.1997 18.3199 18.1298 17.7099 18.5698L14.2399 21.0897C13.6199 21.5397 12.7299 21.1997 12.5799 20.4397L11.5599 15.2398C11.3799 14.3398 12.3499 13.6597 13.1399 14.1297L17.6299 16.8097Z" fill="currentColor"/>
</svg>
