<svg width="24" height="24" viewBox="0 0 24 24" fill="none" xmlns="http://www.w3.org/2000/svg">
<path d="M3.1802 15.029C2.8302 15.029 2.5802 15.379 2.7102 15.699C4.1802 19.399 7.7902 21.999 12.0002 21.999C16.2202 21.999 19.8302 19.379 21.3002 15.669C21.4302 15.349 21.1702 14.999 20.8302 14.999H17.5002C17.2202 14.999 17.0002 14.779 17.0002 14.499V11.759C17.0002 10.839 15.8502 10.409 15.2502 11.109L12.3802 14.539C12.1802 14.779 11.8102 14.779 11.6102 14.539L8.7402 11.109C8.1502 10.409 7.0002 10.839 7.0002 11.759V14.499C7.0002 14.779 6.7802 14.999 6.5002 14.999L3.1802 15.029Z" fill="currentColor"/>
<path d="M22 12.1397C22 12.4497 21.98 12.7597 21.94 13.0597C21.91 13.3097 21.69 13.4997 21.43 13.4997H19C18.72 13.4997 18.5 13.2797 18.5 12.9997V11.8997C18.5 10.8897 17.96 9.90973 17.04 9.48973C16.01 9.01973 14.84 9.27973 14.1 10.1497L12.38 12.1997C12.18 12.4397 11.81 12.4397 11.61 12.1997L9.88 10.1297C9.16 9.27972 8 9.01973 6.96 9.48973C6.04 9.90973 5.5 10.8897 5.5 11.8997V12.8797C5.5 13.2997 5.28 13.5197 5 13.5197L2.56 13.5297C2.31 13.5297 2.08 13.3397 2.05 13.0897C2.02 12.7297 2 12.3697 2 11.9997C2 5.94973 7.39 1.13972 13.63 2.12972C18.46 2.88972 22.07 7.23973 22 12.1397Z" fill="currentColor"/>
</svg>
