<svg width="24" height="24" viewBox="0 0 24 24" fill="none" xmlns="http://www.w3.org/2000/svg">
<path d="M15.0702 17.8793L14.0602 20.0993C13.8002 20.6593 13.4202 21.1493 12.9102 21.4893C12.3902 21.8393 11.7102 21.8693 11.1702 21.5293C9.53018 20.4893 5.95022 17.8193 3.78022 13.1893C3.70022 13.0293 3.92019 12.8693 4.06019 12.9693C4.63019 13.3693 5.24017 13.6493 5.91017 13.8093C6.32017 13.8993 6.74021 13.9393 7.14021 13.9393C9.00021 13.9393 10.6802 12.9893 11.8002 12.1693C12.1302 11.9293 12.5702 11.8793 12.9102 12.0893C14.0302 12.7893 14.7802 13.6293 15.1502 14.5793C15.7902 16.2593 15.0902 17.8093 15.0702 17.8793Z" fill="currentColor"/>
<path d="M16.8502 18.0497C16.7702 18.1397 16.6102 18.0397 16.6502 17.9297C17.0902 16.4697 17.6602 12.6197 12.5602 10.1797C12.2502 10.0297 12.0202 9.74967 11.9802 9.40967C11.3602 3.84967 16.1502 2.84967 16.1502 2.84967C16.5402 2.76967 16.9502 2.76966 17.3302 2.87966C18.4102 3.16966 19.5102 3.56967 20.6202 4.10967C21.5702 4.56967 22.1202 5.56967 21.9802 6.61967C21.6502 9.09967 20.5502 13.8797 16.8502 18.0497Z" fill="currentColor"/>
<path d="M10.56 10.2105L10.5901 10.4105C10.6601 10.7905 10.5 11.1805 10.18 11.3805C8.03003 12.7305 4.51002 13.7505 2.36002 7.84047C2.16002 7.30047 2.04003 6.90048 2.00003 6.32048C1.95003 5.56048 2.38003 4.69048 3.06003 4.37048C4.82003 3.55048 8.54006 2.12048 13.0301 2.25048C13.2301 2.26048 13.3 2.52047 13.14 2.63047C11.41 3.95047 9.92003 6.33048 10.56 10.2105Z" fill="currentColor"/>
</svg>
