<svg width="24" height="24" viewBox="0 0 24 24" fill="none" xmlns="http://www.w3.org/2000/svg">
<path d="M19.0002 7C19.0002 7.18 18.9902 7.34999 18.9702 7.51999C18.8502 8.96999 18.2102 10.28 17.2402 11.24C16.1602 12.33 14.6602 13 13.0002 13H9.87021C9.37021 13 8.95022 13.37 8.88022 13.86L8.12021 19.14C8.06021 19.53 7.78022 19.85 7.41022 19.95C7.32022 19.99 7.23022 20 7.13022 20H5.1802C4.5602 20 4.09021 19.45 4.19021 18.84L6.5802 4.51001C6.8202 3.06001 8.07022 2 9.54022 2H14.0002C16.7602 2 19.0002 4.24 19.0002 7Z" fill="currentColor"/>
<path d="M21.0002 10.9997C21.0002 12.3797 20.4402 13.6297 19.5402 14.5397C18.6302 15.4397 17.3802 15.9997 16.0002 15.9997H13.8502C13.3602 15.9997 12.9402 16.3497 12.8602 16.8397L12.1402 21.1597C12.0602 21.6497 11.6402 21.9997 11.1502 21.9997H8.22023C8.04023 21.9997 7.88022 21.9597 7.74022 21.8797C7.52022 21.7597 7.66022 21.4697 7.90022 21.3697C8.80022 21.0797 9.46023 20.3097 9.60023 19.3497L10.2402 14.9297C10.2802 14.6797 10.4902 14.4997 10.7302 14.4997H13.0002C15.0102 14.4997 16.9002 13.7197 18.3002 12.3097C19.1302 11.4897 19.7502 10.4797 20.1102 9.38967C20.1902 9.13967 20.5202 9.08967 20.6302 9.31967C20.8702 9.83967 21.0002 10.3997 21.0002 10.9997Z" fill="currentColor"/>
</svg>
