<svg width="24" height="24" viewBox="0 0 24 24" fill="none" xmlns="http://www.w3.org/2000/svg">
<path d="M15.02 2.22859C13.02 1.91859 10.9801 1.91859 8.98006 2.22859C8.16006 2.35859 7.56005 3.05859 7.56005 3.87859V7.55858H3.88005C3.06005 7.55858 2.36006 8.15859 2.23006 8.97859C1.92006 10.9786 1.92006 13.0186 2.23006 15.0186C2.36006 15.8386 3.06005 16.4386 3.88005 16.4386H5.56005C5.84005 16.4386 6.06005 16.2186 6.06005 15.9386V14.2186C6.06005 12.1686 7.73005 10.4986 9.78005 10.4986H14.22C14.62 10.4986 14.9401 10.1786 14.9401 9.77858V6.55858C14.9401 6.27858 15.1601 6.05858 15.4401 6.05858H15.9401C16.22 6.05858 16.4401 5.83858 16.4401 5.55858V3.87859C16.4401 3.05859 15.84 2.35859 15.02 2.22859ZM10.33 5.57857C9.92003 5.57857 9.53005 5.18858 9.53005 4.77858C9.53005 4.35858 9.92003 3.96858 10.33 3.96858C10.53 3.96858 10.7501 4.05859 10.8901 4.1986C11.0401 4.3386 11.1401 4.56858 11.1401 4.77858C11.1401 5.18858 10.75 5.57857 10.33 5.57857Z" fill="currentColor"/>
<path d="M21.7701 8.97861C21.64 8.15861 20.9401 7.55859 20.1201 7.55859H16.9401C16.6601 7.55859 16.4401 7.77859 16.4401 8.05859V9.77859C16.4401 10.9986 15.4501 11.9986 14.2201 11.9986H9.78006C8.55006 11.9986 7.56006 12.9886 7.56006 14.2186V20.1186C7.56006 20.9386 8.16007 21.6386 8.98007 21.7686C10.9801 22.0786 13.0201 22.0786 15.0201 21.7686C15.84 21.6386 16.4401 20.9386 16.4401 20.1186V16.4386H20.1201C20.9401 16.4386 21.64 15.8386 21.7701 15.0186C22.0801 13.0186 22.0801 10.9786 21.7701 8.97861ZM13.6701 20.0286C13.2601 20.0286 12.86 19.6386 12.86 19.2186C12.86 18.7986 13.2501 18.4086 13.6701 18.4086C13.8601 18.4086 14.0901 18.4986 14.2301 18.6286C14.3801 18.7686 14.4801 19.0086 14.4801 19.2086C14.4701 19.6386 14.0801 20.0286 13.6701 20.0286Z" fill="currentColor"/>
</svg>
