<svg width="24" height="24" viewBox="0 0 24 24" fill="none" xmlns="http://www.w3.org/2000/svg">
<path d="M14.5401 1.87891C13.3101 1.87891 12.3101 2.87889 12.3101 4.10889V8.7489C12.3101 9.9789 13.3101 10.9789 14.5401 10.9789C15.7701 10.9789 16.7701 9.9789 16.7701 8.7489V4.10889C16.7701 2.88889 15.7701 1.87891 14.5401 1.87891Z" fill="currentColor"/>
<path d="M20.1802 7.10938C19.1102 7.10938 18.2402 7.97938 18.2402 9.04938V10.6194C18.2402 10.8294 18.4102 10.9994 18.6202 10.9994H20.1902C21.2602 10.9994 22.1302 10.1294 22.1302 9.05939C22.1302 7.98939 21.2502 7.10938 20.1802 7.10938Z" fill="currentColor"/>
<path d="M8.49988 6.98828H3.85988C2.62988 6.98828 1.62988 7.98829 1.62988 9.21829C1.62988 10.4483 2.62988 11.4483 3.85988 11.4483H8.49988C9.72988 11.4483 10.7299 10.4483 10.7299 9.21829C10.7299 7.98829 9.72988 6.98828 8.49988 6.98828Z" fill="currentColor"/>
<path d="M8.79008 1.62109C7.72008 1.62109 6.8501 2.4911 6.8501 3.5611C6.8501 4.6311 7.72008 5.5011 8.79008 5.5011H10.3601C10.5701 5.5011 10.7401 5.33109 10.7401 5.12109V3.55109C10.7301 2.50109 9.86009 1.62109 8.79008 1.62109Z" fill="currentColor"/>
<path d="M9.43019 13.0312C8.20019 13.0312 7.2002 14.0313 7.2002 15.2613V19.9012C7.2002 21.1312 8.20019 22.1313 9.43019 22.1313C10.6602 22.1313 11.6602 21.1312 11.6602 19.9012V15.2613C11.6602 14.0313 10.6602 13.0312 9.43019 13.0312Z" fill="currentColor"/>
<path d="M5.36009 13.0312H3.79008C2.72008 13.0312 1.8501 13.9013 1.8501 14.9713C1.8501 16.0413 2.72008 16.9113 3.79008 16.9113C4.86009 16.9113 5.73009 16.0413 5.73009 14.9713V13.4012C5.73009 13.2012 5.56009 13.0312 5.36009 13.0312Z" fill="currentColor"/>
<path d="M20.1102 12.5703H15.4702C14.2402 12.5703 13.2402 13.5703 13.2402 14.8003C13.2402 16.0303 14.2402 17.0303 15.4702 17.0303H20.1102C21.3402 17.0303 22.3402 16.0303 22.3402 14.8003C22.3402 13.5703 21.3402 12.5703 20.1102 12.5703Z" fill="currentColor"/>
<path d="M15.18 18.4688H13.61C13.4 18.4688 13.23 18.6388 13.23 18.8488V20.4188C13.23 21.4888 14.1 22.3587 15.17 22.3587C16.24 22.3587 17.11 21.4888 17.11 20.4188C17.12 19.3388 16.25 18.4688 15.18 18.4688Z" fill="currentColor"/>
</svg>
