<svg width="24" height="24" viewBox="0 0 24 24" fill="none" xmlns="http://www.w3.org/2000/svg">
<path d="M10.0498 2.84808L1.25986 11.6381C1.05986 11.8381 1.05986 12.1481 1.25986 12.3481L10.0498 21.1381C10.3698 21.4481 10.8999 21.2281 10.8999 20.7881V18.1981C10.8999 18.0681 10.8499 17.9381 10.7499 17.8481L5.24985 12.3481C5.04985 12.1481 5.04985 11.8381 5.24985 11.6381L10.7499 6.13809C10.8399 6.04809 10.8999 5.91808 10.8999 5.78808V3.19808C10.8999 2.75808 10.3598 2.53808 10.0498 2.84808Z" fill="currentColor"/>
<path d="M13.7499 2.84808L22.5399 11.6381C22.7399 11.8381 22.7399 12.1481 22.5399 12.3481L13.7499 21.1381C13.4399 21.4481 12.8999 21.2281 12.8999 20.7881V18.1981C12.8999 18.0681 12.9499 17.9381 13.0499 17.8481L18.5499 12.3481C18.7499 12.1481 18.7499 11.8381 18.5499 11.6381L13.0499 6.13809C12.9599 6.04809 12.8999 5.91808 12.8999 5.78808V3.19808C12.8999 2.75808 13.4399 2.53808 13.7499 2.84808Z" fill="currentColor"/>
<path d="M10.0498 9.84808L8.25986 11.6381C8.05986 11.8381 8.05986 12.1481 8.25986 12.3481L10.0498 14.1381C10.3698 14.4481 10.8999 14.2281 10.8999 13.7881V10.1981C10.8999 9.75808 10.3598 9.53808 10.0498 9.84808Z" fill="currentColor"/>
</svg>
