<svg width="24" height="24" viewBox="0 0 24 24" fill="none" xmlns="http://www.w3.org/2000/svg">
<path d="M19.3996 10.5308C19.9196 10.4308 20.2796 11.0208 19.9596 11.4408L13.0096 20.2908C12.6596 20.7408 11.9396 20.4508 11.9996 19.8908L12.6996 12.2908C12.7196 12.0408 12.9096 11.8308 13.1596 11.7808L19.3996 10.5308Z" fill="currentColor"/>
<path d="M21.6398 7.69118C21.8598 7.93118 21.7398 8.32118 21.4298 8.39118L12.9898 10.0812C12.4398 10.1912 12.0798 9.52118 12.4798 9.12118L17.4998 4.10118C17.7298 3.87118 18.0998 3.88118 18.3198 4.11118L21.6398 7.69118Z" fill="currentColor"/>
<path d="M14.6895 3.19104C15.1595 3.25104 15.3496 3.82104 15.0196 4.16104L11.4596 7.72104C11.2496 7.93104 10.9095 7.94104 10.6795 7.74104L5.33957 2.99104C4.91957 2.62104 5.23952 1.93104 5.78952 2.00104L14.6895 3.19104Z" fill="currentColor"/>
<path d="M10.7197 10.0729C10.9897 10.3129 11.1197 10.6629 11.0997 11.0129L10.2398 21.4729C10.1898 22.0729 9.35978 22.1929 9.13978 21.6329L2.28975 3.96287C2.06975 3.40287 2.74978 2.93287 3.19978 3.33287L10.7197 10.0729Z" fill="currentColor"/>
</svg>
