<svg width="24" height="24" viewBox="0 0 24 24" fill="none" xmlns="http://www.w3.org/2000/svg">
<path d="M11.9998 22.7487C11.7498 22.7487 11.5098 22.6187 11.3698 22.4087L2.32981 8.40866C2.10981 8.05866 2.20981 7.59865 2.54981 7.36865C2.89981 7.14865 3.35982 7.23865 3.58982 7.58865L11.9898 20.6086L20.3598 7.58865C20.5798 7.23865 21.0498 7.13864 21.3998 7.35864C21.7498 7.57864 21.8498 8.04865 21.6298 8.39865L12.6298 22.3986C12.4898 22.6186 12.2598 22.7487 11.9998 22.7487Z" fill="currentColor"/>
<path d="M3.92023 4H5.74021C5.91021 4 6.06023 4.08 6.16022 4.22L11.6002 12.37C11.8002 12.67 12.2302 12.67 12.4302 12.37L17.8702 4.22C17.9602 4.08 18.1202 4 18.2902 4H20.1102C20.5102 4 20.7402 4.43999 20.5302 4.76999L12.4502 17.35C12.2502 17.66 11.8102 17.66 11.6102 17.35L3.53022 4.76999C3.28022 4.43999 3.52023 4 3.92023 4Z" fill="currentColor"/>
<path d="M9.42001 3.5C8.97001 3.34 8.57 3.85 8.84 4.25L11.59 8.38C11.79 8.68001 12.22 8.68001 12.42 8.38L15.17 4.26001C15.44 3.86001 15.04 3.35001 14.59 3.51001L13.21 4V2.5C13.21 2.22 12.99 2 12.71 2H11.31C11.03 2 10.81 2.22 10.81 2.5V4L9.42001 3.5Z" fill="currentColor"/>
</svg>
