<svg width="24" height="24" viewBox="0 0 24 24" fill="none" xmlns="http://www.w3.org/2000/svg">
<path d="M21.9798 11.4104C21.6398 5.61044 16.3698 1.14045 10.2998 2.14045C6.1198 2.83045 2.7698 6.22043 2.1198 10.4004C1.7398 12.8204 2.23983 15.1104 3.32983 17.0004L2.43981 20.3104C2.23981 21.0604 2.92979 21.7404 3.66979 21.5304L6.9298 20.6304C8.4098 21.5004 10.1398 22.0004 11.9898 22.0004C17.6298 22.0004 22.3098 17.0304 21.9798 11.4104ZM16.8798 15.7204C16.7898 15.9004 16.6798 16.0704 16.5398 16.2304C16.2898 16.5004 16.0198 16.7004 15.7198 16.8204C15.4198 16.9504 15.0898 17.0104 14.7398 17.0104C14.2298 17.0104 13.6798 16.8905 13.1098 16.6405C12.5298 16.3905 11.9598 16.0604 11.3898 15.6504C10.8098 15.2304 10.2698 14.7604 9.74981 14.2504C9.22981 13.7304 8.76978 13.1804 8.34978 12.6104C7.93979 12.0404 7.6098 11.4704 7.3698 10.9004C7.1298 10.3304 7.00982 9.78045 7.00982 9.26045C7.00982 8.92044 7.06981 8.59044 7.18981 8.29044C7.30981 7.98044 7.49983 7.70045 7.76983 7.45045C8.08983 7.13045 8.43981 6.98045 8.80981 6.98045C8.94981 6.98045 9.08978 7.01044 9.21978 7.07044C9.34978 7.13044 9.46981 7.22044 9.55981 7.35044L10.7198 8.99043C10.8098 9.12043 10.8798 9.23043 10.9198 9.34043C10.9698 9.45043 10.9898 9.55043 10.9898 9.65043C10.9898 9.77043 10.9498 9.89045 10.8798 10.0104C10.8098 10.1304 10.7198 10.2504 10.5998 10.3704L10.2198 10.7704C10.1598 10.8304 10.1398 10.8904 10.1398 10.9704C10.1398 11.0104 10.1498 11.0504 10.1598 11.0904C10.1798 11.1304 10.1898 11.1604 10.1998 11.1904C10.2898 11.3604 10.4498 11.5704 10.6698 11.8304C10.8998 12.0904 11.1398 12.3604 11.3998 12.6204C11.6698 12.8904 11.9298 13.1304 12.1998 13.3604C12.4598 13.5804 12.6798 13.7304 12.8498 13.8204C12.8798 13.8304 12.9098 13.8504 12.9398 13.8604C12.9798 13.8804 13.0198 13.8804 13.0698 13.8804C13.1598 13.8804 13.2198 13.8504 13.2798 13.7904L13.6598 13.4104C13.7898 13.2804 13.9098 13.1904 14.0198 13.1304C14.1398 13.0604 14.2498 13.0204 14.3798 13.0204C14.4798 13.0204 14.5798 13.0404 14.6898 13.0904C14.7998 13.1404 14.9198 13.2004 15.0398 13.2904L16.6998 14.4704C16.8298 14.5604 16.9198 14.6704 16.9798 14.7904C17.0298 14.9204 17.0598 15.0404 17.0598 15.1804C16.9998 15.3504 16.9598 15.5404 16.8798 15.7204Z" fill="currentColor"/>
</svg>
