<svg width="24" height="24" viewBox="0 0 24 24" fill="none" xmlns="http://www.w3.org/2000/svg">
<path d="M11.1298 15.8789C10.8798 15.8789 10.6298 15.7489 10.4898 15.5189C10.2798 15.1689 10.3898 14.6989 10.7498 14.4889L11.6398 13.9589V12.8789C11.6398 12.4689 11.9798 12.1289 12.3898 12.1289C12.7998 12.1289 13.1398 12.4689 13.1398 12.8789V14.3789C13.1398 14.6389 12.9998 14.8889 12.7798 15.0189L11.5298 15.7689C11.3898 15.8389 11.2598 15.8789 11.1298 15.8789Z" fill="currentColor"/>
<path d="M21.09 6.97953C20.24 6.03953 18.83 5.56953 16.76 5.56953H16.52V5.52953C16.52 3.84953 16.52 1.76953 12.76 1.76953H11.24C7.48004 1.76953 7.48004 3.84953 7.48004 5.52953V5.56953H7.24004C5.17004 5.56953 3.75004 6.03953 2.91004 6.97953C1.92004 8.08953 1.95004 9.55953 2.05004 10.5695L2.06004 10.6395L2.12912 11.4455C2.14232 11.5994 2.22586 11.7387 2.35558 11.8227C2.63927 12.0063 2.94109 12.199 3.23004 12.3595C3.37004 12.4495 3.52004 12.5295 3.67004 12.6095C4.80004 13.2295 6.01004 13.7195 7.25004 14.0595C7.28004 16.6495 9.40004 18.7495 12 18.7495C14.62 18.7495 16.75 16.6195 16.75 13.9995V13.9595C18.01 13.5795 19.22 13.0495 20.35 12.3895C20.41 12.3595 20.45 12.3295 20.5 12.2995C20.8949 12.0849 21.3045 11.804 21.6782 11.539C21.7941 11.4568 21.869 11.3288 21.8847 11.1876L21.9 11.0495L21.95 10.5795C21.96 10.5195 21.96 10.4695 21.97 10.3995C22.05 9.39953 22.03 8.01953 21.09 6.97953ZM8.91004 5.52953C8.91004 3.82953 8.91004 3.18953 11.24 3.18953H12.76C15.09 3.18953 15.09 3.82953 15.09 5.52953V5.56953H8.91004V5.52953ZM12 17.2495C10.35 17.2495 8.98004 16.0095 8.78004 14.4095C8.76004 14.2795 8.75004 14.1395 8.75004 13.9995C8.75004 12.2095 10.21 10.7495 12 10.7495C13.79 10.7495 15.25 12.2095 15.25 13.9995C15.25 14.1195 15.24 14.2295 15.23 14.3395V14.3495C15.05 15.9795 13.67 17.2495 12 17.2495Z" fill="currentColor"/>
<path d="M21.0396 13.7311C21.2883 13.5929 21.611 13.7931 21.5851 14.0765L21.2296 17.9611C21.0196 19.9611 20.1996 22.0011 15.7996 22.0011H8.17961C3.77961 22.0011 2.95961 19.9611 2.75961 17.9711L2.41374 14.2678C2.38689 13.9802 2.6944 13.786 2.94961 13.9211C3.72961 14.3511 4.53961 14.7311 5.36961 15.0311C5.67961 15.1411 5.89961 15.4011 5.98961 15.7211C6.73961 18.3211 9.15961 20.2511 11.9996 20.2511C14.8896 20.2511 17.3296 18.2811 18.0396 15.5811C18.1196 15.2611 18.3396 15.0011 18.6496 14.8811C19.4896 14.5511 20.2896 14.1611 21.0396 13.7311Z" fill="currentColor"/>
</svg>
