<svg width="24" height="24" viewBox="0 0 24 24" fill="none" xmlns="http://www.w3.org/2000/svg">
<path d="M13.89 2.87819L9.19999 2.13819C5.28999 1.52819 3.47999 2.84819 2.85999 6.75819L2.11999 11.4482C1.71999 14.0082 2.13999 15.6682 3.58999 16.6782C4.34999 17.2182 5.38999 17.5782 6.73999 17.7882L11.43 18.5282C15.34 19.1382 17.15 17.8182 17.77 13.9082L18.5 9.21819C18.62 8.44819 18.67 7.75819 18.63 7.14819C18.5 4.64819 17.03 3.36819 13.89 2.87819ZM8.23999 9.34819C7.06999 9.34819 6.11999 8.39819 6.11999 7.23819C6.11999 6.06819 7.06999 5.11819 8.23999 5.11819C9.39999 5.11819 10.35 6.06819 10.35 7.23819C10.35 8.39819 9.39999 9.34819 8.23999 9.34819Z" fill="currentColor"/>
<path d="M20.4996 13.4686L18.9996 17.9786C17.7496 21.7386 15.7496 22.7386 11.9896 21.4886L7.47965 19.9886C6.06965 19.5186 5.04965 18.9386 4.38965 18.2086C5.01965 18.4586 5.74965 18.6486 6.57965 18.7786L11.2796 19.5186C11.9196 19.6186 12.5196 19.6686 13.0796 19.6686C16.3796 19.6686 18.1496 17.8886 18.7596 14.0586L19.4896 9.36859C19.5896 8.78859 19.6296 8.27859 19.6296 7.80859C21.1496 9.05859 21.3696 10.8386 20.4996 13.4686Z" fill="currentColor"/>
</svg>
