<svg width="24" height="24" viewBox="0 0 24 24" fill="none" xmlns="http://www.w3.org/2000/svg">
<path d="M19 8C20.6569 8 22 6.65685 22 5C22 3.34315 20.6569 2 19 2C17.3431 2 16 3.34315 16 5C16 6.65685 17.3431 8 19 8Z" fill="currentColor"/>
<path d="M17.7902 9.33927C16.2802 8.93927 15.0602 7.71927 14.6602 6.20927C14.4002 5.24927 14.4602 4.32927 14.7502 3.50927C14.9502 2.94927 14.6102 2.32927 14.0302 2.20927C12.5602 1.89927 10.9702 1.90927 9.31021 2.35927C5.53021 3.41927 2.64021 6.68927 2.10021 10.5793C1.18021 17.1993 6.79021 22.8093 13.4102 21.8993C17.3102 21.3593 20.5702 18.4693 21.6202 14.6793C22.0802 13.0293 22.0902 11.4393 21.7802 9.95927C21.6602 9.37927 21.0402 9.04927 20.4802 9.23927C19.6702 9.52927 18.7502 9.58927 17.7902 9.33927Z" fill="currentColor"/>
</svg>
