<svg width="24" height="24" viewBox="0 0 24 24" fill="none" xmlns="http://www.w3.org/2000/svg">
<path d="M19.2102 6.36148C18.1702 4.26148 16.1602 2.71148 13.8302 2.20148C11.3902 1.66148 8.89021 2.24148 6.98021 3.78148C5.06021 5.31148 3.97021 7.60148 3.97021 10.0515C3.97021 12.6415 5.52022 15.3515 7.86021 16.9215V17.7515C7.85021 18.0315 7.84021 18.4615 8.18021 18.8115C8.53021 19.1715 9.05021 19.2115 9.46021 19.2115H14.5902C15.1302 19.2115 15.5402 19.0615 15.8202 18.7815C16.2002 18.3915 16.1902 17.8915 16.1802 17.6215V16.9215C19.2802 14.8315 21.2302 10.4215 19.2102 6.36148Z" fill="currentColor"/>
<path d="M15.2602 21.9984C15.2002 21.9984 15.1302 21.9884 15.0702 21.9684C13.0602 21.3984 10.9502 21.3984 8.94015 21.9684C8.57015 22.0684 8.18015 21.8584 8.08015 21.4884C7.97015 21.1184 8.19015 20.7284 8.56015 20.6284C10.8202 19.9884 13.2002 19.9884 15.4602 20.6284C15.8302 20.7384 16.0502 21.1184 15.9402 21.4884C15.8402 21.7984 15.5602 21.9984 15.2602 21.9984Z" fill="currentColor"/>
</svg>
