<svg width="24" height="24" viewBox="0 0 24 24" fill="none" xmlns="http://www.w3.org/2000/svg">
<path d="M15.7002 4.34909L6.40021 13.6491C5.93021 14.1191 5.11021 14.0191 4.81021 13.4191C4.27021 12.3491 3.97021 11.1791 3.97021 10.0491C3.97021 7.59909 5.06021 5.30909 6.97021 3.76909C8.88021 2.22909 11.3802 1.65909 13.8302 2.19909C14.3702 2.31909 14.9002 2.48909 15.4002 2.71909C16.0402 3.00909 16.2002 3.84909 15.7002 4.34909Z" fill="currentColor"/>
<path d="M15.4499 20.6284C13.1899 19.9884 10.8099 19.9884 8.5499 20.6284C8.1799 20.7384 7.9599 21.1184 8.0699 21.4884C8.1799 21.8584 8.5599 22.0684 8.9299 21.9684C10.9399 21.3984 13.0499 21.3984 15.0599 21.9684C15.1199 21.9884 15.1899 21.9984 15.2499 21.9984C15.5499 21.9984 15.8299 21.7984 15.9199 21.4884C16.0299 21.1184 15.8199 20.7384 15.4499 20.6284Z" fill="currentColor"/>
<path d="M20.5601 1.95188C20.2701 1.66188 19.7901 1.66188 19.5001 1.95188L3.65012 17.8019C3.36012 18.0919 3.36012 18.5719 3.65012 18.8619C3.80012 19.0119 3.99012 19.0819 4.18012 19.0819C4.37012 19.0819 4.56012 19.0119 4.71012 18.8619L7.17012 16.4019C7.39012 16.5819 7.62012 16.7619 7.86012 16.9219V17.7519C7.85012 18.0319 7.84012 18.4619 8.17012 18.8119C8.52012 19.1619 9.04012 19.2119 9.45012 19.2119H14.5801C15.1201 19.2119 15.5301 19.0619 15.8101 18.7819C16.2001 18.3819 16.1801 17.8819 16.1701 17.6219V16.9219C19.2801 14.8319 21.2301 10.4219 19.2101 6.36188C18.9901 5.93188 18.7201 5.52187 18.4201 5.14187L20.5501 3.01187C20.8501 2.72187 20.8501 2.24187 20.5601 1.95188Z" fill="currentColor"/>
</svg>
