<svg width="24" height="24" viewBox="0 0 24 24" fill="none" xmlns="http://www.w3.org/2000/svg">
<path d="M18.5099 8.25078C19.0099 8.25078 19.4099 7.85078 19.4099 7.35078V2.70078C19.4099 2.20078 19.0099 1.80078 18.5099 1.80078C18.0099 1.80078 17.6099 2.20078 17.6099 2.70078V7.35078C17.6099 7.84078 18.0199 8.25078 18.5099 8.25078Z" fill="currentColor"/>
<path d="M12.0001 15.75C11.5001 15.75 11.1001 16.15 11.1001 16.65V21.3C11.1001 21.8 11.5001 22.2 12.0001 22.2C12.5001 22.2 12.9001 21.8 12.9001 21.3V16.65C12.9001 16.16 12.5001 15.75 12.0001 15.75Z" fill="currentColor"/>
<path d="M5.48984 8.25078C5.98984 8.25078 6.38984 7.85078 6.38984 7.35078V2.70078C6.38984 2.20078 5.98984 1.80078 5.48984 1.80078C4.98984 1.80078 4.58984 2.20078 4.58984 2.70078V7.35078C4.58984 7.84078 4.98984 8.25078 5.48984 8.25078Z" fill="currentColor"/>
<path d="M7.34998 10.1719H3.62998C3.12998 10.1719 2.72998 10.5719 2.72998 11.0719C2.72998 11.5719 3.12998 11.9719 3.62998 11.9719H4.58998V21.3019C4.58998 21.8019 4.98998 22.2019 5.48998 22.2019C5.98998 22.2019 6.38998 21.8019 6.38998 21.3019V11.9719H7.34998C7.84998 11.9719 8.24998 11.5719 8.24998 11.0719C8.24998 10.5719 7.83998 10.1719 7.34998 10.1719Z" fill="currentColor"/>
<path d="M20.37 10.1719H16.65C16.15 10.1719 15.75 10.5719 15.75 11.0719C15.75 11.5719 16.15 11.9719 16.65 11.9719H17.61V21.3019C17.61 21.8019 18.01 22.2019 18.51 22.2019C19.01 22.2019 19.41 21.8019 19.41 21.3019V11.9719H20.37C20.87 11.9719 21.27 11.5719 21.27 11.0719C21.27 10.5719 20.87 10.1719 20.37 10.1719Z" fill="currentColor"/>
<path d="M13.8602 12.0308H12.9002V2.70078C12.9002 2.20078 12.5002 1.80078 12.0002 1.80078C11.5002 1.80078 11.1002 2.20078 11.1002 2.70078V12.0308H10.1402C9.64023 12.0308 9.24023 12.4308 9.24023 12.9308C9.24023 13.4308 9.64023 13.8308 10.1402 13.8308H13.8602C14.3602 13.8308 14.7602 13.4308 14.7602 12.9308C14.7602 12.4308 14.3602 12.0308 13.8602 12.0308Z" fill="currentColor"/>
</svg>
