<svg width="24" height="24" viewBox="0 0 24 24" fill="none" xmlns="http://www.w3.org/2000/svg">
<path d="M18.6897 11.5308C18.1197 11.3808 17.4497 11.3008 16.6497 11.3008C15.5397 11.3008 15.1297 11.5708 14.5597 12.0008C14.5297 12.0208 14.4997 12.0508 14.4697 12.0808L13.5197 13.0908C12.7197 13.9308 11.2797 13.9408 10.4797 13.0808L9.52969 12.0808C9.49969 12.0508 9.46969 12.0208 9.43969 12.0008C8.86969 11.5708 8.45969 11.3008 7.34969 11.3008C6.54969 11.3008 5.87969 11.3808 5.30969 11.5308C2.92969 12.1708 2.92969 14.0608 2.92969 15.7208V16.6508C2.92969 19.1608 2.92969 22.0008 8.27969 22.0008H15.7197C19.2697 22.0008 21.0697 20.2008 21.0697 16.6508V15.7208C21.0697 14.0608 21.0697 12.1708 18.6897 11.5308ZM14.3297 18.4008H9.66969C9.28969 18.4008 8.97969 18.0908 8.97969 17.7008C8.97969 17.3108 9.28969 17.0008 9.66969 17.0008H14.3297C14.7097 17.0008 15.0197 17.3108 15.0197 17.7008C15.0197 18.0908 14.7097 18.4008 14.3297 18.4008Z" fill="currentColor"/>
<path d="M12.6701 2.67C12.6701 2.3 12.3701 2 12.0001 2C11.6301 2 11.3301 2.3 11.3301 2.67V4H12.6801V2.67H12.6701Z" fill="currentColor"/>
<path d="M19.21 8.42V10.12C19.17 10.1 19.12 10.09 19.08 10.08H19.07C18.36 9.89 17.57 9.8 16.65 9.8C15.11 9.8 14.38 10.25 13.72 10.75C13.58 10.85 13.48 10.95 13.38 11.05L12.43 12.06C12.33 12.16 12.17 12.22 12 12.22C11.92 12.22 11.72 12.21 11.57 12.05L10.59 11.02C10.49 10.91 10.37 10.82 10.34 10.8C9.62004 10.25 8.89004 9.8 7.35004 9.8C6.43004 9.8 5.64004 9.89 4.92004 10.08C4.88004 10.09 4.83004 10.1 4.79004 10.12V8.42C4.79004 6.35 4.79004 4 9.21004 4H11.33V7.45L10.68 6.8C10.41 6.53 9.99004 6.53 9.72004 6.8C9.46004 7.06 9.46004 7.49 9.72004 7.75L11.52 9.55C11.53 9.56 11.54 9.56 11.54 9.57C11.6 9.62 11.67 9.67 11.74 9.7C11.83 9.73 11.91 9.75 12 9.75C12.09 9.75 12.17 9.73 12.26 9.7C12.34 9.67 12.41 9.62 12.48 9.55L14.28 7.75C14.54 7.49 14.54 7.06 14.28 6.8C14.01 6.53 13.59 6.53 13.32 6.8L12.67 7.45V4H14.79C19.21 4 19.21 6.35 19.21 8.42Z" fill="currentColor"/>
</svg>
