<svg width="24" height="24" viewBox="0 0 24 24" fill="none" xmlns="http://www.w3.org/2000/svg">
<path d="M8.25864 21.2453C8.90561 20.5983 9.27728 19.7724 9.37364 18.9189C9.50441 17.7833 9.12586 16.6063 8.25864 15.7391C7.74244 15.2229 7.10923 14.8788 6.44161 14.7205C5.16831 14.397 3.75736 14.7342 2.75248 15.7391C2.05733 16.4343 1.67878 17.3221 1.6306 18.2375C1.59619 18.6298 1.6306 19.0359 1.73385 19.4282C1.89215 20.0959 2.23628 20.7291 2.75248 21.2453C4.27356 22.7663 6.73756 22.7663 8.25864 21.2453ZM6.96469 17.7764C7.36389 17.7764 7.69426 18.1068 7.69426 18.506C7.68738 18.912 7.36389 19.2355 6.95781 19.2424L6.23513 19.2355L6.24201 19.9307C6.23513 20.3368 5.91164 20.6602 5.50556 20.6671C5.09948 20.6602 4.776 20.3367 4.76911 19.9307L4.776 19.2355L4.05331 19.2424C3.64723 19.2355 3.32375 18.912 3.31686 18.506C3.32375 18.3064 3.40634 18.1274 3.53711 17.9966C3.66788 17.8659 3.84683 17.7833 4.04643 17.7764L4.776 17.7764L4.776 17.0193C4.776 16.8128 4.85859 16.6339 4.98936 16.5031C5.12013 16.3723 5.29908 16.2897 5.50556 16.2897C5.90476 16.2897 6.23513 16.6201 6.23513 17.0193L6.23513 17.7764L6.96469 17.7764Z" fill="currentColor"/>
<path d="M15.0942 3.84548V7.54425H13.6342V3.84548C13.6342 3.58267 13.4006 3.45613 13.2449 3.45613C13.1962 3.45613 13.1475 3.46587 13.0989 3.48533L5.38011 6.39568C4.86422 6.59035 4.53328 7.07703 4.53328 7.63185V8.284C3.64752 8.94589 3.07324 10.0068 3.07324 11.2041V7.63185C3.07324 6.47355 3.7838 5.44179 4.86422 5.03298L12.5927 2.1129C12.8068 2.03503 13.0307 1.99609 13.2449 1.99609C14.2182 1.99609 15.0942 2.78452 15.0942 3.84548Z" fill="currentColor"/>
<path d="M21.5681 14.1156V15.0889C21.5681 15.3518 21.3637 15.5659 21.0911 15.5756H19.67C19.1542 15.5756 18.6869 15.196 18.648 14.6899C18.6188 14.3881 18.7356 14.1059 18.9303 13.9112C19.1055 13.7262 19.3488 13.6289 19.6116 13.6289H21.0814C21.3637 13.6386 21.5681 13.8528 21.5681 14.1156Z" fill="currentColor"/>
<path d="M19.6009 12.6044H20.5937C21.1291 12.6044 21.5671 12.1664 21.5671 11.6311V11.2028C21.5671 9.18795 19.9221 7.54297 17.9073 7.54297H6.73308C5.90572 7.54297 5.1465 7.81551 4.53328 8.28272C3.64752 8.94461 3.07324 10.0056 3.07324 11.2028V12.9354C3.07324 13.3053 3.46259 13.5389 3.813 13.4221C4.35808 13.2371 4.93236 13.1398 5.50664 13.1398C8.45592 13.1398 10.8601 15.544 10.8601 18.4933C10.8601 19.1941 10.6752 19.963 10.3832 20.6444C10.2274 20.9948 10.4708 21.4134 10.8504 21.4134H17.9073C19.9221 21.4134 21.5671 19.7684 21.5671 17.7535V17.5686C21.5671 17.0332 21.1291 16.5952 20.5937 16.5952H19.7469C18.8125 16.5952 17.917 16.0209 17.6736 15.1157C17.479 14.376 17.7126 13.6557 18.1993 13.1885C18.5594 12.8186 19.0558 12.6044 19.6009 12.6044ZM14.2669 12.4098H9.40008C9.00101 12.4098 8.67006 12.0788 8.67006 11.6797C8.67006 11.2807 9.00101 10.9497 9.40008 10.9497H14.2669C14.666 10.9497 14.9969 11.2807 14.9969 11.6797C14.9969 12.0788 14.666 12.4098 14.2669 12.4098Z" fill="currentColor"/>
</svg>
