<svg width="24" height="24" viewBox="0 0 24 24" fill="none" xmlns="http://www.w3.org/2000/svg">
<path d="M19.24 5.57859H18.84L15.46 2.19859C15.19 1.92859 14.75 1.92859 14.47 2.19859C14.2 2.46859 14.2 2.90859 14.47 3.18859L16.86 5.57859H7.14L9.53 3.18859C9.8 2.91859 9.8 2.47859 9.53 2.19859C9.26 1.92859 8.82 1.92859 8.54 2.19859L5.17 5.57859H4.77C3.87 5.57859 2 5.57859 2 8.13859C2 9.10859 2.2 9.74859 2.62 10.1686C2.86 10.4186 3.15 10.5486 3.46 10.6186C3.75 10.6886 4.06 10.6986 4.36 10.6986H19.64C19.95 10.6986 20.24 10.6786 20.52 10.6186C21.36 10.4186 22 9.81859 22 8.13859C22 5.57859 20.13 5.57859 19.24 5.57859Z" fill="currentColor"/>
<path d="M19.0497 12H4.86967C4.24967 12 3.77967 12.55 3.87967 13.16L4.71967 18.3C4.99967 20.02 5.74967 22 9.07967 22H14.6897C18.0597 22 18.6597 20.31 19.0197 18.42L20.0297 13.19C20.1497 12.57 19.6797 12 19.0497 12ZM10.6097 18.45C10.6097 18.84 10.2997 19.15 9.91967 19.15C9.52967 19.15 9.21967 18.84 9.21967 18.45V15.15C9.21967 14.77 9.52967 14.45 9.91967 14.45C10.2997 14.45 10.6097 14.77 10.6097 15.15V18.45ZM14.8897 18.45C14.8897 18.84 14.5797 19.15 14.1897 19.15C13.8097 19.15 13.4897 18.84 13.4897 18.45V15.15C13.4897 14.77 13.8097 14.45 14.1897 14.45C14.5797 14.45 14.8897 14.77 14.8897 15.15V18.45Z" fill="currentColor"/>
</svg>
