<svg width="24" height="24" viewBox="0 0 24 24" fill="none" xmlns="http://www.w3.org/2000/svg">
<path d="M22.3596 8.27L22.0696 5.5C21.6496 2.48 20.2796 1.25 17.3497 1.25H14.9896H13.5097H10.4697H8.98965H6.58965C3.64965 1.25 2.28965 2.48 1.85965 5.53L1.58965 8.28C1.48965 9.35 1.77965 10.39 2.40965 11.2C3.16965 12.19 4.33965 12.75 5.63965 12.75C6.89965 12.75 8.10965 12.12 8.86965 11.11C9.54965 12.12 10.7097 12.75 11.9997 12.75C13.2896 12.75 14.4197 12.15 15.1096 11.15C15.8797 12.14 17.0696 12.75 18.3096 12.75C19.6396 12.75 20.8396 12.16 21.5896 11.12C22.1896 10.32 22.4597 9.31 22.3596 8.27Z" fill="currentColor"/>
<path d="M11.3501 16.6602C10.0801 16.7902 9.12012 17.8702 9.12012 19.1502V21.8902C9.12012 22.1602 9.34012 22.3802 9.61012 22.3802H14.3801C14.6501 22.3802 14.8701 22.1602 14.8701 21.8902V19.5002C14.8801 17.4102 13.6501 16.4202 11.3501 16.6602Z" fill="currentColor"/>
<path d="M21.3699 14.3981V17.3781C21.3699 20.1381 19.1299 22.3781 16.3699 22.3781C16.0999 22.3781 15.8799 22.1581 15.8799 21.8881V19.4981C15.8799 18.2181 15.4899 17.2181 14.7299 16.5381C14.0599 15.9281 13.1499 15.6281 12.0199 15.6281C11.7699 15.6281 11.5199 15.6381 11.2499 15.6681C9.46988 15.8481 8.11988 17.3481 8.11988 19.1481V21.8881C8.11988 22.1581 7.89988 22.3781 7.62988 22.3781C4.86988 22.3781 2.62988 20.1381 2.62988 17.3781V14.4181C2.62988 13.7181 3.31988 13.2481 3.96988 13.4781C4.23988 13.5681 4.50988 13.6381 4.78988 13.6781C4.90988 13.6981 5.03988 13.7181 5.15988 13.7181C5.31988 13.7381 5.47988 13.7481 5.63988 13.7481C6.79988 13.7481 7.93988 13.3181 8.83988 12.5781C9.69988 13.3181 10.8199 13.7481 11.9999 13.7481C13.1899 13.7481 14.2899 13.3381 15.1499 12.5981C16.0499 13.3281 17.1699 13.7481 18.3099 13.7481C18.4899 13.7481 18.6699 13.7381 18.8399 13.7181C18.9599 13.7081 19.0699 13.6981 19.1799 13.6781C19.4899 13.6381 19.7699 13.5481 20.0499 13.4581C20.6999 13.2381 21.3699 13.7181 21.3699 14.3981Z" fill="currentColor"/>
</svg>
