<svg width="24" height="24" viewBox="0 0 24 24" fill="none" xmlns="http://www.w3.org/2000/svg">
<path d="M20.1198 3.88L3.38982 20.61C3.33982 20.41 3.31982 20.19 3.31982 19.95V5.86C3.31982 3.74 5.04982 2 7.17982 2H16.8198C18.2198 2 19.4498 2.75 20.1198 3.88Z" fill="currentColor"/>
<path d="M21.7699 2.22891C21.4699 1.92891 20.9799 1.92891 20.6799 2.22891L2.22988 20.6889C1.92988 20.9889 1.92988 21.4789 2.22988 21.7789C2.37988 21.9189 2.56988 21.9989 2.76988 21.9989C2.96988 21.9989 3.15988 21.9189 3.30988 21.7689L21.7699 3.30891C22.0799 3.00891 22.0799 2.52891 21.7699 2.22891Z" fill="currentColor"/>
<path d="M19.2902 7.71054L11.9001 15.1005C11.4401 15.5605 11.5301 16.3305 12.0901 16.6605L19.4801 21.0905C20.1501 21.4905 20.9901 21.0105 20.9901 20.2305V8.41054C21.0001 7.52054 19.9201 7.08054 19.2902 7.71054Z" fill="currentColor"/>
</svg>
