<svg width="24" height="24" viewBox="0 0 24 24" fill="none" xmlns="http://www.w3.org/2000/svg">
<path d="M14.1302 11.3386C14.5202 9.69856 13.0902 8.26856 11.4502 8.65856C10.6802 8.84856 10.0502 9.47856 9.86022 10.2486C9.47022 11.8886 10.9002 13.3186 12.5402 12.9286C13.3202 12.7386 13.9502 12.1086 14.1302 11.3386Z" fill="currentColor"/>
<path d="M6.01996 17.97C5.83996 17.97 5.64996 17.9 5.50996 17.77C3.56996 15.97 2.45996 13.43 2.45996 10.79C2.45996 5.53 6.73996 1.25 12 1.25C17.26 1.25 21.54 5.53 21.54 10.79C21.54 13.45 20.47 15.91 18.53 17.74C18.23 18.02 17.75 18.01 17.47 17.71C17.19 17.41 17.2 16.93 17.5 16.65C19.14 15.11 20.04 13.04 20.04 10.8C20.04 6.37 16.43 2.76 12 2.76C7.56996 2.76 3.95996 6.37 3.95996 10.8C3.95996 13.06 4.86996 15.14 6.52996 16.68C6.82996 16.96 6.84996 17.44 6.56996 17.74C6.41996 17.89 6.21996 17.97 6.01996 17.97Z" fill="currentColor"/>
<path d="M16 15.2986C15.82 15.2986 15.63 15.2286 15.49 15.0986C15.19 14.8186 15.17 14.3386 15.46 14.0386C16.29 13.1586 16.75 11.9986 16.75 10.7986C16.75 8.17859 14.62 6.05859 12.01 6.05859C9.40002 6.05859 7.27002 8.18859 7.27002 10.7986C7.27002 12.0086 7.73002 13.1586 8.56002 14.0386C8.84002 14.3386 8.83002 14.8186 8.53002 15.0986C8.23002 15.3886 7.75002 15.3686 7.47002 15.0686C6.38002 13.9086 5.77002 12.3886 5.77002 10.7986C5.77002 7.35859 8.57002 4.55859 12.01 4.55859C15.45 4.55859 18.25 7.35859 18.25 10.7986C18.25 12.3886 17.65 13.9086 16.55 15.0686C16.4 15.2186 16.2 15.2986 16 15.2986Z" fill="currentColor"/>
<path d="M10.2999 16.66L8.85988 18.45C7.71988 19.88 8.73989 22 10.5599 22H13.4299C15.2599 22 16.2799 19.88 15.1299 18.46L13.6899 16.67C12.8299 15.57 11.1699 15.57 10.2999 16.66Z" fill="currentColor"/>
</svg>
