<svg width="24" height="24" viewBox="0 0 24 24" fill="none" xmlns="http://www.w3.org/2000/svg">
<path d="M12 11.5312C9.24 11.5312 7 13.7713 7 16.5313C7 17.2713 7.16 17.9713 7.46 18.5913C7.54 18.7713 7.63 18.9413 7.73 19.1013C8.59 20.5513 10.18 21.5313 12 21.5313C13.82 21.5313 15.41 20.5513 16.27 19.1013C16.37 18.9413 16.46 18.7713 16.54 18.5913C16.84 17.9713 17 17.2713 17 16.5313C17 13.7713 14.76 11.5312 12 11.5312ZM13.5 18.1412C13.35 18.2912 13.16 18.3613 12.97 18.3613C12.78 18.3613 12.59 18.2912 12.44 18.1412L11.91 17.6113L11.36 18.1613C11.21 18.3113 11.02 18.3812 10.83 18.3812C10.64 18.3812 10.45 18.3113 10.3 18.1613C10.01 17.8713 10.01 17.3913 10.3 17.1013L10.85 16.5512L10.32 16.0213C10.03 15.7313 10.03 15.2513 10.32 14.9613C10.61 14.6713 11.09 14.6713 11.38 14.9613L11.91 15.4913L12.41 14.9913C12.7 14.7013 13.18 14.7013 13.47 14.9913C13.76 15.2812 13.76 15.7612 13.47 16.0512L12.97 16.5512L13.5 17.0813C13.79 17.3813 13.79 17.8512 13.5 18.1412Z" fill="currentColor"/>
<path d="M20.1998 17.2909C19.8398 17.6109 19.4498 17.8809 19.0298 18.1009C18.6698 18.2809 18.3098 17.9309 18.3698 17.5309C18.4098 17.2409 18.4298 16.9409 18.4298 16.6309C18.4298 13.0509 15.5098 10.1309 11.9298 10.1309C8.34983 10.1309 5.42983 13.0509 5.42983 16.6309C5.42983 17.0909 5.47983 17.5309 5.56983 17.9609C5.63983 18.3109 5.36983 18.6609 5.01983 18.5709C1.06983 17.6109 1.04983 11.5309 5.46983 11.2109H5.51983C2.30983 2.29094 15.8498 -1.27906 17.3998 8.10094C21.7298 8.65094 23.4798 14.4209 20.1998 17.2909Z" fill="currentColor"/>
</svg>
