<svg width="24" height="24" viewBox="0 0 24 24" fill="none" xmlns="http://www.w3.org/2000/svg">
<path d="M12 11.5312C9.24 11.5312 7 13.7713 7 16.5313C7 17.2713 7.16 17.9713 7.46 18.5913C7.54 18.7713 7.63 18.9413 7.73 19.1013C8.59 20.5513 10.18 21.5313 12 21.5313C13.82 21.5313 15.41 20.5513 16.27 19.1013C16.37 18.9413 16.46 18.7713 16.54 18.5913C16.84 17.9713 17 17.2713 17 16.5313C17 13.7713 14.76 11.5312 12 11.5312ZM14.07 16.1013L11.94 18.0712C11.8 18.2013 11.61 18.2713 11.43 18.2713C11.24 18.2713 11.05 18.2012 10.9 18.0512L9.91 17.0612C9.62 16.7712 9.62 16.2913 9.91 16.0013C10.2 15.7113 10.68 15.7113 10.97 16.0013L11.45 16.4812L13.05 15.0013C13.36 14.7213 13.83 14.7413 14.11 15.0413C14.39 15.3413 14.37 15.8113 14.07 16.1013Z" fill="currentColor"/>
<path d="M20.1998 17.0715C19.8398 17.3915 19.4498 17.6615 19.0298 17.8815C18.6698 18.0615 18.3098 17.7115 18.3698 17.3115C18.4098 17.0215 18.4298 16.7215 18.4298 16.4115C18.4298 12.8315 15.5098 9.91149 11.9298 9.91149C8.34983 9.91149 5.42983 12.8315 5.42983 16.4115C5.42983 16.8715 5.47983 17.3115 5.56983 17.7415C5.63983 18.0915 5.36983 18.4415 5.01983 18.3515C1.06983 17.3915 1.04983 11.3115 5.46983 11.0015H5.51983C2.30983 2.07149 15.8498 -1.49851 17.3998 7.88149C21.7298 8.43149 23.4798 14.2015 20.1998 17.0715Z" fill="currentColor"/>
</svg>
