<svg width="24" height="24" viewBox="0 0 24 24" fill="none" xmlns="http://www.w3.org/2000/svg">
<path d="M20 6V6.24H14.87C11.9 6.24 10.52 7.62 10.52 10.59V15.7H9.75V19.25H10.52V20.75H4.95C4.54 20.75 4.2 20.41 4.2 20C4.2 19.59 4.54 19.25 4.95 19.25H8.25V15.7H6C2.87 15.7 2.03 14.93 2 11.9V6C2 2.8 2.8 2 6 2H16C19.2 2 20 2.8 20 6Z" fill="currentColor"/>
<path d="M20 7.78828C19.75 7.75828 19.46 7.73828 19.15 7.73828H14.87C12.73 7.73828 12.02 8.44828 12.02 10.5883V19.2483C12.03 19.8683 12.1 20.3583 12.25 20.7483C12.6 21.6583 13.39 21.9983 14.87 21.9983H19.15C21.29 21.9983 22 21.2883 22 19.1483V10.5883C22 8.75828 21.48 7.97828 20 7.78828ZM17.01 10.0883C17.88 10.0883 18.58 10.7883 18.58 11.6583C18.58 12.5283 17.88 13.2283 17.01 13.2283C16.14 13.2283 15.44 12.5283 15.44 11.6583C15.44 10.7883 16.14 10.0883 17.01 10.0883ZM17.01 19.1483C15.83 19.1483 14.87 18.1883 14.87 17.0083C14.87 16.5183 15.04 16.0583 15.32 15.6983C15.71 15.1983 16.32 14.8683 17.01 14.8683C17.55 14.8683 18.04 15.0683 18.41 15.3883C18.86 15.7883 19.15 16.3683 19.15 17.0083C19.15 18.1883 18.19 19.1483 17.01 19.1483Z" fill="currentColor"/>
<path d="M20 7.78828C19.75 7.75828 19.46 7.73828 19.15 7.73828H14.87C12.73 7.73828 12.02 8.44828 12.02 10.5883V19.2483C12.03 19.8683 12.1 20.3583 12.25 20.7483C12.6 21.6583 13.39 21.9983 14.87 21.9983H19.15C21.29 21.9983 22 21.2883 22 19.1483V10.5883C22 8.75828 21.48 7.97828 20 7.78828ZM17.01 10.0883C17.88 10.0883 18.58 10.7883 18.58 11.6583C18.58 12.5283 17.88 13.2283 17.01 13.2283C16.14 13.2283 15.44 12.5283 15.44 11.6583C15.44 10.7883 16.14 10.0883 17.01 10.0883ZM17.01 19.1483C15.83 19.1483 14.87 18.1883 14.87 17.0083C14.87 16.5183 15.04 16.0583 15.32 15.6983C15.71 15.1983 16.32 14.8683 17.01 14.8683C17.55 14.8683 18.04 15.0683 18.41 15.3883C18.86 15.7883 19.15 16.3683 19.15 17.0083C19.15 18.1883 18.19 19.1483 17.01 19.1483Z" fill="currentColor"/>
</svg>
