<svg width="24" height="24" viewBox="0 0 24 24" fill="none" xmlns="http://www.w3.org/2000/svg">
<path d="M8.5 12.75C8.09 12.75 7.75 12.41 7.75 12V6C7.75 5.59 8.09 5.25 8.5 5.25C8.91 5.25 9.25 5.59 9.25 6V12C9.25 12.41 8.91 12.75 8.5 12.75Z" fill="currentColor"/>
<path d="M8.5 22.75C8.09 22.75 7.75 22.41 7.75 22V18C7.75 17.59 8.09 17.25 8.5 17.25C8.91 17.25 9.25 17.59 9.25 18V22C9.25 22.41 8.91 22.75 8.5 22.75Z" fill="currentColor"/>
<path d="M15.5 22.75C15.09 22.75 14.75 22.41 14.75 22V6C14.75 5.59 15.09 5.25 15.5 5.25C15.91 5.25 16.25 5.59 16.25 6V22C16.25 22.41 15.91 22.75 15.5 22.75Z" fill="currentColor"/>
<path d="M10.0998 5.3C10.0998 5.79 9.8998 6.24 9.5698 6.57C9.2398 6.9 8.7898 7.1 8.2998 7.1H6.0498C6.3298 6.73 6.4998 6.25 6.4998 5.75V4.85C6.4998 4.35 6.3298 3.87 6.0498 3.5H8.2998C9.2898 3.5 10.0998 4.31 10.0998 5.3Z" fill="currentColor"/>
<path d="M6.5 4.84834V5.74834C6.5 6.24834 6.33 6.72834 6.05 7.09834C5.29 8.10834 3.73 8.44834 2.28 7.15834C2.12 7.01834 2 6.71834 2 6.50834V4.16834C2 3.96834 2.1 3.69834 2.23 3.55834C3.49 2.23834 5.01 2.42834 5.84 3.25834C5.91 3.32834 5.99 3.40834 6.05 3.49834C6.33 3.86834 6.5 4.34834 6.5 4.84834Z" fill="currentColor"/>
<path d="M13.8999 5.3C13.8999 5.79 14.0999 6.24 14.4299 6.57C14.7599 6.9 15.2099 7.1 15.6999 7.1H17.9499C17.6699 6.73 17.4999 6.25 17.4999 5.75V4.85C17.4999 4.35 17.6699 3.87 17.9499 3.5H15.6999C14.7099 3.5 13.8999 4.31 13.8999 5.3Z" fill="currentColor"/>
<path d="M17.5 4.84834V5.74834C17.5 6.24834 17.67 6.72834 17.95 7.09834C18.71 8.10834 20.27 8.44834 21.72 7.15834C21.88 7.01834 22 6.71834 22 6.50834V4.16834C22 3.97834 21.9 3.69834 21.77 3.55834C20.51 2.23834 18.99 2.42834 18.16 3.25834C18.09 3.32834 18.02 3.40834 17.95 3.49834C17.67 3.86834 17.5 4.34834 17.5 4.84834Z" fill="currentColor"/>
<path d="M10 13.5V17.5C10 18.33 9.33 19 8.5 19C7.67 19 7 18.33 7 17.5V13.5C7 12.67 7.67 12 8.5 12C9.33 12 10 12.67 10 13.5Z" fill="currentColor"/>
</svg>
