<svg width="24" height="24" viewBox="0 0 24 24" fill="none" xmlns="http://www.w3.org/2000/svg">
<path d="M14.8401 10.8986L20.5001 7.10862C21.0701 6.72862 21.2201 5.94862 20.8401 5.38862L19.0201 2.67862C18.6401 2.10862 17.8601 1.95862 17.3001 2.33862L11.6401 6.12862L14.8401 10.8986Z" fill="currentColor"/>
<path d="M14.5202 10.4216L12.7602 11.6016L10.0902 13.3916L9.74018 13.6216L9.58018 13.3816L7.34018 10.0416L7.18018 9.80156L11.9602 6.60156L14.5202 10.4216Z" fill="currentColor"/>
<path d="M5.6401 16.0191L9.5901 13.3791L7.3501 10.0391L3.4001 12.6791C2.9401 12.9891 2.8201 13.6091 3.1301 14.0691L4.2601 15.7491C4.5601 16.2091 5.1801 16.3291 5.6401 16.0191Z" fill="currentColor"/>
<path d="M16.5599 21.8116C16.4599 21.8516 16.3499 21.8816 16.2499 21.8816C15.9599 21.8816 15.6899 21.7116 15.5599 21.4316L11.8299 13.1916L8.0499 21.4416C7.9199 21.7116 7.6499 21.8816 7.3599 21.8816C7.2599 21.8816 7.1499 21.8516 7.0499 21.8116C6.6799 21.6316 6.5099 21.1916 6.6799 20.8116L10.0899 13.3916L12.7599 11.6016L16.9299 20.8216C17.0999 21.1916 16.9299 21.6416 16.5599 21.8116Z" fill="currentColor"/>
</svg>
