<svg width="24" height="24" viewBox="0 0 24 24" fill="none" xmlns="http://www.w3.org/2000/svg">
<path d="M16.0098 20.97C16.0154 21.5261 15.5661 21.98 15.0099 21.98H8.99325C8.44357 21.98 7.99695 21.5364 7.99327 20.9867L7.97998 19C7.97998 17.9 8.86998 17 9.97998 17H13.99C15.09 17 15.98 17.89 15.99 18.99L16.0098 20.97Z" fill="currentColor"/>
<path d="M18.5 9.99938V12.1694C18.5 12.6994 18.71 13.2094 19.09 13.5894L19.91 14.4094C20.29 14.7894 20.5 15.2994 20.5 15.8294V16.9994C20.5 19.3005 19.5911 20.993 17.6057 21.6655C17.3045 21.7676 17.0089 21.5297 17.0078 21.2117L17 18.9794C16.98 17.3394 15.63 15.9994 14 15.9994H9.99C8.33 15.9994 6.99 17.3494 6.99 18.9994V21.2235C6.99 21.541 6.69629 21.7798 6.3949 21.6801C4.386 21.0153 3.5 19.3124 3.5 16.9994V6.99938C3.5 4.59334 4.45179 2.83316 6.64523 2.23589C6.94579 2.15404 7.2259 2.3956 7.22143 2.70706L7.19 4.89938C7.18 5.36938 7.35 5.81938 7.67 6.15938C8 6.49938 8.43 6.68937 8.94 6.69938C9.45417 6.69938 9.91203 6.48662 10.2245 6.14032C10.3367 6.01594 10.5516 6.01093 10.67 6.12938C10.99 6.46938 11.43 6.66937 11.94 6.67937C12.4543 6.67937 12.9235 6.45332 13.2436 6.08945C13.3488 5.96988 13.5642 5.96034 13.67 6.07938C13.99 6.41937 14.43 6.61938 14.94 6.62938C15.9 6.62938 16.67 5.87937 16.69 4.90937L16.7297 2.68602C16.7351 2.38172 17.0106 2.15075 17.3047 2.22893C19.5087 2.8147 20.5 4.58656 20.5 6.99938V7.99938C20.5 8.54938 20.05 8.99938 19.5 8.99938C18.95 8.99938 18.5 9.44938 18.5 9.99938Z" fill="currentColor"/>
<path d="M9.22836 2.0033C9.50907 2.00149 9.73626 2.23107 9.73152 2.51174L9.69016 4.96C9.68016 5.37 9.35016 5.7 8.94016 5.7H8.93016C8.51016 5.69 8.18016 5.35 8.19016 4.93V2.50678C8.19016 2.2319 8.41206 2.00857 8.68694 2.00679L9.22836 2.0033Z" fill="currentColor"/>
<path d="M12.2316 2C12.5111 2 12.7363 2.22906 12.7315 2.50847L12.6902 4.95C12.6802 5.35 12.3502 5.68 11.9402 5.68H11.9302C11.5102 5.67 11.1802 5.33 11.1902 4.92L11.1902 2.5C11.1902 2.22386 11.414 2 11.6902 2H12.2316Z" fill="currentColor"/>
<path d="M15.2346 2.00658C15.5129 2.00833 15.7362 2.23699 15.7314 2.51525L15.6902 4.88977C15.6802 5.29977 15.3502 5.62977 14.9402 5.62977H14.9302C14.5102 5.61977 14.1802 5.27977 14.1902 4.86977V2.50316C14.1902 2.22579 14.4159 2.00142 14.6933 2.00317L15.2346 2.00658Z" fill="currentColor"/>
</svg>
