<svg width="24" height="24" viewBox="0 0 24 24" fill="none" xmlns="http://www.w3.org/2000/svg">
<path d="M16 12.6919V18.0819C16 20.4219 14.44 21.9719 12.11 21.9719H5.89C3.56 21.9719 2 20.4219 2 18.0819V10.3119C2 7.97188 3.56 6.42188 5.89 6.42188H9.72C10.75 6.42188 11.74 6.83187 12.47 7.56187L14.86 9.94187C15.59 10.6719 16 11.6619 16 12.6919Z" fill="currentColor"/>
<path d="M22 8.24875V13.6388C22 15.9688 20.44 17.5288 18.11 17.5288H17V12.6887C17 11.3987 16.48 10.1387 15.57 9.22875L13.18 6.84875C12.27 5.93875 11.01 5.41875 9.72002 5.41875H8.02002C8.20002 3.33875 9.71002 1.96875 11.89 1.96875H15.72C16.75 1.96875 17.74 2.37875 18.47 3.10875L20.86 5.49875C21.59 6.22875 22 7.21875 22 8.24875Z" fill="currentColor"/>
</svg>
