<svg width="24" height="24" viewBox="0 0 24 24" fill="none" xmlns="http://www.w3.org/2000/svg">
<path d="M15.0001 1.62109H9.00012C5.81012 1.62109 4.62012 2.81109 4.62012 6.00109V18.0011C4.62012 21.1911 5.81012 22.3811 9.00012 22.3811H15.0001C18.1901 22.3811 19.3801 21.1911 19.3801 18.0011V6.00109C19.3801 2.81109 18.1901 1.62109 15.0001 1.62109ZM12.0001 6.00109C12.8301 6.00109 13.5001 6.67109 13.5001 7.50109C13.5001 8.33109 12.8301 9.00109 12.0001 9.00109C11.1701 9.00109 10.5001 8.33109 10.5001 7.50109C10.5001 6.67109 11.1701 6.00109 12.0001 6.00109ZM12.0001 18.0011C10.3401 18.0011 9.00012 16.6611 9.00012 15.0011C9.00012 13.3411 10.3401 12.0011 12.0001 12.0011C13.6601 12.0011 15.0001 13.3411 15.0001 15.0011C15.0001 16.6611 13.6601 18.0011 12.0001 18.0011Z" fill="currentColor"/>
</svg>
