<?xml version="1.0" encoding="UTF-8"?>
<svg id="Layer_1" xmlns="http://www.w3.org/2000/svg" viewBox="0 0 595.32 195.9">
    <path d="M574.67,91.53c4.99,0,8.64-.33,10.31-.66v-13.63h-4.32c-3.99,0-6.32-1-6.32-5.65v-27.26h10.64v-11.64h-10.64V14.41h-18.28v18.28h-7.65v11.64h7.65v31.25c0,12.63,7.98,15.96,18.62,15.96Z"
          style="fill:#fff;"/>
    <path d="M519.16,92.86c14.96,0,26.26-6.65,26.26-19.28,0-14.96-11.97-17.62-22.27-19.28-7.31-1.33-13.96-1.99-13.96-5.98,0-3.66,3.66-5.65,7.98-5.65,5.32,0,8.98,1.66,9.64,6.98h16.95c-1-11.64-9.97-18.62-26.26-18.62-13.96,0-25.26,6.32-25.26,18.62,0,13.63,10.97,16.29,20.94,17.95,7.65,1.66,14.96,1.99,14.96,7.31,0,3.66-3.66,5.65-9.31,5.65-5.98,0-9.97-2.66-10.64-8.64h-17.62c.66,12.96,11.3,20.94,28.59,20.94Z"
          style="fill:#fff;"/>
    <path d="M446.02,55.63c1.33-6.98,4.99-11.3,11.97-11.3,5.98,0,10.31,4.32,10.97,11.3h-22.94ZM458.66,92.53c7.65,0,13.3-1.66,18.28-5.32,4.99-3.32,8.64-8.31,9.64-13.63h-17.95c-1.66,3.66-4.65,5.65-9.64,5.65-7.65,0-11.97-4.65-12.96-12.63h41.89c0-11.97-3.32-21.94-10.31-28.26-4.99-4.65-11.64-7.31-19.95-7.31-17.95,0-29.92,13.3-29.92,30.58s11.64,30.92,30.92,30.92Z"
          style="fill:#fff;"/>
    <path d="M384.52,90.87h19.95l20.28-58.18h-18.62l-7.98,26.26c-1.66,5.98-3.32,11.64-3.32,11.64,0,0-1.66-5.65-3.32-11.64l-7.98-26.26h-18.95l19.95,58.18Z"
          style="fill:#fff;"/>
    <path d="M304.74,90.87h18.62v-32.25c0-6.98,3.99-12.3,10.31-12.3,5.98,0,8.98,4.32,8.98,10.64v57.18l18.62-18.62v-42.55c0-12.96-7.65-21.94-20.28-21.94-7.98,0-13.63,3.32-17.95,9.64h-.33v-7.98h-17.95v58.18Z"
          style="fill:#fff;"/>
    <polygon points="297.43 91.2 297.43 9.76 279.14 28.04 279.14 109.82 297.43 91.2" style="fill:#fff;"/>
    <path d="M528.47,180.63h18.62v-32.25c0-6.98,3.99-12.3,10.31-12.3,5.98,0,8.98,4.32,8.98,10.64v33.91h18.62v-37.9c0-12.96-7.65-21.94-20.28-21.94-8.31,0-13.63,3.32-17.95,9.64h-.33v-7.98h-17.95v58.18Z"
          style="fill:#fff;"/>
    <path d="M489.9,170.32c-4.32,0-7.98-1.66-7.98-6.32s2.99-6.32,10.31-7.98c3.66-1,6.98-1.66,9.31-2.99v6.98c0,6.32-4.65,10.31-11.64,10.31ZM483.92,182.29c8.98,0,13.96-2.99,17.29-7.98h.33c.66,2.99,1,5.32,1.99,6.32h17.95v-.66c-1.66-1-1.99-3.66-1.99-8.31v-29.25c0-7.31-2.33-12.96-7.31-16.62-4.32-3.32-10.31-4.99-18.95-4.99-17.62,0-25.93,9.31-26.59,20.28h17.29c.33-4.99,3.32-7.65,9.31-7.65,5.65,0,7.98,2.33,7.98,6.32s-3.99,4.99-14.63,6.32c-12.3,1.66-22.27,5.65-22.27,18.28,0,11.64,8.31,17.95,19.61,17.95Z"
          style="fill:#fff;"/>
    <path d="M449.02,181.29c4.99,0,8.31-.33,9.97-.66v-13.63h-3.99c-3.99,0-6.65-1-6.65-5.65v-27.26h10.64v-11.64h-10.64v-18.28h-17.95v18.28h-7.65v11.64h7.65v31.25c0,12.63,7.65,15.96,18.62,15.96Z"
          style="fill:#fff;"/>
    <path d="M394.83,182.62c15.29,0,26.59-6.65,26.59-19.28,0-14.96-11.97-17.62-22.27-19.28-7.31-1.33-13.96-1.99-13.96-5.98,0-3.66,3.66-5.32,7.98-5.32,5.32,0,8.64,1.33,9.31,6.65h17.29c-1-11.64-9.97-18.62-26.26-18.62-13.96,0-25.26,6.32-25.26,18.62,0,13.63,10.64,16.29,20.94,17.95,7.65,1.66,14.63,1.99,14.63,7.31,0,3.66-3.32,5.98-8.98,5.98-5.98,0-9.97-2.99-10.64-8.98h-17.62c.66,12.96,11.3,20.94,28.26,20.94Z"
          style="fill:#fff;"/>
    <polygon points="342.64 180.63 361.25 180.63 361.25 104.17 342.64 122.78 342.64 180.63" style="fill:#fff;"/>
    <polygon
            points="279.14 180.63 297.43 180.63 297.43 163.01 302.75 157.02 317.04 180.63 338.32 180.63 315.38 144.39 335.99 122.45 314.71 122.45 297.43 142.06 297.43 99.51 279.14 117.8 279.14 180.63"
            style="fill:#fff;"/>
    <path d="M230.94,145.39c1.33-6.98,4.99-11.3,11.97-11.3,5.98,0,10.31,4.32,10.97,11.3h-22.94ZM243.57,182.29c7.65,0,13.3-1.66,18.28-5.32,5.32-3.32,8.64-8.31,9.97-13.63h-18.28c-1.66,3.66-4.65,5.65-9.64,5.65-7.65,0-11.97-4.65-12.96-12.63h41.89c0-11.97-3.32-21.94-10.31-28.26-4.99-4.65-11.64-7.31-19.95-7.31-17.62,0-29.92,13.3-29.92,30.58s11.97,30.92,30.92,30.92Z"
          style="fill:#fff;"/>
    <path d="M179.08,167.99c-7.65,0-12.63-6.65-12.63-16.29s3.99-16.95,12.3-16.95c7.65,0,11.64,6.65,11.64,16.62s-3.99,16.62-11.3,16.62ZM184.07,182.62c15.29,0,24.93-11.64,24.93-30.92,0-17.62-9.64-30.92-24.93-30.92-7.98,0-12.96,3.32-16.62,8.31h-.33v-29.59h-18.62v81.11h17.95v-7.31c3.66,5.98,9.97,9.31,17.62,9.31Z"
          style="fill:#fff;"/>
    <path d="M88,180.63h52.19v-14.29h-21.28c-2.66,0-8.64.33-8.64.33v-.33s4.32-4.65,5.98-6.32l22.27-23.94v-13.63h-50.53v14.29h20.94c1.66,0,6.98-.33,6.98-.33v.33s-3.66,3.66-4.99,5.32l-22.94,24.93v13.63Z"
          style="fill:#fff;"/>
    <path d="M47.77,182.29c22.61,0,33.91-11.3,33.91-30.25v-52.52h-20.28v52.86c0,7.98-4.32,13.63-13.63,13.63-9.97,0-13.96-5.32-13.96-13.3v-53.19H13.53v52.52c0,18.95,11.3,30.25,34.24,30.25Z"
          style="fill:#fff;"/>
</svg>