<svg width="24" height="24" viewBox="0 0 24 24" fill="none" xmlns="http://www.w3.org/2000/svg">
<path d="M20.0496 10.6286L15.3796 8.61859L14.3396 8.17859C14.1796 8.09859 14.0396 7.88859 14.0396 7.70859V4.64859C14.0396 3.68859 13.3296 2.54859 12.4696 2.10859C12.1696 1.95859 11.8096 1.95859 11.5096 2.10859C10.6596 2.54859 9.94957 3.69859 9.94957 4.65859V7.71859C9.94957 7.89859 9.80957 8.10859 9.64957 8.18859L3.94957 10.6386C3.31957 10.8986 2.80957 11.6886 2.80957 12.3686V13.6886C2.80957 14.5386 3.44957 14.9586 4.23957 14.6186L9.24957 12.4586C9.63957 12.2886 9.95957 12.4986 9.95957 12.9286V14.0386V15.8386C9.95957 16.0686 9.82957 16.3986 9.66957 16.5586L7.34957 18.8886C7.10957 19.1286 6.99957 19.5986 7.10957 19.9386L7.55957 21.2986C7.73957 21.8886 8.40957 22.1686 8.95957 21.8886L11.3396 19.8886C11.6996 19.5786 12.2896 19.5786 12.6496 19.8886L15.0296 21.8886C15.5796 22.1586 16.2496 21.8886 16.4496 21.2986L16.8996 19.9386C17.0096 19.6086 16.8996 19.1286 16.6596 18.8886L14.3396 16.5586C14.1696 16.3986 14.0396 16.0686 14.0396 15.8386V12.9286C14.0396 12.4986 14.3496 12.2986 14.7496 12.4586L19.7596 14.6186C20.5496 14.9586 21.1896 14.5386 21.1896 13.6886V12.3686C21.1896 11.6886 20.6796 10.8986 20.0496 10.6286Z" fill="currentColor"/>
</svg>
