<svg width="24" height="24" viewBox="0 0 24 24" fill="none" xmlns="http://www.w3.org/2000/svg">
<path d="M18.7099 9.49049C18.6099 9.49049 18.5099 9.47049 18.4099 9.43049C18.0299 9.26049 17.8599 8.82049 18.0199 8.44049C18.2099 8.01049 18.0999 7.38049 17.7499 6.86049C17.3999 6.33049 16.8699 5.97049 16.3899 6.00049C15.9499 6.00049 15.6399 5.67049 15.6299 5.26049C15.6299 4.84049 15.9599 4.51049 16.3699 4.50049C17.3999 4.48049 18.3699 5.07049 18.9999 6.02049C19.6399 6.98049 19.7899 8.13049 19.3999 9.03049C19.2799 9.32049 18.9999 9.49049 18.7099 9.49049Z" fill="currentColor"/>
<path d="M21.8201 10.4794C21.7501 10.4794 21.6901 10.4694 21.6201 10.4494C21.2201 10.3394 20.9901 9.92937 21.1001 9.52937C21.4801 8.16937 21.1601 6.54937 20.2501 5.18937C19.3401 3.82937 17.9601 2.91937 16.5501 2.74937C16.1401 2.69937 15.8501 2.32937 15.9001 1.91937C15.9501 1.50937 16.3301 1.20937 16.7301 1.26937C18.5601 1.48937 20.3401 2.64937 21.4901 4.36937C22.6401 6.08937 23.0301 8.16937 22.5401 9.94937C22.4501 10.2594 22.1501 10.4794 21.8201 10.4794Z" fill="currentColor"/>
<path d="M17.1199 11.7809C17.1199 12.0809 16.8699 12.3309 16.5699 12.3309H3.42988C3.12988 12.3309 2.87988 12.0809 2.87988 11.7809C2.87988 11.4809 3.12988 11.2309 3.42988 11.2309H4.16988L4.44988 9.91094C4.70988 8.63094 5.25988 7.46094 7.43988 7.46094H12.5699C14.7499 7.46094 15.2899 8.64094 15.5599 9.91094L15.8399 11.2309H16.5799C16.8699 11.2309 17.1199 11.4809 17.1199 11.7809Z" fill="currentColor"/>
<path d="M17.4296 15.9119C17.3196 14.7119 16.9996 13.4219 14.6596 13.4219H5.33956C2.99956 13.4219 2.67956 14.7119 2.56956 15.9119L2.15956 20.3619C2.10956 20.9119 2.28956 21.4719 2.66956 21.8919C3.05956 22.3119 3.59956 22.5519 4.18956 22.5519H5.55956C6.73956 22.5519 6.96956 21.8719 7.11956 21.4319L7.26956 20.9919C7.43956 20.4919 7.47956 20.3619 8.13956 20.3619H11.8796C12.5396 20.3619 12.5596 20.4319 12.7496 20.9919L12.8996 21.4319C13.0496 21.8819 13.2696 22.5519 14.4596 22.5519H15.8296C16.4096 22.5519 16.9596 22.3119 17.3496 21.8919C17.7296 21.4719 17.9096 20.9219 17.8596 20.3619L17.4296 15.9119ZM7.80956 17.4319H5.61956C5.31956 17.4319 5.06956 17.1819 5.06956 16.8819C5.06956 16.5819 5.31956 16.3319 5.61956 16.3319H7.80956C8.10956 16.3319 8.35956 16.5819 8.35956 16.8819C8.35956 17.1819 8.10956 17.4319 7.80956 17.4319ZM14.3796 17.4319H12.1896C11.8896 17.4319 11.6396 17.1819 11.6396 16.8819C11.6396 16.5819 11.8896 16.3319 12.1896 16.3319H14.3796C14.6796 16.3319 14.9296 16.5819 14.9296 16.8819C14.9296 17.1819 14.6796 17.4319 14.3796 17.4319Z" fill="currentColor"/>
</svg>
