<svg width="24" height="24" viewBox="0 0 24 24" fill="none" xmlns="http://www.w3.org/2000/svg">
<path d="M20.4801 15.217C20.4205 15.3583 20.346 15.4839 20.2418 15.5938L15.8486 20.226C15.6252 20.4615 15.3423 20.5714 15.0593 20.5714C14.7764 20.5714 14.4934 20.4615 14.27 20.226C13.8382 19.7706 13.8382 19.0169 14.27 18.5616L16.757 15.9393H4.56037C3.94979 15.9393 3.44346 15.4054 3.44346 14.7616C3.44346 14.1178 3.94979 13.584 4.56037 13.584H19.4525C19.6014 13.584 19.7354 13.6154 19.8844 13.6782C20.1524 13.8038 20.3758 14.0236 20.4949 14.322C20.5992 14.6046 20.5992 14.9186 20.4801 15.217ZM19.4525 10.4121H4.56037C4.41145 10.4121 4.27742 10.3807 4.1285 10.3179C3.86044 10.1923 3.63706 9.97246 3.51792 9.67412C3.39879 9.39148 3.39879 9.06173 3.51792 8.77909C3.59238 8.63777 3.66684 8.51215 3.77109 8.40224L8.16426 3.77009C8.59614 3.31473 9.31096 3.31473 9.74283 3.77009C10.1747 4.22546 10.1747 4.97916 9.74283 5.43453L7.25585 8.05679H19.4525C20.0631 8.05679 20.5694 8.59066 20.5694 9.23445C20.5694 9.87824 20.0631 10.4121 19.4525 10.4121Z" fill="#C4C4C4"/>
<path fill-rule="evenodd" clip-rule="evenodd" d="M20.875 15.3835C20.8007 15.5597 20.7008 15.7326 20.5527 15.8888L16.1596 20.5209C15.8534 20.8437 15.4572 21 15.0593 21C14.6615 21 14.2652 20.8437 13.9591 20.5209C13.3704 19.9002 13.3704 18.8873 13.9591 18.2666L15.7599 16.3679H4.56037C3.692 16.3679 3.01489 15.6204 3.01489 14.7616C3.01489 13.9028 3.692 13.1554 4.56037 13.1554H19.4525C19.6691 13.1554 19.8599 13.2027 20.0509 13.2833L20.0586 13.2865L20.0662 13.2901C20.4262 13.4588 20.7308 13.7571 20.893 14.163L20.8972 14.1736C21.0379 14.5551 21.0367 14.9786 20.8781 15.3759L20.875 15.3835ZM16.757 15.9393L14.27 18.5616C13.8382 19.0169 13.8382 19.7706 14.27 20.226C14.4934 20.4615 14.7764 20.5714 15.0593 20.5714C15.3423 20.5714 15.6252 20.4615 15.8486 20.226L20.2418 15.5938C20.346 15.4839 20.4205 15.3583 20.4801 15.217C20.5992 14.9186 20.5992 14.6046 20.4949 14.322C20.3758 14.0236 20.1524 13.8038 19.8844 13.6782C19.7354 13.6154 19.6014 13.584 19.4525 13.584H4.56037C3.94979 13.584 3.44346 14.1178 3.44346 14.7616C3.44346 15.4054 3.94979 15.9393 4.56037 15.9393H16.757ZM3.95423 10.7095L3.94664 10.706C3.58776 10.5378 3.2839 10.2408 3.12141 9.8368C2.959 9.44859 2.95953 9.00045 3.123 8.61262L3.13017 8.59563L3.13876 8.57931C3.21774 8.42942 3.3142 8.26119 3.46013 8.10732L7.85331 3.47517C8.45419 2.84161 9.45291 2.84161 10.0538 3.47517C10.6425 4.09588 10.6425 5.10874 10.0538 5.72944L8.25297 7.62822H19.4525C20.3209 7.62822 20.998 8.37564 20.998 9.23445C20.998 10.0933 20.3209 10.8407 19.4525 10.8407H4.56037C4.34375 10.8407 4.15298 10.7934 3.96195 10.7128L3.95423 10.7095ZM7.25585 8.05679L9.74283 5.43453C10.1747 4.97916 10.1747 4.22546 9.74283 3.77009C9.31096 3.31473 8.59614 3.31473 8.16426 3.77009L3.77109 8.40224C3.66684 8.51215 3.59238 8.63777 3.51792 8.77909C3.39879 9.06173 3.39879 9.39148 3.51792 9.67412C3.63706 9.97246 3.86044 10.1923 4.1285 10.3179C4.27742 10.3807 4.41145 10.4121 4.56037 10.4121H19.4525C20.0631 10.4121 20.5694 9.87824 20.5694 9.23445C20.5694 8.59066 20.0631 8.05679 19.4525 8.05679H7.25585Z" fill="#C4C4C4"/>
</svg>
