<svg width="24" height="24" viewBox="0 0 24 24" fill="none" xmlns="http://www.w3.org/2000/svg">
<path d="M12.0293 2.03125C10.0793 2.03125 8.2593 2.59125 6.7293 3.55125L13.5893 10.4213L13.5993 7.68125C13.5993 7.27125 13.9393 6.93125 14.3493 6.93125C14.7693 6.93125 15.0993 7.27125 15.0993 7.68125L15.0893 12.2312C15.0893 12.5413 14.8993 12.8113 14.6193 12.9213C14.5293 12.9613 14.4293 12.9812 14.3393 12.9812C14.1393 12.9812 13.9493 12.9013 13.8093 12.7613L5.6193 4.56125C5.5793 4.52125 5.5493 4.48125 5.5193 4.44125C3.3793 6.28125 2.0293 9.00125 2.0293 12.0312C2.0293 17.5513 6.5093 22.0312 12.0293 22.0312C13.9793 22.0312 15.7993 21.4712 17.3293 20.5112L10.4693 13.6413L10.4593 16.3812C10.4593 16.7912 10.1193 17.1312 9.7093 17.1312C9.2893 17.1312 8.9593 16.7912 8.9593 16.3812L8.9693 11.8313C8.9693 11.5212 9.1593 11.2513 9.4393 11.1413C9.7093 11.0213 10.0393 11.0813 10.2493 11.3013L18.4393 19.5012C18.4793 19.5413 18.5093 19.5812 18.5393 19.6213C20.6793 17.7812 22.0293 15.0612 22.0293 12.0312C22.0293 6.51125 17.5493 2.03125 12.0293 2.03125Z" fill="currentColor"/>
</svg>
