<svg width="24" height="24" viewBox="0 0 24 24" fill="none" xmlns="http://www.w3.org/2000/svg">
<path d="M21 22.75H3C2.59 22.75 2.25 22.41 2.25 22C2.25 21.59 2.59 21.25 3 21.25H21C21.41 21.25 21.75 21.59 21.75 22C21.75 22.41 21.41 22.75 21 22.75Z" fill="currentColor"/>
<path d="M21 2.75H3C2.59 2.75 2.25 2.41 2.25 2C2.25 1.59 2.59 1.25 3 1.25H21C21.41 1.25 21.75 1.59 21.75 2C21.75 2.41 21.41 2.75 21 2.75Z" fill="currentColor"/>
<path d="M14.3004 15.3584L12.7504 16.9084V6.69844L14.3004 8.24844C14.4504 8.39844 14.6404 8.46844 14.8304 8.46844C15.0204 8.46844 15.2104 8.39844 15.3604 8.24844C15.6504 7.95844 15.6504 7.47844 15.3604 7.18844L12.5304 4.35844C12.2504 4.07844 11.7504 4.07844 11.4704 4.35844L8.64035 7.18844C8.35035 7.47844 8.35035 7.95844 8.64035 8.24844C8.93035 8.53844 9.41035 8.53844 9.70035 8.24844L11.2504 6.69844V16.9084L9.70035 15.3584C9.41035 15.0684 8.93035 15.0684 8.64035 15.3584C8.35035 15.6484 8.35035 16.1284 8.64035 16.4184L11.4704 19.2484C11.6104 19.3884 11.8004 19.4684 12.0004 19.4684C12.2004 19.4684 12.3904 19.3884 12.5304 19.2484L15.3604 16.4184C15.6504 16.1284 15.6504 15.6484 15.3604 15.3584C15.0704 15.0684 14.5904 15.0684 14.3004 15.3584Z" fill="currentColor"/>
</svg>
