<svg width="24" height="24" viewBox="0 0 24 24" fill="none" xmlns="http://www.w3.org/2000/svg">
<path d="M22 5.15V8.85C22 11.1 21.1 12 18.85 12H16.15C13.9 12 13 11.1 13 8.85V5.15C13 2.9 13.9 2 16.15 2H18.85C21.1 2 22 2.9 22 5.15Z" fill="currentColor"/>
<path d="M11 15.15V18.85C11 21.1 10.1 22 7.85 22H5.15C2.9 22 2 21.1 2 18.85V15.15C2 12.9 2.9 12 5.15 12H7.85C10.1 12 11 12.9 11 15.15Z" fill="currentColor"/>
<path d="M14.7805 21.9995C14.5105 21.9995 14.2605 21.8495 14.1305 21.6195C14.0005 21.3795 14.0005 21.0995 14.1405 20.8595L15.1105 19.2395C15.3205 18.8795 15.7805 18.7695 16.1405 18.9795C16.5005 19.1895 16.6105 19.6495 16.4005 20.0095L16.2205 20.3095C18.6905 19.6695 20.5105 17.4295 20.5105 14.7695C20.5105 14.3595 20.8505 14.0195 21.2605 14.0195C21.6705 14.0195 22.0005 14.3595 22.0005 14.7795C22.0005 18.7595 18.7605 21.9995 14.7805 21.9995Z" fill="currentColor"/>
<path d="M2.75 9.97C2.34 9.97 2 9.64 2 9.22C2 5.24 5.24 2 9.22 2C9.5 2 9.74 2.15 9.88 2.38C10.01 2.62 10.01 2.9 9.87 3.14L8.9 4.75C8.68 5.11 8.22 5.23 7.87 5.01C7.51 4.8 7.4 4.34 7.61 3.98L7.79 3.68C5.33 4.32 3.5 6.56 3.5 9.22C3.5 9.64 3.16 9.97 2.75 9.97Z" fill="currentColor"/>
</svg>
