<svg width="24" height="24" viewBox="0 0 24 24" fill="none" xmlns="http://www.w3.org/2000/svg">
<path d="M18.9396 3.5H5.05957C4.64957 3.5 4.30957 3.16 4.30957 2.75C4.30957 2.34 4.64957 2 5.05957 2H18.9396C19.3496 2 19.6896 2.34 19.6896 2.75C19.6896 3.16 19.3496 3.5 18.9396 3.5Z" fill="currentColor"/>
<path d="M18.9396 22H5.05957C4.64957 22 4.30957 21.66 4.30957 21.25C4.30957 20.84 4.64957 20.5 5.05957 20.5H18.9396C19.3496 20.5 19.6896 20.84 19.6896 21.25C19.6896 21.66 19.3496 22 18.9396 22Z" fill="currentColor"/>
<path d="M2.75 8V16C2.75 17.66 4.09 19 5.75 19H18.25C19.91 19 21.25 17.66 21.25 16V8C21.25 6.34 19.91 5 18.25 5H5.75C4.09 5 2.75 6.34 2.75 8Z" fill="currentColor"/>
</svg>
