<svg viewBox="0 0 2961 496" fill="none" xmlns="http://www.w3.org/2000/svg">
    <path d="M222.333 1.46664C199 4.26663 176.333 9.59998 155.533 17.3333C139.933 23.2 121 32.5333 116.333 36.6667L113 39.6L116.333 38.6667C118.2 38.2666 124.067 36.8 129.267 35.3333C151.933 29.3333 187.667 29.3333 205.133 35.3333C218.2 39.8666 218.333 39.0667 199.933 57.8666C190.867 67.0667 180.867 78.6667 177.8 83.4666L171.933 92.2666L162.2 87.8666C147.667 81.0667 136.733 78.9333 121 79.7333C104.2 80.5333 89.8 85.4666 72.8667 96.5333C36.2 120.133 13.9333 155.067 4.06666 203.6C-0.066673 223.867 -0.33334 268.267 3.39999 286C15.2667 341.333 48.7333 388.4 90.3333 408.133C105.667 415.333 115.267 417.867 131.133 418.933C164.333 420.933 190.467 407.067 216.333 373.867C242.467 340 256.333 299.6 256.333 256.533C256.333 219.867 265.8 179.733 281.667 148.8C288.333 135.733 297.8 124.667 302.2 124.667C305.4 124.667 312.6 134.133 317.667 145.333C332.6 177.733 342.867 227.867 341 259.333C337.933 313.2 324.467 357.6 300.2 394.133C289.4 410.133 265 434.667 249.667 444.8C226.867 459.867 204.867 466.4 178.333 466.4C160.733 466.267 135.933 462.4 121.8 457.333C112.6 454.133 112.333 454.933 121 460.267C165.667 487.467 226.067 500.533 274.067 493.333C316.067 486.933 357.933 473.333 375.667 460C379.4 457.333 381.133 455.467 379.667 456C378.2 456.4 370.733 458.4 363 460.4C350.333 463.6 346.733 464 325.667 464C303.933 463.867 301.667 463.6 291.667 460.267C275.4 454.8 275.533 455.867 288.467 442.4C294.6 436 303.8 425.2 308.867 418.667C313.933 412 318.867 405.867 319.667 404.933C320.867 403.6 324.067 404.267 335.8 408.133C355.267 414.667 373.933 415.867 391 411.467C439 399.333 476.6 354.933 489.4 295.2C499.667 247.6 494.867 205.867 474.467 162.667C465.933 144.933 448.333 118.267 439.267 109.467C408.067 79.2 365.133 68.4 328.067 81.2C292.6 93.6 260.867 130.933 245.933 178C238.867 200.267 236.2 217.333 235 249.333C233.4 291.067 229.133 308.8 213 341.6C202.6 362.533 193.267 374 188.467 371.333C181.933 367.867 172.067 348.133 164.867 324.133C137.8 234.267 157 133.067 212.067 75.0667C226.333 60 241 48.9333 256.867 41.3333C290.067 25.3333 312.067 23.8666 357.933 34.6667C368.467 37.0667 377.267 38.9333 377.4 38.6667C378.2 38 352.867 23.4666 343.933 19.3333C322.333 9.59998 296.467 4.26663 260.733 1.99997C238.733 0.666626 230.333 0.666626 222.333 1.46664Z" fill="white"/>
    <path d="M610.333 44.5334C610.333 46.5334 611.8 47.0667 619.133 47.7334C628.733 48.6667 633 50.6667 636.6 56.2667C638.867 59.6 639 66 639 146C639 226 638.867 232.4 636.6 235.733C633 241.333 628.333 243.6 619 244.4C611 244.933 610.333 245.2 610.333 248.133V251.333H700.333H790.333L791 248.267C791.667 245.333 799.667 186.133 799.667 184.267C799.667 183.733 798.467 183.333 797.133 183.333C795.267 183.333 794.067 184.8 792.867 188.267C789.533 198.8 781.8 212.133 774.867 219.333C762.733 232 749 237.467 724.867 238.8C706.333 240 699 238.8 694.067 234L690.333 230.267V189.867V149.6L697.4 150.533C701.133 151.067 706.467 152.133 709 152.933C719.533 156.133 728.467 169.733 732.6 188.933C734.333 197.333 735.267 199.333 737.267 199.333C739.533 199.333 739.667 196.8 739.667 144.667C739.667 92.5334 739.533 90 737.267 90C735.267 90 734.333 92 732.6 100.267C729.933 112.667 724.067 125.333 718.867 130.267C713.933 134.933 705.133 138 696.867 138H690.333V96V54H708.733C738.6 54 752.467 57.6 762.867 68C768.733 73.8667 774.867 86 777.133 96.2667C778.6 102.4 779.133 103.333 781.933 103.333H785V72.6667V42H697.667C613.533 42 610.333 42.1334 610.333 44.5334Z" fill="white"/>
    <path d="M2015.67 44.4C2015.67 46.6667 2016.87 47.2 2023.53 48C2032.87 49.0667 2039.67 52.4 2041.93 56.8C2044.07 60.8 2044.47 229.2 2042.33 234.533C2040.47 239.6 2033.8 243.067 2024.07 244.133C2016.2 244.933 2015.67 245.2 2015.67 248.267V251.6L2079.4 250.933C2147.8 250.267 2153 249.867 2170.6 242.667C2180.07 238.8 2193.13 229.733 2197.4 224.133C2204.73 214.533 2206.87 208.533 2207.4 195.333C2207.8 184.667 2207.4 181.467 2205 174.933C2199.8 160.933 2187.27 151.333 2165.67 144.667C2149.93 139.867 2150.2 140 2158.33 137.333C2170.33 133.467 2183.53 126 2188.33 120.267C2197.93 109.067 2200.6 94.5333 2195.67 79.2C2192.07 68 2185.4 59.0667 2175.53 52.6667C2160.87 43.2 2158.2 42.9333 2082.73 42.4C2016.87 41.8667 2015.67 41.8667 2015.67 44.4ZM2117.53 55.4667C2129.8 57.8667 2140.33 67.2 2144.33 79.3333C2147.93 90 2146.73 105.867 2141.67 115.067C2134.6 128.133 2124.33 133.6 2104.73 134.933L2093 135.733V95.0667C2093 72.6667 2093.4 54 2093.8 53.6C2094.87 52.5333 2108.2 53.6 2117.53 55.4667ZM2112.6 148.8C2139.67 152.4 2153.27 167.6 2153.4 194C2153.4 217.867 2140.87 233.6 2118.07 238.133C2107.67 240.267 2102.07 238.933 2097.13 233.2L2093 228.533V188V147.333H2097.53C2100.07 147.333 2106.87 148 2112.6 148.8Z" fill="white"/>
    <path d="M2562.6 44.9334C2562.87 47.0667 2564.33 48.2667 2567.93 49.0667C2570.6 49.7334 2573.93 51.4667 2575.27 52.9334C2577.53 55.4667 2577.67 60.2667 2577.67 146V236.4L2574.47 239.867C2572.6 241.867 2569.27 243.867 2567.13 244.4C2564.33 245.2 2563 246.267 2563 248.133C2563 250.533 2564.47 250.667 2600.07 251.067L2637 251.333V248.133C2637 245.6 2636.07 244.8 2632.47 244.133C2623.8 242.533 2623 240.4 2622.6 215.733L2622.2 193.6L2626.47 189.2L2630.73 184.8L2647.27 209.067C2656.33 222.4 2664.2 234.8 2664.6 236.533C2665.67 240.533 2663.67 243.733 2659.53 244.667C2657.53 245.2 2656.33 246.4 2656.33 248C2656.33 250.533 2657.67 250.667 2693.4 251.067L2730.33 251.333V248.133C2730.33 245.733 2729.4 244.8 2726.2 244.133C2723.8 243.733 2720.07 241.333 2717.8 238.933C2715.53 236.4 2701.4 216.8 2686.47 195.2L2659.4 156L2678.47 137.6C2698.2 118.533 2701.67 115.867 2711.67 113.333C2715.4 112.4 2717.8 110.933 2718.07 109.6C2718.47 107.467 2715.8 107.333 2685.67 107.333C2655.93 107.333 2652.87 107.6 2653.27 109.467C2653.53 110.8 2656.2 112.4 2659.93 113.6C2668.07 115.867 2671 120 2669.67 126.933C2668.87 131.067 2665 135.733 2645.53 155.333L2622.33 178.667V110.267V42H2592.2H2562.2L2562.6 44.9334Z" fill="white"/>
    <path d="M1099 103.2C1087.8 106.267 1076.47 115.6 1066.87 129.467C1064.07 133.467 1061.4 136.667 1060.73 136.667C1060.2 136.667 1059.67 130 1059.67 122V107.333H1030.2C1003.53 107.333 1000.87 107.6 1001.27 109.6C1001.53 110.8 1003.93 112.4 1007 113.2C1011.27 114.4 1012.87 115.733 1015 120C1017.53 125.067 1017.67 128 1017.67 177.333C1017.67 241.733 1017.93 240.667 1003.4 245.2C1002.07 245.6 1001 246.8 1001 248C1001 249.733 1005.8 250 1039.67 250C1073.53 250 1078.33 249.733 1078.33 248C1078.33 246.8 1077.53 245.733 1076.73 245.467C1075.8 245.2 1072.6 244.267 1069.53 243.467C1065.53 242.4 1063.53 240.933 1061.8 237.6C1059.53 233.6 1059.4 230 1060.07 198.667C1060.87 155.2 1062.6 147.333 1073.53 136.8C1079.93 130.667 1084.47 130.667 1091.67 137.2C1100.73 145.333 1107.4 146.667 1115.27 141.733C1117.93 140.267 1120.87 136.933 1121.8 134.533C1124.07 129.067 1124.2 115.733 1121.93 111.467C1118.33 104.533 1108.07 100.8 1099 103.2Z" fill="white"/>
    <path d="M1190.33 103.467C1167.93 107.2 1147.13 126.933 1139.27 152C1135 165.733 1135 192 1139.4 206C1143.53 218.8 1149.67 229.067 1158.73 237.6C1170.73 248.933 1184.07 254 1202.33 254C1223.13 254 1237.53 248.133 1250.33 234.533C1264.07 219.733 1269.53 203.867 1269.53 178.667C1269.53 160.667 1267.8 152.8 1260.07 137.467C1251.27 120 1232.6 106.4 1213 103.333C1203.13 101.867 1200.47 101.867 1190.33 103.467ZM1213.93 116.8C1215.8 118.533 1218.87 122.933 1220.73 126.667L1224.33 133.333V173.333C1224.33 225.2 1222.47 235.067 1211.4 242.133C1201.93 248 1190.6 242.933 1184.47 230C1181.93 224.4 1181.67 221.333 1181.27 188.933C1180.6 138 1183.27 122.933 1194.33 115.6C1200.33 111.6 1208.87 112.133 1213.93 116.8Z" fill="white"/>
    <path d="M1378.73 103.333C1369.8 105.2 1362.2 109.733 1354.73 117.733L1347.67 125.2V116.267V107.333H1317.53C1289.67 107.333 1287.53 107.467 1287.93 109.6C1288.2 110.933 1289.53 112.133 1291 112.4C1297.4 113.467 1301.4 116 1303.13 120.133C1305.93 126.8 1305.93 297.333 1303.13 304C1301.13 308.667 1295.27 312.667 1290.33 312.667C1288.6 312.667 1287.67 313.6 1287.67 315.333C1287.67 318 1288.6 318 1328.33 318C1367.13 318 1369 317.867 1369 315.467C1369 313.467 1367.67 312.933 1362.2 312.267C1348.6 310.667 1347.67 308 1347.67 267.867V236.4L1354.07 242C1361.67 248.8 1364.87 250.533 1374.2 252.667C1385 255.2 1399.27 253.867 1408.33 249.333C1417.8 244.8 1428.6 233.867 1433.27 224.533C1440.07 210.533 1441.67 202 1441.53 178C1441.53 157.733 1441.27 155.2 1437.93 145.067C1431.53 125.867 1418.47 110.533 1404.07 105.467C1396.73 102.933 1385.53 102 1378.73 103.333ZM1382.33 123.333C1392.73 128.667 1398.33 149.467 1398.33 182.533C1398.2 204.8 1395.93 219.333 1391 228.4C1383 243.067 1370.33 243.067 1355 228.533L1347.67 221.6V182.133V142.533L1351.53 136.4C1360.73 121.867 1371 117.467 1382.33 123.333Z" fill="white"/>
    <path d="M1522.33 103.733C1512.73 105.867 1504.47 110 1496.6 116.533C1477.27 132.533 1469.8 150.4 1469.93 180.667C1469.93 207.333 1475.93 223.733 1490.87 238.8C1501.27 249.067 1509.93 252.667 1527.13 253.6C1548.47 254.8 1563.4 248.133 1577 231.067C1580.33 226.933 1584.47 220.667 1586.33 217.333C1589.4 211.333 1589.4 210.933 1587.13 209.2C1584.87 207.6 1584.07 208.267 1578.87 215.333C1569.13 228.667 1557.67 233.867 1544.73 231.2C1528.07 227.6 1514.2 207.2 1511.13 181.6L1510.2 174H1549.8H1589.4L1588.47 163.067C1587.53 151.067 1582.73 135.467 1577.8 127.6C1572.73 119.467 1560.47 109.2 1552.2 106C1542.6 102.533 1531.67 101.6 1522.33 103.733ZM1540.47 114.667C1547.13 118.933 1551.67 134.533 1551.67 152.8V163.333H1531C1514.2 163.333 1510.07 162.933 1509.53 161.467C1509.13 160.4 1509.4 153.867 1510.2 147.067C1511.4 137.867 1512.87 132.533 1516.07 126C1522.73 112.4 1531.13 108.533 1540.47 114.667Z" fill="white"/>
    <path d="M1665.67 103.467C1635.8 108.133 1617 122.267 1614.87 141.733C1613.4 154.8 1623.8 164 1638.73 163.067C1645.27 162.533 1647 161.867 1650.87 158.133C1658.73 150.533 1658.2 143.6 1648.87 129.067C1646.73 125.6 1646.47 124.267 1647.67 122C1651.53 114.8 1669.67 111.6 1677.93 116.667C1684.87 120.8 1686.6 126 1687.4 143.333L1687.93 158.667L1669.53 167.733C1644.6 180 1626.6 192.133 1620.33 200.667C1609 216.133 1608.87 232.933 1620.2 244.133C1633.13 257.2 1653.67 254.533 1677.13 236.667C1681.8 233.067 1686.07 230.133 1686.47 230C1687 230 1687.67 231.733 1688.07 234C1688.6 236.133 1691.4 240.667 1694.33 243.867C1698.47 248.4 1701.4 250.133 1706.47 251.333C1719.8 254.533 1731.27 250.4 1742.87 238C1747.67 232.933 1748.87 230.667 1747.8 229.6C1746.73 228.533 1745.27 228.667 1742.47 230.4C1737.53 233.333 1733.4 233.333 1731.8 230.267C1731.13 229.067 1730.33 206.933 1730.07 181.333L1729.67 134.667L1726.07 127.067C1721.93 118 1710.47 108.267 1700.47 105.333C1691.93 102.8 1675.67 101.867 1665.67 103.467ZM1687.67 194.8V218L1681.4 222C1667.53 230.8 1653 224.533 1653 209.733C1653 203.067 1658.6 192.533 1665.8 185.6C1673.27 178.4 1685.13 170 1686.73 170.933C1687.27 171.2 1687.67 182 1687.67 194.8Z" fill="white"/>
    <path d="M1857.4 103.333C1849.67 104.933 1842.73 108.667 1833.4 116.533C1828.87 120.267 1824.87 123.333 1824.47 123.333C1824.07 123.333 1823.67 119.733 1823.67 115.333V107.333H1795C1767.8 107.333 1766.33 107.467 1766.33 109.867C1766.33 111.467 1767.53 112.533 1770.07 113.067C1772.2 113.467 1775.27 115.067 1777.13 116.4L1780.33 119.067L1780.73 174.933C1781 213.333 1780.73 232.267 1779.67 235.733C1778.47 240 1777.13 241.333 1772.2 243.467C1769 244.933 1766.33 246.933 1766.33 248C1766.33 249.733 1771.8 250 1802.33 250C1833.53 250 1838.33 249.733 1838.33 248C1838.33 246.933 1835.93 245.067 1833.13 243.867C1824.07 240.267 1823.67 238.133 1823.67 186.133V140.933L1829.8 134.133C1837.27 125.867 1841.67 123.333 1848.87 123.333C1853 123.333 1854.73 124.133 1857.53 127.333C1859.4 129.6 1861.27 133.333 1861.67 135.733C1862.2 138.133 1862.33 161.867 1862.07 188.533L1861.67 236.933L1857.27 240.8C1854.87 242.933 1852.07 244.667 1851 244.667C1849.93 244.667 1849 245.733 1849 247.067C1849 249.333 1851 249.6 1875.27 250.4C1889.67 250.933 1905.8 251.333 1911.27 251.333C1920.73 251.333 1921 251.2 1921 248C1921 245.467 1920.33 244.667 1918.33 244.667C1913.93 244.667 1908.07 241.067 1907 237.733C1906.47 236 1905.53 211.6 1905 183.333C1904.07 129.333 1903.93 128.133 1897.53 117.733C1893.13 110.8 1886.73 106.4 1877.67 104C1869.13 101.867 1865.93 101.733 1857.4 103.333Z" fill="white"/>
    <path d="M2289.67 102.8C2288.2 103.067 2283.67 104 2279.67 104.8C2268.87 106.933 2254.07 114.267 2247.93 120.4C2240.33 128 2237 135.067 2237 143.467C2237 157.067 2245.67 164.133 2261.13 163.067C2268.73 162.533 2269.8 162 2274.47 156.933C2281.67 149.333 2281.67 143.867 2274.33 133.6C2271.4 129.6 2269 125.333 2269 124.133C2269 121.333 2275.13 116.933 2281.53 115.2C2289.27 113.067 2297.8 114.4 2301.93 118.133C2307.53 123.333 2309 128.667 2309 144.267V158.667L2292.33 167.067C2247.67 189.2 2234.33 202.267 2234.33 223.6C2234.33 234.933 2237.53 241.733 2245.13 247.333C2258.47 256.933 2278.2 253.067 2299.67 236.8L2308.33 230.267L2311.13 236.4C2316.07 247.2 2324.73 252.667 2336.73 252.667C2349 252.667 2360.33 246.667 2367.93 236C2371.53 231.2 2371.67 230.667 2369.53 229.067C2367.67 227.733 2366.73 227.867 2363.93 230C2359.8 233.333 2356.2 233.333 2354.33 230.133C2353.53 228.533 2353 213.067 2352.87 189.733C2352.87 144.933 2351.93 133.6 2347.4 124.933C2343.8 117.733 2330.73 107.067 2322.73 104.667C2317.4 103.067 2294.2 101.733 2289.67 102.8ZM2309 194.4C2309 214.8 2308.73 217.867 2306.73 219.6C2299.53 225.867 2288.33 227.867 2282.6 223.867C2271.67 216.267 2274.2 199.6 2288.6 185.867C2295.4 179.333 2305.93 171.333 2307.93 171.333C2308.47 171.333 2309 181.733 2309 194.4Z" fill="white"/>
    <path d="M2475.4 104.533C2467.67 107.067 2457.67 113.6 2451.8 119.867C2449.93 121.733 2448.07 123.333 2447.4 123.333C2446.87 123.333 2446.33 119.733 2446.33 115.333V107.333H2417C2389.53 107.333 2387.67 107.467 2387.67 109.733C2387.67 111.467 2389.13 112.533 2392.6 113.467C2395.4 114.133 2398.6 116.267 2400.2 118.4C2402.87 122 2403 123.867 2403.4 171.067C2403.67 198 2403.53 223.867 2403 228.533C2401.93 238.133 2398.6 242.8 2391.67 244.133C2388.6 244.8 2387.67 245.733 2387.67 248.133V251.333L2423.93 251.067C2457 250.667 2460.33 250.4 2460.73 248.4C2461 246.8 2459.67 245.467 2456.47 244.133C2447.13 240.267 2447 240 2446.6 190.267C2446.33 165.867 2446.47 144.4 2446.87 142.8C2447.8 138.8 2457.67 127.733 2462.47 125.333C2466.87 123.067 2473.4 122.8 2477.13 124.667C2478.47 125.467 2480.73 128 2481.93 130.4C2484.07 134.267 2484.33 139.467 2484.33 184.933V235.2L2480.33 239.333C2478.2 241.6 2475 243.733 2473.4 244.133C2471.27 244.667 2470.33 246 2470.33 248.133V251.333H2506.33H2542.33V248C2542.33 245.867 2541.53 244.667 2540.33 244.667C2537 244.667 2530.73 241.067 2529.53 238.4C2529 237.067 2528.07 213.2 2527.53 185.333C2526.73 130.133 2526.2 126.4 2518.6 115.867C2510.07 104.133 2491.53 99.2 2475.4 104.533Z" fill="white"/>
    <path d="M825 110C825 111.467 825.933 112.667 827 112.667C831 112.667 835.667 115.867 837.533 119.867C839 123.2 839.533 134 840.067 174C840.467 206.667 841.267 225.733 842.2 228.933C844.467 236.133 851.4 244.667 858.867 249.333C867.667 254.667 879.667 255.467 892.733 251.467C900.2 249.2 903.533 247.2 910.6 240.667C915.4 236.267 919.8 232.667 920.2 232.667C920.6 232.667 921 236.533 921 241.333V250H950.333C975.133 250 979.667 249.733 979.667 248C979.667 246.933 977.4 245.467 974.2 244.533C964.067 241.467 964.333 244.133 963.933 171.733L963.533 107.333H934.2C907.933 107.333 904.867 107.6 905.267 109.467C905.533 110.667 907.933 112.4 910.867 113.333C913.667 114.4 916.6 115.733 917.267 116.4C920.2 119.333 920.867 130.8 921 172.267V215.067L914.2 222.667C910.333 226.8 905.533 231.067 903.533 232C895 236.4 886.2 232.667 883.667 223.6C882.867 220.533 882.333 197.067 882.333 162.933V107.333H853.667C825.933 107.333 825 107.467 825 110Z" fill="white"/>
    <path d="M2036.6 352.267C2025.27 357.2 2024.33 358.8 2032.33 359.6L2037 360L2037.4 374.933L2037.8 389.867L2031.53 387.067C2026.73 385.067 2023.8 384.533 2019.27 385.2C2001.67 387.6 1989.4 404 1989.13 425.333C1988.87 446.8 2000.33 460.667 2018.2 460.667C2024.47 460.667 2026.33 460 2031.53 456L2037.67 451.333V456C2037.67 459.867 2038.2 460.667 2040.47 460.667C2044.07 460.667 2063 452.8 2063 451.2C2063 450.533 2060.87 450 2058.33 450C2055.13 450 2053.4 449.2 2052.33 447.467C2051.53 445.733 2051 427.2 2051 396.133C2051 357.867 2050.6 347.333 2049.4 347.467C2048.47 347.467 2042.73 349.733 2036.6 352.267ZM2031.4 393.6C2036.6 398.267 2037.67 403.6 2037.67 425.067C2037.67 443.333 2037.4 445.867 2035.13 447.867C2024.87 457.2 2009.8 449.467 2004.33 432.133C2001.8 424 2003.13 407.733 2007.13 400.667C2012.73 390.667 2024.2 387.333 2031.4 393.6Z" fill="white"/>
    <path d="M2453.27 352.4C2442.87 357.333 2441.4 359.333 2448.47 359.333C2450.87 359.333 2452.73 360.267 2453.67 361.867C2454.47 363.6 2455 380.533 2455 407.733C2455 447.867 2454.87 451.067 2452.6 453.067C2451.27 454.4 2448.87 455.333 2447.27 455.333C2445.67 455.333 2444.33 455.867 2444.33 456.667C2444.33 457.467 2451.27 458 2462.47 458C2474.07 458 2480.2 457.467 2479.67 456.667C2479.27 455.867 2477.53 455.333 2475.8 455.333C2474.07 455.333 2471.8 454.267 2470.6 452.933C2468.6 450.8 2468.33 444.533 2468.07 399.2C2467.67 354.933 2467.4 348 2465.67 347.733C2464.6 347.6 2459 349.733 2453.27 352.4Z" fill="white"/>
    <path d="M640.733 351.333C629.533 357.067 624.333 366.133 624.333 380.267V387.333H617C610.6 387.333 609.667 387.733 609.667 389.867C609.667 392.133 610.733 392.533 616.733 392.933L623.667 393.333V421.467C623.667 447.333 623.4 450 621.133 452.533C619.667 454.133 617 455.333 614.733 455.333C612.733 455.333 611 455.867 611 456.667C611 457.467 619 458 632.467 458C646.333 458 653.533 457.6 653 456.667C652.6 455.867 649.933 455.333 647.133 455.333C643.667 455.333 641.267 454.4 639.533 452.533C637.267 450 637 447.333 637 421.467V393.333L646.067 392.933C653.933 392.533 655 392.267 655 390C655 387.6 654.067 387.333 645.533 387.333H635.933L636.6 374C637.133 362.267 637.667 360.133 640.333 357.333C642.467 355.067 644.867 354 647.933 354C651.667 354 653 354.933 656.6 360C661.133 366.4 664.067 368 669 366.8C675 365.333 673.8 357.467 666.6 352.133C661.133 348 648.067 347.6 640.733 351.333Z" fill="white"/>
    <path d="M1606.07 352.133C1604.07 355.333 1604.07 356 1605.8 359.2C1609.53 365.733 1620.33 363.467 1620.33 356C1620.33 348.8 1610.07 346 1606.07 352.133Z" fill="white"/>
    <path d="M832.333 353.6C832.333 354.4 835 355.733 838.333 356.533C842.867 357.733 844.733 358.933 845.667 361.467C846.467 363.333 847 382.933 847 406.533C847 446.8 846.867 448.4 844.2 451.867C842.2 454.4 840.2 455.333 836.867 455.333C834.333 455.333 832.333 455.867 832.333 456.667C832.333 457.467 840.867 458 855.133 458C869.933 458 877.533 457.6 877 456.667C876.6 455.867 874.2 455.333 871.8 455.333C863.533 455.333 862.333 452.4 861.933 429.867L861.533 410H867.267L873 410.133L890.733 434L908.467 458H922.333C936.467 458 940.867 456.4 931 454.8C923.533 453.6 917.267 447.467 901.667 426.133C889 408.8 888.6 408 891.4 406.8C908.867 399.733 912.733 395.2 913.4 381.467C913.667 373.867 913.267 371.2 911.133 367.867C907.667 362.267 900.867 357.333 894.333 355.333C887.267 353.333 832.333 351.733 832.333 353.6ZM886.733 362.533C892.067 365.333 896.733 374.133 896.733 381.467C896.733 388.933 892.867 395.2 885.267 399.867C880.2 402.933 877.4 403.733 870.6 403.867L862.333 404L861.933 382.4C861.667 362.8 861.8 360.8 863.933 360.133C868.467 358.933 882.467 360.267 886.733 362.533Z" fill="white"/>
    <path d="M2105.67 353.867C2105.67 354.533 2108.33 355.733 2111.67 356.533C2115 357.333 2118.2 359.067 2119 360.533C2119.8 362.267 2120.33 379.067 2120.33 406V448.8L2117 452C2115 454.133 2112.2 455.333 2109.67 455.333C2107.53 455.333 2105.67 455.867 2105.67 456.667C2105.67 459.067 2164.47 458.4 2174.2 455.867C2189.67 451.867 2199 444.4 2206.07 430C2210.2 421.733 2210.33 420.667 2210.33 405.333C2210.33 390.267 2210.07 388.8 2206.47 381.333C2197.93 364 2185.4 356.267 2161.8 354C2145.53 352.4 2105.67 352.267 2105.67 353.867ZM2163.4 361.333C2173.4 364 2180.73 368.933 2185.53 376.533C2197.67 395.6 2196.07 423.733 2182.2 439.333C2178.73 443.067 2173.53 447.333 2170.6 448.933C2164.2 452.133 2153 453.333 2142.47 452.133L2135 451.2L2135.27 406.267L2135.67 361.333L2139.67 360.533C2146.73 358.933 2155.53 359.333 2163.4 361.333Z" fill="white"/>
    <path d="M1317.53 372.667C1314.6 378 1310.6 383.067 1306.87 385.867C1303.67 388.267 1300.87 390.8 1300.6 391.467C1300.33 392.133 1302.6 392.667 1305.53 392.667H1311V420C1311 449.2 1311.93 454.933 1317.4 457.867C1324.47 461.6 1334.2 458.267 1339 450.667C1342.73 444.667 1341.8 443.333 1337.27 447.867C1333.4 451.733 1330.07 452.267 1326.2 449.467C1323.8 447.733 1323.67 445.467 1323.27 420.133L1322.87 392.667H1331.53C1338.33 392.667 1340.33 392.267 1340.33 390.667C1340.33 389.333 1338.2 388.667 1332.07 388.4L1323.67 388L1323 376L1322.33 364L1317.53 372.667Z" fill="white"/>
    <path d="M1567.13 368.267C1563.67 375.867 1557.53 384.133 1553 387.2C1550.47 388.933 1548.33 390.8 1548.33 391.467C1548.33 392 1550.6 392.667 1553.4 392.933L1558.33 393.333L1559 423.067L1559.67 452.933L1563.4 456.133C1570.33 462.133 1580.2 459.467 1587.13 449.867C1590.87 444.667 1589.4 443.333 1584.87 447.733C1580.47 452.133 1575.8 452.4 1573.13 448.4C1571.4 445.867 1571 440.8 1571 419.067V392.667H1579.67C1586.47 392.667 1588.33 392.267 1588.33 390.667C1588.33 389.067 1586.47 388.667 1579.67 388.667H1571V376.667C1571 364.267 1569.93 362 1567.13 368.267Z" fill="white"/>
    <path d="M2935.4 372.267C2932.87 377.2 2929 381.867 2924.6 385.333C2920.87 388.267 2917.8 391.067 2917.8 391.6C2917.67 392.267 2920.07 392.667 2922.87 392.667H2928.2L2928.6 420.933C2929.13 452.8 2929.67 455.067 2937.67 458.667C2942.6 460.933 2943 460.933 2948.6 458.133C2953.93 455.6 2961.53 446.667 2959.8 445.067C2959.4 444.667 2957.27 445.867 2955 447.867C2949.93 452.133 2947.93 452.267 2944.33 448.4C2941.8 445.733 2941.67 443.867 2941.67 419.067V392.667H2950.47C2958.07 392.667 2959.13 392.4 2958.73 390.267C2958.33 388.4 2956.6 387.867 2949.93 387.6L2941.67 387.2V376C2941.67 369.733 2941.13 364.667 2940.6 364.667C2939.93 364.667 2937.67 368.133 2935.4 372.267Z" fill="white"/>
    <path d="M685.8 386.933C672.2 391.733 662.6 407.067 662.467 424C662.467 434.133 664.6 440.4 671 448.533C680.867 461.067 696.6 464.4 711.133 456.933C739.533 442.533 736.467 395.6 706.467 386.667C698.333 384.133 693.4 384.267 685.8 386.933ZM704.6 394.133C710.867 398.667 715.267 409.733 715.933 423.067C716.733 437.467 714.867 445.067 709 450.933C700.067 459.867 688.867 455.6 681.533 440.267C675 426.4 675.133 405.867 681.933 397.2C687.667 390 696.867 388.667 704.6 394.133Z" fill="white"/>
    <path d="M748.467 389.2C738.067 393.733 733.933 397.733 741.4 396C748.733 394.4 749.667 397.733 749.667 425.333C749.667 451.6 748.733 455.333 742.2 455.333C740.467 455.333 739 455.867 739 456.667C739 457.467 745.933 458 757.133 458C768.733 458 774.867 457.467 774.333 456.667C773.933 455.867 772.2 455.333 770.467 455.333C768.733 455.333 766.333 454.133 764.867 452.533C762.6 450.133 762.333 447.067 761.933 429.067C761.4 408.8 761.533 408.4 764.867 403.333C769.667 396 772.6 394.667 776.867 398.133C779.133 399.867 781.8 400.667 784.6 400.4C788.6 400 789 399.6 789.4 395.067C789.667 391.467 789 389.333 787.133 387.467C781.933 382.267 774.467 384.8 766.467 394.267L761.667 400V392.267C761.667 387.067 761.133 384.667 760.067 384.8C759.133 384.8 753.933 386.8 748.467 389.2Z" fill="white"/>
    <path d="M968.333 385.867C961.4 387.333 956.067 390.533 950.733 396.4C944.333 403.467 942.333 409.867 942.333 423.333C942.333 436.8 944.333 443.2 950.867 450.4C966.467 467.733 992.867 461.733 999.533 439.333C1001.8 431.6 1000.6 429.6 997.533 435.733C987.8 454.533 962.867 451.467 955 430.533C953.533 426.533 952.333 421.2 952.333 418.667V414H976.867H1001.53L1000.73 408.933C999 397.6 991 388.133 981.933 386.667C979.267 386.133 976.067 385.6 975 385.333C973.933 385.2 970.867 385.467 968.333 385.867ZM977.267 392.667C982.2 395.6 983.667 398.133 985 405.067L985.933 410H969.133C957.133 410 952.333 409.6 952.333 408.4C952.333 404.667 958.333 394.8 962.2 392.533C967.533 389.333 971.933 389.333 977.267 392.667Z" fill="white"/>
    <path d="M1039.13 386.133C1028.6 388.133 1019.13 396.4 1014.33 407.733C1011.93 413.6 1011.67 430.8 1013.93 438.267C1015.8 444.8 1026.07 456.4 1031.93 458.8C1037.53 461.2 1045.93 461.2 1051.4 458.8C1059.8 455.067 1067.67 445.2 1070.2 434.933C1071.53 429.467 1069.4 430.667 1065.67 437.467C1060.6 447.067 1048.2 451.467 1039.27 446.8C1029.67 441.867 1024.47 431.067 1024.33 416.533C1024.33 404.267 1027.8 396.267 1035 392.533C1044.07 387.6 1051.13 390.267 1053.8 399.733C1056.07 407.467 1057.27 408.667 1062.47 408.667C1066.2 408.667 1067.27 408 1068.33 405.333C1070.07 400.8 1068.33 396.8 1062.47 391.6C1056.07 386 1048.73 384.267 1039.13 386.133Z" fill="white"/>
    <path d="M1110.87 386C1099.4 388 1088.33 398.133 1084.87 409.733C1082.6 417.067 1082.47 430.667 1084.6 436.8C1086.87 443.6 1093.4 452.133 1099.4 456.267C1104.2 459.6 1105.93 460 1115.53 460C1124.87 460 1127.13 459.467 1132.47 456.4C1143.4 450 1150.07 437.2 1150.2 422.667C1150.33 410.8 1148.07 404.4 1141.27 396.933C1132.6 387.6 1122.47 384 1110.87 386ZM1124.33 393.733C1126.2 395.067 1129.4 399.467 1131.67 403.467C1135 409.733 1135.67 412.4 1136.07 423.467C1136.73 437.467 1135.13 444.667 1130.47 449.867C1126.33 454.4 1120.6 456.533 1115.93 455.2C1109 453.2 1105.93 450.267 1101.4 441.067C1097.27 432.667 1097 431.2 1097 418.667C1097 407.333 1097.4 404.533 1100.07 399.6C1105.13 390.133 1115.93 387.6 1124.33 393.733Z" fill="white"/>
    <path d="M1169 389.333C1163.13 391.733 1158.2 394.267 1158.07 394.933C1157.8 395.467 1159.93 396 1162.6 396C1169.13 396 1169.4 397.2 1169.53 425.333C1169.67 449.333 1168.6 454.267 1163.67 455.067C1162.2 455.333 1160.47 456.133 1159.8 456.8C1159 457.467 1165.67 458 1176.47 458C1188.47 458 1193.67 457.6 1192.33 456.667C1191.27 456 1189.27 455.333 1188.07 455.333C1182.73 455.333 1181.67 450.533 1181.67 427.2V404.8L1186.47 400.933C1192.47 395.867 1200.33 393.733 1204.6 395.867C1210.87 398.933 1212.33 404.8 1212.33 427.333C1212.33 450.667 1211.53 453.6 1204.33 456.133C1200.2 457.6 1201.53 457.867 1217.67 457.867C1229.8 457.867 1235 457.6 1233.67 456.667C1232.6 456 1230.6 455.333 1229.4 455.333C1228.2 455.333 1226.73 454.533 1226.07 453.6C1225.53 452.8 1224.73 440.267 1224.33 426C1223.67 404.933 1223.13 399.067 1221.27 395.333C1217.93 388.8 1213.27 385.733 1206.47 385.733C1199.67 385.733 1194.2 388.267 1186.87 394.933L1181.67 399.6V392.133C1181.67 388 1181.27 384.667 1180.73 384.667C1180.07 384.8 1174.87 386.8 1169 389.333Z" fill="white"/>
    <path d="M1261 386C1255.27 387.2 1251.8 389.333 1247.8 394.133C1245 397.467 1244.33 399.6 1244.33 405.467C1244.33 411.733 1244.87 413.333 1248.87 417.6C1251.4 420.4 1258.07 425.2 1263.93 428.267C1275.13 434.267 1279.8 438.4 1280.47 442.667C1281.27 447.733 1279 452.533 1275 454.667C1264.87 459.867 1254.73 454.4 1248.07 440L1245 433.333L1244.6 445.867C1244.47 452.667 1244.6 458.667 1244.87 459.067C1245.27 459.467 1246.33 459.067 1247.4 458.267C1248.73 457.2 1250.87 457.333 1255.67 458.667C1265.13 461.6 1272.73 461.2 1280.2 457.467C1290.33 452.267 1294.33 443.467 1291.13 433.6C1289 427.2 1282.2 421.6 1269.13 415.2C1257.53 409.6 1252.33 404.933 1252.33 400.133C1252.33 396.667 1256.73 392.133 1261.93 390.133C1269.8 387.2 1279.53 393.6 1283 404C1285.53 411.867 1287 409.333 1287 396.667C1287 385.467 1285.8 381.733 1283.8 386.8C1283.13 388.533 1281.93 388.8 1278.6 388C1267.8 385.6 1264.73 385.2 1261 386Z" fill="white"/>
    <path d="M1355.13 389.2C1345.27 393.467 1341.27 396.933 1347.4 395.733C1349.27 395.333 1351.53 396 1352.73 397.333C1354.73 399.2 1355 403.067 1355 424.8C1355 438.8 1354.47 451.2 1353.67 452.533C1353 453.867 1350.47 455.467 1348.07 456.133C1344.2 457.067 1344.73 457.333 1352.6 457.733C1357.53 457.867 1365.93 457.867 1371.27 457.733C1379.67 457.333 1380.33 457.067 1376.6 456.133C1368.87 454.133 1367.67 450.667 1367.27 428.533L1366.73 408.8L1370.87 402.933C1375.93 395.467 1378.2 394.667 1382.87 398.133C1385.13 399.867 1388.07 400.667 1390.47 400.4C1393.93 400 1394.33 399.467 1394.73 394.933C1395.13 390.8 1395.67 390 1398.2 390C1399.93 390 1402.73 391.2 1404.47 392.533C1407.53 395.067 1407.67 395.733 1408.33 421.6C1409.13 450.8 1410.07 454.8 1417.67 458.667C1425.67 462.8 1434.87 460.4 1443 452C1445.53 449.467 1448.07 447.333 1448.6 447.333C1449.13 447.333 1449.67 450.267 1449.67 454C1449.67 462.133 1450.33 462.267 1464.73 456.133C1475.27 451.733 1476.47 450 1468.87 450C1466.2 450 1464.33 449.2 1463.8 447.867C1463.4 446.667 1463 432.933 1463 417.2V388.667L1450.73 388.8C1441.8 388.8 1439.4 389.2 1442.07 390C1449.67 392.267 1449.67 392.4 1449.67 418V441.733L1444.47 445.867C1435.53 452.933 1425.93 453.067 1422.33 446C1420.73 442.933 1420.33 436.667 1420.33 415.333V388.667H1407.8C1400.33 388.667 1393.53 388 1391 386.933C1384.73 384.267 1381 385.6 1374.47 392.8C1371.27 396.4 1368.2 399.333 1367.8 399.333C1367.4 399.333 1367 396 1367 392C1367 388 1366.6 384.667 1366.07 384.8C1365.4 384.8 1360.6 386.8 1355.13 389.2Z" fill="white"/>
    <path d="M1507.13 386.133C1500.47 387.467 1497.4 389.2 1491.27 395.467C1483.53 403.333 1481 410.4 1481.13 424C1481.13 437.467 1482.87 442.667 1489.67 450.533C1501.53 463.867 1518.2 464 1530.87 450.933C1534.87 446.667 1541 432.933 1539.53 431.467C1539.27 431.2 1538.87 431.2 1538.6 431.467C1538.33 431.733 1536.6 434.533 1534.6 437.6C1528.2 447.733 1515.13 451.6 1506.07 446.133C1496.47 440.267 1490.47 421.867 1493.53 408C1497.93 388.667 1519.27 383.067 1522.47 400.4C1523.53 406 1526.2 408.533 1531.13 408.667C1539.53 408.667 1540.07 400.4 1532.07 392.667C1528.87 389.733 1525.13 386.933 1523.67 386.667C1516.47 385.333 1512.47 385.2 1507.13 386.133Z" fill="white"/>
    <path d="M1605.67 389.333C1595.13 394 1592.33 396.533 1598.73 395.6C1605.53 394.667 1606.33 397.067 1606.73 424.267C1607.13 445.067 1606.87 449.333 1605.13 452.133C1603.93 453.867 1601.8 455.333 1600.33 455.333C1599 455.333 1597.4 455.867 1597 456.667C1596.47 457.467 1602.2 458 1613.27 458C1624.73 458 1629.67 457.6 1628.33 456.667C1627.27 456 1625.53 455.333 1624.47 455.333C1619.67 455.333 1619.13 451.467 1619 417.6C1619 392.133 1618.6 384.667 1617.4 384.8C1616.47 384.8 1611.13 386.8 1605.67 389.333Z" fill="white"/>
    <path d="M1668.2 386C1662.87 386.933 1652.87 392.4 1649.4 396.267C1648.2 397.6 1645.4 402.267 1643.4 406.667C1638.47 417.2 1638.2 431.6 1642.87 440.4C1652.2 458.4 1669.8 465.333 1686.33 457.467C1699.93 451.067 1707 438.4 1707 421.067C1707 398.667 1688.73 382.133 1668.2 386ZM1678.33 391.867C1690.33 396.933 1697.4 423.867 1691.67 442.933C1690.07 448.267 1688.6 450.533 1685 452.667C1674.87 458.933 1666.07 455.2 1659 441.467C1655 433.6 1654.33 431.067 1653.93 420.133C1653.27 404.533 1655.93 396.933 1663.93 392.8C1670.07 389.6 1672.33 389.467 1678.33 391.867Z" fill="white"/>
    <path d="M1725.93 389.2C1716.6 393.2 1713.67 396.4 1719.93 395.6C1721.8 395.333 1723.53 396.267 1725 398.533C1727 401.467 1727.13 405.333 1726.73 426.4C1726.33 452 1725.53 455.333 1720.2 455.333C1718.87 455.333 1717.4 455.867 1717 456.667C1716.47 457.467 1722.2 458 1733.27 457.867C1749.13 457.733 1750.07 457.6 1746.07 455.867C1743.67 454.933 1741.13 452.933 1740.33 451.467C1739.53 450 1739 439.6 1739 426.933V404.933L1743.67 400.933C1749.67 395.6 1757 393.467 1761.53 395.733C1767.67 398.667 1768.33 402 1767.93 428.533C1767.67 454.8 1768.07 453.2 1760.33 456.4C1757.8 457.467 1761.4 457.867 1775 457.867C1788.6 457.867 1792.2 457.467 1789.67 456.4C1781.93 453.2 1782.33 454.933 1781.53 426.533C1781.13 412 1780.07 398.533 1779.4 396.667C1777.4 392 1772.2 387.467 1767.27 386.133C1761 384.267 1754.2 386.8 1747 393.467C1743.53 396.667 1740.33 399.333 1739.8 399.333C1739.4 399.333 1739 396 1739 392C1739 386.933 1738.47 384.667 1737.4 384.8C1736.47 384.933 1731.27 386.8 1725.93 389.2Z" fill="white"/>
    <path d="M1861 386C1854.07 387.067 1851 388.8 1845.8 394.667C1839.13 402.267 1840.6 410 1848.6 410C1851.4 410 1852.73 409.2 1853.67 406.533C1854.47 404.667 1854.6 402.533 1854.2 401.867C1851.53 397.467 1858.73 390 1865.53 390C1873.13 390 1877.4 394.8 1878.6 404.533L1879.27 410.8L1867.53 415.733C1847.27 424.267 1839 431.867 1839 442.267C1839 452.8 1845.4 459.333 1855.67 459.333C1862.47 459.333 1865.27 458.133 1872.47 452.533C1878.33 447.867 1879 447.867 1879 451.467C1879 456.933 1881.4 459.333 1887 459.333C1891.4 459.333 1893.27 458.4 1897.67 454C1900.6 451.067 1903 447.6 1903 446.4C1903 444.533 1902.6 444.667 1900.33 447.067C1896.73 450.933 1892.6 450.933 1891.8 446.933C1891.4 445.333 1890.87 433.467 1890.73 420.667C1890.33 400.667 1889.93 396.667 1887.93 393.467C1883.93 387.467 1872.47 384.267 1861 386ZM1879 429.333V443.333L1872.73 447.333C1869.27 449.6 1864.73 451.333 1862.73 451.333C1852.73 451.333 1848.33 435.867 1856.07 428C1858.73 425.2 1875.67 415.867 1878.73 415.333C1878.87 415.333 1879 421.6 1879 429.333Z" fill="white"/>
    <path d="M1916.47 389.067C1906.33 393.467 1902.47 396.933 1909.13 395.6C1915.67 394.4 1916.33 397.2 1916.33 425.067C1916.33 438.8 1915.8 451.2 1915 452.533C1914.33 453.867 1911.8 455.467 1909.4 456.133C1905.53 457.067 1906.07 457.333 1914.07 457.733C1919 457.867 1927 457.867 1932.07 457.733C1939.93 457.333 1940.47 457.067 1936.6 456.133C1929.4 454.267 1928.33 450.533 1928.33 426.133V404.8L1933 401.2C1939.67 396.133 1946.6 394 1951.27 395.6C1958.07 398 1959 402 1959 427.733C1959 452.933 1959.13 452.667 1951.13 456.267C1948.33 457.467 1950.87 457.733 1965.67 457.733C1981 457.733 1983 457.6 1979.4 456.267C1971.8 453.467 1971.67 453.333 1971 424.267C1970.47 401.467 1969.93 396.667 1967.93 393.6C1960.6 382.267 1946.07 383.067 1934.47 395.2C1932.2 397.467 1930.07 399.333 1929.4 399.333C1928.87 399.333 1928.33 396 1928.33 392C1928.33 388 1927.93 384.667 1927.4 384.667C1926.73 384.667 1921.93 386.667 1916.47 389.067Z" fill="white"/>
    <path d="M2246.6 386.533C2234.87 390.8 2227.13 400.533 2224.33 414.667C2219.4 438.667 2233.4 460.667 2253.53 460.667C2257.13 460.667 2261.8 460 2263.93 459.2C2271.67 456.267 2281.93 443.6 2283.13 435.467C2283.93 430.4 2281 430.8 2279.13 436C2278.07 439.067 2275.4 442.133 2271.93 444.4C2256.73 454.4 2237.53 442.4 2235.4 421.333L2234.6 414H2259.53H2284.47L2283.53 408.933C2282.6 403.333 2277.93 394.533 2273.93 390.933C2267.67 385.2 2255.8 383.333 2246.6 386.533ZM2257 391.867C2262.2 394.133 2267 400.933 2267 406.267V410H2251C2235.13 410 2235 410 2235 406.8C2235 402.267 2240.33 395.067 2245.67 392.4C2251.27 389.467 2251.27 389.467 2257 391.867Z" fill="white"/>
    <path d="M2397.4 386.133C2390.6 388.133 2382.2 395.733 2377.93 403.867C2374.87 409.867 2374.47 412.267 2374.33 423.333C2374.33 434.533 2374.73 436.8 2378.07 443.733C2384.47 456.8 2397 462.8 2411.8 460.133C2418.2 458.8 2429.67 447.467 2432.2 439.867C2434.73 432 2432.73 429.733 2429.13 436.133C2426.2 441.467 2419.4 446.8 2413.93 448.267C2404.33 450.667 2390.2 440 2386.47 427.467C2385.27 423.467 2384.33 418.8 2384.33 417.067V414H2409.53H2434.6L2433.53 407.867C2432.87 404.4 2431.13 399.6 2429.53 397.2C2423.93 388 2409 382.933 2397.4 386.133ZM2412.07 395.867C2414.73 398.533 2416.73 402 2417.27 405.067L2418.07 410H2402.07C2393.27 410 2385.8 409.6 2385.27 409.2C2384.2 408.133 2387.8 399.467 2390.73 396.133C2394.07 392.533 2400.47 389.867 2404.33 390.8C2406.2 391.2 2409.67 393.467 2412.07 395.867Z" fill="white"/>
    <path d="M2514.6 386C2512.6 386.533 2507.93 389.067 2504.33 391.333C2499 394.8 2496.87 397.333 2493 404.933C2489 413.067 2488.33 415.6 2488.33 423.867C2488.47 438.8 2496.07 452.4 2507.8 458C2516.73 462.4 2530.6 461.467 2539.4 456C2551.13 448.667 2557.13 435.2 2556.07 418.933C2555.13 404.8 2548.73 394.4 2537.13 388.4C2531.27 385.467 2520.07 384.133 2514.6 386ZM2526.2 391.867C2536.2 396 2541.67 408.933 2541.53 427.733C2541.4 442.533 2539.53 448.4 2533.67 452.267C2526.33 457.333 2521 456.4 2513.67 448.933C2505.8 441.2 2503 432.8 2503 417.467C2503.13 402 2507 394 2515.93 391.333C2521.13 389.733 2521.27 389.733 2526.2 391.867Z" fill="white"/>
    <path d="M2599.67 388.667C2596.07 390.8 2591.67 394.533 2590.07 396.933L2587 401.2V393.6C2587 388.4 2586.47 386 2585.4 386C2582.47 386 2563 394.4 2563 395.6C2563 396.267 2564.2 396.4 2565.8 396C2567.53 395.467 2569.4 396 2571.13 397.467C2573.53 399.6 2573.67 402 2573.67 442.8C2573.67 485.733 2573.67 485.867 2570.73 487.867C2569.13 489.067 2566.33 490 2564.73 490C2563 490 2561.67 490.533 2561.67 491.333C2561.67 492.133 2568.73 492.667 2580.33 492.667C2591.93 492.667 2599 492.133 2599 491.333C2599 490.533 2597.93 490 2596.47 490C2595.13 490 2592.47 488.8 2590.47 487.2C2587.13 484.533 2587 484 2587 469.867V455.333L2591.93 458C2598.73 461.6 2609.67 461.6 2617.4 457.867C2624.6 454.267 2631.53 445.2 2634.47 435.467C2637.4 425.6 2636.47 408.667 2632.73 401.333C2627.4 391.333 2617.93 384.667 2609 384.667C2607.53 384.667 2603.4 386.533 2599.67 388.667ZM2614.6 402.533C2626.33 415.2 2625 446.8 2612.47 453.2C2607.27 455.867 2597.8 455.867 2593.93 453.2C2588.07 449.2 2587 444.667 2587 424.933C2587 407.467 2587.13 406.267 2590.07 403.6C2598.87 395.333 2607.53 394.933 2614.6 402.533Z" fill="white"/>
    <path d="M2653.93 389.2C2643.53 393.6 2641.67 396 2648.33 396C2650.6 396 2653 396.8 2653.53 397.867C2655.27 400.667 2656.87 428.933 2655.8 439.867C2654.87 450.133 2652.33 455.333 2648.33 455.333C2647 455.333 2645.4 455.867 2645 456.667C2644.47 457.467 2650.33 458 2661.53 458C2672.33 458 2679 457.467 2679 456.667C2679 455.867 2677.53 455.333 2675.93 455.333C2669.13 455.333 2668.33 452.4 2668.33 427.067C2668.33 401.067 2667.93 402.133 2678.6 396.8C2685.8 393.2 2688.6 393.2 2693.27 397.2L2697 400.4L2697.4 426C2697.8 453.733 2697.53 455.333 2690.87 455.333C2688.73 455.333 2687 455.867 2687 456.667C2687 457.467 2693.93 458 2705 458C2716.07 458 2723 457.467 2723 456.667C2723 455.867 2721.27 455.333 2719.13 455.333C2711.93 455.333 2711 452.133 2711 426.533V403.6L2717.27 399.467C2725.4 394 2733.13 393.733 2737.8 398.8C2740.87 402.133 2741 403.067 2741.4 424.4C2741.93 449.733 2741.13 453.6 2735 454.933C2725.67 456.8 2730.73 458 2747.53 458C2758.73 458 2765.67 457.467 2765.67 456.667C2765.67 455.867 2764.2 455.333 2762.6 455.333C2756.07 455.333 2755.27 452.667 2754.73 425.333C2754.2 397.733 2753.27 394.133 2745.67 388.4C2737.53 382.4 2728.47 384.267 2717.13 394.133L2711.13 399.467L2709.13 395.467C2702.33 382.533 2687.67 381.6 2674.87 393.6L2668.33 399.733V392.133C2668.33 383.2 2667.93 383.067 2653.93 389.2Z" fill="white"/>
    <path d="M2796.33 385.867C2780.73 390.667 2773.53 401.2 2772.6 420C2771.8 438.667 2775.4 448 2786.73 455.867C2791.27 459.067 2794.07 460 2801 460.4C2808.47 460.933 2810.33 460.533 2815.67 457.333C2822.73 453.2 2829.27 444.933 2830.47 438.533C2831.8 431.2 2830.33 430.533 2826.6 436.933C2822.87 443.333 2814.6 448.667 2808.33 448.667C2803.27 448.667 2794.2 443.6 2790.33 438.667C2786.07 433.067 2783 424.533 2783 418.533V414H2807H2831V409.333C2831 393.067 2812.87 380.933 2796.33 385.867ZM2804.87 391.867C2810.73 394.267 2815 400 2815 405.467V410H2799C2789.93 410 2783 409.467 2783 408.8C2783 403.6 2790.33 393.467 2795.67 391.333C2799.4 389.733 2799.8 389.733 2804.87 391.867Z" fill="white"/>
    <path d="M2848.47 389.067C2838.2 393.467 2833.8 397.733 2841.27 396.133C2848.2 394.533 2849 396.933 2849.4 422.933C2849.93 449.333 2849 453.6 2842.87 454.933C2834.2 456.667 2840.07 458 2856.33 458C2867 458 2873.67 457.467 2873.67 456.667C2873.67 455.867 2871.93 455.333 2869.93 455.333C2863.27 455.333 2863 454 2863 427.733V403.333L2869.27 399.333C2878.47 393.467 2885.53 394 2889 400.8C2890.6 403.6 2891 410 2891 427.733C2891 448.533 2890.73 451.2 2888.6 453.067C2887.27 454.4 2884.87 455.333 2883.27 455.333C2881.67 455.333 2880.33 455.867 2880.33 456.667C2880.33 457.467 2887 458 2897.67 458C2907.53 458 2915 457.467 2915 456.8C2915 456.133 2913.4 455.333 2911.4 455.067C2905.4 454.4 2904.33 450.4 2904.33 426C2904.33 413.867 2903.67 401.6 2902.87 398.8C2901 392.267 2895 386.4 2888.87 385.2C2883.13 384.133 2871.4 389.467 2866.33 395.467L2863 399.6V392.133C2863 383.067 2862.6 383.067 2848.47 389.067Z" fill="white"/>
    <path d="M2289.67 388.667C2289.67 389.467 2291.27 390.667 2293.27 391.467C2295.27 392.133 2297.8 394.133 2298.87 395.733C2300.07 397.333 2306.73 412.4 2313.93 429.333C2323.8 453.067 2327.27 460 2329.13 460C2331 460 2334.2 453.333 2343.8 429.467C2350.47 412.667 2356.73 397.733 2357.53 396.4C2358.33 395.067 2360.87 392.8 2363 391.467C2365.27 390.133 2366.6 388.667 2366.07 388.267C2364.73 386.8 2343 387.2 2343 388.533C2343 389.2 2344.33 390 2345.8 390.267C2352.07 391.2 2351.67 393.867 2342.07 417.867L2332.73 440.8L2323.8 419.333C2314.2 396.133 2313.53 392.133 2319.67 390.533C2327.27 388.667 2321.93 387.333 2306.33 387.333C2295.8 387.333 2289.67 387.867 2289.67 388.667Z" fill="white"/>
</svg>
