<?xml version="1.0" encoding="UTF-8"?>
<svg id="Layer_1" xmlns="http://www.w3.org/2000/svg" viewBox="0 0 595.32 195.9">
    <path
            d="M86.57,183.12h51.78v-14.18h-29.35v-.33s4.29-4.29,5.94-5.94l21.77-23.75v-13.52h-47.49v13.85h25.4v.33s-3.63,3.63-4.95,5.28l-23.09,24.74v13.52Z"
            style="fill:#2a3040;"/>
    <path
            d="M569.77,94.73c4.95,0,8.58-.33,9.89-.66v-13.52h-3.96c-3.96,0-6.27-.99-6.27-5.61v-27.05h10.22v-11.54h-10.22v-18.47h-18.14v18.47h-7.59v11.54h7.59v31c0,12.53,7.59,15.83,18.47,15.83Z"
            style="fill:#0099b5;"/>
    <path
            d="M514.35,96.05c15.17,0,26.39-6.6,26.39-19.46,0-14.51-11.87-17.15-22.1-18.8-7.26-1.32-13.85-1.98-13.85-6.27,0-3.3,3.3-5.28,7.92-5.28,5.28,0,8.58,1.65,9.24,6.93h17.15c-.99-11.54-9.89-18.47-26.06-18.47-13.85,0-25.07,6.27-25.07,18.47,0,13.52,10.55,16.16,20.78,17.81,7.59,1.32,14.51,1.98,14.51,7.26,0,3.63-3.3,5.61-8.91,5.61-6.27,0-9.89-2.64-10.55-8.58h-17.48c.66,12.86,11.21,20.78,28.04,20.78Z"
            style="fill:#0099b5;"/>
    <path
            d="M442.12,59.11c.99-6.93,4.62-11.21,11.87-11.21,5.94,0,10.22,4.29,10.88,11.21h-22.76ZM454.66,95.72c7.26,0,13.19-1.65,18.14-5.28,4.95-3.3,8.25-8.25,9.56-13.52h-17.81c-1.65,3.63-4.95,5.61-9.56,5.61-7.59,0-11.87-4.62-13.19-12.53h41.56c.33-11.87-3.3-21.77-10.22-28.04-4.95-4.62-11.21-7.26-19.46-7.26-17.81,0-30.01,13.19-30.01,30.34s11.87,30.67,31,30.67Z"
            style="fill:#0099b5;"/>
    <path
            d="M381.11,94.07h19.79l20.12-57.72h-18.47l-7.92,26.06c-1.98,5.61-3.3,11.54-3.3,11.54h-.33s-1.32-5.94-2.97-11.54l-7.92-26.06h-19.13l20.12,57.72Z"
            style="fill:#0099b5;"/>
    <path
            d="M301.95,94.07h18.47v-31.99c0-6.93,3.96-12.2,10.22-12.2,5.94,0,8.91,4.29,8.91,10.55v56.73l18.47-18.47v-42.22c0-12.86-7.59-21.77-20.12-21.77-8.25,0-13.52,3.3-17.81,9.56h-.33v-7.92h-17.81v57.72Z"
            style="fill:#0099b5;"/>
    <polygon points="294.69 94.4 294.69 13.26 276.22 31.73 276.22 112.54 294.69 94.4" style="fill:#0099b5;"/>
    <path
            d="M523.92,183.12h18.14v-31.99c0-6.93,4.29-12.2,10.22-12.2s9.24,4.29,9.24,10.55v33.64h18.14v-37.6c0-12.86-7.26-21.77-20.12-21.77-7.92,0-13.52,3.3-17.81,9.56h-.33v-7.92h-17.48v57.72Z"
            style="fill:#2a3040;"/>
    <path
            d="M485.66,172.9c-4.62,0-7.92-1.65-7.92-6.27s2.97-6.27,9.89-7.92c3.96-.99,7.26-1.98,9.56-2.97v6.93c0,5.94-4.62,10.22-11.54,10.22ZM479.72,184.77c8.58,0,13.85-3.3,17.15-7.92h.33c.33,2.97.99,4.95,1.98,6.27h17.81v-.66c-1.65-.99-1.98-3.63-1.98-8.25v-29.02c0-7.26-2.64-12.86-7.59-16.49-3.96-3.3-9.89-4.95-18.8-4.95-17.48,0-25.73,9.24-26.06,19.79h16.82c.66-4.62,3.63-7.26,9.56-7.26,5.61,0,7.92,2.31,7.92,6.27s-3.96,4.95-14.84,6.27c-11.87,1.65-22.1,5.61-22.1,18.14,0,11.54,8.25,17.81,19.79,17.81Z"
            style="fill:#2a3040;"/>
    <path
            d="M444.76,183.78c4.95,0,8.58-.33,10.22-.66v-13.52h-4.29c-3.96,0-6.27-.99-6.27-5.61v-27.05h10.55v-11.54h-10.55v-18.14h-17.81v18.14h-7.92v11.54h7.92v31c0,12.53,7.59,15.83,18.14,15.83Z"
            style="fill:#2a3040;"/>
    <path
            d="M391.33,185.1c15.17,0,26.39-6.6,26.39-19.13,0-14.84-11.87-17.48-22.1-19.13-7.59-1.32-13.85-1.98-13.85-5.94,0-3.63,3.3-5.61,7.92-5.61,4.95,0,8.58,1.65,9.24,6.93h16.82c-.66-11.54-9.56-18.47-26.06-18.47-13.52,0-24.74,6.27-24.74,18.47,0,13.52,10.55,16.16,20.78,17.81,7.59,1.65,14.51,1.98,14.51,7.26,0,3.63-3.63,5.61-8.91,5.61-6.27,0-9.89-2.64-10.55-8.58h-17.48c.66,12.86,11.21,20.78,28.04,20.78Z"
            style="fill:#2a3040;"/>
    <polygon points="339.55 183.12 358.02 183.12 358.02 107.26 339.55 125.4 339.55 183.12" style="fill:#2a3040;"/>
    <polygon
            points="276.22 183.12 294.36 183.12 294.36 165.64 299.97 159.7 313.82 183.12 335.26 183.12 312.5 147.17 332.95 125.4 311.51 125.4 294.36 144.86 294.36 102.64 276.22 120.78 276.22 183.12"
            style="fill:#2a3040;"/>
    <path
            d="M228.73,148.16c1.32-6.93,4.62-11.21,11.87-11.21,5.94,0,10.22,4.29,10.88,11.21h-22.76ZM241.26,184.77c7.26,0,13.19-1.65,18.14-5.28,4.95-3.3,8.58-8.25,9.56-13.52h-17.81c-1.65,3.63-4.62,5.61-9.56,5.61-7.59,0-11.87-4.62-13.19-12.53h41.56c.33-11.87-3.3-21.77-9.89-28.04-4.95-4.62-11.54-7.26-19.79-7.26-17.81,0-29.68,13.19-29.68,30.34s11.54,30.67,30.67,30.67Z"
            style="fill:#2a3040;"/>
    <path
            d="M176.94,170.59c-7.59,0-12.2-6.6-12.2-16.16s3.96-16.82,12.2-16.82c7.26,0,11.21,6.6,11.21,16.49s-3.96,16.49-11.21,16.49ZM182.22,185.1c14.84,0,24.74-11.54,24.74-30.67,0-17.48-9.89-30.67-24.74-30.67-7.92,0-12.86,3.3-16.49,8.25h-.33v-29.68h-18.47v80.81h17.48v-7.26h.33c3.63,5.94,9.89,9.24,17.48,9.24Z"
            style="fill:#2a3040;"/>
    <path
            d="M46.99,184.77c22.43,0,33.64-11.54,33.64-30.01v-52.44h-20.12v52.77c0,7.92-4.29,13.52-13.52,13.52-9.89,0-14.18-5.28-14.18-13.19v-53.1H13.02v52.44c0,18.8,11.21,30.01,33.97,30.01Z"
            style="fill:#2a3040;"/>
</svg>
