<svg width="24" height="24" viewBox="0 0 24 24" fill="none" xmlns="http://www.w3.org/2000/svg">
<path d="M12.3796 16.9203H10.0896C9.67964 16.9203 9.33964 16.5803 9.33964 16.1703C9.33964 15.7603 9.67964 15.4203 10.0896 15.4203H12.3796C12.8096 15.4203 13.1596 15.0703 13.1596 14.6403C13.1596 14.2103 12.8096 13.8603 12.3796 13.8603H10.0896C9.84964 13.8603 9.61964 13.7403 9.47964 13.5503C9.33964 13.3603 9.29964 13.1003 9.37964 12.8703L10.1396 10.5803C10.2396 10.2703 10.5296 10.0703 10.8496 10.0703H13.9096C14.3196 10.0703 14.6596 10.4103 14.6596 10.8203C14.6596 11.2303 14.3196 11.5703 13.9096 11.5703H11.3896L11.1296 12.3603H12.3796C13.6396 12.3603 14.6596 13.3803 14.6596 14.6403C14.6596 15.9003 13.6396 16.9203 12.3796 16.9203Z" fill="currentColor"/>
<path d="M11.9996 3.47945C11.9196 3.47945 11.8396 3.48945 11.7596 3.48945L12.5796 2.46945C12.8396 2.14945 12.7896 1.66945 12.4596 1.41945C12.1296 1.16945 11.6696 1.20945 11.4096 1.53945L9.43961 3.99945C9.42961 4.00945 9.42961 4.01945 9.41961 4.03945C9.38961 4.07945 9.36961 4.12945 9.34961 4.16945C9.32961 4.21945 9.30961 4.25945 9.29961 4.29945C9.28961 4.34945 9.28961 4.38945 9.28961 4.43945C9.28961 4.48945 9.28961 4.53945 9.28961 4.58945C9.28961 4.60945 9.28961 4.61945 9.28961 4.63945C9.29961 4.66945 9.31961 4.68945 9.32961 4.71945C9.34961 4.76945 9.36961 4.80945 9.38961 4.85945C9.41961 4.89945 9.44961 4.93945 9.48961 4.96945C9.50961 4.99945 9.51961 5.02945 9.54961 5.04945C9.56961 5.05945 9.57961 5.06945 9.59961 5.07945C9.62961 5.09945 9.64961 5.10945 9.67961 5.11945C9.72961 5.14945 9.78961 5.16945 9.84961 5.17945C9.87961 5.19945 9.90961 5.19945 9.93961 5.19945C9.96961 5.19945 9.98961 5.20945 10.0196 5.20945C10.0496 5.20945 10.0696 5.19945 10.0896 5.18945C10.1196 5.18945 10.1496 5.19945 10.1796 5.18945C10.8196 5.03945 11.4196 4.96945 11.9896 4.96945C16.4796 4.96945 20.1296 8.61945 20.1296 13.1095C20.1296 17.5994 16.4796 21.2495 11.9896 21.2495C7.49961 21.2495 3.84961 17.5994 3.84961 13.1095C3.84961 11.3695 4.41961 9.68945 5.49961 8.24945C5.74961 7.91945 5.67961 7.44945 5.34961 7.19945C5.01961 6.94945 4.54961 7.01945 4.29961 7.34945C3.01961 9.04945 2.34961 11.0395 2.34961 13.1095C2.34961 18.4195 6.66961 22.7495 11.9896 22.7495C17.3096 22.7495 21.6296 18.4295 21.6296 13.1095C21.6296 7.78945 17.3096 3.47945 11.9996 3.47945Z" fill="currentColor"/>
</svg>
