<svg width="24" height="24" viewBox="0 0 24 24" fill="none" xmlns="http://www.w3.org/2000/svg">
<path d="M14.4304 16.9203H12.1404C11.7304 16.9203 11.3904 16.5803 11.3904 16.1703C11.3904 15.7603 11.7304 15.4203 12.1404 15.4203H14.4304C14.8604 15.4203 15.2104 15.0703 15.2104 14.6403C15.2104 14.2103 14.8604 13.8603 14.4304 13.8603H12.1404C11.9004 13.8603 11.6704 13.7403 11.5304 13.5503C11.3904 13.3603 11.3504 13.1003 11.4304 12.8703L12.1904 10.5803C12.2904 10.2703 12.5804 10.0703 12.9004 10.0703H15.9604C16.3704 10.0703 16.7104 10.4103 16.7104 10.8203C16.7104 11.2303 16.3704 11.5703 15.9604 11.5703H13.4404L13.1804 12.3603H14.4304C15.6904 12.3603 16.7104 13.3803 16.7104 14.6403C16.7104 15.9003 15.6804 16.9203 14.4304 16.9203Z" fill="currentColor"/>
<path d="M9.54041 16.9208C9.13041 16.9208 8.79041 16.5808 8.79041 16.1708V12.7808L8.60041 13.0008C8.32041 13.3108 7.85041 13.3308 7.54041 13.0608C7.24041 12.7808 7.21041 12.3108 7.49041 12.0008L8.99041 10.3308C9.20041 10.1008 9.53041 10.0208 9.82041 10.1308C10.1104 10.2408 10.3004 10.5208 10.3004 10.8308V16.1808C10.2904 16.5908 9.96041 16.9208 9.54041 16.9208Z" fill="currentColor"/>
<path d="M11.9996 3.47945C11.9196 3.47945 11.8396 3.48945 11.7596 3.48945L12.5796 2.46945C12.8396 2.14945 12.7896 1.66945 12.4596 1.41945C12.1296 1.16945 11.6696 1.20945 11.4096 1.53945L9.43961 3.99945C9.42961 4.00945 9.42961 4.01945 9.41961 4.03945C9.38961 4.07945 9.36961 4.12945 9.34961 4.16945C9.32961 4.21945 9.30961 4.25945 9.29961 4.29945C9.28961 4.34945 9.28961 4.38945 9.28961 4.43945C9.28961 4.48945 9.28961 4.53945 9.28961 4.58945C9.28961 4.60945 9.28961 4.61945 9.28961 4.63945C9.29961 4.66945 9.31961 4.68945 9.32961 4.71945C9.34961 4.76945 9.36961 4.80945 9.38961 4.85945C9.41961 4.89945 9.44961 4.93945 9.48961 4.96945C9.50961 4.99945 9.51961 5.02945 9.54961 5.04945C9.56961 5.05945 9.57961 5.06945 9.59961 5.07945C9.61961 5.09945 9.64961 5.10945 9.67961 5.11945C9.72961 5.14945 9.78961 5.16945 9.83961 5.17945C9.87961 5.19945 9.90961 5.19945 9.93961 5.19945C9.96961 5.19945 9.98961 5.20945 10.0196 5.20945C10.0496 5.20945 10.0696 5.19945 10.0896 5.18945C10.1196 5.18945 10.1496 5.19945 10.1796 5.18945C10.8196 5.03945 11.4196 4.96945 11.9896 4.96945C16.4796 4.96945 20.1296 8.61945 20.1296 13.1095C20.1296 17.5994 16.4796 21.2495 11.9896 21.2495C7.49961 21.2495 3.84961 17.5994 3.84961 13.1095C3.84961 11.3695 4.41961 9.68945 5.49961 8.24945C5.74961 7.91945 5.67961 7.44945 5.34961 7.19945C5.01961 6.94945 4.54961 7.01945 4.29961 7.34945C3.01961 9.04945 2.34961 11.0395 2.34961 13.1095C2.34961 18.4195 6.66961 22.7495 11.9896 22.7495C17.3096 22.7495 21.6296 18.4295 21.6296 13.1095C21.6296 7.78945 17.3096 3.47945 11.9996 3.47945Z" fill="currentColor"/>
</svg>
