<svg width="24" height="24" viewBox="0 0 24 24" fill="none" xmlns="http://www.w3.org/2000/svg">
<path d="M9.53955 16.6708C9.12955 16.6708 8.78955 16.3308 8.78955 15.9208V12.5308L8.59955 12.7508C8.31955 13.0608 7.84955 13.0808 7.53955 12.8108C7.22955 12.5308 7.20955 12.0608 7.47955 11.7508L8.97955 10.0808C9.18955 9.85081 9.51955 9.77081 9.80955 9.88081C10.0996 9.99081 10.2896 10.2708 10.2896 10.5808V15.9308C10.2896 16.3408 9.95955 16.6708 9.53955 16.6708Z" fill="currentColor"/>
<path d="M12.0001 3.47974C11.9201 3.47974 11.8401 3.48974 11.7601 3.48974L12.5801 2.46974C12.8401 2.14974 12.7901 1.66974 12.4601 1.41974C12.1401 1.15974 11.6701 1.20974 11.4101 1.53974L9.44012 3.99974C9.43012 4.00974 9.43012 4.01974 9.42012 4.03974C9.39012 4.07974 9.37012 4.12974 9.35012 4.16974C9.33012 4.21974 9.31012 4.25974 9.30012 4.29974C9.29012 4.34974 9.29012 4.38974 9.29012 4.43974C9.29012 4.48974 9.29012 4.53974 9.29012 4.58974C9.29012 4.60974 9.29012 4.61974 9.29012 4.63974C9.30012 4.66974 9.32012 4.68974 9.33012 4.72974C9.35012 4.77974 9.36012 4.81974 9.39012 4.85974C9.42012 4.89974 9.45012 4.93974 9.49012 4.97974C9.51012 4.99974 9.53012 5.02974 9.55012 5.04974C9.56012 5.05974 9.58012 5.05974 9.59012 5.06974C9.62012 5.08974 9.65012 5.10974 9.69012 5.11974C9.74012 5.14974 9.79012 5.16974 9.84012 5.17974C9.88012 5.19974 9.91012 5.19974 9.95012 5.19974C9.98012 5.19974 10.0001 5.20974 10.0301 5.20974C10.0501 5.20974 10.0801 5.19974 10.1001 5.18974C10.1301 5.18974 10.1601 5.18974 10.2001 5.18974C10.8401 5.03974 11.4401 4.96974 12.0101 4.96974C16.5001 4.96974 20.1501 8.61974 20.1501 13.1097C20.1501 17.5997 16.5001 21.2497 12.0101 21.2497C7.52012 21.2497 3.87012 17.5997 3.87012 13.1097C3.87012 11.3697 4.44012 9.68974 5.52012 8.24974C5.77012 7.91974 5.70012 7.44974 5.37012 7.19974C5.04012 6.94974 4.57012 7.01974 4.32012 7.34974C3.04012 9.04974 2.37012 11.0397 2.37012 13.1097C2.37012 18.4197 6.69012 22.7497 12.0101 22.7497C17.3301 22.7497 21.6501 18.4297 21.6501 13.1097C21.6501 7.78974 17.3101 3.47974 12.0001 3.47974Z" fill="currentColor"/>
<path d="M14 16.6703C12.48 16.6703 11.25 15.4403 11.25 13.9203V12.5703C11.25 11.0503 12.48 9.82031 14 9.82031C15.52 9.82031 16.75 11.0503 16.75 12.5703V13.9203C16.75 15.4403 15.52 16.6703 14 16.6703ZM14 11.3303C13.31 11.3303 12.75 11.8903 12.75 12.5803V13.9303C12.75 14.6203 13.31 15.1803 14 15.1803C14.69 15.1803 15.25 14.6203 15.25 13.9303V12.5803C15.25 11.8903 14.69 11.3303 14 11.3303Z" fill="currentColor"/>
</svg>
