<svg width="24" height="24" viewBox="0 0 24 24" fill="none" xmlns="http://www.w3.org/2000/svg">
<path d="M15.7204 9.68953C13.6704 7.62953 10.3304 7.62953 8.28035 9.68953C6.22035 11.7495 6.22035 15.0795 8.28035 17.1295C10.3404 19.1895 13.6704 19.1895 15.7204 17.1295C17.7804 15.0695 17.7804 11.7395 15.7204 9.68953ZM12.5304 13.9395L10.9404 15.5295C10.7904 15.6795 10.6004 15.7495 10.4104 15.7495C10.2204 15.7495 10.0204 15.6795 9.88035 15.5295C9.59035 15.2395 9.59035 14.7595 9.88035 14.4595L11.4704 12.8695C11.7604 12.5795 12.2404 12.5795 12.5404 12.8695C12.8304 13.1695 12.8304 13.6495 12.5304 13.9395Z" fill="currentColor"/>
<path d="M19.6001 5.80875C19.3801 5.58875 19.1001 5.46875 18.7901 5.46875C18.4801 5.46875 18.2001 5.58875 17.9801 5.79875C17.5301 6.24875 17.5301 6.96875 17.9801 7.41875C18.2001 7.63875 18.4801 7.75875 18.7901 7.75875C19.1001 7.75875 19.3801 7.63875 19.6001 7.42875C19.8201 7.20875 19.9401 6.92875 19.9401 6.61875C19.9401 6.30875 19.8201 6.01875 19.6001 5.80875Z" fill="currentColor"/>
<path d="M6.01957 19.3908C5.79957 19.1708 5.51957 19.0508 5.20957 19.0508C4.89957 19.0508 4.61957 19.1708 4.39957 19.3808C4.17957 19.6008 4.05957 19.8808 4.05957 20.1908C4.05957 20.5008 4.17957 20.7808 4.39957 21.0008C4.61957 21.2208 4.91957 21.3308 5.20957 21.3308C5.49957 21.3308 5.79957 21.2208 6.01957 20.9908C6.45957 20.5608 6.45957 19.8308 6.01957 19.3908Z" fill="currentColor"/>
<path d="M22.4096 12.6017C22.1996 12.3817 21.9096 12.2717 21.5996 12.2617C21.2896 12.2617 21.0096 12.3817 20.7896 12.6017C20.3396 13.0517 20.3396 13.7717 20.7896 14.2217C21.0096 14.4417 21.3096 14.5517 21.5996 14.5517C21.8896 14.5517 22.1896 14.4417 22.4096 14.2217C22.8596 13.7717 22.8596 13.0417 22.4096 12.6017Z" fill="currentColor"/>
<path d="M3.21043 12.5994C2.77043 12.1594 2.04043 12.1494 1.59043 12.5994C1.14043 13.0494 1.14043 13.7694 1.59043 14.2194C1.81043 14.4394 2.11043 14.5494 2.40043 14.5494C2.69043 14.5494 2.99043 14.4394 3.21043 14.2194C3.65043 13.7694 3.65043 13.0394 3.21043 12.5994Z" fill="currentColor"/>
<path d="M19.6001 19.3883C19.1501 18.9383 18.4301 18.9383 17.9801 19.3883C17.5301 19.8383 17.5301 20.5583 17.9801 21.0083C18.2001 21.2283 18.5001 21.3383 18.7901 21.3383C19.0801 21.3383 19.3801 21.2283 19.6001 21.0083C19.8201 20.7883 19.9401 20.4983 19.9401 20.1983C19.9401 19.8883 19.8201 19.5983 19.6001 19.3883Z" fill="currentColor"/>
<path d="M6.01957 5.80875C5.79957 5.58875 5.51957 5.46875 5.20957 5.46875C4.89957 5.46875 4.61957 5.58875 4.39957 5.79875C4.17957 6.01875 4.05957 6.29875 4.05957 6.60875C4.05957 6.91875 4.17957 7.20875 4.39957 7.41875C4.61957 7.63875 4.89957 7.75875 5.20957 7.75875C5.51957 7.75875 5.79957 7.63875 6.01957 7.42875C6.45957 6.97875 6.45957 6.24875 6.01957 5.80875Z" fill="currentColor"/>
<path d="M12.8096 3.00156C12.8096 2.99156 12.8096 2.99156 12.8096 3.00156C12.3596 2.55156 11.6396 2.55156 11.1896 3.00156C10.9696 3.22156 10.8496 3.51156 10.8496 3.81156C10.8496 4.12156 10.9696 4.40156 11.1796 4.62156C11.3996 4.84156 11.6796 4.96156 11.9896 4.96156C12.2996 4.96156 12.5796 4.84156 12.7996 4.62156C13.2596 4.17156 13.2596 3.44156 12.8096 3.00156Z" fill="currentColor"/>
</svg>
