<svg width="24" height="24" viewBox="0 0 24 24" fill="none" xmlns="http://www.w3.org/2000/svg">
<path d="M19.48 7.09052C19.22 6.77052 18.75 6.72052 18.43 6.98052C18.11 7.24052 18.06 7.71052 18.32 8.03052C19.45 9.43052 20.08 11.0905 20.14 12.8305C20.3 17.3105 16.78 21.0905 12.29 21.2405C7.80003 21.4005 4.03003 17.8805 3.87003 13.4005C3.71003 8.92052 7.23003 5.14052 11.72 4.99052C12.29 4.97052 12.89 5.02052 13.54 5.15052C13.58 5.16052 13.62 5.15052 13.66 5.15052C13.76 5.20052 13.88 5.23052 13.99 5.23052C14.16 5.23052 14.32 5.18052 14.46 5.06052C14.78 4.80052 14.83 4.33052 14.58 4.01052L12.6 1.54052C12.34 1.22052 11.87 1.16052 11.55 1.42052C11.23 1.68052 11.18 2.15052 11.43 2.47052L12.26 3.50052C12.07 3.49052 11.87 3.48052 11.68 3.49052C6.37003 3.67052 2.20003 8.15052 2.39003 13.4605C2.58003 18.7705 7.05003 22.9405 12.36 22.7505C17.67 22.5605 21.84 18.0905 21.65 12.7805C21.56 10.7105 20.82 8.74052 19.48 7.09052Z" fill="currentColor"/>
<path d="M12.3796 16.9203H10.0896C9.67964 16.9203 9.33964 16.5803 9.33964 16.1703C9.33964 15.7603 9.67964 15.4203 10.0896 15.4203H12.3796C12.8096 15.4203 13.1596 15.0703 13.1596 14.6403C13.1596 14.2103 12.8096 13.8603 12.3796 13.8603H10.0896C9.84964 13.8603 9.61964 13.7403 9.47964 13.5503C9.33964 13.3603 9.29964 13.1003 9.37964 12.8703L10.1396 10.5803C10.2396 10.2703 10.5296 10.0703 10.8496 10.0703H13.9096C14.3196 10.0703 14.6596 10.4103 14.6596 10.8203C14.6596 11.2303 14.3196 11.5703 13.9096 11.5703H11.3896L11.1296 12.3603H12.3796C13.6396 12.3603 14.6596 13.3803 14.6596 14.6403C14.6596 15.9003 13.6396 16.9203 12.3796 16.9203Z" fill="currentColor"/>
</svg>
