<svg width="24" height="24" viewBox="0 0 24 24" fill="none" xmlns="http://www.w3.org/2000/svg">
<path d="M14.4304 16.9203H12.1404C11.7304 16.9203 11.3904 16.5803 11.3904 16.1703C11.3904 15.7603 11.7304 15.4203 12.1404 15.4203H14.4304C14.8604 15.4203 15.2104 15.0703 15.2104 14.6403C15.2104 14.2103 14.8604 13.8603 14.4304 13.8603H12.1404C11.9004 13.8603 11.6704 13.7403 11.5304 13.5503C11.3904 13.3603 11.3504 13.1003 11.4304 12.8703L12.1904 10.5803C12.2904 10.2703 12.5804 10.0703 12.9004 10.0703H15.9604C16.3704 10.0703 16.7104 10.4103 16.7104 10.8203C16.7104 11.2303 16.3704 11.5703 15.9604 11.5703H13.4404L13.1804 12.3603H14.4304C15.6904 12.3603 16.7104 13.3803 16.7104 14.6403C16.7104 15.9003 15.6804 16.9203 14.4304 16.9203Z" fill="currentColor"/>
<path d="M9.54041 16.9208C9.13041 16.9208 8.79041 16.5808 8.79041 16.1708V12.7808L8.60041 13.0008C8.32041 13.3108 7.85041 13.3308 7.54041 13.0608C7.24041 12.7808 7.21041 12.3108 7.49041 12.0008L8.99041 10.3308C9.20041 10.1008 9.53041 10.0208 9.82041 10.1308C10.1104 10.2408 10.3004 10.5208 10.3004 10.8308V16.1808C10.2904 16.5908 9.96041 16.9208 9.54041 16.9208Z" fill="currentColor"/>
<path d="M19.6896 7.3488C19.4396 7.0188 18.9696 6.9488 18.6396 7.1988C18.3096 7.4488 18.2396 7.9188 18.4896 8.2488C19.5696 9.6888 20.1396 11.3688 20.1396 13.1088C20.1396 17.5988 16.4896 21.2488 11.9996 21.2488C7.50961 21.2488 3.85961 17.5988 3.85961 13.1088C3.85961 8.6188 7.50961 4.9788 11.9996 4.9788C12.5796 4.9788 13.1696 5.0488 13.8096 5.1988C13.8396 5.2088 13.8696 5.1988 13.8996 5.1988C13.9296 5.1988 13.9496 5.2188 13.9696 5.2188C13.9996 5.2188 14.0196 5.2088 14.0496 5.2088C14.0796 5.2088 14.1096 5.1988 14.1496 5.1888C14.2096 5.1788 14.2596 5.1488 14.3096 5.1288C14.3396 5.1088 14.3696 5.0988 14.3996 5.0788C14.4096 5.0688 14.4296 5.0688 14.4396 5.0588C14.4696 5.0388 14.4796 5.0088 14.4996 4.9888C14.5396 4.9488 14.5696 4.9188 14.5996 4.8688C14.6296 4.8288 14.6396 4.7788 14.6596 4.7288C14.6696 4.6988 14.6896 4.6688 14.6996 4.6388C14.6996 4.6188 14.6996 4.6088 14.6996 4.5888C14.7096 4.5388 14.7096 4.4888 14.6996 4.4388C14.6996 4.3888 14.6996 4.3488 14.6896 4.2988C14.6796 4.2588 14.6596 4.2188 14.6396 4.1688C14.6196 4.1188 14.5996 4.0688 14.5696 4.0288C14.5696 4.0188 14.5696 4.0088 14.5596 3.9988L12.5796 1.5288C12.3196 1.2088 11.8496 1.1488 11.5296 1.4088C11.2096 1.6688 11.1596 2.1388 11.4096 2.4588L12.2296 3.4788C12.1496 3.4788 12.0696 3.4688 11.9896 3.4688C6.67961 3.4688 2.34961 7.7888 2.34961 13.1088C2.34961 18.4288 6.66961 22.7488 11.9896 22.7488C17.3096 22.7488 21.6296 18.4288 21.6296 13.1088C21.6396 11.0388 20.9596 9.0488 19.6896 7.3488Z" fill="currentColor"/>
</svg>
