<svg width="24" height="24" viewBox="0 0 24 24" fill="none" xmlns="http://www.w3.org/2000/svg">
<path d="M19.6896 7.34849C19.4396 7.01849 18.9696 6.94849 18.6396 7.19849C18.3096 7.44849 18.2396 7.91849 18.4896 8.24849C19.5696 9.68849 20.1396 11.3685 20.1396 13.1085C20.1396 17.5985 16.4896 21.2485 11.9996 21.2485C7.50961 21.2485 3.85961 17.5985 3.85961 13.1085C3.85961 8.61849 7.50961 4.97849 11.9996 4.97849C12.5796 4.97849 13.1696 5.04849 13.8096 5.19849C13.8396 5.20849 13.8696 5.19849 13.9096 5.19849C13.9296 5.19849 13.9596 5.21849 13.9796 5.21849C14.0096 5.21849 14.0296 5.20849 14.0596 5.20849C14.0996 5.20849 14.1296 5.19849 14.1596 5.18849C14.2096 5.17849 14.2596 5.15849 14.3096 5.12849C14.3396 5.10849 14.3796 5.09849 14.4096 5.07849C14.4196 5.06849 14.4396 5.06849 14.4496 5.05849C14.4796 5.03849 14.4896 5.00849 14.5096 4.98849C14.5496 4.94849 14.5796 4.91849 14.6096 4.86849C14.6396 4.82849 14.6496 4.77849 14.6696 4.73849C14.6796 4.70849 14.6996 4.67849 14.7096 4.64849C14.7096 4.62849 14.7096 4.61849 14.7096 4.59849C14.7196 4.54849 14.7196 4.49849 14.7096 4.44849C14.7096 4.39849 14.7096 4.35849 14.6996 4.30849C14.6896 4.26849 14.6696 4.22849 14.6496 4.17849C14.6296 4.12849 14.6096 4.07849 14.5796 4.03849C14.5696 4.01849 14.5696 4.00849 14.5596 3.99849L12.5796 1.52849C12.3196 1.20849 11.8496 1.15849 11.5296 1.40849C11.2096 1.66849 11.1596 2.13849 11.4096 2.45849L12.2296 3.47849C12.1496 3.47849 12.0696 3.46849 11.9896 3.46849C6.67961 3.46849 2.34961 7.78849 2.34961 13.1085C2.34961 18.4285 6.66961 22.7485 11.9896 22.7485C17.3096 22.7485 21.6296 18.4285 21.6296 13.1085C21.6396 11.0385 20.9596 9.04849 19.6896 7.34849Z" fill="currentColor"/>
<path d="M9.53955 16.6708C9.12955 16.6708 8.78955 16.3308 8.78955 15.9208V12.5308L8.59955 12.7508C8.31955 13.0608 7.84955 13.0808 7.53955 12.8108C7.22955 12.5308 7.20955 12.0608 7.47955 11.7508L8.97955 10.0808C9.18955 9.85081 9.51955 9.77081 9.80955 9.88081C10.0996 9.99081 10.2896 10.2708 10.2896 10.5808V15.9308C10.2896 16.3408 9.95955 16.6708 9.53955 16.6708Z" fill="currentColor"/>
<path d="M14 16.6703C12.48 16.6703 11.25 15.4403 11.25 13.9203V12.5703C11.25 11.0503 12.48 9.82031 14 9.82031C15.52 9.82031 16.75 11.0503 16.75 12.5703V13.9203C16.75 15.4403 15.52 16.6703 14 16.6703ZM14 11.3303C13.31 11.3303 12.75 11.8903 12.75 12.5803V13.9303C12.75 14.6203 13.31 15.1803 14 15.1803C14.69 15.1803 15.25 14.6203 15.25 13.9303V12.5803C15.25 11.8903 14.69 11.3303 14 11.3303Z" fill="currentColor"/>
</svg>
