<svg width="24" height="24" viewBox="0 0 24 24" fill="none" xmlns="http://www.w3.org/2000/svg">
<path d="M21.7699 2.22891C21.4699 1.92891 20.9799 1.92891 20.6799 2.22891L2.22988 20.6889C1.92988 20.9889 1.92988 21.4789 2.22988 21.7789C2.37988 21.9189 2.56988 21.9989 2.76988 21.9989C2.96988 21.9989 3.15988 21.9189 3.30988 21.7689L21.7699 3.30891C22.0799 3.00891 22.0799 2.52891 21.7699 2.22891Z" fill="currentColor"/>
<path d="M9.00012 10.3811C10.3146 10.3811 11.3801 9.31553 11.3801 8.00109C11.3801 6.68666 10.3146 5.62109 9.00012 5.62109C7.68568 5.62109 6.62012 6.68666 6.62012 8.00109C6.62012 9.31553 7.68568 10.3811 9.00012 10.3811Z" fill="currentColor"/>
<path d="M21.6104 5.39062L20.3904 6.61063C20.4704 6.98063 20.5004 7.38063 20.5004 7.81063V12.6106L20.3704 12.5006C19.5904 11.8306 18.3304 11.8306 17.5504 12.5006L13.3904 16.0706C12.6804 16.6806 11.5604 16.7406 10.7804 16.2206L5.40039 21.6006C5.44039 21.6206 5.48039 21.6306 5.52039 21.6406C5.79039 21.7306 6.06039 21.8006 6.35039 21.8606C6.45039 21.8806 6.55039 21.9006 6.66039 21.9106C7.03039 21.9606 7.41039 22.0006 7.81039 22.0006H16.1904C19.8304 22.0006 22.0004 19.8306 22.0004 16.1906V7.81063C22.0004 6.91063 21.8704 6.10062 21.6104 5.39062Z" fill="currentColor"/>
<path d="M21.6096 5.39062L20.3896 6.61063C20.4696 6.98063 20.4996 7.38063 20.4996 7.81063V12.6106L20.3696 12.5006C19.5897 11.8306 18.3296 11.8306 17.5496 12.5006L13.3896 16.0706C12.6796 16.6806 11.5596 16.7406 10.7796 16.2206L5.38965 21.6106C6.09965 21.8706 6.90965 22.0006 7.80965 22.0006H16.1896C19.8296 22.0006 21.9996 19.8306 21.9996 16.1906V7.81063C21.9996 6.91063 21.8696 6.10062 21.6096 5.39062Z" fill="currentColor"/>
<path d="M20.46 3.54L19.4 4.6C18.68 3.87 17.6 3.5 16.19 3.5H7.81C4.99 3.5 3.5 4.99 3.5 7.81V16.19C3.5 16.95 3.63 17.6 3.85 18.16L7.59 15.65C7.93 15.42 8.32 15.3 8.71 15.29L3.54 20.46C3.14 20.06 2.81 19.58 2.56 19.03C2.19 18.23 2 17.28 2 16.19V7.81C2 4.17 4.17 2 7.81 2H16.19C18.01 2 19.46 2.54 20.46 3.54Z" fill="currentColor"/>
</svg>
