<svg width="24" height="24" viewBox="0 0 24 24" fill="none" xmlns="http://www.w3.org/2000/svg">
<path d="M22.0196 16.8203L18.8896 9.50027C18.3196 8.16027 17.4696 7.40027 16.4996 7.35027C15.5396 7.30027 14.6096 7.97027 13.8996 9.25027L11.9996 12.6603C11.5996 13.3803 11.0296 13.8103 10.4096 13.8603C9.77965 13.9203 9.14965 13.5903 8.63965 12.9403L8.41965 12.6603C7.70965 11.7703 6.82965 11.3403 5.92965 11.4303C5.02965 11.5203 4.25965 12.1403 3.74965 13.1503L2.01965 16.6003C1.39965 17.8503 1.45965 19.3003 2.18965 20.4803C2.91965 21.6603 4.18965 22.3703 5.57965 22.3703H18.3396C19.6796 22.3703 20.9296 21.7003 21.6696 20.5803C22.4296 19.4603 22.5497 18.0503 22.0196 16.8203Z" fill="currentColor"/>
<path d="M6.96984 8.38109C8.83657 8.38109 10.3498 6.86782 10.3498 5.00109C10.3498 3.13437 8.83657 1.62109 6.96984 1.62109C5.10312 1.62109 3.58984 3.13437 3.58984 5.00109C3.58984 6.86782 5.10312 8.38109 6.96984 8.38109Z" fill="currentColor"/>
</svg>
