<svg width="24" height="24" viewBox="0 0 24 24" fill="none" xmlns="http://www.w3.org/2000/svg">
<path d="M16.4201 6.4216V7.5816L9.14008 14.8616C8.18008 13.9916 7.58008 12.7116 7.58008 11.3416V6.4216C7.58008 4.3616 8.98008 2.6516 10.8801 2.1616C11.0701 2.1116 11.2501 2.2716 11.2501 2.4616V4.0016C11.2501 4.4116 11.5901 4.7516 12.0001 4.7516C12.4101 4.7516 12.7501 4.4116 12.7501 4.0016V2.4616C12.7501 2.2716 12.9301 2.1116 13.1201 2.1616C15.0201 2.6516 16.4201 4.3616 16.4201 6.4216Z" fill="currentColor"/>
<path d="M19.8098 9.81109V11.4011C19.8098 15.4711 16.6798 18.8211 12.6998 19.1711V21.3011C12.6998 21.6911 12.3898 22.0011 11.9998 22.0011C11.6098 22.0011 11.2998 21.6911 11.2998 21.3011V19.1711C10.2098 19.0711 9.17977 18.7511 8.25977 18.2411L9.28977 17.2111C10.1098 17.5911 11.0298 17.8111 11.9998 17.8111C15.5398 17.8111 18.4198 14.9311 18.4198 11.4011V9.81109C18.4198 9.43109 18.7298 9.12109 19.1198 9.12109C19.4998 9.12109 19.8098 9.43109 19.8098 9.81109Z" fill="currentColor"/>
<path d="M16.4202 10.0781V11.5281C16.4202 14.1081 14.2002 16.1781 11.5602 15.9281C11.2802 15.8981 11.0002 15.8481 10.7402 15.7581L16.4202 10.0781Z" fill="currentColor"/>
<path d="M21.7701 2.22891C21.4701 1.92891 20.9801 1.92891 20.6801 2.22891L7.23012 15.6789C6.20012 14.5489 5.58012 13.0489 5.58012 11.3989V9.80891C5.58012 9.42891 5.27012 9.11891 4.88012 9.11891C4.50012 9.11891 4.19012 9.42891 4.19012 9.80891V11.3989C4.19012 13.4289 4.97012 15.2789 6.24012 16.6689L2.22012 20.6889C1.92012 20.9889 1.92012 21.4789 2.22012 21.7789C2.38012 21.9189 2.57012 21.9989 2.77012 21.9989C2.97012 21.9989 3.16012 21.9189 3.31012 21.7689L21.7701 3.30891C22.0801 3.00891 22.0801 2.52891 21.7701 2.22891Z" fill="currentColor"/>
</svg>
