<svg width="24" height="24" viewBox="0 0 24 24" fill="none" xmlns="http://www.w3.org/2000/svg">
<path opacity="0.4" d="M20.7098 17.5195C20.3398 18.7395 19.6098 19.6795 18.5698 20.2595C18.5298 20.0995 18.5098 19.9295 18.5098 19.7595C18.5098 18.5395 19.4998 17.5395 20.7098 17.5195Z" fill="currentColor"/>
<path d="M21 7.52V9.48397C21 10.0065 20.586 10.4294 20.08 10.56L17.13 11.38C15.57 11.78 14.53 13.13 14.53 14.74V16.2849C14.53 16.7595 14.1873 17.1556 13.7612 17.3644C12.7457 17.8619 11.9698 18.8714 11.677 20.0107C11.5395 20.5456 11.1023 21 10.55 21H7.52C4.07 21 2 18.94 2 15.48V7.52C2 4.06 4.07 2 7.52 2H15.48C18.93 2 21 4.06 21 7.52Z" fill="currentColor"/>
<path d="M22.31 12.251C22.05 12.061 21.63 11.861 21 11.921C20.84 11.931 20.67 11.961 20.48 12.011L17.5 12.831C16.61 13.061 16.03 13.811 16.03 14.741V18.651C15.8 18.571 15.55 18.521 15.29 18.521C14.05 18.521 13.04 19.521 13.04 20.761C13.04 20.841 13.04 20.921 13.05 21.001C13.17 22.121 14.13 23.001 15.29 23.001C16.51 23.001 17.5 22.011 17.52 20.801C17.52 20.781 17.53 20.771 17.53 20.761V17.071L20.98 16.121L21.5 15.981V17.661C21.27 17.581 21.02 17.521 20.75 17.521H20.71C19.5 17.541 18.51 18.541 18.51 19.761C18.51 19.931 18.53 20.101 18.57 20.261C18.8 21.261 19.69 22.011 20.75 22.011C21.98 22.011 22.97 21.021 22.99 19.801C22.99 19.791 23 19.781 23 19.761V13.931C23 13.171 22.77 12.611 22.31 12.251ZM15.29 21.501C14.96 21.501 14.68 21.291 14.59 21.001C14.55 20.931 14.54 20.841 14.54 20.761C14.54 20.351 14.88 20.021 15.29 20.021C15.69 20.021 16.03 20.351 16.03 20.761C16.03 20.841 16.02 20.911 15.99 20.981C15.9 21.281 15.62 21.501 15.29 21.501ZM20.75 20.511C20.35 20.511 20.01 20.171 20.01 19.761C20.01 19.361 20.35 19.021 20.75 19.021C21.16 19.021 21.5 19.361 21.5 19.761C21.5 20.171 21.16 20.511 20.75 20.511Z" fill="currentColor"/>
</svg>
