<svg width="24" height="24" viewBox="0 0 24 24" fill="none" xmlns="http://www.w3.org/2000/svg">
<path d="M21.7197 6.27879V7.44879C21.7197 8.42879 21.3297 9.26879 20.6397 9.75879C20.2097 10.0788 19.6797 10.2288 19.1297 10.2288C18.7897 10.2288 18.4497 10.1788 18.0997 10.0588L12.7197 8.26879V17.9988C12.7197 20.6188 10.5897 22.7488 7.96973 22.7488C5.34973 22.7488 3.21973 20.6188 3.21973 17.9988C3.21973 15.3788 5.34973 13.2488 7.96973 13.2488C9.22973 13.2488 10.3697 13.7488 11.2197 14.5488V3.99879C11.2197 3.02879 11.6197 2.18879 12.3097 1.68879C12.9997 1.19879 13.9197 1.08879 14.8397 1.38879L19.2597 2.86879C20.6197 3.31879 21.7197 4.84879 21.7197 6.27879Z" fill="currentColor"/>
</svg>
