<svg width="24" height="24" viewBox="0 0 24 24" fill="none" xmlns="http://www.w3.org/2000/svg">
<path d="M20.8904 5.1786V16.4786C20.8904 18.4586 19.2804 20.0686 17.3004 20.0686C15.3304 20.0686 13.7104 18.4586 13.7104 16.4786C13.7104 14.5086 15.3304 12.8986 17.3004 12.8986C18.1404 12.8986 18.8904 13.1886 19.5004 13.6686V7.7186L10.2904 10.3386V18.4086C10.2904 20.3886 8.67035 21.9986 6.70035 21.9986C4.72035 21.9986 3.11035 20.3886 3.11035 18.4086C3.11035 16.4386 4.72035 14.8286 6.70035 14.8286C7.53035 14.8286 8.28035 15.1186 8.89035 15.5886V6.7486C8.89035 5.2786 9.78035 4.1386 11.1904 3.7586L16.9704 2.1786C18.1404 1.8586 19.1304 1.9686 19.8304 2.5086C20.5403 3.0386 20.8904 3.9386 20.8904 5.1786Z" fill="currentColor"/>
</svg>
