<svg width="24" height="24" viewBox="0 0 24 24" fill="none" xmlns="http://www.w3.org/2000/svg">
<path d="M2.57963 9.41928C2.49963 9.41928 2.40963 9.40928 2.32963 9.37928C1.93963 9.23928 1.73963 8.80928 1.86963 8.41928C2.53963 6.53928 3.69963 4.88928 5.24963 3.63928C5.56963 3.37928 6.03963 3.42928 6.29963 3.74928C6.55963 4.06928 6.50963 4.53928 6.18963 4.80928C4.86963 5.87928 3.85963 7.29928 3.28963 8.91928C3.17963 9.22928 2.88963 9.41928 2.57963 9.41928Z" fill="currentColor"/>
<path d="M2.58 16.08C2.27 16.08 1.98 15.89 1.87 15.58C1.46 14.42 1.25 13.21 1.25 12C1.25 11.59 1.59 11.25 2 11.25C2.41 11.25 2.75 11.59 2.75 12C2.75 13.04 2.93 14.08 3.29 15.08C3.43 15.47 3.22 15.9 2.83 16.04C2.75 16.07 2.66 16.08 2.58 16.08Z" fill="currentColor"/>
<path d="M11.9996 22.7515C10.9396 22.7515 9.88962 22.5915 8.86962 22.2815C8.46962 22.1615 8.24962 21.7415 8.36962 21.3415C8.48962 20.9415 8.90962 20.7215 9.30962 20.8415C10.1796 21.1115 11.0896 21.2415 11.9996 21.2415C17.0996 21.2415 21.2496 17.0915 21.2496 11.9915C21.2496 11.4715 21.1996 10.9315 21.0996 10.3615C21.0296 9.95151 21.2996 9.56151 21.7096 9.49151C22.1096 9.42151 22.5096 9.69151 22.5796 10.1015C22.6996 10.7615 22.7596 11.3815 22.7596 12.0015C22.7496 17.9315 17.9296 22.7515 11.9996 22.7515Z" fill="currentColor"/>
<path d="M5.72021 20.4981C5.55021 20.4981 5.39021 20.4481 5.25021 20.3281C4.68021 19.8681 4.22021 19.4281 3.83021 18.9781C3.56021 18.6681 3.60021 18.1881 3.91021 17.9181C4.23021 17.6481 4.70021 17.6881 4.97021 17.9981C5.30021 18.3781 5.70021 18.7581 6.19021 19.1581C6.51021 19.4181 6.56021 19.8881 6.30021 20.2081C6.16021 20.3981 5.94021 20.4981 5.72021 20.4981Z" fill="currentColor"/>
<path d="M20.2404 7.09C20.0004 7.09 19.7704 6.98 19.6204 6.76C17.9004 4.25 15.0404 2.75 12.0004 2.75C11.0904 2.75 10.1804 2.88 9.3104 3.15C8.9204 3.27 8.5004 3.05 8.3704 2.65C8.2404 2.25 8.4704 1.83 8.8704 1.71C9.8904 1.41 10.9404 1.25 12.0004 1.25C15.5404 1.25 18.8504 3 20.8604 5.92C21.0904 6.26 21.0104 6.73 20.6704 6.96C20.5404 7.05 20.3904 7.09 20.2404 7.09Z" fill="currentColor"/>
<path d="M16.03 6.49851C15.7 6.24851 15.1 5.99851 14.14 6.25851L10.95 7.11851C10.03 7.37851 9.43 8.15851 9.43 9.11851V10.7585V13.3385C9.17 13.2385 8.89 13.1785 8.59 13.1785C7.3 13.1785 6.25 14.2285 6.25 15.5185C6.25 16.8085 7.3 17.8585 8.59 17.8585C9.87 17.8585 10.9 16.8285 10.92 15.5585C10.92 15.5485 10.93 15.5385 10.93 15.5185V11.3285L15.25 10.1485V12.2785C14.99 12.1785 14.71 12.1185 14.41 12.1185C13.12 12.1185 12.07 13.1685 12.07 14.4585C12.07 15.7485 13.12 16.7985 14.41 16.7985C15.7 16.7985 16.75 15.7485 16.75 14.4585V9.16851V8.24851C16.75 7.44851 16.51 6.85851 16.03 6.49851ZM8.59 16.3585C8.13 16.3585 7.75 15.9785 7.75 15.5185C7.75 15.0585 8.13 14.6785 8.59 14.6785C9.05 14.6785 9.43 15.0585 9.43 15.5185C9.43 15.9785 9.05 16.3585 8.59 16.3585ZM14.41 15.2985C13.95 15.2985 13.57 14.9185 13.57 14.4585C13.57 13.9985 13.95 13.6185 14.41 13.6185C14.87 13.6185 15.25 13.9985 15.25 14.4585C15.25 14.9185 14.87 15.2985 14.41 15.2985Z" fill="currentColor"/>
</svg>
