<svg width="24" height="24" viewBox="0 0 24 24" fill="none" xmlns="http://www.w3.org/2000/svg">
<path d="M21.6199 12.099L20.9999 11.889L19.3299 11.339C18.7499 11.149 18.1599 11.219 17.7099 11.539C17.2699 11.869 17.0099 12.399 17.0099 13.019V17.809C16.6099 17.589 16.1599 17.449 15.6699 17.449C14.1299 17.449 12.8799 18.709 12.8799 20.249C12.8799 20.509 12.9199 20.759 12.9799 20.999C13.3099 22.189 14.3899 23.049 15.6699 23.049C17.1999 23.049 18.4399 21.829 18.4699 20.309V15.699C18.4899 15.699 18.4999 15.709 18.5199 15.719L20.7999 16.479C20.8399 16.489 20.8899 16.509 20.9299 16.509C21.1099 16.559 21.2699 16.579 21.4399 16.579C21.7999 16.579 22.1399 16.479 22.4199 16.269C22.8699 15.949 23.1199 15.419 23.1199 14.799V14.199C23.1199 13.289 22.4799 12.389 21.6199 12.099ZM15.6699 21.589C15.2099 21.589 14.8099 21.359 14.5699 20.999C14.4199 20.789 14.3399 20.529 14.3399 20.249C14.3399 19.519 14.9399 18.919 15.6699 18.919C16.4099 18.919 17.0099 19.519 17.0099 20.249C17.0099 20.479 16.9499 20.689 16.8499 20.869C16.6299 21.299 16.1799 21.589 15.6699 21.589Z" fill="currentColor"/>
<path d="M23.1199 14.199V14.799C23.1199 15.419 22.8699 15.949 22.4199 16.269C22.1399 16.479 21.7999 16.579 21.4399 16.579C21.2699 16.579 21.1099 16.559 20.9299 16.509C20.8899 16.509 20.8399 16.489 20.7999 16.479L18.5199 15.719C18.4999 15.709 18.4899 15.699 18.4699 15.699V20.309C18.4399 21.829 17.1999 23.049 15.6699 23.049C14.3899 23.049 13.3099 22.189 12.9799 20.999C12.9199 20.759 12.8799 20.509 12.8799 20.249C12.8799 18.709 14.1299 17.449 15.6699 17.449C16.1599 17.449 16.6099 17.589 17.0099 17.809V13.019C17.0099 12.399 17.2699 11.869 17.7099 11.539C18.1599 11.219 18.7499 11.149 19.3299 11.339L20.9999 11.889L21.6199 12.099C22.4799 12.389 23.1199 13.289 23.1199 14.199Z" fill="currentColor"/>
<path d="M21 7.52V9.62C21 9.96 20.67 10.2 20.34 10.09L19.8 9.91C18.75 9.58 17.68 9.72 16.81 10.34C15.98 10.96 15.51 11.94 15.51 13.02V15.47C15.51 15.74 15.3 15.96 15.03 16C12.97 16.31 11.38 18.1 11.38 20.25C11.38 20.3 11.38 20.35 11.38 20.4C11.39 20.71 11.16 21 10.84 21H7.52C4.07 21 2 18.94 2 15.48V7.52C2 4.06 4.07 2 7.52 2H15.48C18.93 2 21 4.06 21 7.52Z" fill="currentColor"/>
</svg>
