<svg width="24" height="24" viewBox="0 0 24 24" fill="none" xmlns="http://www.w3.org/2000/svg">
<path d="M17.49 9.59965L5.6 16.7696C4.9 17.1896 4 16.6896 4 15.8696V7.86965C4 4.37965 7.77 2.19965 10.8 3.93965L15.39 6.57965L17.48 7.77965C18.17 8.18965 18.18 9.18965 17.49 9.59965Z" fill="currentColor"/>
<path d="M18.0898 15.4606L14.0398 17.8006L9.99981 20.1306C8.54981 20.9606 6.90981 20.7906 5.71981 19.9506C5.13981 19.5506 5.20981 18.6606 5.81981 18.3006L18.5298 10.6806C19.1298 10.3206 19.9198 10.6606 20.0298 11.3506C20.2798 12.9006 19.6398 14.5706 18.0898 15.4606Z" fill="currentColor"/>
</svg>
