<svg width="24" height="24" viewBox="0 0 24 24" fill="none" xmlns="http://www.w3.org/2000/svg">
<path d="M19.0698 19.8211C18.8798 19.8211 18.6898 19.7511 18.5398 19.6011C18.2498 19.3111 18.2498 18.8311 18.5398 18.5411C22.1498 14.9311 22.1498 9.06109 18.5398 5.46109C18.2498 5.17109 18.2498 4.69109 18.5398 4.40109C18.8298 4.11109 19.3098 4.11109 19.5998 4.40109C23.7898 8.59109 23.7898 15.4111 19.5998 19.6011C19.4498 19.7511 19.2598 19.8211 19.0698 19.8211Z" fill="currentColor"/>
<path d="M4.93031 19.8211C4.74031 19.8211 4.55031 19.7511 4.40031 19.6011C0.210312 15.4111 0.210312 8.59109 4.40031 4.40109C4.69031 4.11109 5.17031 4.11109 5.46031 4.40109C5.75031 4.69109 5.75031 5.17109 5.46031 5.46109C1.85031 9.07109 1.85031 14.9411 5.46031 18.5411C5.75031 18.8311 5.75031 19.3111 5.46031 19.6011C5.31031 19.7511 5.12031 19.8211 4.93031 19.8211Z" fill="currentColor"/>
<path d="M11.9998 22.7119C10.7498 22.7019 9.55976 22.5019 8.44976 22.1119C8.05976 21.9719 7.84976 21.5419 7.98976 21.1519C8.12976 20.7619 8.54976 20.5519 8.94976 20.6919C9.90976 21.0219 10.9298 21.2019 12.0098 21.2019C13.0798 21.2019 14.1098 21.0219 15.0598 20.6919C15.4498 20.5619 15.8798 20.7619 16.0198 21.1519C16.1598 21.5419 15.9498 21.9719 15.5598 22.1119C14.4398 22.5019 13.2498 22.7119 11.9998 22.7119Z" fill="currentColor"/>
<path d="M15.2998 3.33906C15.2198 3.33906 15.1298 3.32906 15.0498 3.29906C14.0998 2.95906 13.0698 2.78906 11.9998 2.78906C10.9298 2.78906 9.90976 2.96906 8.94976 3.29906C8.54976 3.42906 8.12976 3.22906 7.98976 2.83906C7.84976 2.44906 8.05976 2.01906 8.44976 1.87906C9.56976 1.48906 10.7598 1.28906 11.9998 1.28906C13.2398 1.28906 14.4398 1.48906 15.5498 1.87906C15.9398 2.01906 16.1498 2.44906 16.0098 2.83906C15.8998 3.14906 15.6098 3.33906 15.2998 3.33906Z" fill="currentColor"/>
<path d="M8.74023 12.0001V10.3301C8.74023 8.25014 10.2102 7.40014 12.0102 8.44014L13.4602 9.28014L14.9102 10.1201C16.7102 11.1601 16.7102 12.8601 14.9102 13.9001L13.4602 14.7401L12.0102 15.5801C10.2102 16.6201 8.74023 15.7701 8.74023 13.6901V12.0001Z" fill="currentColor"/>
</svg>
