<svg width="24" height="24" viewBox="0 0 24 24" fill="none" xmlns="http://www.w3.org/2000/svg">
<path d="M21.8497 10.2506C21.0697 5.80065 17.2397 2.35065 12.7297 2.03065C6.62972 1.59065 1.58972 6.64065 2.02972 12.7306C2.34972 17.2406 5.79972 21.0606 10.2497 21.8406C11.3997 22.0406 12.5197 22.0406 13.5897 21.8606C13.8997 21.8106 14.0797 21.4706 13.9597 21.1906C13.6597 20.5106 13.4997 19.7606 13.4997 18.9906C13.4997 17.3006 14.2497 15.7406 15.5697 14.7006C16.5397 13.9206 17.7597 13.4906 18.9997 13.4906C19.7797 13.4906 20.5197 13.6506 21.1897 13.9506C21.4797 14.0806 21.8097 13.8906 21.8697 13.5806C22.0497 12.5206 22.0497 11.4006 21.8497 10.2506ZM14.4997 13.5706L13.2997 14.2606L12.0997 14.9506C10.6097 15.8106 9.38972 15.1106 9.38972 13.3806V12.0006V10.6106C9.38972 8.89065 10.6097 8.18065 12.0997 9.04065L13.2997 9.73065L14.4997 10.4206C15.9897 11.3006 15.9897 12.7006 14.4997 13.5706Z" fill="currentColor"/>
<path d="M19 15C18.06 15 17.19 15.33 16.5 15.88C15.58 16.61 15 17.74 15 19C15 19.75 15.21 20.46 15.58 21.06C16.27 22.22 17.54 23 19 23C20.01 23 20.93 22.63 21.63 22C21.94 21.74 22.21 21.42 22.42 21.06C22.79 20.46 23 19.75 23 19C23 16.79 21.21 15 19 15ZM20.5 19.73H19.75V20.51C19.75 20.92 19.41 21.26 19 21.26C18.59 21.26 18.25 20.92 18.25 20.51V19.73H17.5C17.09 19.73 16.75 19.39 16.75 18.98C16.75 18.57 17.09 18.23 17.5 18.23H18.25V17.52C18.25 17.11 18.59 16.77 19 16.77C19.41 16.77 19.75 17.11 19.75 17.52V18.23H20.5C20.91 18.23 21.25 18.57 21.25 18.98C21.25 19.39 20.91 19.73 20.5 19.73Z" fill="currentColor"/>
</svg>
