<svg width="24" height="24" viewBox="0 0 24 24" fill="none" xmlns="http://www.w3.org/2000/svg">
<path d="M19.6297 7.23844C19.9297 7.70844 19.7697 8.33844 19.2897 8.62844L18.6997 8.97844L5.58967 16.8384C5.10967 17.1284 4.47967 16.9684 4.19967 16.4784C3.19967 14.7384 2.74967 12.6184 3.13967 10.3984C3.79967 6.62844 6.89967 3.62844 10.6897 3.08844C14.4397 2.55844 17.8297 4.35844 19.6297 7.23844Z" fill="currentColor"/>
<path d="M20.8902 13.4308C20.2101 17.6808 16.4502 20.9308 12.1402 21.0008C10.2402 21.0308 8.48015 20.4808 7.02015 19.4908C6.40015 19.0808 6.42015 18.1608 7.06015 17.7808L19.4701 10.4908C20.1201 10.1108 20.9201 10.5508 20.9802 11.3008C21.0302 12.0008 21.0001 12.7108 20.8902 13.4308Z" fill="currentColor"/>
</svg>
