<svg width="24" height="24" viewBox="0 0 24 24" fill="none" xmlns="http://www.w3.org/2000/svg">
<path d="M11.25 7.85938H2V16.1894C2 16.2494 2 16.3094 2.01 16.3594H11.25V7.85938Z" fill="currentColor"/>
<path d="M7.69043 6.36H11.2504V2H7.72043V6.24C7.72043 6.28 7.70043 6.32 7.69043 6.36Z" fill="currentColor"/>
<path d="M6.21988 6.24016V2.16016C3.99988 2.62016 2.54988 4.10016 2.12988 6.36016H6.23988C6.22988 6.32016 6.21988 6.28016 6.21988 6.24016Z" fill="currentColor"/>
<path d="M16.22 2H12.75V6.36H16.22V2Z" fill="currentColor"/>
<path d="M17.71 6.35844H21.87C21.45 4.07844 19.98 2.58844 17.72 2.14844V6.32844C17.72 6.33844 17.71 6.34844 17.71 6.35844Z" fill="currentColor"/>
<path d="M17.7197 21.8494C19.9097 21.4194 21.3497 20.0194 21.8197 17.8594H17.7197V21.8494Z" fill="currentColor"/>
<path d="M16.22 17.8594H12.75V21.9994H16.22V17.8594Z" fill="currentColor"/>
<path d="M12.75 16.3594H21.99C22 16.3094 22 16.2494 22 16.1894V7.85938H12.75V16.3594Z" fill="currentColor"/>
<path d="M11.2497 17.8594H7.71973V21.9994H11.2497V17.8594Z" fill="currentColor"/>
<path d="M2.17969 17.8594C2.64969 19.9994 4.06969 21.3994 6.21969 21.8394V17.8594H2.17969Z" fill="currentColor"/>
</svg>
