<svg width="24" height="24" viewBox="0 0 24 24" fill="none" xmlns="http://www.w3.org/2000/svg">
<path d="M6.36 7.78125H2V11.2512H6.36V7.78125Z" fill="currentColor"/>
<path d="M6.36039 6.28891V2.12891C4.08039 2.54891 2.59039 4.01891 2.15039 6.27891H6.33039C6.34039 6.27891 6.35039 6.28891 6.36039 6.28891Z" fill="currentColor"/>
<path d="M6.36 16.31V12.75H2V16.28H6.24C6.28 16.28 6.32 16.3 6.36 16.31Z" fill="currentColor"/>
<path d="M21.8504 6.27969C21.4204 4.08969 20.0204 2.64969 17.8604 2.17969V6.27969H21.8504Z" fill="currentColor"/>
<path d="M16.3604 11.25V2.01C16.3104 2 16.2504 2 16.1904 2H7.86035V11.25H16.3604Z" fill="currentColor"/>
<path d="M22.0004 12.75H17.8604V16.28H22.0004V12.75Z" fill="currentColor"/>
<path d="M17.8604 21.8212C20.0004 21.3512 21.4004 19.9313 21.8404 17.7812H17.8604V21.8212Z" fill="currentColor"/>
<path d="M6.24016 17.7817H2.16016C2.62016 20.0017 4.10016 21.4517 6.36016 21.8717V17.7617C6.32016 17.7717 6.28016 17.7817 6.24016 17.7817Z" fill="currentColor"/>
<path d="M22.0004 7.78125H17.8604V11.2512H22.0004V7.78125Z" fill="currentColor"/>
<path d="M7.86035 12.75V22H16.1904C16.2504 22 16.3104 22 16.3604 21.99V12.75H7.86035Z" fill="currentColor"/>
</svg>
