<svg width="24" height="24" viewBox="0 0 24 24" fill="none" xmlns="http://www.w3.org/2000/svg">
<path d="M19.3304 16.7503C19.1704 16.7503 19.0204 16.7003 18.8804 16.6003C18.5504 16.3503 18.4804 15.8803 18.7304 15.5503C20.3004 13.4603 20.3004 10.5403 18.7304 8.45027C18.4804 8.12027 18.5504 7.65027 18.8804 7.40027C19.2104 7.15027 19.6804 7.22027 19.9304 7.55027C21.9004 10.1703 21.9004 13.8303 19.9304 16.4503C19.7904 16.6503 19.5604 16.7503 19.3304 16.7503Z" fill="currentColor"/>
<path d="M15.3501 3.78168C14.2301 3.16168 12.8001 3.32168 11.3401 4.23168L8.42008 6.06168C8.22008 6.18168 7.99008 6.25168 7.76008 6.25168H6.83008H6.33008C3.91008 6.25168 2.58008 7.58168 2.58008 10.0017V14.0017C2.58008 16.4217 3.91008 17.7517 6.33008 17.7517H6.83008H7.76008C7.99008 17.7517 8.22008 17.8217 8.42008 17.9417L11.3401 19.7717C12.2201 20.3217 13.0801 20.5917 13.8801 20.5917C14.4001 20.5917 14.9001 20.4717 15.3501 20.2217C16.4601 19.6017 17.0801 18.3117 17.0801 16.5917V7.41168C17.0801 5.69168 16.4601 4.40168 15.3501 3.78168Z" fill="currentColor"/>
</svg>
