<svg width="24" height="24" viewBox="0 0 24 24" fill="none" xmlns="http://www.w3.org/2000/svg">
<path d="M22.5304 13.4197L21.0804 11.9697L22.4804 10.5697C22.7704 10.2797 22.7704 9.79969 22.4804 9.50969C22.1904 9.21969 21.7104 9.21969 21.4204 9.50969L20.0204 10.9097L18.5704 9.45969C18.2804 9.16969 17.8004 9.16969 17.5104 9.45969C17.2204 9.74969 17.2204 10.2297 17.5104 10.5197L18.9604 11.9697L17.4704 13.4597C17.1804 13.7497 17.1804 14.2297 17.4704 14.5197C17.6204 14.6697 17.8104 14.7397 18.0004 14.7397C18.1904 14.7397 18.3804 14.6697 18.5304 14.5197L20.0204 13.0297L21.4704 14.4797C21.6204 14.6297 21.8104 14.6997 22.0004 14.6997C22.1904 14.6997 22.3804 14.6297 22.5304 14.4797C22.8204 14.1897 22.8204 13.7197 22.5304 13.4197Z" fill="currentColor"/>
<path d="M14.02 3.78168C12.9 3.16168 11.47 3.32168 10.01 4.23168L7.09 6.06168C6.89 6.18168 6.66 6.25168 6.43 6.25168H5.5H5C2.58 6.25168 1.25 7.58168 1.25 10.0017V14.0017C1.25 16.4217 2.58 17.7517 5 17.7517H5.5H6.43C6.66 17.7517 6.89 17.8217 7.09 17.9417L10.01 19.7717C10.89 20.3217 11.75 20.5917 12.55 20.5917C13.07 20.5917 13.57 20.4717 14.02 20.2217C15.13 19.6017 15.75 18.3117 15.75 16.5917V7.41168C15.75 5.69168 15.13 4.40168 14.02 3.78168Z" fill="currentColor"/>
</svg>
