<svg xmlns="http://www.w3.org/2000/svg" xmlns:xlink="http://www.w3.org/1999/xlink" width="158px" height="245px"
     viewBox="0 0 79 122" version="1.1">
    <defs>
        <linearGradient id="linear0" gradientUnits="userSpaceOnUse" x1="0" y1="0" x2="1" y2="0"
                        gradientTransform="matrix(75.198682,0,0,74.678545,2.51737,75.495805)">
            <stop offset="0" style="stop-color:rgb(98.039216%,74.901961%,0%);stop-opacity:1;"/>
            <stop offset="0.327381" style="stop-color:rgb(100%,85.098039%,0%);stop-opacity:1;"/>
            <stop offset="0.72619" style="stop-color:rgb(95.294118%,59.215686%,0%);stop-opacity:1;"/>
            <stop offset="0.769644" style="stop-color:rgb(95.294118%,59.215686%,0%);stop-opacity:1;"/>
            <stop offset="1" style="stop-color:rgb(90.196078%,42.352941%,0.784314%);stop-opacity:1;"/>
        </linearGradient>
        <clipPath id="clip1">
            <path d="M 4 33.230469 L 75.679688 33.230469 L 75.679688 117.859375 L 4 117.859375 Z M 4 33.230469 "/>
        </clipPath>
        <clipPath id="clip2">
            <path d="M 6.167969 37.230469 L 4.175781 37.65625 L 4.175781 65.515625 C 4.175781 90.15625 15.609375 107.453125 38.160156 116.929688 L 39.714844 117.574219 L 41.277344 116.929688 C 63.835938 107.453125 75.273438 90.148438 75.273438 65.515625 L 75.261719 37.65625 L 73.285156 37.230469 C 72.585938 37.078125 56.058594 33.414062 39.722656 33.414062 C 23.394531 33.414062 6.855469 37.078125 6.167969 37.230469 "/>
        </clipPath>
    </defs>
    <g id="surface1">
        <path style=" stroke:none;fill-rule:evenodd;fill:rgb(40.000001%,39.607844%,39.215687%);fill-opacity:1;"
              d="M 39.582031 0.171875 L 39.507812 0.171875 C 15.875 0.171875 0 4.804688 0 4.804688 L 0 65.660156 C 0 79.082031 3.175781 90.363281 9.246094 99.574219 C 10.121094 100.890625 11.042969 102.160156 12.035156 103.398438 C 12.054688 103.433594 12.089844 103.476562 12.117188 103.519531 C 12.238281 103.664062 12.363281 103.808594 12.488281 103.953125 C 12.53125 104.007812 12.578125 104.054688 12.613281 104.105469 C 16.714844 109.046875 21.664062 112.949219 27.628906 116.53125 C 30.609375 118.308594 32.945312 119.320312 36.378906 120.761719 C 36.394531 120.761719 36.59375 120.847656 36.894531 120.972656 C 37.769531 121.335938 39.507812 122.074219 39.507812 122.074219 L 39.542969 122.054688 L 39.582031 122.074219 C 39.582031 122.074219 41.316406 121.335938 42.195312 120.972656 C 42.496094 120.847656 42.691406 120.765625 42.710938 120.761719 C 46.148438 119.320312 48.953125 118.046875 51.933594 116.253906 C 57.910156 112.6875 62.394531 109.046875 66.480469 104.105469 C 66.722656 103.808594 66.855469 103.664062 66.972656 103.519531 C 67 103.476562 67.03125 103.433594 67.070312 103.398438 C 68.050781 102.164062 68.976562 100.886719 69.847656 99.574219 C 75.917969 90.363281 79.09375 79.082031 79.09375 65.660156 L 79.09375 4.804688 C 79.09375 4.804688 63.21875 0.171875 39.582031 0.171875 "/>
        <path style=" stroke:none;fill-rule:nonzero;fill:url(#linear0);"
              d="M 6.167969 37.230469 L 4.175781 37.65625 L 4.175781 65.515625 C 4.175781 90.15625 15.609375 107.453125 38.160156 116.929688 L 39.714844 117.574219 L 41.277344 116.929688 C 63.835938 107.453125 75.273438 90.148438 75.273438 65.515625 L 75.261719 37.65625 L 73.285156 37.230469 C 72.585938 37.078125 56.058594 33.414062 39.722656 33.414062 C 23.394531 33.414062 6.855469 37.078125 6.167969 37.230469 "/>
        <path style=" stroke:none;fill-rule:evenodd;fill:rgb(96.078432%,63.137257%,0%);fill-opacity:1;"
              d="M 6.164062 37.230469 L 4.175781 37.660156 L 4.175781 65.515625 C 4.175781 90.15625 15.609375 107.453125 38.160156 116.929688 L 39.714844 117.574219 L 41.277344 116.929688 C 63.835938 107.453125 75.273438 90.148438 75.273438 65.515625 L 75.261719 37.660156 L 73.285156 37.230469 C 72.585938 37.078125 56.058594 33.414062 39.722656 33.414062 C 23.394531 33.414062 6.855469 37.078125 6.164062 37.230469 "/>
        <path style=" stroke:none;fill-rule:nonzero;fill:rgb(100%,100%,100%);fill-opacity:1;"
              d="M 6.523438 16.917969 L 7.5 16.730469 C 8.457031 16.554688 9.628906 16.128906 9.609375 14.972656 C 9.605469 13.6875 8.511719 13.6875 7.480469 13.894531 C 7.15625 13.960938 6.832031 14.03125 6.503906 14.097656 C 6.515625 15.039062 6.523438 15.980469 6.523438 16.917969 M 6.496094 12.644531 C 6.785156 12.582031 7.058594 12.519531 7.339844 12.460938 C 8.203125 12.285156 9.28125 11.878906 9.28125 10.867188 C 9.269531 9.703125 8.230469 9.839844 7.277344 10.058594 L 6.480469 10.246094 C 6.496094 11.039062 6.496094 11.84375 6.496094 12.644531 M 4.417969 9.25 C 5.605469 8.914062 6.804688 8.617188 8.003906 8.34375 C 9.328125 8.027344 11.328125 8.015625 11.347656 10.207031 C 11.359375 11.398438 10.535156 12.367188 9.308594 12.816406 L 9.308594 12.839844 C 10.714844 12.703125 11.6875 13.457031 11.691406 14.6875 C 11.714844 17.210938 9.371094 17.945312 8.074219 18.175781 C 6.871094 18.386719 5.667969 18.609375 4.464844 18.847656 C 4.453125 15.648438 4.425781 12.445312 4.417969 9.25 "/>
        <path style=" stroke:none;fill-rule:nonzero;fill:rgb(100%,100%,100%);fill-opacity:1;"
              d="M 13.621094 7.246094 C 14.308594 7.136719 14.996094 7.015625 15.6875 6.917969 C 15.703125 8.855469 15.714844 10.804688 15.734375 12.742188 C 15.742188 14.464844 16.304688 15.511719 17.910156 15.324219 C 19.492188 15.128906 20.054688 13.949219 20.042969 12.214844 C 20.03125 10.265625 20.015625 8.3125 20.003906 6.363281 C 20.703125 6.289062 21.414062 6.214844 22.101562 6.148438 L 22.128906 12.621094 C 22.144531 15.347656 20.570312 16.59375 17.917969 16.917969 C 15.25 17.230469 13.667969 16.359375 13.65625 13.671875 C 13.636719 11.519531 13.628906 9.386719 13.621094 7.246094 "/>
        <path style=" stroke:none;fill-rule:nonzero;fill:rgb(100%,100%,100%);fill-opacity:1;"
              d="M 32.457031 15.445312 C 31.648438 15.648438 30.777344 15.835938 29.953125 15.882812 C 26.390625 16.074219 23.921875 14.664062 23.90625 11.226562 C 23.886719 7.765625 26.175781 5.601562 29.90625 5.410156 C 30.632812 5.371094 31.582031 5.46875 32.390625 5.730469 C 32.347656 6.304688 32.296875 6.871094 32.246094 7.441406 C 31.410156 7.035156 30.660156 6.972656 29.867188 7.011719 C 27.601562 7.125 26.195312 8.832031 26.195312 10.898438 C 26.203125 12.96875 27.59375 14.410156 29.941406 14.289062 C 30.804688 14.234375 31.828125 14.019531 32.347656 13.746094 C 32.378906 14.316406 32.40625 14.882812 32.457031 15.445312 "/>
        <path style=" stroke:none;fill-rule:nonzero;fill:rgb(100%,100%,100%);fill-opacity:1;"
              d="M 34.308594 5.425781 C 35.074219 5.40625 35.847656 5.386719 36.625 5.371094 C 36.625 6.734375 36.625 8.09375 36.640625 9.453125 C 38.160156 9.429688 39.714844 9.417969 41.257812 9.433594 C 41.257812 8.078125 41.257812 6.714844 41.246094 5.355469 C 42.027344 5.355469 42.800781 5.367188 43.570312 5.386719 C 43.585938 8.746094 43.585938 12.117188 43.585938 15.476562 C 42.816406 15.460938 42.042969 15.460938 41.265625 15.453125 C 41.265625 13.976562 41.257812 12.5 41.257812 11.023438 C 39.714844 11.015625 38.175781 11.019531 36.640625 11.039062 L 36.640625 15.476562 C 35.871094 15.484375 35.101562 15.503906 34.335938 15.523438 C 34.320312 12.15625 34.308594 8.789062 34.308594 5.425781 "/>
        <path style=" stroke:none;fill-rule:nonzero;fill:rgb(100%,100%,100%);fill-opacity:1;"
              d="M 45.761719 5.433594 C 48.019531 5.5 50.300781 5.605469 52.574219 5.75 C 52.574219 6.28125 52.566406 6.8125 52.566406 7.34375 C 51.058594 7.253906 49.574219 7.167969 48.058594 7.109375 L 48.058594 9.601562 C 49.4375 9.664062 50.804688 9.730469 52.175781 9.820312 L 52.175781 11.417969 C 50.804688 11.324219 49.433594 11.253906 48.058594 11.195312 L 48.058594 14.03125 C 49.574219 14.109375 51.074219 14.183594 52.582031 14.285156 L 52.582031 15.890625 C 50.300781 15.742188 48.019531 15.617188 45.742188 15.546875 C 45.75 12.175781 45.75 8.808594 45.761719 5.433594 "/>
        <path style=" stroke:none;fill-rule:nonzero;fill:rgb(100%,100%,100%);fill-opacity:1;"
              d="M 59.292969 15.0625 C 61.4375 15.296875 62.222656 13.566406 62.238281 11.734375 C 62.238281 9.964844 61.40625 8.007812 59.339844 7.773438 C 57.261719 7.542969 56.410156 9.308594 56.398438 11.09375 C 56.382812 12.941406 57.164062 14.832031 59.292969 15.0625 M 59.34375 6.179688 C 62.605469 6.546875 64.433594 8.996094 64.40625 12.03125 C 64.394531 15.082031 62.582031 17.011719 59.292969 16.652344 C 55.957031 16.300781 54.199219 14.023438 54.214844 10.910156 C 54.234375 7.804688 56.039062 5.8125 59.34375 6.179688 "/>
        <path style=" stroke:none;fill-rule:nonzero;fill:rgb(100%,100%,100%);fill-opacity:1;"
              d="M 66.316406 7.324219 C 67.167969 7.476562 68.019531 7.636719 68.867188 7.808594 C 70.152344 10.554688 71.441406 13.296875 72.722656 15.988281 C 72.730469 15.988281 72.738281 15.996094 72.738281 15.996094 C 72.769531 13.566406 72.789062 11.140625 72.820312 8.710938 C 73.480469 8.871094 74.136719 9.046875 74.789062 9.230469 C 74.769531 12.425781 74.738281 15.625 74.699219 18.824219 C 73.875 18.664062 73.023438 18.5 72.175781 18.339844 C 70.886719 15.667969 69.605469 12.941406 68.304688 10.214844 L 68.289062 10.207031 C 68.25 12.695312 68.222656 15.171875 68.1875 17.65625 C 67.53125 17.550781 66.867188 17.453125 66.210938 17.347656 C 66.253906 14.007812 66.277344 10.667969 66.316406 7.324219 "/>
        <path style=" stroke:none;fill-rule:nonzero;fill:rgb(100%,100%,100%);fill-opacity:1;"
              d="M 4.5625 24.28125 C 5.109375 24.113281 5.660156 23.945312 6.214844 23.785156 C 6.238281 25.382812 6.253906 26.980469 6.269531 28.570312 C 6.292969 29.992188 6.757812 30.804688 8.027344 30.546875 C 9.308594 30.289062 9.738281 29.257812 9.722656 27.804688 C 9.699219 26.164062 9.679688 24.53125 9.660156 22.894531 C 10.210938 22.765625 10.773438 22.636719 11.328125 22.519531 C 11.347656 24.34375 11.375 26.171875 11.40625 28 C 11.429688 30.304688 10.179688 31.460938 8.039062 31.871094 C 5.921875 32.289062 4.652344 31.660156 4.625 29.488281 C 4.601562 27.757812 4.574219 26.011719 4.5625 24.28125 "/>
        <path style=" stroke:none;fill-rule:nonzero;fill:rgb(100%,100%,100%);fill-opacity:1;"
              d="M 13.308594 22.109375 C 14.007812 21.992188 14.6875 21.863281 15.375 21.742188 C 16.46875 23.753906 17.554688 25.769531 18.628906 27.789062 L 18.667969 27.789062 C 18.628906 25.621094 18.617188 23.441406 18.589844 21.261719 C 19.125 21.1875 19.667969 21.117188 20.203125 21.050781 C 20.230469 23.960938 20.261719 26.878906 20.292969 29.785156 C 19.605469 29.871094 18.921875 29.957031 18.25 30.046875 C 17.152344 28.015625 16.046875 26 14.96875 24.015625 L 14.949219 24.015625 C 14.96875 26.171875 14.996094 28.34375 15.015625 30.507812 C 14.484375 30.589844 13.949219 30.667969 13.414062 30.757812 C 13.378906 27.871094 13.351562 24.996094 13.308594 22.109375 "/>
        <path style=" stroke:none;fill-rule:nonzero;fill:rgb(100%,100%,100%);fill-opacity:1;"
              d="M 22.210938 20.828125 C 22.8125 20.761719 23.394531 20.710938 23.996094 20.652344 C 24.011719 23.566406 24.042969 26.476562 24.066406 29.386719 C 23.480469 29.441406 22.878906 29.496094 22.292969 29.566406 C 22.265625 26.652344 22.246094 23.742188 22.210938 20.828125 "/>
        <path style=" stroke:none;fill-rule:nonzero;fill:rgb(100%,100%,100%);fill-opacity:1;"
              d="M 25.363281 20.539062 C 26.03125 20.472656 26.703125 20.433594 27.359375 20.382812 C 28.175781 22.613281 28.980469 24.847656 29.789062 27.0625 L 29.816406 27.0625 C 30.585938 24.746094 31.363281 22.4375 32.148438 20.128906 C 32.765625 20.105469 33.386719 20.085938 33.992188 20.058594 C 32.960938 22.984375 31.9375 25.925781 30.90625 28.871094 C 30.140625 28.914062 29.371094 28.960938 28.617188 29.015625 C 27.539062 26.179688 26.449219 23.359375 25.363281 20.539062 "/>
        <path style=" stroke:none;fill-rule:nonzero;fill:rgb(100%,100%,100%);fill-opacity:1;"
              d="M 35.386719 20.027344 C 37.222656 19.984375 39.054688 19.960938 40.890625 19.972656 C 40.898438 20.425781 40.890625 20.875 40.898438 21.339844 C 39.679688 21.324219 38.472656 21.339844 37.269531 21.351562 L 37.269531 23.480469 C 38.378906 23.472656 39.492188 23.464844 40.597656 23.464844 C 40.589844 23.917969 40.589844 24.371094 40.597656 24.824219 C 39.492188 24.824219 38.378906 24.835938 37.269531 24.847656 L 37.269531 27.277344 C 38.492188 27.261719 39.710938 27.246094 40.929688 27.246094 L 40.929688 28.613281 C 39.085938 28.613281 37.25 28.632812 35.398438 28.679688 C 35.398438 25.796875 35.398438 22.910156 35.386719 20.027344 "/>
        <path style=" stroke:none;fill-rule:nonzero;fill:rgb(100%,100%,100%);fill-opacity:1;"
              d="M 44.441406 23.710938 C 44.636719 23.71875 44.84375 23.71875 45.042969 23.722656 C 45.976562 23.746094 47.035156 23.660156 47.035156 22.578125 C 47.035156 21.535156 45.992188 21.414062 45.050781 21.394531 C 44.84375 21.382812 44.636719 21.382812 44.441406 21.375 Z M 42.566406 19.984375 C 43.238281 19.992188 43.910156 20.003906 44.589844 20.015625 C 46.597656 20.050781 48.984375 20.09375 48.976562 22.507812 C 48.964844 23.527344 48.246094 24.339844 47.050781 24.445312 L 47.050781 24.472656 C 47.558594 24.527344 47.859375 25.011719 48.027344 25.402344 C 48.535156 26.554688 49.03125 27.714844 49.53125 28.871094 C 48.832031 28.835938 48.140625 28.796875 47.441406 28.773438 C 47.070312 27.851562 46.703125 26.933594 46.324219 26.027344 C 46.0625 25.371094 45.824219 25.113281 45.042969 25.085938 C 44.832031 25.085938 44.636719 25.078125 44.441406 25.078125 C 44.433594 26.273438 44.433594 27.472656 44.425781 28.671875 C 43.8125 28.652344 43.191406 28.640625 42.566406 28.640625 Z M 42.566406 19.984375 "/>
        <path style=" stroke:none;fill-rule:nonzero;fill:rgb(100%,100%,100%);fill-opacity:1;"
              d="M 55.527344 22.171875 C 54.960938 21.886719 54.347656 21.714844 53.722656 21.660156 C 53.121094 21.613281 52.324219 21.828125 52.324219 22.765625 C 52.3125 24.269531 56.207031 23.929688 56.191406 26.878906 C 56.191406 28.792969 54.652344 29.371094 52.859375 29.238281 C 51.886719 29.160156 51.46875 29.011719 50.589844 28.746094 C 50.644531 28.226562 50.699219 27.707031 50.761719 27.191406 C 51.367188 27.558594 52.050781 27.789062 52.757812 27.855469 C 53.4375 27.902344 54.332031 27.640625 54.335938 26.855469 C 54.335938 25.179688 50.464844 25.597656 50.472656 22.734375 C 50.480469 20.789062 52.023438 20.160156 53.582031 20.273438 C 54.308594 20.3125 55.019531 20.476562 55.691406 20.746094 C 55.644531 21.226562 55.574219 21.699219 55.527344 22.171875 "/>
        <path style=" stroke:none;fill-rule:nonzero;fill:rgb(100%,100%,100%);fill-opacity:1;"
              d="M 57.503906 20.75 C 58.09375 20.8125 58.699219 20.871094 59.285156 20.941406 C 59.253906 23.855469 59.253906 26.769531 59.230469 29.679688 C 58.628906 29.617188 58.042969 29.550781 57.460938 29.492188 C 57.476562 26.582031 57.488281 23.664062 57.503906 20.75 "/>
        <path style=" stroke:none;fill-rule:nonzero;fill:rgb(100%,100%,100%);fill-opacity:1;"
              d="M 62.976562 22.78125 C 62.132812 22.671875 61.296875 22.550781 60.457031 22.453125 C 60.457031 21.992188 60.46875 21.535156 60.46875 21.074219 C 62.75 21.355469 65.015625 21.707031 67.277344 22.125 C 67.277344 22.589844 67.277344 23.03125 67.269531 23.492188 C 66.433594 23.335938 65.59375 23.1875 64.746094 23.0625 C 64.722656 25.5 64.714844 27.933594 64.691406 30.378906 C 64.109375 30.296875 63.519531 30.207031 62.925781 30.128906 C 62.949219 27.691406 62.957031 25.242188 62.976562 22.78125 "/>
        <path style=" stroke:none;fill-rule:nonzero;fill:rgb(100%,100%,100%);fill-opacity:1;"
              d="M 70.90625 28.050781 C 69.914062 26.132812 68.929688 24.195312 67.925781 22.246094 C 68.585938 22.390625 69.246094 22.527344 69.886719 22.671875 C 70.527344 24.015625 71.167969 25.355469 71.820312 26.683594 C 72.484375 25.652344 73.15625 24.644531 73.828125 23.671875 C 74.425781 23.832031 75.007812 24.011719 75.59375 24.183594 C 74.566406 25.578125 73.558594 26.988281 72.578125 28.414062 C 72.5625 29.519531 72.546875 30.625 72.546875 31.734375 C 71.992188 31.621094 71.433594 31.511719 70.871094 31.410156 C 70.886719 30.292969 70.894531 29.175781 70.90625 28.050781 "/>
        <g clip-path="url(#clip1)" clip-rule="nonzero">
            <g clip-path="url(#clip2)" clip-rule="nonzero">
                <path style=" stroke:none;fill-rule:nonzero;fill:rgb(100%,100%,100%);fill-opacity:1;"
                      d="M 65.617188 87.015625 C 64.238281 86.828125 62.925781 86.566406 61.667969 86.261719 C 58.550781 81.371094 54.277344 77.3125 49.222656 74.433594 C 55.015625 75.074219 60.875 74.316406 66.304688 72.222656 C 67.507812 72.710938 68.722656 73.269531 69.945312 73.933594 C 75.214844 76.773438 79.664062 80.746094 82.890625 85.394531 C 77.515625 87.238281 71.558594 87.828125 65.617188 87.015625 M 62.753906 90.929688 C 65.335938 96.300781 66.574219 102.109375 66.445312 107.765625 C 60.996094 106.109375 55.835938 103.125 51.507812 99.003906 C 50.535156 98.082031 49.617188 97.109375 48.761719 96.082031 C 49.125 90.308594 48.074219 84.53125 45.691406 79.25 C 49.988281 83.160156 55.179688 85.964844 60.8125 87.421875 C 61.523438 88.558594 62.171875 89.730469 62.753906 90.929688 M 47.46875 94.472656 C 42.027344 87.230469 40.898438 79.953125 40.695312 76.492188 C 41.277344 76.40625 41.851562 76.226562 42.375 75.949219 C 44.257812 78.878906 47.625 85.433594 47.46875 94.472656 M 46.867188 100.496094 C 45.769531 106.4375 43.285156 111.941406 39.753906 116.476562 C 36.273438 111.902344 33.832031 106.378906 32.800781 100.425781 C 32.582031 99.191406 32.433594 97.945312 32.347656 96.695312 C 36.136719 92.191406 38.753906 86.832031 39.964844 81.089844 C 41.144531 86.757812 43.683594 92.054688 47.378906 96.53125 C 47.28125 97.863281 47.109375 99.183594 46.867188 100.496094 M 37.53125 75.929688 C 38.0625 76.21875 38.648438 76.40625 39.242188 76.492188 C 39.019531 79.992188 37.859375 87.367188 32.261719 94.65625 C 32.121094 85.484375 35.609375 78.863281 37.53125 75.929688 M 30.960938 96.246094 C 30.132812 97.195312 29.261719 98.105469 28.351562 98.976562 C 23.953125 103.128906 18.683594 106.15625 13.148438 107.765625 C 13.035156 102.023438 14.335938 96.136719 17.007812 90.714844 C 17.59375 89.546875 18.210938 88.453125 18.847656 87.421875 C 24.527344 86.007812 29.769531 83.234375 34.117188 79.34375 C 31.703125 84.640625 30.621094 90.441406 30.960938 96.246094 M 14.273438 86.949219 C 8.25 87.75 2.203125 87.117188 -3.238281 85.195312 C 0.0664062 80.484375 4.601562 76.46875 9.980469 73.644531 C 11.132812 73.03125 12.277344 72.507812 13.40625 72.054688 C 18.839844 74.214844 24.722656 75.027344 30.542969 74.421875 C 25.457031 77.292969 21.152344 81.355469 18.003906 86.253906 C 16.773438 86.550781 15.527344 86.785156 14.273438 86.949219 M 9.980469 68.996094 C 4.632812 66.132812 0.121094 62.101562 -3.140625 57.367188 C 2.304688 55.484375 8.355469 54.878906 14.367188 55.722656 C 15.621094 55.902344 16.867188 56.140625 18.101562 56.4375 C 21.21875 61.355469 25.492188 65.449219 30.558594 68.355469 C 26.21875 67.867188 20.140625 68.011719 13.410156 70.621094 C 12.238281 70.132812 11.097656 69.589844 9.980469 68.996094 M 17.128906 51.976562 C 14.492188 46.53125 13.21875 40.628906 13.375 34.902344 C 18.90625 36.550781 24.148438 39.59375 28.527344 43.785156 C 29.472656 44.6875 30.332031 45.609375 31.121094 46.535156 C 30.730469 52.335938 31.777344 58.140625 34.164062 63.449219 C 29.828125 59.539062 24.605469 56.734375 18.9375 55.277344 C 18.304688 54.246094 17.703125 53.144531 17.128906 51.976562 M 32.398438 48.128906 C 37.960938 55.460938 39.074219 62.847656 39.269531 66.339844 C 38.667969 66.417969 38.085938 66.605469 37.550781 66.886719 C 35.652344 63.9375 32.203125 57.304688 32.398438 48.128906 M 32.980469 42.355469 C 34.058594 36.414062 36.519531 30.898438 40.035156 26.351562 C 43.542969 30.914062 45.992188 36.429688 47.050781 42.382812 C 47.269531 43.617188 47.425781 44.863281 47.519531 46.117188 C 43.777344 50.585938 41.191406 55.898438 39.980469 61.582031 C 38.796875 55.890625 36.230469 50.574219 32.503906 46.089844 C 32.597656 44.882812 32.746094 43.632812 32.980469 42.355469 M 42.40625 66.894531 C 41.875 66.605469 41.292969 66.417969 40.695312 66.335938 C 40.886719 62.832031 42.027344 55.460938 47.605469 48.148438 C 47.78125 57.324219 44.316406 63.957031 42.40625 66.894531 M 48.894531 46.558594 C 49.691406 45.636719 50.554688 44.71875 51.492188 43.8125 C 55.882812 39.632812 61.144531 36.613281 66.667969 34.980469 C 66.800781 40.710938 65.527344 46.605469 62.871094 52.039062 C 62.277344 53.238281 61.621094 54.402344 60.910156 55.535156 C 55.265625 56.964844 50.058594 59.734375 45.730469 63.609375 C 48.179688 58.269531 49.265625 52.414062 48.894531 46.558594 M 45.0625 70.546875 C 48.445312 69.691406 55.765625 68.546875 64.375 71.492188 C 55.746094 74.378906 48.429688 73.1875 45.0625 72.300781 C 45.160156 71.71875 45.160156 71.125 45.0625 70.546875 M 44.140625 74.457031 C 44.316406 74.210938 44.472656 73.953125 44.605469 73.679688 C 47.859375 74.960938 54.453125 78.296875 59.671875 85.707031 C 50.976562 83.015625 45.769531 77.785156 43.570312 75.101562 C 43.769531 74.90625 43.960938 74.691406 44.140625 74.457031 M 43.585938 67.746094 C 45.808594 65.078125 51.058594 59.878906 59.753906 57.246094 C 54.484375 64.617188 47.871094 67.910156 44.617188 69.164062 C 44.351562 68.640625 44.003906 68.160156 43.585938 67.746094 M 36.902344 69.164062 C 37.691406 68.019531 39.042969 67.394531 40.433594 67.535156 C 41.824219 67.671875 43.027344 68.554688 43.570312 69.828125 C 44.113281 71.109375 43.910156 72.578125 43.046875 73.664062 C 41.792969 75.351562 39.402344 75.714844 37.699219 74.472656 C 36.007812 73.222656 35.648438 70.851562 36.902344 69.164062 M 20.070312 56.988281 C 28.894531 59.679688 34.179688 65 36.394531 67.714844 C 36.179688 67.917969 35.984375 68.140625 35.8125 68.378906 C 35.628906 68.625 35.464844 68.886719 35.332031 69.160156 C 32.050781 67.882812 25.335938 64.515625 20.070312 56.988281 M 35.316406 73.644531 C 35.570312 74.175781 35.929688 74.671875 36.367188 75.089844 C 34.132812 77.800781 28.828125 83.089844 19.984375 85.726562 C 25.304688 78.230469 32.03125 74.902344 35.316406 73.644531 M 34.886719 72.296875 C 31.476562 73.175781 24.050781 74.367188 15.324219 71.339844 C 24.066406 68.375 31.484375 69.609375 34.890625 70.507812 C 34.785156 71.101562 34.785156 71.703125 34.886719 72.296875 M 65.726562 55.96875 C 71.667969 55.199219 77.613281 55.824219 82.992188 57.6875 C 79.707031 62.328125 75.246094 66.277344 69.964844 69.082031 C 68.78125 69.714844 67.558594 70.28125 66.3125 70.773438 C 60.894531 68.640625 55.039062 67.84375 49.246094 68.457031 C 53.035156 66.339844 57.851562 62.703125 61.761719 56.707031 C 63.015625 56.402344 64.339844 56.15625 65.726562 55.96875 M 70.597656 72.753906 C 69.761719 72.308594 68.90625 71.890625 68.042969 71.5 C 68.886719 71.125 69.738281 70.722656 70.597656 70.265625 C 76.171875 67.304688 80.871094 63.109375 84.289062 58.191406 C 84.542969 57.804688 84.796875 57.4375 85.035156 57.046875 C 84.621094 56.871094 84.191406 56.710938 83.757812 56.558594 C 78.097656 54.519531 71.820312 53.832031 65.558594 54.644531 C 64.585938 54.769531 63.648438 54.933594 62.742188 55.117188 C 63.210938 54.328125 63.660156 53.492188 64.074219 52.625 C 66.882812 46.898438 68.210938 40.667969 68.003906 34.613281 C 67.996094 34.160156 67.972656 33.707031 67.9375 33.253906 C 67.496094 33.359375 67.054688 33.484375 66.605469 33.609375 C 60.746094 35.28125 55.195312 38.449219 50.566406 42.847656 C 49.914062 43.464844 49.324219 44.089844 48.738281 44.707031 C 48.644531 43.875 48.53125 43.023438 48.375 42.144531 C 47.257812 35.875 44.632812 30.054688 40.902344 25.273438 C 40.628906 24.917969 40.324219 24.566406 40.039062 24.21875 C 39.738281 24.566406 39.460938 24.917969 39.179688 25.273438 C 35.421875 30.050781 32.785156 35.855469 31.65625 42.121094 C 31.5 42.96875 31.371094 43.828125 31.28125 44.6875 C 30.703125 44.058594 30.105469 43.433594 29.464844 42.824219 C 24.84375 38.398438 19.292969 35.21875 13.4375 33.523438 C 12.996094 33.398438 12.558594 33.289062 12.121094 33.171875 C 12.082031 33.625 12.058594 34.082031 12.046875 34.539062 C 11.828125 40.578125 13.132812 46.820312 15.917969 52.550781 C 16.304688 53.347656 16.714844 54.121094 17.128906 54.847656 C 16.296875 54.675781 15.449219 54.523438 14.5625 54.402344 C 8.203125 53.507812 1.824219 54.167969 -3.90625 56.214844 C -4.335938 56.371094 -4.761719 56.53125 -5.179688 56.707031 C -4.953125 57.09375 -4.695312 57.472656 -4.4375 57.847656 C -1.035156 62.871094 3.699219 67.160156 9.34375 70.171875 C 10.132812 70.597656 10.910156 70.980469 11.691406 71.328125 C 10.894531 71.679688 10.109375 72.058594 9.34375 72.464844 C 3.679688 75.449219 -1.097656 79.703125 -4.519531 84.703125 C -4.785156 85.074219 -5.035156 85.457031 -5.277344 85.84375 C -4.863281 86.015625 -4.425781 86.171875 -3.996094 86.339844 C 1.722656 88.414062 8.097656 89.125 14.453125 88.265625 C 15.335938 88.152344 16.191406 88.007812 17.023438 87.839844 C 16.589844 88.585938 16.183594 89.351562 15.804688 90.128906 C 12.984375 95.835938 11.628906 102.066406 11.808594 108.125 L 11.878906 109.488281 C 12.324219 109.378906 12.757812 109.257812 13.210938 109.128906 C 19.0625 107.484375 24.644531 104.335938 29.28125 99.945312 C 29.929688 99.328125 30.53125 98.710938 31.109375 98.089844 C 31.210938 98.925781 31.320312 99.785156 31.464844 100.652344 C 32.574219 106.933594 35.152344 112.757812 38.886719 117.550781 C 39.160156 117.90625 39.449219 118.265625 39.738281 118.613281 C 40.039062 118.265625 40.324219 117.90625 40.613281 117.550781 C 44.382812 112.800781 47.03125 106.992188 48.191406 100.738281 C 48.359375 99.789062 48.5 98.855469 48.59375 97.945312 C 49.230469 98.640625 49.894531 99.316406 50.582031 99.96875 C 55.144531 104.320312 60.609375 107.453125 66.382812 109.144531 C 66.828125 109.265625 67.269531 109.390625 67.714844 109.507812 C 67.742188 109.042969 67.769531 108.597656 67.78125 108.136719 C 67.976562 102.164062 66.695312 96.027344 63.964844 90.363281 C 63.542969 89.488281 63.097656 88.652344 62.640625 87.851562 C 63.542969 88.039062 64.472656 88.207031 65.433594 88.34375 C 71.703125 89.199219 77.992188 88.550781 83.667969 86.546875 C 84.101562 86.390625 84.53125 86.238281 84.945312 86.070312 C 84.703125 85.675781 84.453125 85.296875 84.191406 84.929688 C 80.832031 79.976562 76.148438 75.753906 70.597656 72.753906 "/>
            </g>
        </g>
    </g>
</svg>
