<svg xmlns="http://www.w3.org/2000/svg" xmlns:xlink="http://www.w3.org/1999/xlink"
     viewBox="0 0 115.105 136.598">
    <defs>
        <clipPath id="clip-path">
            <rect id="Rectangle_16" data-name="Rectangle 16" width="54.211" height="64.333" fill="#6cb7c7"/>
        </clipPath>
        <clipPath id="clip-path-2">
            <rect id="Rectangle_16-2" data-name="Rectangle 16" width="115.105" height="136.598" fill="#6cb7c7"/>
        </clipPath>
    </defs>
    <g id="Group_76" data-name="Group 76" transform="translate(89.72 41.193) rotate(90)" opacity="0.15">
        <g id="Group_71" data-name="Group 71" clip-path="url(#clip-path)">
            <path id="Path_41" data-name="Path 41"
                  d="M28.137,64.333l-.24-.45a4.239,4.239,0,0,1-1.713-.653c-1.716-.875-3.452-1.711-5.179-2.566-.471-.233-.927-.5-1.4-.715a1.972,1.972,0,0,1-1.135-1.426,7.081,7.081,0,0,1-.161-1.349c-.089-2.381-.16-4.762-.243-7.143a2.28,2.28,0,0,0-.09-.405,1.135,1.135,0,0,0-.992.27c-1.171.829-2.345,1.655-3.533,2.46-.925.627-1.874,1.221-2.813,1.829a1.192,1.192,0,0,1-1.458.031,12.027,12.027,0,0,0-1.123-.569c-1.078-.583-2.158-1.163-3.222-1.77-1-.574-1.99-1.178-2.981-1.775C1.376,49.816.909,49.513.4,49.2c.028-3.881.056-7.728.084-11.581L8.1,32.861A5.071,5.071,0,0,0,6.7,31.749Q3.7,30,.718,28.229c-.238-.14-.459-.308-.677-.456C.025,27.593,0,27.454,0,27.316c.01-3.329.035-6.659.023-9.988a1.523,1.523,0,0,1,.843-1.434c2.478-1.52,4.937-3.073,7.4-4.618.354-.222.7-.466,1.082-.727a5.667,5.667,0,0,1,.653.271c.886.5,1.764,1.007,2.645,1.513a36.4,36.4,0,0,1,3.71,2.173,2.014,2.014,0,0,0,1.3.433c.025-.227.064-.428.067-.629.026-2.523.066-5.045.061-7.568A2.284,2.284,0,0,1,18.7,4.835a9.638,9.638,0,0,1,1.034-.721c1.621-.973,3.245-1.943,4.881-2.892C25.31.819,26.036.47,26.8.068A4.406,4.406,0,0,0,27.08.5a3.062,3.062,0,0,0,.346.308L27.739,0a1.149,1.149,0,0,1,.34.051c.892.484,1.78.976,2.669,1.468,1.593.882,3.183,1.772,4.78,2.646,1.712.937,1.424.844,1.489,2.313q.135,3.045.24,6.091c.015.453-.05.909-.05,1.364a.408.408,0,0,0,.652.379q1.568-.855,3.115-1.748,1.275-.733,2.532-1.5a6.113,6.113,0,0,1,1.933-.77c2.945,1.759,5.8,3.78,8.774,5.608v2.435l-.063.012-.191-.766c0,2.556,0,4.862,0,7.167,0,.49-.06.98-.065,1.469a1.585,1.585,0,0,1-.95,1.4c-.726.422-1.452.846-2.168,1.284-.926.566-1.852,1.134-2.759,1.73-.285.186-.476.584-.771.666a5.108,5.108,0,0,0-.888.242,1.61,1.61,0,0,0-.287.258,6.489,6.489,0,0,0,1,.577,21.9,21.9,0,0,1,3.407,1.848c.667.383,1.34.756,1.993,1.162.561.349,1.1.738,1.672,1.128,0,.353,0,.666,0,.979-.009,2.944-.04,5.888-.011,8.831a1.845,1.845,0,0,1-.871,1.673c-.839.573-1.688,1.13-2.536,1.69a2.619,2.619,0,0,0-.364.207c-1.288,1.214-2.974,1.849-4.322,2.973a1.117,1.117,0,0,1-1.442.061c-1.111-.665-2.245-1.292-3.375-1.927-.271-.152-.567-.262-.84-.41a9.527,9.527,0,0,1-.895-.534,8.357,8.357,0,0,0-2.035-.978,4.371,4.371,0,0,0-.135.736q-.007,3.573.01,7.146A2.962,2.962,0,0,1,37,58.474a2.494,2.494,0,0,1-.74.872c-.316.22-.623.455-.945.666q-2.285,1.5-4.578,2.983a11.954,11.954,0,0,1-2.6,1.338M20.508,6.676,20.5,6.67c-.286.243-.221.569-.2.88a14.582,14.582,0,0,1,.139,2.3,35.177,35.177,0,0,0,.03,4.807c.052,1.363.019,2.73.016,4.095,0,.237.021.5-.275.655a2.738,2.738,0,0,1-1.01-.465c-1.294-.769-2.584-1.544-3.9-2.277-1.742-.973-3.511-1.9-5.251-2.871a1.048,1.048,0,0,0-1.249,0,24.49,24.49,0,0,1-2.882,1.719c-.953.454-1.788,1.091-2.721,1.565a1.507,1.507,0,0,0-.746.845,2.989,2.989,0,0,0,.062,1.759l.132-.662c.065.591.3,1.188-.188,1.711-.117.126-.1.4-.1.608,0,1.5.012,3.006.021,4.508,0,.032.026.064.06.143a5.033,5.033,0,0,0,1.363.864c1.406.779,2.785,1.6,4.174,2.413l4.937,2.875.191.723c-.612.423-1.173.84-1.762,1.212-1.331.838-2.683,1.646-4.016,2.482-1.275.8-2.531,1.629-3.811,2.421a1.006,1.006,0,0,0-.547,1.032c.057.7.084,1.4.106,2.1.046,1.467.082,2.935.119,4.4A2.647,2.647,0,0,0,3.319,47.7,73.628,73.628,0,0,0,9.848,51.39c.193-.114.345-.2.491-.29q3.111-1.954,6.218-3.912c.651-.411,1.277-.868,1.945-1.246s1.408-.7,2.11-1.048l.348.311-.015-.016c-.062.591-.144,1.181-.181,1.774a19.576,19.576,0,0,0,.077,3.944q.041-.88.083-1.76c.032.946.035,1.89.03,2.833a11.938,11.938,0,0,0-.021,1.467,19.515,19.515,0,0,1,0,3.252c-.012.242,0,.484,0,.748.186.109.361.222.544.317q2.8,1.447,5.6,2.884a1.007,1.007,0,0,0,.486.093c.221-.01.31.121.39.276.109.21.206.428.337.7.459-.3.875-.554,1.268-.838a35.421,35.421,0,0,1,4.086-2.571,3.9,3.9,0,0,0,1.279-1.034c0-1.271,0-2.6,0-3.929.006-1.366,0-2.733.043-4.1.045-1.316-.131-2.639.045-4.009a4.236,4.236,0,0,1,1.6.607c.694.408,1.377.832,2.067,1.247a4.188,4.188,0,0,1,.806.487,4.05,4.05,0,0,0,1.575.794,12.793,12.793,0,0,1,3.236,1.7,1.343,1.343,0,0,0,1.957.024q1.671-1.183,3.359-2.344c.519-.357,1.057-.687,1.589-1.024a1.324,1.324,0,0,0,.66-1.126c.019-.49.072-.98.059-1.468a35.99,35.99,0,0,1,.015-3.878c.054-.658.01-1.325.01-2-.727-.479-1.417-.954-2.128-1.4-.384-.238-.81-.409-1.207-.629-1.316-.727-2.634-1.452-3.939-2.2-.636-.364-1.251-.768-1.866-1.168a1.321,1.321,0,0,1-.72-1.106c-.22-.224-.574-.035-.669-.447l.506-.265c.742-.389,1.506-.743,2.222-1.175,1.92-1.155,3.817-2.346,5.728-3.516,1.752-1.073,1.642-.69,1.645-2.863,0-1.364-.074-2.728-.094-4.093-.008-.524.034-1.049.065-1.573a1.017,1.017,0,0,0-.384-.92,19.728,19.728,0,0,0-2.7-1.8c-.724-.423-1.436-.865-2.151-1.3-.354-.218-.7-.448-1.048-.672-.266.137-.487.239-.7.361q-2.451,1.425-4.9,2.856c-.362.211-.732.409-1.09.629-1.193.732-2.38,1.475-3.576,2.2a2.5,2.5,0,0,1-.514.166c-.011-.214-.027-.35-.023-.485.045-1.47.106-2.939.136-4.408.022-1.086-.063-2.177.022-3.256.106-1.337-.067-2.657-.084-3.984a1.061,1.061,0,0,0-.641-.986c-1.338-.753-2.655-1.544-3.974-2.328-.631-.376-1.251-.773-1.878-1.156-.112-.068-.3-.188-.35-.151-.311.255-.511-.117-.817-.1-.22.156-.477.331-.725.518a18.907,18.907,0,0,1-3.623,2.294,4.924,4.924,0,0,0-1.964,1.366"
                  fill="#6cb7c7"/>
        </g>
    </g>
    <g id="Group_77" data-name="Group 77" opacity="0.15">
        <g id="Group_71-2" data-name="Group 71" clip-path="url(#clip-path-2)">
            <path id="Path_41-2" data-name="Path 41"
                  d="M59.744,136.6l-.509-.955a9,9,0,0,1-3.637-1.386c-3.644-1.858-7.33-3.633-11-5.447-1-.495-1.969-1.056-2.982-1.517a4.188,4.188,0,0,1-2.409-3.028,15.035,15.035,0,0,1-.342-2.863c-.189-5.055-.339-10.112-.516-15.167a4.841,4.841,0,0,0-.192-.86,2.41,2.41,0,0,0-2.106.572c-2.487,1.761-4.979,3.515-7.5,5.223-1.965,1.332-3.98,2.592-5.972,3.882a2.531,2.531,0,0,1-3.1.066,25.537,25.537,0,0,0-2.385-1.207c-2.288-1.238-4.582-2.469-6.841-3.759-2.131-1.218-4.226-2.5-6.329-3.769-1.01-.61-2-1.252-3.077-1.927.059-8.24.119-16.408.179-24.59L17.209,69.773a10.766,10.766,0,0,0-2.988-2.362Q7.858,63.7,1.524,59.939c-.5-.3-.974-.654-1.438-.968C.052,58.589,0,58.294,0,58c.021-7.069.073-14.138.049-21.207a3.235,3.235,0,0,1,1.79-3.044C7.1,30.52,12.321,27.223,17.552,23.943c.752-.472,1.476-.989,2.3-1.543a12.034,12.034,0,0,1,1.386.576c1.881,1.055,3.746,2.139,5.616,3.213A77.291,77.291,0,0,1,34.729,30.8a4.276,4.276,0,0,0,2.769.919c.052-.481.137-.909.142-1.336.056-5.357.14-10.712.129-16.069a4.849,4.849,0,0,1,1.938-4.05,20.464,20.464,0,0,1,2.2-1.531c3.443-2.066,6.89-4.125,10.364-6.14C53.74,1.738,55.283,1,56.912.145a9.354,9.354,0,0,0,.586.917,6.5,6.5,0,0,0,.734.654L58.9,0a2.44,2.44,0,0,1,.722.108c1.894,1.028,3.78,2.073,5.667,3.117C68.668,5.1,72.044,6.987,75.435,8.843c3.634,1.99,3.024,1.792,3.162,4.911q.286,6.465.509,12.932c.033.963-.106,1.931-.107,2.9a.867.867,0,0,0,1.384.8Q83.711,28.572,87,26.675q2.708-1.557,5.376-3.187a12.98,12.98,0,0,1,4.105-1.636c6.253,3.735,12.317,8.026,18.629,11.907v5.169l-.134.025-.405-1.627c0,5.428.009,10.323-.007,15.217,0,1.04-.127,2.08-.138,3.119a3.365,3.365,0,0,1-2.018,2.964c-1.542.9-3.082,1.8-4.6,2.726-1.967,1.2-3.932,2.408-5.858,3.673-.6.4-1.011,1.24-1.637,1.413a10.845,10.845,0,0,0-1.886.514,3.418,3.418,0,0,0-.61.548,13.779,13.779,0,0,0,2.121,1.224,46.5,46.5,0,0,1,7.233,3.923c1.416.814,2.845,1.606,4.231,2.468,1.191.741,2.329,1.568,3.55,2.4,0,.75,0,1.414,0,2.078-.019,6.251-.085,12.5-.024,18.752a3.918,3.918,0,0,1-1.85,3.551c-1.781,1.217-3.584,2.4-5.384,3.589a5.561,5.561,0,0,0-.774.439c-2.735,2.577-6.315,3.926-9.177,6.313a2.373,2.373,0,0,1-3.061.13c-2.36-1.411-4.767-2.744-7.166-4.091-.576-.323-1.2-.556-1.783-.871a20.23,20.23,0,0,1-1.9-1.133,17.744,17.744,0,0,0-4.321-2.076,9.282,9.282,0,0,0-.286,1.563q-.015,7.587.02,15.173a6.29,6.29,0,0,1-.682,3.228,5.3,5.3,0,0,1-1.57,1.851c-.67.468-1.322.965-2.007,1.414q-4.853,3.178-9.719,6.334a25.383,25.383,0,0,1-5.515,2.841M43.545,14.176l-.02-.013c-.607.516-.47,1.209-.429,1.868a30.962,30.962,0,0,1,.295,4.887,74.69,74.69,0,0,0,.064,10.207c.11,2.9.041,5.8.034,8.694,0,.5.044,1.057-.583,1.391a5.813,5.813,0,0,1-2.143-.987c-2.747-1.632-5.486-3.277-8.274-4.835-3.7-2.067-7.454-4.026-11.149-6.1a2.226,2.226,0,0,0-2.651.01,52,52,0,0,1-6.12,3.65c-2.024.964-3.8,2.316-5.777,3.323a3.2,3.2,0,0,0-1.584,1.795A6.346,6.346,0,0,0,5.336,41.8L5.617,40.4c.138,1.256.631,2.522-.4,3.633C4.968,44.3,5,44.884,5,45.323c0,3.191.025,6.382.045,9.573,0,.068.055.136.128.3a10.687,10.687,0,0,0,2.894,1.835c2.984,1.655,5.914,3.406,8.864,5.122,3.519,2.047,7.035,4.1,10.483,6.105.154.582.279,1.057.4,1.535-1.3.9-2.49,1.784-3.742,2.573-2.827,1.78-5.7,3.495-8.528,5.269-2.707,1.7-5.374,3.459-8.091,5.141A2.136,2.136,0,0,0,6.3,84.971c.121,1.48.178,2.968.224,4.453.1,3.116.174,6.233.253,9.349a5.62,5.62,0,0,0,.271,2.5,156.333,156.333,0,0,0,13.862,7.845c.411-.242.732-.42,1.043-.616q6.605-4.149,13.2-8.305c1.383-.873,2.71-1.842,4.131-2.646,1.452-.82,2.99-1.492,4.48-2.225l.738.661-.031-.034c-.132,1.256-.306,2.508-.385,3.767a41.566,41.566,0,0,0,.163,8.375q.087-1.868.176-3.737c.068,2.009.075,4.012.064,6.015a25.349,25.349,0,0,0-.044,3.116,41.436,41.436,0,0,1,0,6.9c-.025.513,0,1.027,0,1.588.394.231.766.471,1.154.673q5.942,3.072,11.893,6.123a2.139,2.139,0,0,0,1.032.2c.469-.022.658.257.828.586.231.447.437.908.716,1.5.974-.64,1.857-1.176,2.692-1.779a75.209,75.209,0,0,1,8.676-5.46,8.284,8.284,0,0,0,2.716-2.195c0-2.7-.011-5.521,0-8.342.013-2.9-.007-5.8.092-8.7.1-2.8-.278-5.6.1-8.512a8.994,8.994,0,0,1,3.395,1.289c1.473.866,2.924,1.767,4.389,2.649a8.892,8.892,0,0,1,1.712,1.034,8.6,8.6,0,0,0,3.344,1.686,27.163,27.163,0,0,1,6.87,3.6c1.624,1.2,2.465,1.245,4.155.05q3.548-2.512,7.132-4.977c1.1-.758,2.243-1.458,3.374-2.175a2.81,2.81,0,0,0,1.4-2.39c.04-1.04.153-2.08.125-3.117a76.42,76.42,0,0,1,.032-8.233c.114-1.4.02-2.813.02-4.251-1.543-1.017-3.008-2.026-4.517-2.963-.816-.506-1.72-.869-2.563-1.334-2.794-1.544-5.592-3.082-8.363-4.669-1.351-.774-2.657-1.63-3.962-2.481a2.8,2.8,0,0,1-1.53-2.348c-.466-.475-1.22-.075-1.42-.949.334-.174.7-.367,1.075-.563,1.576-.827,3.2-1.578,4.719-2.494,4.076-2.452,8.1-4.981,12.161-7.466,3.721-2.278,3.487-1.466,3.492-6.079,0-2.9-.156-5.793-.2-8.691-.017-1.112.072-2.227.139-3.339a2.16,2.16,0,0,0-.815-1.954,41.888,41.888,0,0,0-5.741-3.819c-1.537-.9-3.05-1.836-4.567-2.768-.751-.462-1.485-.951-2.225-1.426-.564.291-1.033.508-1.478.766q-5.2,3.026-10.4,6.065c-.769.449-1.555.869-2.315,1.334-2.533,1.555-5.054,3.132-7.592,4.68a5.312,5.312,0,0,1-1.091.353c-.023-.455-.058-.743-.049-1.029.1-3.12.225-6.24.29-9.36.046-2.305-.134-4.623.047-6.914.226-2.839-.142-5.641-.178-8.46a2.253,2.253,0,0,0-1.362-2.093c-2.84-1.6-5.636-3.278-8.439-4.943-1.341-.8-2.656-1.642-3.988-2.453-.238-.144-.647-.4-.744-.321-.66.542-1.085-.249-1.735-.215-.466.332-1.012.7-1.538,1.1a40.145,40.145,0,0,1-7.693,4.872,10.455,10.455,0,0,0-4.17,2.9"
                  fill="#6cb7c7"/>
        </g>
    </g>
</svg>
