<svg width="24" height="24" viewBox="0 0 24 24" fill="none" xmlns="http://www.w3.org/2000/svg">
<path d="M11.3201 3H5.0901C3.1001 3 2.1001 4.01 2.1001 6.02V22H7.5001V18.25C7.5001 17.84 7.8401 17.5 8.2501 17.5C8.6601 17.5 9.0001 17.83 9.0001 18.25V22H14.3001V6.02C14.3001 4.01 13.3101 3 11.3201 3ZM10.7501 12.75H5.8001C5.3901 12.75 5.0501 12.41 5.0501 12C5.0501 11.59 5.3901 11.25 5.8001 11.25H10.7501C11.1601 11.25 11.5001 11.59 11.5001 12C11.5001 12.41 11.1601 12.75 10.7501 12.75ZM10.7501 9H5.8001C5.3901 9 5.0501 8.66 5.0501 8.25C5.0501 7.84 5.3901 7.5 5.8001 7.5H10.7501C11.1601 7.5 11.5001 7.84 11.5001 8.25C11.5001 8.66 11.1601 9 10.7501 9Z" fill="currentColor"/>
<path d="M23 21.2511H20.73V18.2511C21.68 17.9411 22.37 17.0511 22.37 16.0011V14.0011C22.37 12.6911 21.3 11.6211 19.99 11.6211C18.68 11.6211 17.61 12.6911 17.61 14.0011V16.0011C17.61 17.0411 18.29 17.9211 19.22 18.2411V21.2511H1C0.59 21.2511 0.25 21.5911 0.25 22.0011C0.25 22.4111 0.59 22.7511 1 22.7511H19.93C19.95 22.7511 19.96 22.7611 19.98 22.7611C20 22.7611 20.01 22.7511 20.03 22.7511H23C23.41 22.7511 23.75 22.4111 23.75 22.0011C23.75 21.5911 23.41 21.2511 23 21.2511Z" fill="currentColor"/>
</svg>
